<svg class="main-svg" xmlns="http://www.w3.org/2000/svg" xmlns:xlink="http://www.w3.org/1999/xlink" width="900" height="600" style="" viewBox="0 0 900 600"><rect x="0" y="0" width="900" height="600" style="fill: rgb(255, 255, 255); fill-opacity: 1;"/><defs id="defs-37124e"><g class="clips"><clipPath id="clip37124exyplot" class="plotclip"><rect width="625" height="480"/></clipPath><clipPath class="axesclip" id="clip37124ex"><rect x="130" y="0" width="625" height="600"/></clipPath><clipPath class="axesclip" id="clip37124ey"><rect x="0" y="50" width="900" height="480"/></clipPath><clipPath class="axesclip" id="clip37124exy"><rect x="130" y="50" width="625" height="480"/></clipPath></g><g class="gradients"/></defs><g class="bglayer"/><g class="layer-below"><g class="imagelayer"/><g class="shapelayer"/></g><g class="cartesianlayer"><g class="subplot xy"><g class="layer-subplot"><g class="shapelayer"/><g class="imagelayer"/></g><g class="gridlayer"><g class="x"/><g class="y"><path class="ygrid crisp" transform="translate(0,502.95)" d="M130,0h625" style="stroke: rgb(153, 153, 153); stroke-opacity: 1; stroke-width: 1px;"/><path class="ygrid crisp" transform="translate(0,452.86)" d="M130,0h625" style="stroke: rgb(153, 153, 153); stroke-opacity: 1; stroke-width: 1px;"/><path class="ygrid crisp" transform="translate(0,402.78)" d="M130,0h625" style="stroke: rgb(153, 153, 153); stroke-opacity: 1; stroke-width: 1px;"/><path class="ygrid crisp" transform="translate(0,352.7)" d="M130,0h625" style="stroke: rgb(153, 153, 153); stroke-opacity: 1; stroke-width: 1px;"/><path class="ygrid crisp" transform="translate(0,302.62)" d="M130,0h625" style="stroke: rgb(153, 153, 153); stroke-opacity: 1; stroke-width: 1px;"/><path class="ygrid crisp" transform="translate(0,252.54)" d="M130,0h625" style="stroke: rgb(153, 153, 153); stroke-opacity: 1; stroke-width: 1px;"/><path class="ygrid crisp" transform="translate(0,202.46)" d="M130,0h625" style="stroke: rgb(153, 153, 153); stroke-opacity: 1; stroke-width: 1px;"/><path class="ygrid crisp" transform="translate(0,152.38)" d="M130,0h625" style="stroke: rgb(153, 153, 153); stroke-opacity: 1; stroke-width: 1px;"/><path class="ygrid crisp" transform="translate(0,102.3)" d="M130,0h625" style="stroke: rgb(153, 153, 153); stroke-opacity: 1; stroke-width: 1px;"/><path class="ygrid crisp" transform="translate(0,52.21)" d="M130,0h625" style="stroke: rgb(153, 153, 153); stroke-opacity: 1; stroke-width: 1px;"/></g></g><g class="zerolinelayer"/><path class="xlines-below"/><path class="ylines-below"/><g class="overlines-below"/><g class="xaxislayer-below"/><g class="yaxislayer-below"/><g class="overaxes-below"/><g class="plot" transform="translate(130, 50)" clip-path="url('#clip37124exyplot')"><g class="boxlayer mlayer"><g class="trace boxes" style="opacity: 1;"><path class="box" d="M79.69,147.84H232.81M79.69,214.96H232.81V125.75H79.69ZM156.25,214.96V305.16M156.25,125.75V24M117.97,305.16H194.53M117.97,24H194.53" style="vector-effect: non-scaling-stroke; stroke-width: 2px; stroke: rgb(228, 59, 45); stroke-opacity: 1; fill: rgb(228, 59, 45); fill-opacity: 0.4;"/><g class="points"><path class="point" transform="translate(161.71,305.16)" d="M5,0A5,5 0 1,1 0,-5A5,5 0 0,1 5,0Z" style="opacity: 1; stroke-width: 0px; fill: rgb(228, 59, 45); fill-opacity: 1;"/><path class="point" transform="translate(149.75,301.22)" d="M5,0A5,5 0 1,1 0,-5A5,5 0 0,1 5,0Z" style="opacity: 1; stroke-width: 0px; fill: rgb(228, 59, 45); fill-opacity: 1;"/><path class="point" transform="translate(164.48,276.18)" d="M5,0A5,5 0 1,1 0,-5A5,5 0 0,1 5,0Z" style="opacity: 1; stroke-width: 0px; fill: rgb(228, 59, 45); fill-opacity: 1;"/><path class="point" transform="translate(147.46,266.47)" d="M5,0A5,5 0 1,1 0,-5A5,5 0 0,1 5,0Z" style="opacity: 1; stroke-width: 0px; fill: rgb(228, 59, 45); fill-opacity: 1;"/><path class="point" transform="translate(153.55,215.23)" d="M5,0A5,5 0 1,1 0,-5A5,5 0 0,1 5,0Z" style="opacity: 1; stroke-width: 0px; fill: rgb(228, 59, 45); fill-opacity: 1;"/><path class="point" transform="translate(162.05,214.68)" d="M5,0A5,5 0 1,1 0,-5A5,5 0 0,1 5,0Z" style="opacity: 1; stroke-width: 0px; fill: rgb(228, 59, 45); fill-opacity: 1;"/><path class="point" transform="translate(155.84,189.59)" d="M5,0A5,5 0 1,1 0,-5A5,5 0 0,1 5,0Z" style="opacity: 1; stroke-width: 0px; fill: rgb(228, 59, 45); fill-opacity: 1;"/><path class="point" transform="translate(159.71,180.5)" d="M5,0A5,5 0 1,1 0,-5A5,5 0 0,1 5,0Z" style="opacity: 1; stroke-width: 0px; fill: rgb(228, 59, 45); fill-opacity: 1;"/><path class="point" transform="translate(152.32,156.61)" d="M5,0A5,5 0 1,1 0,-5A5,5 0 0,1 5,0Z" style="opacity: 1; stroke-width: 0px; fill: rgb(228, 59, 45); fill-opacity: 1;"/><path class="point" transform="translate(145.03,154.66)" d="M5,0A5,5 0 1,1 0,-5A5,5 0 0,1 5,0Z" style="opacity: 1; stroke-width: 0px; fill: rgb(228, 59, 45); fill-opacity: 1;"/><path class="point" transform="translate(160.18,141.01)" d="M5,0A5,5 0 1,1 0,-5A5,5 0 0,1 5,0Z" style="opacity: 1; stroke-width: 0px; fill: rgb(228, 59, 45); fill-opacity: 1;"/><path class="point" transform="translate(151.82,139.14)" d="M5,0A5,5 0 1,1 0,-5A5,5 0 0,1 5,0Z" style="opacity: 1; stroke-width: 0px; fill: rgb(228, 59, 45); fill-opacity: 1;"/><path class="point" transform="translate(164.47,134.98)" d="M5,0A5,5 0 1,1 0,-5A5,5 0 0,1 5,0Z" style="opacity: 1; stroke-width: 0px; fill: rgb(228, 59, 45); fill-opacity: 1;"/><path class="point" transform="translate(142.22,133.98)" d="M5,0A5,5 0 1,1 0,-5A5,5 0 0,1 5,0Z" style="opacity: 1; stroke-width: 0px; fill: rgb(228, 59, 45); fill-opacity: 1;"/><path class="point" transform="translate(149.08,129.7)" d="M5,0A5,5 0 1,1 0,-5A5,5 0 0,1 5,0Z" style="opacity: 1; stroke-width: 0px; fill: rgb(228, 59, 45); fill-opacity: 1;"/><path class="point" transform="translate(167.24,121.81)" d="M5,0A5,5 0 1,1 0,-5A5,5 0 0,1 5,0Z" style="opacity: 1; stroke-width: 0px; fill: rgb(228, 59, 45); fill-opacity: 1;"/><path class="point" transform="translate(153.29,78.74)" d="M5,0A5,5 0 1,1 0,-5A5,5 0 0,1 5,0Z" style="opacity: 1; stroke-width: 0px; fill: rgb(228, 59, 45); fill-opacity: 1;"/><path class="point" transform="translate(146.6,61.11)" d="M5,0A5,5 0 1,1 0,-5A5,5 0 0,1 5,0Z" style="opacity: 1; stroke-width: 0px; fill: rgb(228, 59, 45); fill-opacity: 1;"/><path class="point" transform="translate(152.79,60.03)" d="M5,0A5,5 0 1,1 0,-5A5,5 0 0,1 5,0Z" style="opacity: 1; stroke-width: 0px; fill: rgb(228, 59, 45); fill-opacity: 1;"/><path class="point" transform="translate(156.04,24)" d="M5,0A5,5 0 1,1 0,-5A5,5 0 0,1 5,0Z" style="opacity: 1; stroke-width: 0px; fill: rgb(228, 59, 45); fill-opacity: 1;"/></g><path class="mean" d="M79.69,164.24H232.81" style="fill: none; vector-effect: non-scaling-stroke; stroke-width: 2; stroke-dasharray: 4px, 2px; stroke: rgb(228, 59, 45); stroke-opacity: 1;"/></g><g class="trace boxes" style="opacity: 1;"><path class="box" d="M392.19,306.73H545.31M392.19,358.67H545.31V263.5H392.19ZM468.75,358.67V456M468.75,263.5V140.26M430.47,456H507.03M430.47,140.26H507.03" style="vector-effect: non-scaling-stroke; stroke-width: 2px; stroke: rgb(55, 126, 183); stroke-opacity: 1; fill: rgb(55, 126, 183); fill-opacity: 0.4;"/><g class="points"><path class="point" transform="translate(473.85,456)" d="M5,0A5,5 0 1,1 0,-5A5,5 0 0,1 5,0Z" style="opacity: 1; stroke-width: 0px; fill: rgb(55, 126, 183); fill-opacity: 1;"/><path class="point" transform="translate(461.94,424)" d="M5,0A5,5 0 1,1 0,-5A5,5 0 0,1 5,0Z" style="opacity: 1; stroke-width: 0px; fill: rgb(55, 126, 183); fill-opacity: 1;"/><path class="point" transform="translate(477.63,400.16)" d="M5,0A5,5 0 1,1 0,-5A5,5 0 0,1 5,0Z" style="opacity: 1; stroke-width: 0px; fill: rgb(55, 126, 183); fill-opacity: 1;"/><path class="point" transform="translate(459.97,370.89)" d="M5,0A5,5 0 1,1 0,-5A5,5 0 0,1 5,0Z" style="opacity: 1; stroke-width: 0px; fill: rgb(55, 126, 183); fill-opacity: 1;"/><path class="point" transform="translate(466.04,361.3)" d="M5,0A5,5 0 1,1 0,-5A5,5 0 0,1 5,0Z" style="opacity: 1; stroke-width: 0px; fill: rgb(55, 126, 183); fill-opacity: 1;"/><path class="point" transform="translate(474.62,356.04)" d="M5,0A5,5 0 1,1 0,-5A5,5 0 0,1 5,0Z" style="opacity: 1; stroke-width: 0px; fill: rgb(55, 126, 183); fill-opacity: 1;"/><path class="point" transform="translate(468.3,354.29)" d="M5,0A5,5 0 1,1 0,-5A5,5 0 0,1 5,0Z" style="opacity: 1; stroke-width: 0px; fill: rgb(55, 126, 183); fill-opacity: 1;"/><path class="point" transform="translate(472.56,352.81)" d="M5,0A5,5 0 1,1 0,-5A5,5 0 0,1 5,0Z" style="opacity: 1; stroke-width: 0px; fill: rgb(55, 126, 183); fill-opacity: 1;"/><path class="point" transform="translate(463.86,312.62)" d="M5,0A5,5 0 1,1 0,-5A5,5 0 0,1 5,0Z" style="opacity: 1; stroke-width: 0px; fill: rgb(55, 126, 183); fill-opacity: 1;"/><path class="point" transform="translate(457.73,311.89)" d="M5,0A5,5 0 1,1 0,-5A5,5 0 0,1 5,0Z" style="opacity: 1; stroke-width: 0px; fill: rgb(55, 126, 183); fill-opacity: 1;"/><path class="point" transform="translate(472.38,301.57)" d="M5,0A5,5 0 1,1 0,-5A5,5 0 0,1 5,0Z" style="opacity: 1; stroke-width: 0px; fill: rgb(55, 126, 183); fill-opacity: 1;"/><path class="point" transform="translate(464.65,292.61)" d="M5,0A5,5 0 1,1 0,-5A5,5 0 0,1 5,0Z" style="opacity: 1; stroke-width: 0px; fill: rgb(55, 126, 183); fill-opacity: 1;"/><path class="point" transform="translate(476.56,288.5)" d="M5,0A5,5 0 1,1 0,-5A5,5 0 0,1 5,0Z" style="opacity: 1; stroke-width: 0px; fill: rgb(55, 126, 183); fill-opacity: 1;"/><path class="point" transform="translate(457,288.45)" d="M5,0A5,5 0 1,1 0,-5A5,5 0 0,1 5,0Z" style="opacity: 1; stroke-width: 0px; fill: rgb(55, 126, 183); fill-opacity: 1;"/><path class="point" transform="translate(462.61,275.78)" d="M5,0A5,5 0 1,1 0,-5A5,5 0 0,1 5,0Z" style="opacity: 1; stroke-width: 0px; fill: rgb(55, 126, 183); fill-opacity: 1;"/><path class="point" transform="translate(477.94,251.22)" d="M5,0A5,5 0 1,1 0,-5A5,5 0 0,1 5,0Z" style="opacity: 1; stroke-width: 0px; fill: rgb(55, 126, 183); fill-opacity: 1;"/><path class="point" transform="translate(466.22,229.66)" d="M5,0A5,5 0 1,1 0,-5A5,5 0 0,1 5,0Z" style="opacity: 1; stroke-width: 0px; fill: rgb(55, 126, 183); fill-opacity: 1;"/><path class="point" transform="translate(460.55,225.53)" d="M5,0A5,5 0 1,1 0,-5A5,5 0 0,1 5,0Z" style="opacity: 1; stroke-width: 0px; fill: rgb(55, 126, 183); fill-opacity: 1;"/><path class="point" transform="translate(465.83,179.93)" d="M5,0A5,5 0 1,1 0,-5A5,5 0 0,1 5,0Z" style="opacity: 1; stroke-width: 0px; fill: rgb(55, 126, 183); fill-opacity: 1;"/><path class="point" transform="translate(468.57,140.26)" d="M5,0A5,5 0 1,1 0,-5A5,5 0 0,1 5,0Z" style="opacity: 1; stroke-width: 0px; fill: rgb(55, 126, 183); fill-opacity: 1;"/></g><path class="mean" d="M392.19,308.68H545.31" style="fill: none; vector-effect: non-scaling-stroke; stroke-width: 2; stroke-dasharray: 4px, 2px; stroke: rgb(55, 126, 183); stroke-opacity: 1;"/></g></g></g><g class="overplot"/><path class="xlines-above crisp" d="M128,531H755" style="fill: none; stroke-width: 2px; stroke: rgb(0, 0, 0); stroke-opacity: 1;"/><path class="ylines-above crisp" d="M129,50V530" style="fill: none; stroke-width: 2px; stroke: rgb(0, 0, 0); stroke-opacity: 1;"/><g class="overlines-above"/><g class="xaxislayer-above"><path class="xtick ticks crisp" d="M0,532v5" transform="translate(286.25,0)" style="stroke: rgb(0, 0, 0); stroke-opacity: 1; stroke-width: 3px;"/><path class="xtick ticks crisp" d="M0,532v5" transform="translate(598.75,0)" style="stroke: rgb(0, 0, 0); stroke-opacity: 1; stroke-width: 3px;"/><g class="xtick"><text text-anchor="middle" x="0" y="563.4" transform="translate(286.25,0)" style="font-family: Arial; font-size: 22px; fill: rgb(0, 0, 0); fill-opacity: 1; white-space: pre;">Male</text></g><g class="xtick"><text text-anchor="middle" x="0" y="563.4" transform="translate(598.75,0)" style="font-family: Arial; font-size: 22px; fill: rgb(0, 0, 0); fill-opacity: 1; white-space: pre;">Female</text></g></g><g class="yaxislayer-above"><path class="ytick ticks crisp" d="M128,0h-5" transform="translate(0,502.95)" style="stroke: rgb(0, 0, 0); stroke-opacity: 1; stroke-width: 3px;"/><path class="ytick ticks crisp" d="M128,0h-5" transform="translate(0,452.86)" style="stroke: rgb(0, 0, 0); stroke-opacity: 1; stroke-width: 3px;"/><path class="ytick ticks crisp" d="M128,0h-5" transform="translate(0,402.78)" style="stroke: rgb(0, 0, 0); stroke-opacity: 1; stroke-width: 3px;"/><path class="ytick ticks crisp" d="M128,0h-5" transform="translate(0,352.7)" style="stroke: rgb(0, 0, 0); stroke-opacity: 1; stroke-width: 3px;"/><path class="ytick ticks crisp" d="M128,0h-5" transform="translate(0,302.62)" style="stroke: rgb(0, 0, 0); stroke-opacity: 1; stroke-width: 3px;"/><path class="ytick ticks crisp" d="M128,0h-5" transform="translate(0,252.54)" style="stroke: rgb(0, 0, 0); stroke-opacity: 1; stroke-width: 3px;"/><path class="ytick ticks crisp" d="M128,0h-5" transform="translate(0,202.46)" style="stroke: rgb(0, 0, 0); stroke-opacity: 1; stroke-width: 3px;"/><path class="ytick ticks crisp" d="M128,0h-5" transform="translate(0,152.38)" style="stroke: rgb(0, 0, 0); stroke-opacity: 1; stroke-width: 3px;"/><path class="ytick ticks crisp" d="M128,0h-5" transform="translate(0,102.3)" style="stroke: rgb(0, 0, 0); stroke-opacity: 1; stroke-width: 3px;"/><path class="ytick ticks crisp" d="M128,0h-5" transform="translate(0,52.21)" style="stroke: rgb(0, 0, 0); stroke-opacity: 1; stroke-width: 3px;"/><g class="ytick"><text text-anchor="end" x="118.6" y="7.699999999999999" transform="translate(0,502.95)" style="font-family: Arial; font-size: 22px; fill: rgb(0, 0, 0); fill-opacity: 1; white-space: pre;">17</text></g><g class="ytick"><text text-anchor="end" x="118.6" y="7.699999999999999" transform="translate(0,452.86)" style="font-family: Arial; font-size: 22px; fill: rgb(0, 0, 0); fill-opacity: 1; white-space: pre;">17.2</text></g><g class="ytick"><text text-anchor="end" x="118.6" y="7.699999999999999" transform="translate(0,402.78)" style="font-family: Arial; font-size: 22px; fill: rgb(0, 0, 0); fill-opacity: 1; white-space: pre;">17.4</text></g><g class="ytick"><text text-anchor="end" x="118.6" y="7.699999999999999" transform="translate(0,352.7)" style="font-family: Arial; font-size: 22px; fill: rgb(0, 0, 0); fill-opacity: 1; white-space: pre;">17.6</text></g><g class="ytick"><text text-anchor="end" x="118.6" y="7.699999999999999" transform="translate(0,302.62)" style="font-family: Arial; font-size: 22px; fill: rgb(0, 0, 0); fill-opacity: 1; white-space: pre;">17.8</text></g><g class="ytick"><text text-anchor="end" x="118.6" y="7.699999999999999" transform="translate(0,252.54)" style="font-family: Arial; font-size: 22px; fill: rgb(0, 0, 0); fill-opacity: 1; white-space: pre;">18</text></g><g class="ytick"><text text-anchor="end" x="118.6" y="7.699999999999999" transform="translate(0,202.46)" style="font-family: Arial; font-size: 22px; fill: rgb(0, 0, 0); fill-opacity: 1; white-space: pre;">18.2</text></g><g class="ytick"><text text-anchor="end" x="118.6" y="7.699999999999999" transform="translate(0,152.38)" style="font-family: Arial; font-size: 22px; fill: rgb(0, 0, 0); fill-opacity: 1; white-space: pre;">18.4</text></g><g class="ytick"><text text-anchor="end" x="118.6" y="7.699999999999999" transform="translate(0,102.3)" style="font-family: Arial; font-size: 22px; fill: rgb(0, 0, 0); fill-opacity: 1; white-space: pre;">18.6</text></g><g class="ytick"><text text-anchor="end" x="118.6" y="7.699999999999999" transform="translate(0,52.21)" style="font-family: Arial; font-size: 22px; fill: rgb(0, 0, 0); fill-opacity: 1; white-space: pre;">18.8</text></g></g><g class="overaxes-above"/></g></g><g class="polarlayer"/><g class="ternarylayer"/><g class="geolayer"/><g class="funnelarealayer"/><g class="pielayer"/><g class="sunburstlayer"/><g class="glimages"/><defs id="topdefs-37124e"><g class="clips"/><clipPath id="legend37124e"><rect width="129" height="81" x="1" y="1"/></clipPath></defs><g class="layer-above"><g class="imagelayer"/><g class="shapelayer"/></g><g class="infolayer"><g class="legend" pointer-events="all" transform="translate(769, 50)"><rect class="bg" shape-rendering="crispEdges" width="130" height="82" x="0.5" y="0.5" style="stroke: rgb(255, 255, 255); stroke-opacity: 1; fill: rgb(255, 255, 255); fill-opacity: 1; stroke-width: 1px;"/><g class="scrollbox" transform="translate(0, 0)" clip-path="url('#legend37124e')"><g class="groups"><g class="traces" transform="translate(1, 23.75)" style="opacity: 1;"><text class="legendtext user-select-none" text-anchor="start" x="40" y="9.75" style="font-family: Arial; font-size: 25px; fill: rgb(0, 0, 0); fill-opacity: 1; white-space: pre;">Male</text><g class="layers" style="opacity: 1;"><g class="legendfill"/><g class="legendlines"/><g class="legendsymbols"><g class="legendpoints"><path class="legendbox" d="M6,6H-6V-6H6Z" transform="translate(20,0)" style="stroke-width: 2px; fill: rgb(228, 59, 45); fill-opacity: 0.4; stroke: rgb(228, 59, 45); stroke-opacity: 1;"/></g></g></g><rect class="legendtoggle" pointer-events="all" x="0" y="-17.75" width="171" height="35.5" style="cursor: pointer; fill: rgb(0, 0, 0); fill-opacity: 0;"/></g><g class="traces" transform="translate(1, 59.25)" style="opacity: 1;"><text class="legendtext user-select-none" text-anchor="start" x="40" y="9.75" style="font-family: Arial; font-size: 25px; fill: rgb(0, 0, 0); fill-opacity: 1; white-space: pre;">Female</text><g class="layers" style="opacity: 1;"><g class="legendfill"/><g class="legendlines"/><g class="legendsymbols"><g class="legendpoints"><path class="legendbox" d="M6,6H-6V-6H6Z" transform="translate(20,0)" style="stroke-width: 2px; fill: rgb(55, 126, 183); fill-opacity: 0.4; stroke: rgb(55, 126, 183); stroke-opacity: 1;"/></g></g></g><rect class="legendtoggle" pointer-events="all" x="0" y="-17.75" width="171" height="35.5" style="cursor: pointer; fill: rgb(0, 0, 0); fill-opacity: 0;"/></g></g></g><rect class="scrollbar" rx="20" ry="3" width="0" height="0" x="0" y="0" style="fill: rgb(128, 139, 164); fill-opacity: 1;"/></g><g class="g-gtitle"><text class="gtitle" x="477" y="18" text-anchor="middle" dy="0.7em" style="font-family: Arial; font-size: 34px; fill: rgb(0, 0, 0); opacity: 1; font-weight: normal; white-space: pre;">PC (p-34:2) or PC (o-34:3)</text></g><g class="g-xtitle"/><g class="g-ytitle" transform="translate(-6.21875,0)"><text class="ytitle" transform="rotate(-90,75,290)" x="75" y="290" text-anchor="middle" style="font-family: Arial; font-size: 22px; fill: rgb(0, 0, 0); opacity: 1; font-weight: normal; white-space: pre;">Intensity</text></g></g></svg>