<svg class="main-svg" xmlns="http://www.w3.org/2000/svg" xmlns:xlink="http://www.w3.org/1999/xlink" width="900" height="600" style="" viewBox="0 0 900 600"><rect x="0" y="0" width="900" height="600" style="fill: rgb(255, 255, 255); fill-opacity: 1;"/><defs id="defs-1fd770"><g class="clips"><clipPath id="clip1fd770xyplot" class="plotclip"><rect width="625" height="480"/></clipPath><clipPath class="axesclip" id="clip1fd770x"><rect x="130" y="0" width="625" height="600"/></clipPath><clipPath class="axesclip" id="clip1fd770y"><rect x="0" y="50" width="900" height="480"/></clipPath><clipPath class="axesclip" id="clip1fd770xy"><rect x="130" y="50" width="625" height="480"/></clipPath></g><g class="gradients"/></defs><g class="bglayer"/><g class="layer-below"><g class="imagelayer"/><g class="shapelayer"/></g><g class="cartesianlayer"><g class="subplot xy"><g class="layer-subplot"><g class="shapelayer"/><g class="imagelayer"/></g><g class="gridlayer"><g class="x"/><g class="y"><path class="ygrid crisp" transform="translate(0,469.34)" d="M130,0h625" style="stroke: rgb(153, 153, 153); stroke-opacity: 1; stroke-width: 1px;"/><path class="ygrid crisp" transform="translate(0,408.88)" d="M130,0h625" style="stroke: rgb(153, 153, 153); stroke-opacity: 1; stroke-width: 1px;"/><path class="ygrid crisp" transform="translate(0,348.43)" d="M130,0h625" style="stroke: rgb(153, 153, 153); stroke-opacity: 1; stroke-width: 1px;"/><path class="ygrid crisp" transform="translate(0,287.97)" d="M130,0h625" style="stroke: rgb(153, 153, 153); stroke-opacity: 1; stroke-width: 1px;"/><path class="ygrid crisp" transform="translate(0,227.52)" d="M130,0h625" style="stroke: rgb(153, 153, 153); stroke-opacity: 1; stroke-width: 1px;"/><path class="ygrid crisp" transform="translate(0,167.06)" d="M130,0h625" style="stroke: rgb(153, 153, 153); stroke-opacity: 1; stroke-width: 1px;"/><path class="ygrid crisp" transform="translate(0,106.61)" d="M130,0h625" style="stroke: rgb(153, 153, 153); stroke-opacity: 1; stroke-width: 1px;"/></g></g><g class="zerolinelayer"/><path class="xlines-below"/><path class="ylines-below"/><g class="overlines-below"/><g class="xaxislayer-below"/><g class="yaxislayer-below"/><g class="overaxes-below"/><g class="plot" transform="translate(130, 50)" clip-path="url('#clip1fd770xyplot')"><g class="boxlayer mlayer"><g class="trace boxes" style="opacity: 1;"><path class="box" d="M79.69,143.62H232.81M79.69,191.24H232.81V101.97H79.69ZM156.25,191.24V221.65M156.25,101.97V24M117.97,221.65H194.53M117.97,24H194.53" style="vector-effect: non-scaling-stroke; stroke-width: 2px; stroke: rgb(228, 59, 45); stroke-opacity: 1; fill: rgb(228, 59, 45); fill-opacity: 0.4;"/><g class="points"><path class="point" transform="translate(164.2,221.65)" d="M5,0A5,5 0 1,1 0,-5A5,5 0 0,1 5,0Z" style="opacity: 1; stroke-width: 0px; fill: rgb(228, 59, 45); fill-opacity: 1;"/><path class="point" transform="translate(146.88,194.65)" d="M5,0A5,5 0 1,1 0,-5A5,5 0 0,1 5,0Z" style="opacity: 1; stroke-width: 0px; fill: rgb(228, 59, 45); fill-opacity: 1;"/><path class="point" transform="translate(166.08,194.1)" d="M5,0A5,5 0 1,1 0,-5A5,5 0 0,1 5,0Z" style="opacity: 1; stroke-width: 0px; fill: rgb(228, 59, 45); fill-opacity: 1;"/><path class="point" transform="translate(145.35,193.3)" d="M5,0A5,5 0 1,1 0,-5A5,5 0 0,1 5,0Z" style="opacity: 1; stroke-width: 0px; fill: rgb(228, 59, 45); fill-opacity: 1;"/><path class="point" transform="translate(152.92,192.95)" d="M5,0A5,5 0 1,1 0,-5A5,5 0 0,1 5,0Z" style="opacity: 1; stroke-width: 0px; fill: rgb(228, 59, 45); fill-opacity: 1;"/><path class="point" transform="translate(163.36,189.54)" d="M5,0A5,5 0 1,1 0,-5A5,5 0 0,1 5,0Z" style="opacity: 1; stroke-width: 0px; fill: rgb(228, 59, 45); fill-opacity: 1;"/><path class="point" transform="translate(155.68,179.85)" d="M5,0A5,5 0 1,1 0,-5A5,5 0 0,1 5,0Z" style="opacity: 1; stroke-width: 0px; fill: rgb(228, 59, 45); fill-opacity: 1;"/><path class="point" transform="translate(160.51,156.08)" d="M5,0A5,5 0 1,1 0,-5A5,5 0 0,1 5,0Z" style="opacity: 1; stroke-width: 0px; fill: rgb(228, 59, 45); fill-opacity: 1;"/><path class="point" transform="translate(151.72,149.05)" d="M5,0A5,5 0 1,1 0,-5A5,5 0 0,1 5,0Z" style="opacity: 1; stroke-width: 0px; fill: rgb(228, 59, 45); fill-opacity: 1;"/><path class="point" transform="translate(146.51,147.61)" d="M5,0A5,5 0 1,1 0,-5A5,5 0 0,1 5,0Z" style="opacity: 1; stroke-width: 0px; fill: rgb(228, 59, 45); fill-opacity: 1;"/><path class="point" transform="translate(159.65,139.63)" d="M5,0A5,5 0 1,1 0,-5A5,5 0 0,1 5,0Z" style="opacity: 1; stroke-width: 0px; fill: rgb(228, 59, 45); fill-opacity: 1;"/><path class="point" transform="translate(152.08,130.03)" d="M5,0A5,5 0 1,1 0,-5A5,5 0 0,1 5,0Z" style="opacity: 1; stroke-width: 0px; fill: rgb(228, 59, 45); fill-opacity: 1;"/><path class="point" transform="translate(164.93,124.29)" d="M5,0A5,5 0 1,1 0,-5A5,5 0 0,1 5,0Z" style="opacity: 1; stroke-width: 0px; fill: rgb(228, 59, 45); fill-opacity: 1;"/><path class="point" transform="translate(144.31,118.66)" d="M5,0A5,5 0 1,1 0,-5A5,5 0 0,1 5,0Z" style="opacity: 1; stroke-width: 0px; fill: rgb(228, 59, 45); fill-opacity: 1;"/><path class="point" transform="translate(149.86,107.59)" d="M5,0A5,5 0 1,1 0,-5A5,5 0 0,1 5,0Z" style="opacity: 1; stroke-width: 0px; fill: rgb(228, 59, 45); fill-opacity: 1;"/><path class="point" transform="translate(165.83,96.36)" d="M5,0A5,5 0 1,1 0,-5A5,5 0 0,1 5,0Z" style="opacity: 1; stroke-width: 0px; fill: rgb(228, 59, 45); fill-opacity: 1;"/><path class="point" transform="translate(153.58,85.91)" d="M5,0A5,5 0 1,1 0,-5A5,5 0 0,1 5,0Z" style="opacity: 1; stroke-width: 0px; fill: rgb(228, 59, 45); fill-opacity: 1;"/><path class="point" transform="translate(147.45,75.71)" d="M5,0A5,5 0 1,1 0,-5A5,5 0 0,1 5,0Z" style="opacity: 1; stroke-width: 0px; fill: rgb(228, 59, 45); fill-opacity: 1;"/><path class="point" transform="translate(153.02,48.96)" d="M5,0A5,5 0 1,1 0,-5A5,5 0 0,1 5,0Z" style="opacity: 1; stroke-width: 0px; fill: rgb(228, 59, 45); fill-opacity: 1;"/><path class="point" transform="translate(156.05,24)" d="M5,0A5,5 0 1,1 0,-5A5,5 0 0,1 5,0Z" style="opacity: 1; stroke-width: 0px; fill: rgb(228, 59, 45); fill-opacity: 1;"/></g><path class="mean" d="M79.69,138.5H232.81" style="fill: none; vector-effect: non-scaling-stroke; stroke-width: 2; stroke-dasharray: 4px, 2px; stroke: rgb(228, 59, 45); stroke-opacity: 1;"/></g><g class="trace boxes" style="opacity: 1;"><path class="box" d="M392.19,327.61H545.31M392.19,406.31H545.31V304.41H392.19ZM468.75,406.31V456M468.75,304.41V225.27M430.47,456H507.03M430.47,225.27H507.03" style="vector-effect: non-scaling-stroke; stroke-width: 2px; stroke: rgb(55, 126, 183); stroke-opacity: 1; fill: rgb(55, 126, 183); fill-opacity: 0.4;"/><g class="points"><path class="point" transform="translate(475.99,456)" d="M5,0A5,5 0 1,1 0,-5A5,5 0 0,1 5,0Z" style="opacity: 1; stroke-width: 0px; fill: rgb(55, 126, 183); fill-opacity: 1;"/><path class="point" transform="translate(459.17,438.49)" d="M5,0A5,5 0 1,1 0,-5A5,5 0 0,1 5,0Z" style="opacity: 1; stroke-width: 0px; fill: rgb(55, 126, 183); fill-opacity: 1;"/><path class="point" transform="translate(480.62,433.34)" d="M5,0A5,5 0 1,1 0,-5A5,5 0 0,1 5,0Z" style="opacity: 1; stroke-width: 0px; fill: rgb(55, 126, 183); fill-opacity: 1;"/><path class="point" transform="translate(455.89,411.43)" d="M5,0A5,5 0 1,1 0,-5A5,5 0 0,1 5,0Z" style="opacity: 1; stroke-width: 0px; fill: rgb(55, 126, 183); fill-opacity: 1;"/><path class="point" transform="translate(465.81,407.49)" d="M5,0A5,5 0 1,1 0,-5A5,5 0 0,1 5,0Z" style="opacity: 1; stroke-width: 0px; fill: rgb(55, 126, 183); fill-opacity: 1;"/><path class="point" transform="translate(475.2,405.12)" d="M5,0A5,5 0 1,1 0,-5A5,5 0 0,1 5,0Z" style="opacity: 1; stroke-width: 0px; fill: rgb(55, 126, 183); fill-opacity: 1;"/><path class="point" transform="translate(468.27,403.4)" d="M5,0A5,5 0 1,1 0,-5A5,5 0 0,1 5,0Z" style="opacity: 1; stroke-width: 0px; fill: rgb(55, 126, 183); fill-opacity: 1;"/><path class="point" transform="translate(472.56,396.85)" d="M5,0A5,5 0 1,1 0,-5A5,5 0 0,1 5,0Z" style="opacity: 1; stroke-width: 0px; fill: rgb(55, 126, 183); fill-opacity: 1;"/><path class="point" transform="translate(464.34,387.46)" d="M5,0A5,5 0 1,1 0,-5A5,5 0 0,1 5,0Z" style="opacity: 1; stroke-width: 0px; fill: rgb(55, 126, 183); fill-opacity: 1;"/><path class="point" transform="translate(458.5,330.53)" d="M5,0A5,5 0 1,1 0,-5A5,5 0 0,1 5,0Z" style="opacity: 1; stroke-width: 0px; fill: rgb(55, 126, 183); fill-opacity: 1;"/><path class="point" transform="translate(472.46,324.69)" d="M5,0A5,5 0 1,1 0,-5A5,5 0 0,1 5,0Z" style="opacity: 1; stroke-width: 0px; fill: rgb(55, 126, 183); fill-opacity: 1;"/><path class="point" transform="translate(464.61,318.8)" d="M5,0A5,5 0 1,1 0,-5A5,5 0 0,1 5,0Z" style="opacity: 1; stroke-width: 0px; fill: rgb(55, 126, 183); fill-opacity: 1;"/><path class="point" transform="translate(476.79,318.68)" d="M5,0A5,5 0 1,1 0,-5A5,5 0 0,1 5,0Z" style="opacity: 1; stroke-width: 0px; fill: rgb(55, 126, 183); fill-opacity: 1;"/><path class="point" transform="translate(457.6,307.57)" d="M5,0A5,5 0 1,1 0,-5A5,5 0 0,1 5,0Z" style="opacity: 1; stroke-width: 0px; fill: rgb(55, 126, 183); fill-opacity: 1;"/><path class="point" transform="translate(460.81,306.26)" d="M5,0A5,5 0 1,1 0,-5A5,5 0 0,1 5,0Z" style="opacity: 1; stroke-width: 0px; fill: rgb(55, 126, 183); fill-opacity: 1;"/><path class="point" transform="translate(480.6,302.55)" d="M5,0A5,5 0 1,1 0,-5A5,5 0 0,1 5,0Z" style="opacity: 1; stroke-width: 0px; fill: rgb(55, 126, 183); fill-opacity: 1;"/><path class="point" transform="translate(465.49,278.18)" d="M5,0A5,5 0 1,1 0,-5A5,5 0 0,1 5,0Z" style="opacity: 1; stroke-width: 0px; fill: rgb(55, 126, 183); fill-opacity: 1;"/><path class="point" transform="translate(458.29,273.62)" d="M5,0A5,5 0 1,1 0,-5A5,5 0 0,1 5,0Z" style="opacity: 1; stroke-width: 0px; fill: rgb(55, 126, 183); fill-opacity: 1;"/><path class="point" transform="translate(464.78,236.48)" d="M5,0A5,5 0 1,1 0,-5A5,5 0 0,1 5,0Z" style="opacity: 1; stroke-width: 0px; fill: rgb(55, 126, 183); fill-opacity: 1;"/><path class="point" transform="translate(468.51,225.27)" d="M5,0A5,5 0 1,1 0,-5A5,5 0 0,1 5,0Z" style="opacity: 1; stroke-width: 0px; fill: rgb(55, 126, 183); fill-opacity: 1;"/></g><path class="mean" d="M392.19,348.11H545.31" style="fill: none; vector-effect: non-scaling-stroke; stroke-width: 2; stroke-dasharray: 4px, 2px; stroke: rgb(55, 126, 183); stroke-opacity: 1;"/></g></g></g><g class="overplot"/><path class="xlines-above crisp" d="M128,531H755" style="fill: none; stroke-width: 2px; stroke: rgb(0, 0, 0); stroke-opacity: 1;"/><path class="ylines-above crisp" d="M129,50V530" style="fill: none; stroke-width: 2px; stroke: rgb(0, 0, 0); stroke-opacity: 1;"/><g class="overlines-above"/><g class="xaxislayer-above"><path class="xtick ticks crisp" d="M0,532v5" transform="translate(286.25,0)" style="stroke: rgb(0, 0, 0); stroke-opacity: 1; stroke-width: 3px;"/><path class="xtick ticks crisp" d="M0,532v5" transform="translate(598.75,0)" style="stroke: rgb(0, 0, 0); stroke-opacity: 1; stroke-width: 3px;"/><g class="xtick"><text text-anchor="middle" x="0" y="563.4" transform="translate(286.25,0)" style="font-family: Arial; font-size: 22px; fill: rgb(0, 0, 0); fill-opacity: 1; white-space: pre;">Male</text></g><g class="xtick"><text text-anchor="middle" x="0" y="563.4" transform="translate(598.75,0)" style="font-family: Arial; font-size: 22px; fill: rgb(0, 0, 0); fill-opacity: 1; white-space: pre;">Female</text></g></g><g class="yaxislayer-above"><path class="ytick ticks crisp" d="M128,0h-5" transform="translate(0,529.8)" style="stroke: rgb(0, 0, 0); stroke-opacity: 1; stroke-width: 3px;"/><path class="ytick ticks crisp" d="M128,0h-5" transform="translate(0,469.34)" style="stroke: rgb(0, 0, 0); stroke-opacity: 1; stroke-width: 3px;"/><path class="ytick ticks crisp" d="M128,0h-5" transform="translate(0,408.88)" style="stroke: rgb(0, 0, 0); stroke-opacity: 1; stroke-width: 3px;"/><path class="ytick ticks crisp" d="M128,0h-5" transform="translate(0,348.43)" style="stroke: rgb(0, 0, 0); stroke-opacity: 1; stroke-width: 3px;"/><path class="ytick ticks crisp" d="M128,0h-5" transform="translate(0,287.97)" style="stroke: rgb(0, 0, 0); stroke-opacity: 1; stroke-width: 3px;"/><path class="ytick ticks crisp" d="M128,0h-5" transform="translate(0,227.52)" style="stroke: rgb(0, 0, 0); stroke-opacity: 1; stroke-width: 3px;"/><path class="ytick ticks crisp" d="M128,0h-5" transform="translate(0,167.06)" style="stroke: rgb(0, 0, 0); stroke-opacity: 1; stroke-width: 3px;"/><path class="ytick ticks crisp" d="M128,0h-5" transform="translate(0,106.61)" style="stroke: rgb(0, 0, 0); stroke-opacity: 1; stroke-width: 3px;"/><g class="ytick"><text text-anchor="end" x="118.6" y="7.699999999999999" transform="translate(0,529.8)" style="font-family: Arial; font-size: 22px; fill: rgb(0, 0, 0); fill-opacity: 1; white-space: pre;">14.5</text></g><g class="ytick"><text text-anchor="end" x="118.6" y="7.699999999999999" transform="translate(0,469.34)" style="font-family: Arial; font-size: 22px; fill: rgb(0, 0, 0); fill-opacity: 1; white-space: pre;">15</text></g><g class="ytick"><text text-anchor="end" x="118.6" y="7.699999999999999" transform="translate(0,408.88)" style="font-family: Arial; font-size: 22px; fill: rgb(0, 0, 0); fill-opacity: 1; white-space: pre;">15.5</text></g><g class="ytick"><text text-anchor="end" x="118.6" y="7.699999999999999" transform="translate(0,348.43)" style="font-family: Arial; font-size: 22px; fill: rgb(0, 0, 0); fill-opacity: 1; white-space: pre;">16</text></g><g class="ytick"><text text-anchor="end" x="118.6" y="7.699999999999999" transform="translate(0,287.97)" style="font-family: Arial; font-size: 22px; fill: rgb(0, 0, 0); fill-opacity: 1; white-space: pre;">16.5</text></g><g class="ytick"><text text-anchor="end" x="118.6" y="7.699999999999999" transform="translate(0,227.52)" style="font-family: Arial; font-size: 22px; fill: rgb(0, 0, 0); fill-opacity: 1; white-space: pre;">17</text></g><g class="ytick"><text text-anchor="end" x="118.6" y="7.699999999999999" transform="translate(0,167.06)" style="font-family: Arial; font-size: 22px; fill: rgb(0, 0, 0); fill-opacity: 1; white-space: pre;">17.5</text></g><g class="ytick"><text text-anchor="end" x="118.6" y="7.699999999999999" transform="translate(0,106.61)" style="font-family: Arial; font-size: 22px; fill: rgb(0, 0, 0); fill-opacity: 1; white-space: pre;">18</text></g></g><g class="overaxes-above"/></g></g><g class="polarlayer"/><g class="ternarylayer"/><g class="geolayer"/><g class="funnelarealayer"/><g class="pielayer"/><g class="sunburstlayer"/><g class="glimages"/><defs id="topdefs-1fd770"><g class="clips"/><clipPath id="legend1fd770"><rect width="129" height="81" x="1" y="1"/></clipPath></defs><g class="layer-above"><g class="imagelayer"/><g class="shapelayer"/></g><g class="infolayer"><g class="legend" pointer-events="all" transform="translate(769, 50)"><rect class="bg" shape-rendering="crispEdges" width="130" height="82" x="0.5" y="0.5" style="stroke: rgb(255, 255, 255); stroke-opacity: 1; fill: rgb(255, 255, 255); fill-opacity: 1; stroke-width: 1px;"/><g class="scrollbox" transform="translate(0, 0)" clip-path="url('#legend1fd770')"><g class="groups"><g class="traces" transform="translate(1, 23.75)" style="opacity: 1;"><text class="legendtext user-select-none" text-anchor="start" x="40" y="9.75" style="font-family: Arial; font-size: 25px; fill: rgb(0, 0, 0); fill-opacity: 1; white-space: pre;">Male</text><g class="layers" style="opacity: 1;"><g class="legendfill"/><g class="legendlines"/><g class="legendsymbols"><g class="legendpoints"><path class="legendbox" d="M6,6H-6V-6H6Z" transform="translate(20,0)" style="stroke-width: 2px; fill: rgb(228, 59, 45); fill-opacity: 0.4; stroke: rgb(228, 59, 45); stroke-opacity: 1;"/></g></g></g><rect class="legendtoggle" pointer-events="all" x="0" y="-17.75" width="171" height="35.5" style="cursor: pointer; fill: rgb(0, 0, 0); fill-opacity: 0;"/></g><g class="traces" transform="translate(1, 59.25)" style="opacity: 1;"><text class="legendtext user-select-none" text-anchor="start" x="40" y="9.75" style="font-family: Arial; font-size: 25px; fill: rgb(0, 0, 0); fill-opacity: 1; white-space: pre;">Female</text><g class="layers" style="opacity: 1;"><g class="legendfill"/><g class="legendlines"/><g class="legendsymbols"><g class="legendpoints"><path class="legendbox" d="M6,6H-6V-6H6Z" transform="translate(20,0)" style="stroke-width: 2px; fill: rgb(55, 126, 183); fill-opacity: 0.4; stroke: rgb(55, 126, 183); stroke-opacity: 1;"/></g></g></g><rect class="legendtoggle" pointer-events="all" x="0" y="-17.75" width="171" height="35.5" style="cursor: pointer; fill: rgb(0, 0, 0); fill-opacity: 0;"/></g></g></g><rect class="scrollbar" rx="20" ry="3" width="0" height="0" x="0" y="0" style="fill: rgb(128, 139, 164); fill-opacity: 1;"/></g><g class="g-gtitle"><text class="gtitle" x="477" y="18" text-anchor="middle" dy="0.7em" style="font-family: Arial; font-size: 34px; fill: rgb(0, 0, 0); opacity: 1; font-weight: normal; white-space: pre;">PE (37:2); PE(19:0/18:2);</text></g><g class="g-xtitle"/><g class="g-ytitle" transform="translate(-6.21875,0)"><text class="ytitle" transform="rotate(-90,75,290)" x="75" y="290" text-anchor="middle" style="font-family: Arial; font-size: 22px; fill: rgb(0, 0, 0); opacity: 1; font-weight: normal; white-space: pre;">Intensity</text></g></g></svg>