<svg class="main-svg" xmlns="http://www.w3.org/2000/svg" xmlns:xlink="http://www.w3.org/1999/xlink" width="900" height="600" style="" viewBox="0 0 900 600"><rect x="0" y="0" width="900" height="600" style="fill: rgb(255, 255, 255); fill-opacity: 1;"/><defs id="defs-5ae08a"><g class="clips"><clipPath id="clip5ae08axyplot" class="plotclip"><rect width="625" height="480"/></clipPath><clipPath class="axesclip" id="clip5ae08ax"><rect x="130" y="0" width="625" height="600"/></clipPath><clipPath class="axesclip" id="clip5ae08ay"><rect x="0" y="50" width="900" height="480"/></clipPath><clipPath class="axesclip" id="clip5ae08axy"><rect x="130" y="50" width="625" height="480"/></clipPath></g><g class="gradients"/></defs><g class="bglayer"/><g class="layer-below"><g class="imagelayer"/><g class="shapelayer"/></g><g class="cartesianlayer"><g class="subplot xy"><g class="layer-subplot"><g class="shapelayer"/><g class="imagelayer"/></g><g class="gridlayer"><g class="x"/><g class="y"><path class="ygrid crisp" transform="translate(0,516.22)" d="M130,0h625" style="stroke: rgb(153, 153, 153); stroke-opacity: 1; stroke-width: 1px;"/><path class="ygrid crisp" transform="translate(0,462.57)" d="M130,0h625" style="stroke: rgb(153, 153, 153); stroke-opacity: 1; stroke-width: 1px;"/><path class="ygrid crisp" transform="translate(0,408.92)" d="M130,0h625" style="stroke: rgb(153, 153, 153); stroke-opacity: 1; stroke-width: 1px;"/><path class="ygrid crisp" transform="translate(0,355.27)" d="M130,0h625" style="stroke: rgb(153, 153, 153); stroke-opacity: 1; stroke-width: 1px;"/><path class="ygrid crisp" transform="translate(0,301.62)" d="M130,0h625" style="stroke: rgb(153, 153, 153); stroke-opacity: 1; stroke-width: 1px;"/><path class="ygrid crisp" transform="translate(0,247.96)" d="M130,0h625" style="stroke: rgb(153, 153, 153); stroke-opacity: 1; stroke-width: 1px;"/><path class="ygrid crisp" transform="translate(0,194.31)" d="M130,0h625" style="stroke: rgb(153, 153, 153); stroke-opacity: 1; stroke-width: 1px;"/><path class="ygrid crisp" transform="translate(0,140.66)" d="M130,0h625" style="stroke: rgb(153, 153, 153); stroke-opacity: 1; stroke-width: 1px;"/><path class="ygrid crisp" transform="translate(0,87.00999999999999)" d="M130,0h625" style="stroke: rgb(153, 153, 153); stroke-opacity: 1; stroke-width: 1px;"/></g></g><g class="zerolinelayer"/><path class="xlines-below"/><path class="ylines-below"/><g class="overlines-below"/><g class="xaxislayer-below"/><g class="yaxislayer-below"/><g class="overaxes-below"/><g class="plot" transform="translate(130, 50)" clip-path="url('#clip5ae08axyplot')"><g class="boxlayer mlayer"><g class="trace boxes" style="opacity: 1;"><path class="box" d="M79.69,136.44H232.81M79.69,192.53H232.81V56.2H79.69ZM156.25,192.53V289.36M156.25,56.2V24M117.97,289.36H194.53M117.97,24H194.53" style="vector-effect: non-scaling-stroke; stroke-width: 2px; stroke: rgb(228, 59, 45); stroke-opacity: 1; fill: rgb(228, 59, 45); fill-opacity: 0.4;"/><g class="points"><path class="point" transform="translate(161.39,289.36)" d="M5,0A5,5 0 1,1 0,-5A5,5 0 0,1 5,0Z" style="opacity: 1; stroke-width: 0px; fill: rgb(228, 59, 45); fill-opacity: 1;"/><path class="point" transform="translate(149.67,247.11)" d="M5,0A5,5 0 1,1 0,-5A5,5 0 0,1 5,0Z" style="opacity: 1; stroke-width: 0px; fill: rgb(228, 59, 45); fill-opacity: 1;"/><path class="point" transform="translate(164.33,213.17)" d="M5,0A5,5 0 1,1 0,-5A5,5 0 0,1 5,0Z" style="opacity: 1; stroke-width: 0px; fill: rgb(228, 59, 45); fill-opacity: 1;"/><path class="point" transform="translate(147.05,197.56)" d="M5,0A5,5 0 1,1 0,-5A5,5 0 0,1 5,0Z" style="opacity: 1; stroke-width: 0px; fill: rgb(228, 59, 45); fill-opacity: 1;"/><path class="point" transform="translate(153.42,195.31)" d="M5,0A5,5 0 1,1 0,-5A5,5 0 0,1 5,0Z" style="opacity: 1; stroke-width: 0px; fill: rgb(228, 59, 45); fill-opacity: 1;"/><path class="point" transform="translate(161.83,189.76)" d="M5,0A5,5 0 1,1 0,-5A5,5 0 0,1 5,0Z" style="opacity: 1; stroke-width: 0px; fill: rgb(228, 59, 45); fill-opacity: 1;"/><path class="point" transform="translate(155.81,179.59)" d="M5,0A5,5 0 1,1 0,-5A5,5 0 0,1 5,0Z" style="opacity: 1; stroke-width: 0px; fill: rgb(228, 59, 45); fill-opacity: 1;"/><path class="point" transform="translate(160.15,163.57)" d="M5,0A5,5 0 1,1 0,-5A5,5 0 0,1 5,0Z" style="opacity: 1; stroke-width: 0px; fill: rgb(228, 59, 45); fill-opacity: 1;"/><path class="point" transform="translate(151.96,157.27)" d="M5,0A5,5 0 1,1 0,-5A5,5 0 0,1 5,0Z" style="opacity: 1; stroke-width: 0px; fill: rgb(228, 59, 45); fill-opacity: 1;"/><path class="point" transform="translate(147.26,156.44)" d="M5,0A5,5 0 1,1 0,-5A5,5 0 0,1 5,0Z" style="opacity: 1; stroke-width: 0px; fill: rgb(228, 59, 45); fill-opacity: 1;"/><path class="point" transform="translate(159.37,116.44)" d="M5,0A5,5 0 1,1 0,-5A5,5 0 0,1 5,0Z" style="opacity: 1; stroke-width: 0px; fill: rgb(228, 59, 45); fill-opacity: 1;"/><path class="point" transform="translate(152.39,106.14)" d="M5,0A5,5 0 1,1 0,-5A5,5 0 0,1 5,0Z" style="opacity: 1; stroke-width: 0px; fill: rgb(228, 59, 45); fill-opacity: 1;"/><path class="point" transform="translate(164.13,105.44)" d="M5,0A5,5 0 1,1 0,-5A5,5 0 0,1 5,0Z" style="opacity: 1; stroke-width: 0px; fill: rgb(228, 59, 45); fill-opacity: 1;"/><path class="point" transform="translate(144.17,89.67)" d="M5,0A5,5 0 1,1 0,-5A5,5 0 0,1 5,0Z" style="opacity: 1; stroke-width: 0px; fill: rgb(228, 59, 45); fill-opacity: 1;"/><path class="point" transform="translate(149.23,65.63)" d="M5,0A5,5 0 1,1 0,-5A5,5 0 0,1 5,0Z" style="opacity: 1; stroke-width: 0px; fill: rgb(228, 59, 45); fill-opacity: 1;"/><path class="point" transform="translate(168.45,46.77)" d="M5,0A5,5 0 1,1 0,-5A5,5 0 0,1 5,0Z" style="opacity: 1; stroke-width: 0px; fill: rgb(228, 59, 45); fill-opacity: 1;"/><path class="point" transform="translate(152.79,37.98)" d="M5,0A5,5 0 1,1 0,-5A5,5 0 0,1 5,0Z" style="opacity: 1; stroke-width: 0px; fill: rgb(228, 59, 45); fill-opacity: 1;"/><path class="point" transform="translate(145.13,37.04)" d="M5,0A5,5 0 1,1 0,-5A5,5 0 0,1 5,0Z" style="opacity: 1; stroke-width: 0px; fill: rgb(228, 59, 45); fill-opacity: 1;"/><path class="point" transform="translate(151.84,30.44)" d="M5,0A5,5 0 1,1 0,-5A5,5 0 0,1 5,0Z" style="opacity: 1; stroke-width: 0px; fill: rgb(228, 59, 45); fill-opacity: 1;"/><path class="point" transform="translate(155.92,24)" d="M5,0A5,5 0 1,1 0,-5A5,5 0 0,1 5,0Z" style="opacity: 1; stroke-width: 0px; fill: rgb(228, 59, 45); fill-opacity: 1;"/></g><path class="mean" d="M79.69,132.43H232.81" style="fill: none; vector-effect: non-scaling-stroke; stroke-width: 2; stroke-dasharray: 4px, 2px; stroke: rgb(228, 59, 45); stroke-opacity: 1;"/></g><g class="trace boxes" style="opacity: 1;"><path class="box" d="M392.19,357.68H545.31M392.19,406.06H545.31V330H392.19ZM468.75,406.06V456M468.75,330V217.06M430.47,456H507.03M430.47,217.06H507.03" style="vector-effect: non-scaling-stroke; stroke-width: 2px; stroke: rgb(55, 126, 183); stroke-opacity: 1; fill: rgb(55, 126, 183); fill-opacity: 0.4;"/><g class="points"><path class="point" transform="translate(475.33,456)" d="M5,0A5,5 0 1,1 0,-5A5,5 0 0,1 5,0Z" style="opacity: 1; stroke-width: 0px; fill: rgb(55, 126, 183); fill-opacity: 1;"/><path class="point" transform="translate(461.29,452.3)" d="M5,0A5,5 0 1,1 0,-5A5,5 0 0,1 5,0Z" style="opacity: 1; stroke-width: 0px; fill: rgb(55, 126, 183); fill-opacity: 1;"/><path class="point" transform="translate(478.28,450.93)" d="M5,0A5,5 0 1,1 0,-5A5,5 0 0,1 5,0Z" style="opacity: 1; stroke-width: 0px; fill: rgb(55, 126, 183); fill-opacity: 1;"/><path class="point" transform="translate(458.14,415.31)" d="M5,0A5,5 0 1,1 0,-5A5,5 0 0,1 5,0Z" style="opacity: 1; stroke-width: 0px; fill: rgb(55, 126, 183); fill-opacity: 1;"/><path class="point" transform="translate(465.59,409.56)" d="M5,0A5,5 0 1,1 0,-5A5,5 0 0,1 5,0Z" style="opacity: 1; stroke-width: 0px; fill: rgb(55, 126, 183); fill-opacity: 1;"/><path class="point" transform="translate(475.55,402.56)" d="M5,0A5,5 0 1,1 0,-5A5,5 0 0,1 5,0Z" style="opacity: 1; stroke-width: 0px; fill: rgb(55, 126, 183); fill-opacity: 1;"/><path class="point" transform="translate(468.27,380.65)" d="M5,0A5,5 0 1,1 0,-5A5,5 0 0,1 5,0Z" style="opacity: 1; stroke-width: 0px; fill: rgb(55, 126, 183); fill-opacity: 1;"/><path class="point" transform="translate(472.44,376.27)" d="M5,0A5,5 0 1,1 0,-5A5,5 0 0,1 5,0Z" style="opacity: 1; stroke-width: 0px; fill: rgb(55, 126, 183); fill-opacity: 1;"/><path class="point" transform="translate(463.94,368.6)" d="M5,0A5,5 0 1,1 0,-5A5,5 0 0,1 5,0Z" style="opacity: 1; stroke-width: 0px; fill: rgb(55, 126, 183); fill-opacity: 1;"/><path class="point" transform="translate(457.53,362)" d="M5,0A5,5 0 1,1 0,-5A5,5 0 0,1 5,0Z" style="opacity: 1; stroke-width: 0px; fill: rgb(55, 126, 183); fill-opacity: 1;"/><path class="point" transform="translate(472.7,353.37)" d="M5,0A5,5 0 1,1 0,-5A5,5 0 0,1 5,0Z" style="opacity: 1; stroke-width: 0px; fill: rgb(55, 126, 183); fill-opacity: 1;"/><path class="point" transform="translate(464.19,349.61)" d="M5,0A5,5 0 1,1 0,-5A5,5 0 0,1 5,0Z" style="opacity: 1; stroke-width: 0px; fill: rgb(55, 126, 183); fill-opacity: 1;"/><path class="point" transform="translate(476.42,344.73)" d="M5,0A5,5 0 1,1 0,-5A5,5 0 0,1 5,0Z" style="opacity: 1; stroke-width: 0px; fill: rgb(55, 126, 183); fill-opacity: 1;"/><path class="point" transform="translate(458.38,339.6)" d="M5,0A5,5 0 1,1 0,-5A5,5 0 0,1 5,0Z" style="opacity: 1; stroke-width: 0px; fill: rgb(55, 126, 183); fill-opacity: 1;"/><path class="point" transform="translate(462.83,336.22)" d="M5,0A5,5 0 1,1 0,-5A5,5 0 0,1 5,0Z" style="opacity: 1; stroke-width: 0px; fill: rgb(55, 126, 183); fill-opacity: 1;"/><path class="point" transform="translate(477.57,323.78)" d="M5,0A5,5 0 1,1 0,-5A5,5 0 0,1 5,0Z" style="opacity: 1; stroke-width: 0px; fill: rgb(55, 126, 183); fill-opacity: 1;"/><path class="point" transform="translate(466.36,291.26)" d="M5,0A5,5 0 1,1 0,-5A5,5 0 0,1 5,0Z" style="opacity: 1; stroke-width: 0px; fill: rgb(55, 126, 183); fill-opacity: 1;"/><path class="point" transform="translate(460.98,258.89)" d="M5,0A5,5 0 1,1 0,-5A5,5 0 0,1 5,0Z" style="opacity: 1; stroke-width: 0px; fill: rgb(55, 126, 183); fill-opacity: 1;"/><path class="point" transform="translate(465.93,217.06)" d="M5,0A5,5 0 1,1 0,-5A5,5 0 0,1 5,0Z" style="opacity: 1; stroke-width: 0px; fill: rgb(55, 126, 183); fill-opacity: 1;"/><path class="point" transform="translate(468.58,197.8)" d="M5,0A5,5 0 1,1 0,-5A5,5 0 0,1 5,0Z" style="opacity: 1; stroke-width: 0px; fill: rgb(55, 126, 183); fill-opacity: 1;"/></g><path class="mean" d="M392.19,354.33H545.31" style="fill: none; vector-effect: non-scaling-stroke; stroke-width: 2; stroke-dasharray: 4px, 2px; stroke: rgb(55, 126, 183); stroke-opacity: 1;"/></g></g></g><g class="overplot"/><path class="xlines-above crisp" d="M128,531H755" style="fill: none; stroke-width: 2px; stroke: rgb(0, 0, 0); stroke-opacity: 1;"/><path class="ylines-above crisp" d="M129,50V530" style="fill: none; stroke-width: 2px; stroke: rgb(0, 0, 0); stroke-opacity: 1;"/><g class="overlines-above"/><g class="xaxislayer-above"><path class="xtick ticks crisp" d="M0,532v5" transform="translate(286.25,0)" style="stroke: rgb(0, 0, 0); stroke-opacity: 1; stroke-width: 3px;"/><path class="xtick ticks crisp" d="M0,532v5" transform="translate(598.75,0)" style="stroke: rgb(0, 0, 0); stroke-opacity: 1; stroke-width: 3px;"/><g class="xtick"><text text-anchor="middle" x="0" y="563.4" transform="translate(286.25,0)" style="font-family: Arial; font-size: 22px; fill: rgb(0, 0, 0); fill-opacity: 1; white-space: pre;">Male</text></g><g class="xtick"><text text-anchor="middle" x="0" y="563.4" transform="translate(598.75,0)" style="font-family: Arial; font-size: 22px; fill: rgb(0, 0, 0); fill-opacity: 1; white-space: pre;">Female</text></g></g><g class="yaxislayer-above"><path class="ytick ticks crisp" d="M128,0h-5" transform="translate(0,516.22)" style="stroke: rgb(0, 0, 0); stroke-opacity: 1; stroke-width: 3px;"/><path class="ytick ticks crisp" d="M128,0h-5" transform="translate(0,462.57)" style="stroke: rgb(0, 0, 0); stroke-opacity: 1; stroke-width: 3px;"/><path class="ytick ticks crisp" d="M128,0h-5" transform="translate(0,408.92)" style="stroke: rgb(0, 0, 0); stroke-opacity: 1; stroke-width: 3px;"/><path class="ytick ticks crisp" d="M128,0h-5" transform="translate(0,355.27)" style="stroke: rgb(0, 0, 0); stroke-opacity: 1; stroke-width: 3px;"/><path class="ytick ticks crisp" d="M128,0h-5" transform="translate(0,301.62)" style="stroke: rgb(0, 0, 0); stroke-opacity: 1; stroke-width: 3px;"/><path class="ytick ticks crisp" d="M128,0h-5" transform="translate(0,247.96)" style="stroke: rgb(0, 0, 0); stroke-opacity: 1; stroke-width: 3px;"/><path class="ytick ticks crisp" d="M128,0h-5" transform="translate(0,194.31)" style="stroke: rgb(0, 0, 0); stroke-opacity: 1; stroke-width: 3px;"/><path class="ytick ticks crisp" d="M128,0h-5" transform="translate(0,140.66)" style="stroke: rgb(0, 0, 0); stroke-opacity: 1; stroke-width: 3px;"/><path class="ytick ticks crisp" d="M128,0h-5" transform="translate(0,87.00999999999999)" style="stroke: rgb(0, 0, 0); stroke-opacity: 1; stroke-width: 3px;"/><g class="ytick"><text text-anchor="end" x="118.6" y="7.699999999999999" transform="translate(0,516.22)" style="font-family: Arial; font-size: 22px; fill: rgb(0, 0, 0); fill-opacity: 1; white-space: pre;">18.8</text></g><g class="ytick"><text text-anchor="end" x="118.6" y="7.699999999999999" transform="translate(0,462.57)" style="font-family: Arial; font-size: 22px; fill: rgb(0, 0, 0); fill-opacity: 1; white-space: pre;">19</text></g><g class="ytick"><text text-anchor="end" x="118.6" y="7.699999999999999" transform="translate(0,408.92)" style="font-family: Arial; font-size: 22px; fill: rgb(0, 0, 0); fill-opacity: 1; white-space: pre;">19.2</text></g><g class="ytick"><text text-anchor="end" x="118.6" y="7.699999999999999" transform="translate(0,355.27)" style="font-family: Arial; font-size: 22px; fill: rgb(0, 0, 0); fill-opacity: 1; white-space: pre;">19.4</text></g><g class="ytick"><text text-anchor="end" x="118.6" y="7.699999999999999" transform="translate(0,301.62)" style="font-family: Arial; font-size: 22px; fill: rgb(0, 0, 0); fill-opacity: 1; white-space: pre;">19.6</text></g><g class="ytick"><text text-anchor="end" x="118.6" y="7.699999999999999" transform="translate(0,247.96)" style="font-family: Arial; font-size: 22px; fill: rgb(0, 0, 0); fill-opacity: 1; white-space: pre;">19.8</text></g><g class="ytick"><text text-anchor="end" x="118.6" y="7.699999999999999" transform="translate(0,194.31)" style="font-family: Arial; font-size: 22px; fill: rgb(0, 0, 0); fill-opacity: 1; white-space: pre;">20</text></g><g class="ytick"><text text-anchor="end" x="118.6" y="7.699999999999999" transform="translate(0,140.66)" style="font-family: Arial; font-size: 22px; fill: rgb(0, 0, 0); fill-opacity: 1; white-space: pre;">20.2</text></g><g class="ytick"><text text-anchor="end" x="118.6" y="7.699999999999999" transform="translate(0,87.00999999999999)" style="font-family: Arial; font-size: 22px; fill: rgb(0, 0, 0); fill-opacity: 1; white-space: pre;">20.4</text></g></g><g class="overaxes-above"/></g></g><g class="polarlayer"/><g class="ternarylayer"/><g class="geolayer"/><g class="funnelarealayer"/><g class="pielayer"/><g class="sunburstlayer"/><g class="glimages"/><defs id="topdefs-5ae08a"><g class="clips"/><clipPath id="legend5ae08a"><rect width="129" height="81" x="1" y="1"/></clipPath></defs><g class="layer-above"><g class="imagelayer"/><g class="shapelayer"/></g><g class="infolayer"><g class="legend" pointer-events="all" transform="translate(769, 50)"><rect class="bg" shape-rendering="crispEdges" width="130" height="82" x="0.5" y="0.5" style="stroke: rgb(255, 255, 255); stroke-opacity: 1; fill: rgb(255, 255, 255); fill-opacity: 1; stroke-width: 1px;"/><g class="scrollbox" transform="translate(0, 0)" clip-path="url('#legend5ae08a')"><g class="groups"><g class="traces" transform="translate(1, 23.75)" style="opacity: 1;"><text class="legendtext user-select-none" text-anchor="start" x="40" y="9.75" style="font-family: Arial; font-size: 25px; fill: rgb(0, 0, 0); fill-opacity: 1; white-space: pre;">Male</text><g class="layers" style="opacity: 1;"><g class="legendfill"/><g class="legendlines"/><g class="legendsymbols"><g class="legendpoints"><path class="legendbox" d="M6,6H-6V-6H6Z" transform="translate(20,0)" style="stroke-width: 2px; fill: rgb(228, 59, 45); fill-opacity: 0.4; stroke: rgb(228, 59, 45); stroke-opacity: 1;"/></g></g></g><rect class="legendtoggle" pointer-events="all" x="0" y="-17.75" width="171" height="35.5" style="cursor: pointer; fill: rgb(0, 0, 0); fill-opacity: 0;"/></g><g class="traces" transform="translate(1, 59.25)" style="opacity: 1;"><text class="legendtext user-select-none" text-anchor="start" x="40" y="9.75" style="font-family: Arial; font-size: 25px; fill: rgb(0, 0, 0); fill-opacity: 1; white-space: pre;">Female</text><g class="layers" style="opacity: 1;"><g class="legendfill"/><g class="legendlines"/><g class="legendsymbols"><g class="legendpoints"><path class="legendbox" d="M6,6H-6V-6H6Z" transform="translate(20,0)" style="stroke-width: 2px; fill: rgb(55, 126, 183); fill-opacity: 0.4; stroke: rgb(55, 126, 183); stroke-opacity: 1;"/></g></g></g><rect class="legendtoggle" pointer-events="all" x="0" y="-17.75" width="171" height="35.5" style="cursor: pointer; fill: rgb(0, 0, 0); fill-opacity: 0;"/></g></g></g><rect class="scrollbar" rx="20" ry="3" width="0" height="0" x="0" y="0" style="fill: rgb(128, 139, 164); fill-opacity: 1;"/></g><g class="g-gtitle"><text class="gtitle" x="477" y="18" text-anchor="middle" dy="0.7em" style="font-family: Arial; font-size: 34px; fill: rgb(0, 0, 0); opacity: 1; font-weight: normal; white-space: pre;">PI (38:6); PI(16:0/22:6);</text></g><g class="g-xtitle"/><g class="g-ytitle" transform="translate(-6.21875,0)"><text class="ytitle" transform="rotate(-90,75,290)" x="75" y="290" text-anchor="middle" style="font-family: Arial; font-size: 22px; fill: rgb(0, 0, 0); opacity: 1; font-weight: normal; white-space: pre;">Intensity</text></g></g></svg>