<svg class="main-svg" xmlns="http://www.w3.org/2000/svg" xmlns:xlink="http://www.w3.org/1999/xlink" width="700" height="600" style="" viewBox="0 0 700 600"><rect x="0" y="0" width="700" height="600" style="fill: rgb(255, 255, 255); fill-opacity: 1;"/><defs id="defs-e4d91c"><g class="clips"><clipPath id="clipe4d91cxyplot" class="plotclip"><rect width="620" height="480"/></clipPath><clipPath class="axesclip" id="clipe4d91cx"><rect x="80" y="0" width="620" height="600"/></clipPath><clipPath class="axesclip" id="clipe4d91cy"><rect x="0" y="50" width="700" height="480"/></clipPath><clipPath class="axesclip" id="clipe4d91cxy"><rect x="80" y="50" width="620" height="480"/></clipPath></g><g class="gradients"/></defs><g class="bglayer"/><g class="layer-below"><g class="imagelayer"/><g class="shapelayer"/></g><g class="cartesianlayer"><g class="subplot xy"><g class="layer-subplot"><g class="shapelayer"/><g class="imagelayer"/></g><g class="gridlayer"><g class="x"/><g class="y"><path class="ygrid crisp" transform="translate(0,502.25)" d="M80,0h620" style="stroke: rgb(153, 153, 153); stroke-opacity: 1; stroke-width: 1px;"/><path class="ygrid crisp" transform="translate(0,416.48)" d="M80,0h620" style="stroke: rgb(153, 153, 153); stroke-opacity: 1; stroke-width: 1px;"/><path class="ygrid crisp" transform="translate(0,330.72)" d="M80,0h620" style="stroke: rgb(153, 153, 153); stroke-opacity: 1; stroke-width: 1px;"/><path class="ygrid crisp" transform="translate(0,244.95)" d="M80,0h620" style="stroke: rgb(153, 153, 153); stroke-opacity: 1; stroke-width: 1px;"/><path class="ygrid crisp" transform="translate(0,159.19)" d="M80,0h620" style="stroke: rgb(153, 153, 153); stroke-opacity: 1; stroke-width: 1px;"/><path class="ygrid crisp" transform="translate(0,73.42)" d="M80,0h620" style="stroke: rgb(153, 153, 153); stroke-opacity: 1; stroke-width: 1px;"/></g></g><g class="zerolinelayer"/><path class="xlines-below"/><path class="ylines-below"/><g class="overlines-below"/><g class="xaxislayer-below"/><g class="yaxislayer-below"/><g class="overaxes-below"/><g class="plot" transform="translate(80, 50)" clip-path="url('#clipe4d91cxyplot')"><g class="scatterlayer mlayer"><g class="trace scatter tracee23635" style="stroke-miterlimit: 2; opacity: 1;"><g class="fills"/><g class="errorbars"/><g class="lines"/><g class="points"><path class="point" transform="translate(34.75,452.25)" d="M3,0A3,3 0 1,1 0,-3A3,3 0 0,1 3,0Z" style="opacity: 1; stroke-width: 0px; fill: rgb(0, 0, 0); fill-opacity: 0;"/></g><g class="text"/></g><g class="trace scatter trace441975" style="stroke-miterlimit: 2; opacity: 1;"><g class="fills"/><g class="errorbars"/><g class="lines"><path class="js-line" d="M49.43,24L51.89,32.11L51.91,32.69L52.34,34.43L52.37,35.01L53.02,37.91L53.34,38.49L54.56,44.28L54.68,44.86L55.63,52.4L56.03,52.97L59.86,66.3L59.9,66.88L60.73,70.94L61.12,71.52L62.33,74.42L62.33,75L63.64,80.21L64.21,80.79L64.28,81.37L65.44,81.95L66.06,84.85L66.07,85.43L66.5,87.74L66.63,88.32L67.43,90.64L68.1,91.22L68.3,91.8L69.92,92.38L70.66,94.7L70.74,95.28L71.44,97.02L71.77,97.6L71.99,98.76L72.64,99.33L74.18,102.23L74.47,102.81L75.64,104.55L75.86,105.13L76.87,107.45L77.97,108.03L78.8,109.77L78.93,110.35L79.98,113.24L80.07,113.82L83.49,119.04L84.29,119.62L85.35,121.94L85.4,122.51L87.68,125.99L87.78,126.57L90.44,130.05L90.76,130.63L90.87,131.79L91.68,132.37L93.73,134.1L93.8,134.68L95.47,137L95.89,137.58L97.67,143.38L97.73,143.96L98.15,145.12L99.57,145.69L101.67,147.43L103.06,148.01L104.27,150.33L104.44,150.91L104.97,152.65L105.06,153.23L106.52,154.39L106.55,154.97L108.12,156.71L109.04,157.28L111.46,161.34L111.49,161.92L113.56,163.66L114.01,164.24L114.76,168.3L115.09,168.87L120.03,173.51L120.39,174.09L121.98,176.41L122.21,176.99L123.97,178.73L125.81,179.31L127.47,181.62L128.28,182.2L129.96,184.52L131.75,185.1L133.46,186.84L134.78,187.42L134.84,188L135.83,188.58L137.09,190.9L137.84,191.48L137.85,192.05L139.08,192.63L141.65,196.11L141.98,196.69L143.43,197.85L143.77,198.43L145.95,200.75L146.22,201.33L149.32,203.07L151.23,203.64L151.9,204.22L154.25,204.8L155.63,207.7L155.67,208.28L156.08,210.02L157.53,210.6L158.23,212.34L158.61,212.92L159.49,215.23L161.42,215.81L165.8,219.29L166.11,219.87L166.37,220.45L168,221.03L168.27,221.61L171.76,222.19L176.73,226.82L177.5,227.4L178.45,228.56L178.57,229.14L182.2,234.36L183.11,234.94L188.66,237.26L190.58,237.84L195.23,242.47L196.04,243.05L196.4,245.95L197.36,246.53L200.39,248.85L204.01,249.43L204.15,250L207.44,250.58L208.13,252.32L209.26,252.9L210.01,254.06L211.94,254.64L215.27,260.44L216.25,261.02L216.65,261.59L219.21,262.17L227.63,267.39L227.74,267.97L230.51,269.13L230.54,269.71L232.99,272.61L234.76,273.18L245.28,277.24L246.42,277.82L246.78,278.4L248.71,278.98L250.6,281.3L252.26,281.88L253.03,285.35L254.91,285.93L255.19,286.51L257.29,287.09L261.13,289.99L261.56,290.57L262.06,292.89L262.84,293.47L266.04,295.21L267.23,295.79L267.3,296.36L268.56,296.94L269.11,298.1L270.15,298.68L271.03,299.84L271.97,300.42L274.43,301.58L275.57,302.16L281.4,304.48L282.42,305.06L286.61,307.38L287.03,307.95L287.63,308.53L290.24,309.11L294.04,313.75L297.45,314.33L299.16,316.65L300.26,317.23L300.78,318.39L301.58,318.97L308.37,320.7L309.1,321.28L314.45,323.02L314.6,323.6L319.8,324.76L320.11,325.34L321.87,327.66L325.21,328.24L328.88,329.4L331.86,329.98L337.39,331.71L339.04,332.29L339.75,334.03L340.79,334.61L343.08,335.77L343.52,336.35L343.91,336.93L345.57,337.51L346.79,338.67L349.69,339.25L358.38,340.99L359.69,341.57L364.2,343.3L366.48,343.88L368.82,345.62L370.11,346.2L373.18,347.94L373.37,348.52L373.82,349.1L375.85,349.68L377.51,352L378.49,352.58L378.79,353.16L381.79,353.74L387.05,355.47L387.5,356.05L387.63,356.63L392.68,357.21L393.07,357.79L394.62,358.37L395.15,359.53L398.07,360.11L401.85,362.43L401.88,363.01L401.91,363.59L402.98,364.17L404.59,365.33L406.03,365.9L418.41,367.06L422.11,367.64L422.78,368.22L430.53,368.8L431.33,369.38L434.16,369.96L441.22,371.7L441.73,372.28L444.53,373.44L450.26,374.02L451.7,375.76L453.48,376.34L465.29,379.81L470.03,380.39L472.38,382.71L474.66,383.29L475.6,383.87L479.17,384.45L486.56,387.35L487.75,387.93L490.85,390.24L494.39,390.82L494.64,391.4L495.83,391.98L496.22,392.56L499.55,393.14L501.94,394.3L503.86,394.88L508.54,396.62L509.86,397.2L525.7,399.52L525.86,400.1L527.89,401.25L528.3,401.83L535.56,404.15L537.32,404.73L542.02,406.47L542.45,407.05L542.57,407.63L545.7,408.21L546.34,409.37L549.46,409.95L551.69,411.69L552.27,412.26L554.4,413.42L558.37,414L561.26,415.74L561.31,416.32L561.76,416.9L563.5,417.48L566.32,419.8L567.29,420.38L567.47,420.96L572.8,421.54L574.1,423.28L574.33,423.85L578.17,426.17L586.69,426.75L587.17,427.91L590.19,428.49L590.28,429.07L593.57,429.65L597.5,430.81L597.94,431.39L598.5,432.55L599.63,433.13L599.73,433.71L603.68,434.29L607.89,437.76L609.58,438.34L612.3,439.5L612.74,440.08L614.06,441.24L614.63,441.82L614.89,442.98L616.08,443.56L617.05,445.88L618.41,446.46L619.98,450.51L620,451.09L620,452.25" style="vector-effect: non-scaling-stroke; fill: none; stroke: rgb(0, 0, 0); stroke-opacity: 1; stroke-width: 2px; opacity: 1;"/></g><g class="points"/><g class="text"/></g></g></g><g class="overplot"/><path class="xlines-above crisp" d="M78,531H700" style="fill: none; stroke-width: 2px; stroke: rgb(0, 0, 0); stroke-opacity: 1;"/><path class="ylines-above crisp" d="M79,50V530" style="fill: none; stroke-width: 2px; stroke: rgb(0, 0, 0); stroke-opacity: 1;"/><g class="overlines-above"/><g class="xaxislayer-above"><path class="xtick ticks crisp" d="M0,532v5" transform="translate(114.75,0)" style="stroke: rgb(0, 0, 0); stroke-opacity: 1; stroke-width: 3px;"/><path class="xtick ticks crisp" d="M0,532v5" transform="translate(231.8,0)" style="stroke: rgb(0, 0, 0); stroke-opacity: 1; stroke-width: 3px;"/><path class="xtick ticks crisp" d="M0,532v5" transform="translate(348.85,0)" style="stroke: rgb(0, 0, 0); stroke-opacity: 1; stroke-width: 3px;"/><path class="xtick ticks crisp" d="M0,532v5" transform="translate(465.9,0)" style="stroke: rgb(0, 0, 0); stroke-opacity: 1; stroke-width: 3px;"/><path class="xtick ticks crisp" d="M0,532v5" transform="translate(582.95,0)" style="stroke: rgb(0, 0, 0); stroke-opacity: 1; stroke-width: 3px;"/><path class="xtick ticks crisp" d="M0,532v5" transform="translate(700,0)" style="stroke: rgb(0, 0, 0); stroke-opacity: 1; stroke-width: 3px;"/><g class="xtick"><text text-anchor="middle" x="0" y="563.4" transform="translate(114.75,0)" style="font-family: Arial; font-size: 22px; fill: rgb(0, 0, 0); fill-opacity: 1; white-space: pre;">0</text></g><g class="xtick"><text text-anchor="middle" x="0" y="563.4" transform="translate(231.8,0)" style="font-family: Arial; font-size: 22px; fill: rgb(0, 0, 0); fill-opacity: 1; white-space: pre;">0.2</text></g><g class="xtick"><text text-anchor="middle" x="0" y="563.4" transform="translate(348.85,0)" style="font-family: Arial; font-size: 22px; fill: rgb(0, 0, 0); fill-opacity: 1; white-space: pre;">0.4</text></g><g class="xtick"><text text-anchor="middle" x="0" y="563.4" transform="translate(465.9,0)" style="font-family: Arial; font-size: 22px; fill: rgb(0, 0, 0); fill-opacity: 1; white-space: pre;">0.6</text></g><g class="xtick"><text text-anchor="middle" x="0" y="563.4" transform="translate(582.95,0)" style="font-family: Arial; font-size: 22px; fill: rgb(0, 0, 0); fill-opacity: 1; white-space: pre;">0.8</text></g><g class="xtick"><text text-anchor="middle" x="0" y="563.4" transform="translate(700,0)" style="font-family: Arial; font-size: 22px; fill: rgb(0, 0, 0); fill-opacity: 1; white-space: pre;">1</text></g></g><g class="yaxislayer-above"><path class="ytick ticks crisp" d="M78,0h-5" transform="translate(0,502.25)" style="stroke: rgb(0, 0, 0); stroke-opacity: 1; stroke-width: 3px;"/><path class="ytick ticks crisp" d="M78,0h-5" transform="translate(0,416.48)" style="stroke: rgb(0, 0, 0); stroke-opacity: 1; stroke-width: 3px;"/><path class="ytick ticks crisp" d="M78,0h-5" transform="translate(0,330.72)" style="stroke: rgb(0, 0, 0); stroke-opacity: 1; stroke-width: 3px;"/><path class="ytick ticks crisp" d="M78,0h-5" transform="translate(0,244.95)" style="stroke: rgb(0, 0, 0); stroke-opacity: 1; stroke-width: 3px;"/><path class="ytick ticks crisp" d="M78,0h-5" transform="translate(0,159.19)" style="stroke: rgb(0, 0, 0); stroke-opacity: 1; stroke-width: 3px;"/><path class="ytick ticks crisp" d="M78,0h-5" transform="translate(0,73.42)" style="stroke: rgb(0, 0, 0); stroke-opacity: 1; stroke-width: 3px;"/><g class="ytick"><text text-anchor="end" x="68.6" y="7.699999999999999" transform="translate(0,502.25)" style="font-family: Arial; font-size: 22px; fill: rgb(0, 0, 0); fill-opacity: 1; white-space: pre;">0</text></g><g class="ytick"><text text-anchor="end" x="68.6" y="7.699999999999999" transform="translate(0,416.48)" style="font-family: Arial; font-size: 22px; fill: rgb(0, 0, 0); fill-opacity: 1; white-space: pre;">0.2</text></g><g class="ytick"><text text-anchor="end" x="68.6" y="7.699999999999999" transform="translate(0,330.72)" style="font-family: Arial; font-size: 22px; fill: rgb(0, 0, 0); fill-opacity: 1; white-space: pre;">0.4</text></g><g class="ytick"><text text-anchor="end" x="68.6" y="7.699999999999999" transform="translate(0,244.95)" style="font-family: Arial; font-size: 22px; fill: rgb(0, 0, 0); fill-opacity: 1; white-space: pre;">0.6</text></g><g class="ytick"><text text-anchor="end" x="68.6" y="7.699999999999999" transform="translate(0,159.19)" style="font-family: Arial; font-size: 22px; fill: rgb(0, 0, 0); fill-opacity: 1; white-space: pre;">0.8</text></g><g class="ytick"><text text-anchor="end" x="68.6" y="7.699999999999999" transform="translate(0,73.42)" style="font-family: Arial; font-size: 22px; fill: rgb(0, 0, 0); fill-opacity: 1; white-space: pre;">1</text></g></g><g class="overaxes-above"/></g></g><g class="polarlayer"/><g class="ternarylayer"/><g class="geolayer"/><g class="funnelarealayer"/><g class="pielayer"/><g class="sunburstlayer"/><g class="glimages"/><defs id="topdefs-e4d91c"><g class="clips"/></defs><g class="layer-above"><g class="imagelayer"/><g class="shapelayer"/></g><g class="infolayer"><g class="g-gtitle"><text class="gtitle" x="378" y="18" text-anchor="middle" dy="0.7em" style="font-family: Arial; font-size: 25px; fill: rgb(0, 0, 0); opacity: 1; font-weight: normal; white-space: pre;">Power of 12 samples</text></g><g class="g-xtitle" transform="translate(0,-11.984537124633789)"><text class="xtitle" x="390" y="607" text-anchor="middle" style="font-family: Arial; font-size: 22px; fill: rgb(0, 0, 0); opacity: 1; font-weight: normal; white-space: pre;">Statistical Power</text></g><g class="g-ytitle"><text class="ytitle" transform="rotate(-90,25,290)" x="25" y="290" text-anchor="middle" style="font-family: Arial; font-size: 22px; fill: rgb(0, 0, 0); opacity: 1; font-weight: normal; white-space: pre;">Proportion of Compounds with sample size >= 12</text></g></g></svg>