<svg class="main-svg" xmlns="http://www.w3.org/2000/svg" xmlns:xlink="http://www.w3.org/1999/xlink" width="700" height="600" style="" viewBox="0 0 700 600"><rect x="0" y="0" width="700" height="600" style="fill: rgb(255, 255, 255); fill-opacity: 1;"/><defs id="defs-03a83f"><g class="clips"><clipPath id="clip03a83fxyplot" class="plotclip"><rect width="620" height="480"/></clipPath><clipPath class="axesclip" id="clip03a83fx"><rect x="80" y="0" width="620" height="600"/></clipPath><clipPath class="axesclip" id="clip03a83fy"><rect x="0" y="50" width="700" height="480"/></clipPath><clipPath class="axesclip" id="clip03a83fxy"><rect x="80" y="50" width="620" height="480"/></clipPath></g><g class="gradients"/></defs><g class="bglayer"/><g class="layer-below"><g class="imagelayer"/><g class="shapelayer"/></g><g class="cartesianlayer"><g class="subplot xy"><g class="layer-subplot"><g class="shapelayer"/><g class="imagelayer"/></g><g class="gridlayer"><g class="x"/><g class="y"><path class="ygrid crisp" transform="translate(0,502.25)" d="M80,0h620" style="stroke: rgb(153, 153, 153); stroke-opacity: 1; stroke-width: 1px;"/><path class="ygrid crisp" transform="translate(0,416.48)" d="M80,0h620" style="stroke: rgb(153, 153, 153); stroke-opacity: 1; stroke-width: 1px;"/><path class="ygrid crisp" transform="translate(0,330.72)" d="M80,0h620" style="stroke: rgb(153, 153, 153); stroke-opacity: 1; stroke-width: 1px;"/><path class="ygrid crisp" transform="translate(0,244.95)" d="M80,0h620" style="stroke: rgb(153, 153, 153); stroke-opacity: 1; stroke-width: 1px;"/><path class="ygrid crisp" transform="translate(0,159.19)" d="M80,0h620" style="stroke: rgb(153, 153, 153); stroke-opacity: 1; stroke-width: 1px;"/><path class="ygrid crisp" transform="translate(0,73.42)" d="M80,0h620" style="stroke: rgb(153, 153, 153); stroke-opacity: 1; stroke-width: 1px;"/></g></g><g class="zerolinelayer"/><path class="xlines-below"/><path class="ylines-below"/><g class="overlines-below"/><g class="xaxislayer-below"/><g class="yaxislayer-below"/><g class="overaxes-below"/><g class="plot" transform="translate(80, 50)" clip-path="url('#clip03a83fxyplot')"><g class="scatterlayer mlayer"><g class="trace scatter trace386f51" style="stroke-miterlimit: 2; opacity: 1;"><g class="fills"/><g class="errorbars"/><g class="lines"/><g class="points"><path class="point" transform="translate(34.75,452.25)" d="M3,0A3,3 0 1,1 0,-3A3,3 0 0,1 3,0Z" style="opacity: 1; stroke-width: 0px; fill: rgb(0, 0, 0); fill-opacity: 0;"/></g><g class="text"/></g><g class="trace scatter tracef4c1d6" style="stroke-miterlimit: 2; opacity: 1;"><g class="fills"/><g class="errorbars"/><g class="lines"><path class="js-line" d="M45.45,24Q45.49,24.39 45.53,24.58C45.57,24.77 45.64,24.97 45.68,25.16C45.72,25.35 45.73,25.55 45.79,25.74C45.85,25.94 45.97,26.12 46.02,26.32C46.07,26.51 46.06,26.71 46.08,26.9C46.1,27.09 46.08,27.29 46.12,27.48C46.16,27.68 46.26,27.87 46.31,28.06C46.36,28.25 46.33,28.46 46.42,28.64C46.52,28.85 46.83,29.01 46.93,29.22C47.02,29.4 47,29.6 47.04,29.79C47.08,29.98 47.12,30.18 47.18,30.37C47.24,30.56 47.35,30.75 47.39,30.95C47.43,31.14 47.35,31.35 47.42,31.53C47.5,31.74 47.77,31.91 47.9,32.11C48.02,32.3 48.13,32.49 48.18,32.69C48.23,32.88 48.19,33.08 48.2,33.27C48.21,33.46 48.26,33.66 48.27,33.85C48.28,34.04 48.28,34.24 48.29,34.43C48.3,34.62 48.28,34.82 48.32,35.01C48.36,35.21 48.42,35.4 48.51,35.59C48.6,35.79 48.77,35.97 48.85,36.17C48.93,36.36 48.97,36.56 49.01,36.75C49.05,36.94 49.08,37.14 49.09,37.33C49.1,37.52 49.07,37.72 49.1,37.91C49.13,38.1 49.21,38.3 49.25,38.49C49.28,38.68 49.29,38.88 49.31,39.07C49.33,39.26 49.29,39.46 49.35,39.65C49.42,39.85 49.66,40.03 49.74,40.23C49.81,40.42 49.79,40.62 49.84,40.81C49.89,41 49.98,41.19 50.02,41.38C50.06,41.57 50.05,41.77 50.07,41.96C50.1,42.15 50.14,42.35 50.17,42.54C50.19,42.73 50.2,42.93 50.22,43.12C50.24,43.31 50.26,43.51 50.29,43.7C50.32,43.89 50.36,44.09 50.4,44.28C50.45,44.47 50.49,44.67 50.56,44.86C50.64,45.06 50.72,45.25 50.85,45.44C50.99,45.64 51.27,45.81 51.37,46.02C51.46,46.2 51.46,46.41 51.48,46.6C51.5,46.79 51.5,46.99 51.51,47.18C51.52,47.37 51.51,47.57 51.52,47.76C51.53,47.95 51.52,48.15 51.59,48.34C51.66,48.54 51.85,48.72 51.96,48.92C52.07,49.11 52.19,49.3 52.27,49.5C52.35,49.69 52.38,49.89 52.45,50.08C52.52,50.28 52.62,50.47 52.71,50.66C52.8,50.85 52.89,51.05 52.97,51.24C53.05,51.43 53.07,51.64 53.21,51.82C53.38,52.04 53.86,52.18 54,52.4C54.11,52.57 54.07,52.78 54.1,52.97C54.13,53.16 54.17,53.36 54.2,53.55C54.23,53.74 54.21,53.94 54.26,54.13C54.31,54.33 54.38,54.52 54.48,54.71C54.59,54.91 54.81,55.09 54.93,55.29C55.05,55.48 55.12,55.68 55.21,55.87C55.29,56.06 55.33,56.26 55.44,56.45C55.56,56.65 55.82,56.82 55.92,57.03C56.01,57.21 55.99,57.42 56.04,57.61C56.09,57.8 56.17,58 56.21,58.19C56.25,58.38 56.21,58.59 56.29,58.77C56.38,58.98 56.67,59.14 56.75,59.35C56.82,59.53 56.75,59.74 56.81,59.93C56.87,60.13 57.01,60.32 57.11,60.51C57.21,60.7 57.32,60.89 57.39,61.09C57.45,61.28 57.48,61.48 57.51,61.67C57.54,61.86 57.54,62.06 57.56,62.25C57.58,62.44 57.59,62.64 57.62,62.83C57.65,63.02 57.72,63.22 57.76,63.41C57.8,63.6 57.81,63.8 57.85,63.99C57.88,64.18 57.94,64.37 57.97,64.56C58.01,64.75 57.98,64.96 58.06,65.14C58.15,65.34 58.41,65.52 58.5,65.72C58.58,65.9 58.57,66.11 58.59,66.3C58.61,66.49 58.61,66.69 58.61,66.88C58.61,67.07 58.55,67.28 58.61,67.46C58.68,67.66 58.95,67.84 59.03,68.04C59.1,68.22 59.07,68.43 59.1,68.62C59.13,68.81 59.05,69.04 59.2,69.2C59.52,69.54 61.18,69.51 61.76,69.78C62.11,69.94 62.34,70.14 62.5,70.36C62.63,70.54 62.55,70.78 62.73,70.94C63.08,71.25 64.51,71.23 64.92,71.52C65.15,71.68 65.2,71.9 65.32,72.1C65.44,72.29 65.58,72.48 65.66,72.68C65.73,72.87 65.75,73.07 65.77,73.26C65.79,73.45 65.75,73.65 65.78,73.84C65.81,74.03 65.85,74.23 65.93,74.42C66.02,74.62 66.18,74.81 66.3,75C66.43,75.19 66.44,75.42 66.68,75.58C67.17,75.91 69.03,75.83 69.54,76.15C69.79,76.31 69.81,76.54 69.97,76.73C70.14,76.93 70.31,77.13 70.54,77.31C70.82,77.53 71.27,77.68 71.58,77.89C71.85,78.07 72.05,78.28 72.29,78.47C72.53,78.66 72.89,78.83 73,79.05C73.09,79.23 72.96,79.45 73.03,79.63C73.1,79.84 73.38,80.01 73.46,80.21C73.53,80.39 73.42,80.61 73.51,80.79C73.62,81.01 73.99,81.17 74.19,81.37C74.37,81.56 74.58,81.74 74.67,81.95C74.75,82.13 74.68,82.35 74.75,82.53C74.83,82.73 75.09,82.91 75.17,83.11C75.25,83.29 75.2,83.5 75.26,83.69C75.32,83.89 75.47,84.07 75.52,84.27C75.57,84.46 75.54,84.66 75.55,84.85C75.56,85.04 75.5,85.25 75.59,85.43C75.7,85.65 76.09,85.8 76.23,86.01C76.35,86.19 76.35,86.4 76.44,86.59C76.54,86.79 76.73,86.97 76.8,87.17C76.87,87.35 76.77,87.58 76.89,87.74C77.08,87.99 77.83,88.09 78.15,88.32C78.39,88.49 78.59,88.69 78.69,88.9C78.78,89.08 78.75,89.29 78.77,89.48C78.79,89.67 78.77,89.87 78.81,90.06C78.85,90.26 78.99,90.44 79.04,90.64C79.09,90.83 79.08,91.03 79.13,91.22C79.19,91.42 79.28,91.61 79.37,91.8C79.46,91.99 79.59,92.18 79.66,92.38C79.73,92.57 79.74,92.77 79.78,92.96C79.83,93.15 79.79,93.37 79.93,93.54C80.13,93.79 80.89,93.87 81.12,94.12C81.28,94.29 81.22,94.52 81.36,94.7C81.54,94.92 81.85,95.11 82.18,95.28C82.61,95.5 83.42,95.6 83.74,95.86C83.95,96.03 84.03,96.24 84.11,96.44C84.19,96.63 84.18,96.83 84.24,97.02C84.3,97.22 84.37,97.42 84.49,97.6C84.62,97.8 84.78,98 84.99,98.18C85.24,98.4 85.59,98.58 85.94,98.76C86.32,98.96 87.03,99.07 87.2,99.33C87.31,99.5 87.12,99.74 87.22,99.91C87.36,100.15 88.02,100.25 88.16,100.49C88.26,100.66 88.14,100.88 88.2,101.07C88.27,101.27 88.46,101.46 88.59,101.65C88.72,101.84 88.79,102.06 88.98,102.23C89.23,102.46 89.75,102.59 90.04,102.81C90.28,102.99 90.39,103.21 90.63,103.39C90.91,103.6 91.35,103.76 91.64,103.97C91.9,104.15 92.2,104.33 92.31,104.55C92.4,104.73 92.34,104.94 92.35,105.13C92.36,105.32 92.34,105.52 92.37,105.71C92.4,105.91 92.41,106.12 92.54,106.29C92.71,106.52 93.12,106.67 93.4,106.87C93.67,107.06 94.01,107.23 94.18,107.45C94.31,107.63 94.31,107.84 94.4,108.03C94.5,108.23 94.7,108.41 94.77,108.61C94.84,108.8 94.74,109.01 94.84,109.19C94.97,109.41 95.46,109.55 95.59,109.77C95.69,109.95 95.62,110.16 95.66,110.35C95.7,110.54 95.81,110.73 95.84,110.92C95.87,111.11 95.81,111.31 95.86,111.5C95.91,111.7 96.07,111.88 96.14,112.08C96.21,112.27 96.23,112.47 96.3,112.66C96.38,112.86 96.53,113.04 96.59,113.24C96.65,113.43 96.58,113.64 96.68,113.82C96.81,114.04 97.23,114.19 97.42,114.4C97.58,114.58 97.63,114.79 97.76,114.98C97.9,115.18 98.06,115.37 98.24,115.56C98.43,115.76 98.61,115.97 98.88,116.14C99.25,116.37 100.11,116.45 100.3,116.72C100.42,116.88 100.23,117.12 100.32,117.3C100.43,117.52 100.92,117.66 101.06,117.88C101.17,118.06 101.1,118.28 101.18,118.46C101.27,118.66 101.45,118.85 101.62,119.04C101.81,119.24 102.17,119.4 102.28,119.62C102.37,119.8 102.3,120.01 102.35,120.2C102.4,120.4 102.5,120.59 102.6,120.78C102.71,120.98 102.81,121.18 102.98,121.36C103.19,121.57 103.51,121.75 103.8,121.94C104.1,122.14 104.39,122.33 104.73,122.51C105.1,122.71 105.56,122.89 105.95,123.09C106.32,123.28 106.59,123.5 107.01,123.67C107.58,123.9 108.64,123.98 109.08,124.25C109.35,124.41 109.46,124.63 109.61,124.83C109.75,125.02 109.81,125.23 109.96,125.41C110.13,125.62 110.32,125.81 110.58,125.99C110.91,126.21 111.48,126.35 111.83,126.57C112.11,126.75 112.32,126.95 112.53,127.15C112.72,127.34 112.85,127.54 113.05,127.73C113.27,127.93 113.55,128.12 113.79,128.31C114.03,128.5 114.33,128.68 114.49,128.89C114.63,129.07 114.58,129.3 114.75,129.47C115.01,129.72 115.83,129.8 116.09,130.05C116.26,130.22 116.32,130.43 116.37,130.63C116.42,130.82 116.32,131.03 116.39,131.21C116.47,131.42 116.8,131.58 116.9,131.79C116.99,131.97 116.92,132.19 117.01,132.37C117.11,132.58 117.31,132.78 117.54,132.95C117.84,133.17 118.51,133.28 118.71,133.53C118.85,133.7 118.76,133.92 118.87,134.1C119.01,134.31 119.27,134.5 119.54,134.68C119.87,134.9 120.39,135.05 120.74,135.26C121.04,135.44 121.22,135.66 121.52,135.84C121.89,136.06 122.37,136.23 122.81,136.42C123.27,136.62 123.95,136.74 124.21,137C124.37,137.17 124.3,137.41 124.44,137.58C124.63,137.81 125.2,137.93 125.35,138.16C125.46,138.33 125.36,138.56 125.44,138.74C125.53,138.95 125.66,139.15 125.89,139.32C126.26,139.58 127.21,139.65 127.63,139.9C127.92,140.07 127.97,140.31 128.27,140.48C128.73,140.74 129.93,140.76 130.24,141.06C130.41,141.22 130.29,141.47 130.44,141.64C130.66,141.89 131.28,142.01 131.64,142.22C131.96,142.4 132.31,142.58 132.5,142.8C132.65,142.98 132.7,143.18 132.77,143.38C132.84,143.57 132.8,143.79 132.94,143.96C133.16,144.21 133.97,144.29 134.18,144.54C134.32,144.71 134.19,144.95 134.32,145.12C134.52,145.37 135.12,145.49 135.5,145.69C135.87,145.88 136.2,146.08 136.56,146.27C136.94,146.47 137.42,146.63 137.74,146.85C138,147.03 138.16,147.24 138.38,147.43C138.61,147.63 138.87,147.82 139.11,148.01C139.35,148.2 139.54,148.41 139.83,148.59C140.2,148.81 140.95,148.91 141.17,149.17C141.31,149.34 141.16,149.59 141.31,149.75C141.6,150.05 143.05,150.02 143.3,150.33C143.43,150.49 143.33,150.72 143.35,150.91C143.37,151.1 143.3,151.33 143.44,151.49C143.69,151.78 144.95,151.79 145.27,152.07C145.46,152.23 145.44,152.46 145.54,152.65C145.64,152.85 145.74,153.04 145.87,153.23C146,153.43 146.24,153.6 146.32,153.81C146.39,153.99 146.25,154.22 146.36,154.39C146.54,154.65 147.34,154.73 147.62,154.97C147.82,155.14 147.92,155.35 148.01,155.55C148.1,155.74 148.07,155.95 148.18,156.13C148.31,156.34 148.61,156.52 148.82,156.71C149.02,156.9 149.3,157.07 149.41,157.28C149.51,157.46 149.41,157.68 149.52,157.86C149.65,158.08 149.91,158.27 150.24,158.44C150.77,158.71 152.24,158.7 152.56,159.02C152.72,159.18 152.53,159.44 152.7,159.6C153.12,159.99 155.29,159.93 156.2,160.18C156.81,160.35 157.26,160.54 157.67,160.76C158,160.94 158.22,161.14 158.49,161.34C158.75,161.53 158.96,161.74 159.25,161.92C159.59,162.13 160.03,162.31 160.44,162.5C160.87,162.7 161.57,162.82 161.78,163.08C161.91,163.25 161.77,163.49 161.89,163.66C162.05,163.89 162.63,164.01 162.83,164.24C162.99,164.41 162.96,164.65 163.11,164.82C163.31,165.05 163.82,165.18 164.02,165.4C164.18,165.57 164.12,165.82 164.31,165.98C164.62,166.25 165.75,166.28 165.95,166.56C166.07,166.72 165.87,166.97 165.96,167.14C166.08,167.37 166.58,167.5 166.74,167.72C166.87,167.9 166.85,168.11 166.95,168.3C167.05,168.5 167.23,168.68 167.36,168.87C167.5,169.06 167.51,169.29 167.76,169.45C168.28,169.79 169.99,169.79 170.83,170.03C171.44,170.2 172.14,170.34 172.36,170.61C172.49,170.77 172.38,171 172.43,171.19C172.48,171.39 172.58,171.58 172.68,171.77C172.78,171.97 172.83,172.18 173.03,172.35C173.34,172.61 174.09,172.72 174.55,172.93C174.95,173.11 175.33,173.3 175.63,173.51C175.88,173.69 175.98,173.92 176.25,174.09C176.61,174.32 177.2,174.48 177.69,174.67C178.19,174.87 178.71,175.05 179.2,175.25C179.66,175.44 180.13,175.62 180.54,175.83C180.9,176.01 181.15,176.23 181.53,176.41C182,176.63 182.63,176.8 183.18,176.99C183.73,177.18 184.51,177.3 184.82,177.57C185.01,177.73 184.93,177.99 185.13,178.15C185.46,178.43 186.66,178.44 186.89,178.73C187.02,178.89 186.85,179.14 186.95,179.31C187.07,179.53 187.51,179.68 187.7,179.89C187.86,180.07 187.91,180.28 188.05,180.46C188.2,180.66 188.36,180.87 188.6,181.04C188.91,181.27 189.63,181.37 189.82,181.62C189.95,181.79 189.76,182.04 189.92,182.2C190.27,182.56 192.31,182.46 192.87,182.78C193.15,182.94 193.3,183.15 193.39,183.36C193.46,183.54 193.38,183.75 193.42,183.94C193.46,184.14 193.48,184.36 193.66,184.52C193.99,184.82 195.32,184.81 195.65,185.1C195.83,185.26 195.69,185.52 195.9,185.68C196.43,186.09 199.19,185.91 199.9,186.26C200.22,186.42 200.37,186.63 200.49,186.84C200.59,187.02 200.55,187.23 200.62,187.42C200.69,187.62 200.78,187.82 200.91,188C201.05,188.2 201.21,188.41 201.45,188.58C201.77,188.81 202.33,188.96 202.73,189.16C203.09,189.34 203.47,189.52 203.73,189.74C203.94,189.92 204.09,190.12 204.21,190.32C204.32,190.5 204.25,190.74 204.43,190.9C204.79,191.22 206.05,191.28 206.78,191.48C207.43,191.66 208.16,191.81 208.62,192.05C208.94,192.22 209.01,192.47 209.37,192.63C210.01,192.92 212.03,192.84 212.33,193.21C212.46,193.37 212.32,193.6 212.33,193.79C212.34,193.98 212.26,194.2 212.37,194.37C212.54,194.62 213.1,194.78 213.59,194.95C214.28,195.19 215.35,195.33 216.18,195.53C216.95,195.72 217.98,195.81 218.38,196.11C218.6,196.27 218.64,196.49 218.74,196.69C218.84,196.88 218.94,197.07 218.99,197.27C219.04,197.46 218.96,197.67 219.05,197.85C219.16,198.07 219.36,198.27 219.67,198.43C220.25,198.73 221.5,198.82 222.48,199.01C223.53,199.21 224.8,199.37 225.78,199.59C226.59,199.77 227.59,199.87 227.96,200.17C228.16,200.33 228.05,200.59 228.24,200.75C228.55,201.03 229.35,201.15 229.97,201.33C230.67,201.54 231.47,201.72 232.25,201.91C233.07,202.11 234.44,202.16 234.78,202.49C234.95,202.65 234.88,202.88 234.93,203.07C234.98,203.26 234.97,203.46 235.07,203.64C235.19,203.85 235.4,204.05 235.69,204.22C236.13,204.48 237.25,204.52 237.61,204.8C237.81,204.96 237.76,205.21 237.94,205.38C238.18,205.61 238.52,205.8 239.01,205.96C239.91,206.26 242.04,206.27 243.03,206.54C243.64,206.7 243.97,206.93 244.45,207.12C244.93,207.31 245.52,207.47 245.9,207.7C246.19,207.87 246.48,208.06 246.6,208.28C246.7,208.46 246.52,208.7 246.67,208.86C247.02,209.24 249.18,209.13 249.82,209.44C250.15,209.6 250.19,209.85 250.48,210.02C250.89,210.26 251.63,210.4 252.16,210.6C252.64,210.78 253,211 253.51,211.18C254.14,211.4 255.25,211.47 255.66,211.76C255.89,211.92 255.81,212.18 256.06,212.34C256.64,212.71 259.03,212.59 259.73,212.92C260.07,213.08 260.13,213.31 260.37,213.5C260.63,213.7 260.95,213.88 261.22,214.08C261.48,214.27 261.64,214.49 261.97,214.66C262.44,214.9 263.19,215.04 263.83,215.23C264.51,215.43 265.32,215.6 265.96,215.81C266.51,215.99 267.04,216.17 267.46,216.39C267.79,216.57 267.97,216.79 268.3,216.97C268.71,217.19 269.55,217.28 269.78,217.55C269.92,217.71 269.87,217.94 269.92,218.13C269.98,218.32 269.95,218.55 270.11,218.71C270.4,219 271.46,219.05 271.92,219.29C272.25,219.46 272.39,219.69 272.7,219.87C273.09,220.09 273.51,220.28 274.1,220.45C275.01,220.71 277.22,220.64 277.68,221.03C277.87,221.19 277.77,221.43 277.88,221.61C278.01,221.82 278.15,222.03 278.47,222.19C279.17,222.54 281.83,222.37 282.31,222.77C282.5,222.93 282.35,223.19 282.51,223.35C282.79,223.63 283.84,223.68 284.24,223.93C284.51,224.1 284.5,224.35 284.81,224.51C285.5,224.86 287.34,224.9 288.66,225.09C290.05,225.29 291.97,225.38 292.95,225.67C293.5,225.83 293.9,226.01 294.17,226.25C294.36,226.42 294.33,226.66 294.55,226.82C294.93,227.1 295.82,227.22 296.51,227.4C297.27,227.6 298.44,227.69 298.93,227.98C299.21,228.14 299.36,228.35 299.46,228.56C299.54,228.74 299.51,228.95 299.53,229.14C299.55,229.33 299.43,229.56 299.59,229.72C300.02,230.16 302.6,230.09 303.96,230.3C305.17,230.48 306.4,230.65 307.37,230.88C308.1,231.05 309.02,231.16 309.28,231.46C309.42,231.62 309.33,231.85 309.36,232.04C309.39,232.23 309.33,232.46 309.48,232.62C309.78,232.94 310.83,233.03 311.67,233.2C312.77,233.43 314.39,233.56 315.52,233.78C316.42,233.96 317.49,234.05 317.92,234.36C318.15,234.52 318.12,234.76 318.3,234.94C318.53,235.16 318.94,235.33 319.26,235.52C319.58,235.71 319.94,235.89 320.2,236.1C320.43,236.28 320.43,236.52 320.77,236.68C321.77,237.15 327.04,236.7 327.64,237.26C327.81,237.42 327.56,237.68 327.73,237.84C328.21,238.3 331.66,238.05 332.56,238.41C332.97,238.57 332.98,238.83 333.35,238.99C333.96,239.27 335.49,239.28 336.06,239.57C336.38,239.73 336.49,239.96 336.7,240.15C336.92,240.34 337.05,240.56 337.35,240.73C337.81,240.99 338.92,241.03 339.32,241.31C339.55,241.47 339.55,241.71 339.75,241.89C340,242.11 340.36,242.29 340.74,242.47C341.19,242.68 342.02,242.78 342.29,243.05C342.45,243.21 342.4,243.44 342.5,243.63C342.61,243.83 342.79,244.02 342.93,244.21C343.07,244.4 343.09,244.63 343.35,244.79C343.92,245.14 346.21,245.01 346.75,245.37C346.99,245.53 346.92,245.78 347.12,245.95C347.41,246.2 348.01,246.35 348.5,246.53C349.05,246.73 349.92,246.84 350.25,247.11C350.45,247.27 350.38,247.53 350.58,247.69C350.93,247.97 351.96,248.04 352.47,248.27C352.85,248.44 353.13,248.64 353.41,248.85C353.66,249.03 353.9,249.22 354.06,249.43C354.2,249.61 354.18,249.84 354.36,250C354.65,250.26 355.54,250.33 355.88,250.58C356.11,250.75 356.14,250.98 356.33,251.16C356.55,251.37 356.83,251.55 357.12,251.74C357.43,251.94 357.77,252.14 358.14,252.32C358.56,252.53 359.27,252.64 359.54,252.9C359.72,253.07 359.63,253.32 359.82,253.48C360.15,253.76 361.12,253.84 361.66,254.06C362.11,254.24 362.54,254.42 362.85,254.64C363.1,254.82 363.29,255.01 363.43,255.22C363.55,255.4 363.49,255.64 363.67,255.8C363.99,256.09 364.81,256.21 365.55,256.38C366.56,256.61 368.67,256.58 369.18,256.96C369.39,257.12 369.22,257.38 369.45,257.54C370.21,258.07 374.5,257.87 376.31,258.12C377.51,258.29 378.29,258.51 379.28,258.7C380.26,258.89 381.21,259.09 382.22,259.28C383.3,259.48 384.66,259.62 385.59,259.86C386.26,260.03 386.89,260.19 387.29,260.44C387.56,260.61 387.65,260.84 387.88,261.02C388.14,261.22 388.5,261.39 388.76,261.59C388.99,261.77 389.28,261.95 389.38,262.17C389.46,262.35 389.3,262.59 389.42,262.75C389.64,263.03 390.78,263.06 391.09,263.33C391.28,263.49 391.21,263.74 391.39,263.91C391.65,264.16 392.34,264.26 392.67,264.49C392.93,264.66 393.03,264.89 393.27,265.07C393.56,265.28 393.84,265.49 394.33,265.65C395.28,265.96 397.85,265.9 398.72,266.23C399.14,266.39 399.16,266.65 399.57,266.81C400.36,267.12 402.2,267.18 403.37,267.39C404.38,267.57 405.55,267.69 406.17,267.97C406.53,268.13 406.57,268.39 406.92,268.55C407.53,268.83 408.65,268.95 409.65,269.13C410.86,269.35 412.51,269.49 413.68,269.71C414.59,269.88 415.62,269.99 416.08,270.29C416.33,270.45 416.32,270.7 416.54,270.87C416.85,271.11 417.36,271.28 417.88,271.45C418.57,271.68 419.45,271.85 420.33,272.03C421.33,272.24 423.01,272.27 423.55,272.61C423.8,272.77 423.68,273.02 423.96,273.18C424.81,273.66 429.01,273.44 430.43,273.76C431.16,273.92 431.81,274.06 432.03,274.34C432.16,274.5 431.97,274.76 432.1,274.92C432.33,275.2 433.29,275.27 433.73,275.5C434.07,275.67 434.3,275.88 434.56,276.08C434.8,276.27 434.91,276.5 435.24,276.66C435.81,276.94 437.19,277 437.88,277.24C438.35,277.41 438.57,277.65 439.03,277.82C439.65,278.05 440.42,278.23 441.29,278.4C442.46,278.63 444.81,278.59 445.43,278.98C445.68,279.14 445.72,279.36 445.81,279.56C445.9,279.75 445.82,279.98 445.98,280.14C446.29,280.44 447.73,280.41 448.03,280.72C448.19,280.88 448.03,281.14 448.18,281.3C448.44,281.58 449.3,281.69 449.86,281.88C450.41,282.07 451.16,282.2 451.49,282.46C451.7,282.63 451.67,282.87 451.86,283.04C452.11,283.27 452.48,283.46 452.98,283.62C453.87,283.91 455.5,284.02 456.84,284.2C458.29,284.4 460.97,284.32 461.38,284.77C461.53,284.93 461.33,285.17 461.4,285.35C461.48,285.56 461.64,285.76 461.88,285.93C462.25,286.19 463.02,286.31 463.54,286.51C464.01,286.69 464.66,286.83 464.87,287.09C465,287.26 464.88,287.5 464.99,287.67C465.13,287.89 465.46,288.07 465.77,288.25C466.15,288.47 466.6,288.66 467.14,288.83C467.87,289.06 469.31,289.1 469.8,289.41C470.05,289.57 469.99,289.83 470.24,289.99C470.74,290.31 472.39,290.28 472.98,290.57C473.31,290.73 473.28,290.99 473.67,291.15C474.7,291.58 479.34,291.22 480.1,291.73C480.34,291.89 480.34,292.11 480.41,292.31C480.47,292.5 480.34,292.73 480.5,292.89C480.88,293.27 482.79,293.26 483.81,293.47C484.7,293.65 485.59,293.83 486.3,294.05C486.86,294.22 487.15,294.46 487.76,294.63C488.71,294.89 490.25,295.02 491.52,295.21C492.81,295.41 494.88,295.4 495.42,295.79C495.64,295.95 495.5,296.2 495.71,296.36C496.17,296.71 498.37,296.58 498.75,296.94C498.92,297.1 498.75,297.35 498.89,297.52C499.12,297.79 499.82,297.91 500.31,298.1C500.82,298.3 501.63,298.41 501.87,298.68C502.01,298.84 501.9,299.08 502,299.26C502.12,299.47 502.32,299.68 502.62,299.84C503.14,300.12 504.64,300.1 505.04,300.42C505.24,300.58 505.15,300.83 505.33,301C505.61,301.26 506.17,301.41 506.75,301.58C507.59,301.83 508.78,301.98 509.93,302.16C511.29,302.37 513.85,302.31 514.38,302.74C514.58,302.9 514.4,303.16 514.58,303.32C514.97,303.66 516.65,303.63 517.29,303.9C517.69,304.07 517.94,304.27 518.19,304.48C518.41,304.66 518.47,304.89 518.73,305.06C519.14,305.32 519.91,305.45 520.55,305.64C521.24,305.84 522.12,305.99 522.72,306.22C523.18,306.39 523.71,306.55 523.89,306.8C524.01,306.97 523.94,307.19 523.96,307.38C523.98,307.57 523.95,307.77 524.02,307.95C524.1,308.15 524.29,308.34 524.45,308.53C524.62,308.73 524.81,308.93 525.04,309.11C525.31,309.32 525.74,309.47 525.98,309.69C526.17,309.87 526.18,310.1 526.41,310.27C526.77,310.53 527.64,310.63 528.13,310.85C528.53,311.03 528.81,311.24 529.18,311.43C529.57,311.63 530.2,311.76 530.39,312.01C530.52,312.18 530.35,312.43 530.5,312.59C530.79,312.9 531.87,312.98 532.59,313.17C533.37,313.37 534.19,313.56 535.01,313.75C535.84,313.95 536.88,314.09 537.53,314.33C537.98,314.5 538.35,314.69 538.62,314.91C538.83,315.08 538.8,315.33 539.1,315.49C539.96,315.95 544.02,315.7 545.15,316.07C545.63,316.23 545.75,316.47 546.11,316.65C546.53,316.86 547.26,316.98 547.55,317.23C547.74,317.4 547.81,317.61 547.89,317.81C547.97,318 548.01,318.2 548.04,318.39C548.07,318.58 547.94,318.81 548.09,318.97C548.49,319.39 551.4,319.18 552.09,319.54C552.4,319.7 552.41,319.94 552.63,320.12C552.88,320.33 553.23,320.51 553.54,320.7C553.87,320.9 554.13,321.11 554.56,321.28C555.19,321.53 556.34,321.63 557,321.86C557.48,322.03 558.03,322.19 558.2,322.44C558.32,322.61 558.1,322.86 558.25,323.02C558.63,323.43 561.38,323.23 561.96,323.6C562.21,323.76 562.16,324.01 562.35,324.18C562.61,324.41 563.04,324.58 563.45,324.76C563.92,324.97 564.82,325.06 565.02,325.34C565.14,325.5 564.98,325.73 565.03,325.92C565.08,326.12 565.17,326.33 565.35,326.5C565.62,326.75 566.23,326.88 566.65,327.08C567.06,327.27 567.5,327.45 567.86,327.66C568.18,327.84 568.34,328.08 568.73,328.24C569.38,328.51 571.18,328.47 571.52,328.82C571.67,328.98 571.53,329.22 571.62,329.4C571.72,329.61 572,329.78 572.13,329.98C572.25,330.17 572.27,330.38 572.41,330.56C572.57,330.77 572.94,330.92 573.07,331.13C573.17,331.31 573.15,331.52 573.19,331.71C573.23,331.9 573.22,332.11 573.31,332.29C573.41,332.5 573.65,332.67 573.77,332.87C573.88,333.06 573.83,333.29 574.01,333.45C574.33,333.74 575.32,333.82 575.88,334.03C576.36,334.21 576.83,334.39 577.18,334.61C577.46,334.79 577.51,335.03 577.88,335.19C578.72,335.55 582.03,335.32 582.48,335.77C582.64,335.93 582.43,336.18 582.55,336.35C582.72,336.6 583.53,336.68 583.69,336.93C583.8,337.1 583.67,337.32 583.73,337.51C583.79,337.71 583.97,337.89 584.07,338.09C584.17,338.28 584.18,338.49 584.32,338.67C584.49,338.89 584.73,339.09 585.09,339.25C585.72,339.53 587.53,339.48 587.94,339.83C588.13,339.99 588.05,340.23 588.16,340.41C588.28,340.61 588.52,340.79 588.65,340.99C588.77,341.18 588.76,341.4 588.93,341.57C589.16,341.81 589.72,341.95 590.06,342.15C590.36,342.33 590.67,342.51 590.89,342.72C591.07,342.9 591.09,343.13 591.31,343.3C591.63,343.55 592.6,343.61 592.8,343.88C592.92,344.04 592.83,344.27 592.85,344.46C592.88,344.65 592.81,344.88 592.95,345.04C593.19,345.32 594.29,345.35 594.6,345.62C594.79,345.78 594.76,346.02 594.89,346.2C595.04,346.41 595.27,346.59 595.5,346.78C595.75,346.98 596.19,347.13 596.32,347.36C596.42,347.53 596.26,347.77 596.37,347.94C596.53,348.18 596.98,348.35 597.43,348.52C598.11,348.77 599.64,348.79 600.15,349.1C600.41,349.26 600.5,349.48 600.62,349.68C600.73,349.87 600.8,350.06 600.86,350.26C600.92,350.45 600.96,350.65 601,350.84C601.04,351.03 601.01,351.24 601.1,351.42C601.21,351.63 601.56,351.79 601.67,352C601.76,352.18 601.68,352.4 601.76,352.58C601.86,352.79 602.09,352.97 602.26,353.16C602.44,353.36 602.58,353.56 602.81,353.74C603.09,353.96 603.67,354.07 603.88,354.31C604.03,354.48 603.97,354.72 604.12,354.89C604.34,355.13 604.83,355.28 605.22,355.47C605.65,355.67 606.13,355.86 606.59,356.05C607.05,356.24 607.63,356.4 607.98,356.63C608.24,356.8 608.48,357 608.58,357.21C608.66,357.39 608.47,357.63 608.6,357.79C608.86,358.11 610.52,358.05 610.84,358.37C611,358.53 610.95,358.76 611,358.95C611.06,359.14 611.14,359.33 611.17,359.53C611.2,359.72 611.13,359.92 611.18,360.11C611.24,360.31 611.43,360.49 611.53,360.69C611.62,360.88 611.7,361.07 611.75,361.27C611.8,361.46 611.83,361.66 611.85,361.85C611.87,362.04 611.86,362.24 611.86,362.43C611.87,362.62 611.78,362.84 611.88,363.01C612.02,363.25 612.62,363.36 612.84,363.59C613.01,363.76 613.07,363.97 613.17,364.17C613.27,364.36 613.36,364.55 613.42,364.75C613.48,364.94 613.46,365.14 613.52,365.33C613.58,365.53 613.68,365.72 613.8,365.9C613.94,366.1 614.24,366.27 614.32,366.48C614.39,366.66 614.33,366.87 614.33,367.06C614.34,367.25 614.32,367.45 614.35,367.64C614.38,367.84 614.51,368.02 614.54,368.22C614.57,368.41 614.52,368.61 614.54,368.8C614.56,368.99 614.57,369.2 614.68,369.38C614.82,369.6 615.28,369.74 615.39,369.96C615.48,370.14 615.34,370.36 615.42,370.54C615.51,370.75 615.83,370.91 615.95,371.12C616.06,371.3 616.08,371.51 616.14,371.7C616.19,371.89 616.24,372.09 616.28,372.28C616.32,372.47 616.33,372.67 616.37,372.86C616.41,373.05 616.46,373.25 616.52,373.44C616.58,373.64 616.68,373.82 616.74,374.02C616.8,374.21 616.86,374.41 616.88,374.6C616.9,374.79 616.85,374.99 616.89,375.18C616.93,375.38 617.03,375.57 617.12,375.76C617.21,375.96 617.33,376.14 617.41,376.34C617.48,376.53 617.5,376.73 617.57,376.92C617.64,377.11 617.76,377.3 617.81,377.49C617.86,377.68 617.86,377.88 617.88,378.07C617.9,378.26 617.92,378.46 617.93,378.65C617.94,378.84 617.92,379.04 617.94,379.23C617.96,379.42 618.01,379.62 618.03,379.81C618.05,380 618.02,380.2 618.05,380.39C618.08,380.59 618.19,380.77 618.22,380.97C618.25,381.16 618.23,381.36 618.24,381.55C618.24,381.74 618.25,381.94 618.25,382.13C618.25,382.32 618.24,382.52 618.26,382.71C618.28,382.9 618.33,383.1 618.35,383.29C618.37,383.48 618.37,383.68 618.38,383.87C618.39,384.06 618.36,384.27 618.43,384.45C618.51,384.66 618.83,384.82 618.9,385.03C618.96,385.21 618.89,385.42 618.9,385.61C618.91,385.8 618.96,386 618.99,386.19C619.02,386.38 619.05,386.58 619.07,386.77C619.09,386.96 619.08,387.16 619.09,387.35C619.1,387.54 619.13,387.74 619.15,387.93C619.17,388.12 619.19,388.32 619.2,388.51C619.21,388.7 619.21,388.89 619.21,389.08C619.22,389.27 619.22,389.47 619.23,389.66C619.24,389.85 619.25,390.05 619.27,390.24C619.29,390.43 619.31,390.63 619.33,390.82C619.35,391.01 619.37,391.21 619.38,391.4C619.39,391.59 619.38,391.79 619.4,391.98C619.42,392.17 619.46,392.37 619.49,392.56C619.52,392.75 619.56,392.95 619.59,393.14C619.61,393.33 619.63,393.53 619.64,393.72C619.65,393.91 619.64,394.11 619.64,394.3C619.64,394.49 619.65,394.69 619.65,394.88C619.65,395.07 619.66,395.27 619.66,395.46C619.66,395.65 619.66,395.85 619.67,396.04C619.68,396.23 619.71,396.43 619.72,396.62C619.73,396.81 619.73,397.01 619.73,397.2C619.73,397.39 619.74,397.59 619.74,397.78C619.74,397.97 619.75,398.17 619.75,398.36C619.76,398.55 619.76,398.75 619.77,398.94C619.78,399.13 619.79,399.33 619.79,399.52C619.79,399.71 619.79,399.91 619.79,400.1C619.79,400.29 619.8,400.48 619.8,400.67C619.81,400.86 619.82,401.06 619.82,401.25C619.82,401.44 619.82,401.64 619.82,401.83C619.82,402.02 619.82,402.22 619.82,402.41C619.82,402.6 619.83,402.8 619.84,402.99C619.84,403.18 619.84,403.38 619.85,403.57C619.86,403.76 619.88,403.96 619.89,404.15C619.9,404.34 619.9,404.54 619.9,404.73C619.9,404.92 619.91,405.12 619.91,405.31C619.91,405.5 619.91,405.7 619.91,405.89C619.91,406.08 619.92,406.28 619.92,406.47C619.92,406.66 619.93,406.86 619.93,407.05C619.93,407.24 619.93,407.44 619.93,407.63C619.93,407.82 619.93,408.02 619.93,408.21C619.93,408.4 619.94,408.6 619.94,408.79C619.94,408.98 619.94,409.18 619.94,409.37C619.94,409.56 619.95,409.76 619.95,409.95C619.95,410.14 619.95,410.34 619.95,410.53C619.95,410.72 619.95,410.92 619.95,411.11C619.95,411.3 619.95,411.5 619.95,411.69C619.95,411.88 619.95,412.07 619.95,412.26C619.95,412.45 619.95,412.65 619.95,412.84C619.95,413.03 619.96,413.23 619.96,413.42C619.96,413.61 619.96,413.81 619.96,414C619.96,414.19 619.98,414.39 619.98,414.58C619.98,414.77 619.98,414.97 619.98,415.16C619.98,415.35 619.98,415.55 619.98,415.74C619.98,415.93 619.98,416.13 619.98,416.32C619.98,416.51 619.98,416.71 619.98,416.9C619.98,417.09 619.99,417.29 619.99,417.48C619.99,417.67 619.99,417.87 619.99,418.06C619.99,418.25 619.99,418.45 619.99,418.64C619.99,418.83 619.99,419.03 619.99,419.22C619.99,419.41 619.99,419.61 619.99,419.8C619.99,419.99 619.99,420.19 619.99,420.38C619.99,420.57 619.99,420.77 619.99,420.96C619.99,421.15 619.99,421.35 619.99,421.54C619.99,421.73 619.99,421.93 619.99,422.12C619.99,422.31 620,422.51 620,422.7C620,422.89 620,423.09 620,423.28C620,423.47 620,423.66 620,423.85C620,424.04 620,424.24 620,424.43C620,424.62 620,424.82 620,425.01C620,425.2 620,425.4 620,425.59C620,425.78 620,425.98 620,426.17C620,426.36 620,426.56 620,426.75C620,426.94 620,427.14 620,427.33C620,427.52 620,427.72 620,427.91C620,428.1 620,428.3 620,428.49C620,428.68 620,428.88 620,429.07C620,429.26 620,429.46 620,429.65C620,429.84 620,430.04 620,430.23C620,430.42 620,430.62 620,430.81C620,431 620,431.2 620,431.39C620,431.58 620,431.78 620,431.97C620,432.16 620,432.36 620,432.55C620,432.74 620,432.94 620,433.13C620,433.32 620,433.52 620,433.71C620,433.9 620,434.1 620,434.29C620,434.48 620,434.68 620,434.87C620,435.06 620,435.25 620,435.44C620,435.63 620,435.83 620,436.02C620,436.21 620,436.41 620,436.6C620,436.79 620,436.99 620,437.18C620,437.37 620,437.57 620,437.76C620,437.95 620,438.15 620,438.34C620,438.53 620,438.73 620,438.92C620,439.11 620,439.31 620,439.5C620,439.69 620,439.89 620,440.08C620,440.27 620,440.47 620,440.66C620,440.85 620,441.05 620,441.24C620,441.43 620,441.63 620,441.82C620,442.01 620,442.21 620,442.4C620,442.59 620,442.79 620,442.98C620,443.17 620,443.25 620,443.56C620,444.75 620,452.25 620,452.25C620,452.25 620,452.25 620,452.25C620,452.25 620,452.25 620,452.25C620,452.25 620,452.25 620,452.25C620,452.25 620,452.25 620,452.25C620,452.25 620,452.25 620,452.25C620,452.25 620,452.25 620,452.25C620,452.25 620,452.25 620,452.25C620,452.25 620,452.25 620,452.25C620,452.25 620,452.25 620,452.25C620,452.25 620,452.25 620,452.25C620,452.25 620,452.25 620,452.25C620,452.25 620,452.25 620,452.25C620,452.25 620,452.25 620,452.25Q620,452.25 620,452.25" style="vector-effect: non-scaling-stroke; fill: none; stroke: rgb(0, 0, 0); stroke-opacity: 1; stroke-width: 5px; opacity: 1;"/></g><g class="points"/><g class="text"/></g></g></g><g class="overplot"/><path class="xlines-above crisp" d="M78,531H700" style="fill: none; stroke-width: 2px; stroke: rgb(0, 0, 0); stroke-opacity: 1;"/><path class="ylines-above crisp" d="M79,50V530" style="fill: none; stroke-width: 2px; stroke: rgb(0, 0, 0); stroke-opacity: 1;"/><g class="overlines-above"/><g class="xaxislayer-above"><path class="xtick ticks crisp" d="M0,532v5" transform="translate(114.75,0)" style="stroke: rgb(0, 0, 0); stroke-opacity: 1; stroke-width: 3px;"/><path class="xtick ticks crisp" d="M0,532v5" transform="translate(231.8,0)" style="stroke: rgb(0, 0, 0); stroke-opacity: 1; stroke-width: 3px;"/><path class="xtick ticks crisp" d="M0,532v5" transform="translate(348.85,0)" style="stroke: rgb(0, 0, 0); stroke-opacity: 1; stroke-width: 3px;"/><path class="xtick ticks crisp" d="M0,532v5" transform="translate(465.9,0)" style="stroke: rgb(0, 0, 0); stroke-opacity: 1; stroke-width: 3px;"/><path class="xtick ticks crisp" d="M0,532v5" transform="translate(582.95,0)" style="stroke: rgb(0, 0, 0); stroke-opacity: 1; stroke-width: 3px;"/><path class="xtick ticks crisp" d="M0,532v5" transform="translate(700,0)" style="stroke: rgb(0, 0, 0); stroke-opacity: 1; stroke-width: 3px;"/><g class="xtick"><text text-anchor="middle" x="0" y="563.4" transform="translate(114.75,0)" style="font-family: Arial; font-size: 22px; fill: rgb(0, 0, 0); fill-opacity: 1; white-space: pre;">0</text></g><g class="xtick"><text text-anchor="middle" x="0" y="563.4" transform="translate(231.8,0)" style="font-family: Arial; font-size: 22px; fill: rgb(0, 0, 0); fill-opacity: 1; white-space: pre;">0.2</text></g><g class="xtick"><text text-anchor="middle" x="0" y="563.4" transform="translate(348.85,0)" style="font-family: Arial; font-size: 22px; fill: rgb(0, 0, 0); fill-opacity: 1; white-space: pre;">0.4</text></g><g class="xtick"><text text-anchor="middle" x="0" y="563.4" transform="translate(465.9,0)" style="font-family: Arial; font-size: 22px; fill: rgb(0, 0, 0); fill-opacity: 1; white-space: pre;">0.6</text></g><g class="xtick"><text text-anchor="middle" x="0" y="563.4" transform="translate(582.95,0)" style="font-family: Arial; font-size: 22px; fill: rgb(0, 0, 0); fill-opacity: 1; white-space: pre;">0.8</text></g><g class="xtick"><text text-anchor="middle" x="0" y="563.4" transform="translate(700,0)" style="font-family: Arial; font-size: 22px; fill: rgb(0, 0, 0); fill-opacity: 1; white-space: pre;">1</text></g></g><g class="yaxislayer-above"><path class="ytick ticks crisp" d="M78,0h-5" transform="translate(0,502.25)" style="stroke: rgb(0, 0, 0); stroke-opacity: 1; stroke-width: 3px;"/><path class="ytick ticks crisp" d="M78,0h-5" transform="translate(0,416.48)" style="stroke: rgb(0, 0, 0); stroke-opacity: 1; stroke-width: 3px;"/><path class="ytick ticks crisp" d="M78,0h-5" transform="translate(0,330.72)" style="stroke: rgb(0, 0, 0); stroke-opacity: 1; stroke-width: 3px;"/><path class="ytick ticks crisp" d="M78,0h-5" transform="translate(0,244.95)" style="stroke: rgb(0, 0, 0); stroke-opacity: 1; stroke-width: 3px;"/><path class="ytick ticks crisp" d="M78,0h-5" transform="translate(0,159.19)" style="stroke: rgb(0, 0, 0); stroke-opacity: 1; stroke-width: 3px;"/><path class="ytick ticks crisp" d="M78,0h-5" transform="translate(0,73.42)" style="stroke: rgb(0, 0, 0); stroke-opacity: 1; stroke-width: 3px;"/><g class="ytick"><text text-anchor="end" x="68.6" y="7.699999999999999" transform="translate(0,502.25)" style="font-family: Arial; font-size: 22px; fill: rgb(0, 0, 0); fill-opacity: 1; white-space: pre;">0</text></g><g class="ytick"><text text-anchor="end" x="68.6" y="7.699999999999999" transform="translate(0,416.48)" style="font-family: Arial; font-size: 22px; fill: rgb(0, 0, 0); fill-opacity: 1; white-space: pre;">0.2</text></g><g class="ytick"><text text-anchor="end" x="68.6" y="7.699999999999999" transform="translate(0,330.72)" style="font-family: Arial; font-size: 22px; fill: rgb(0, 0, 0); fill-opacity: 1; white-space: pre;">0.4</text></g><g class="ytick"><text text-anchor="end" x="68.6" y="7.699999999999999" transform="translate(0,244.95)" style="font-family: Arial; font-size: 22px; fill: rgb(0, 0, 0); fill-opacity: 1; white-space: pre;">0.6</text></g><g class="ytick"><text text-anchor="end" x="68.6" y="7.699999999999999" transform="translate(0,159.19)" style="font-family: Arial; font-size: 22px; fill: rgb(0, 0, 0); fill-opacity: 1; white-space: pre;">0.8</text></g><g class="ytick"><text text-anchor="end" x="68.6" y="7.699999999999999" transform="translate(0,73.42)" style="font-family: Arial; font-size: 22px; fill: rgb(0, 0, 0); fill-opacity: 1; white-space: pre;">1</text></g></g><g class="overaxes-above"/></g></g><g class="polarlayer"/><g class="ternarylayer"/><g class="geolayer"/><g class="funnelarealayer"/><g class="pielayer"/><g class="sunburstlayer"/><g class="glimages"/><defs id="topdefs-03a83f"><g class="clips"/></defs><g class="layer-above"><g class="imagelayer"/><g class="shapelayer"/></g><g class="infolayer"><g class="g-gtitle"><text class="gtitle" x="378" y="18" text-anchor="middle" dy="0.7em" style="font-family: Arial; font-size: 25px; fill: rgb(0, 0, 0); opacity: 1; font-weight: normal; white-space: pre;">Power of 12 Samples</text></g><g class="g-xtitle" transform="translate(0,-12)"><text class="xtitle" x="390" y="607" text-anchor="middle" style="font-family: Arial; font-size: 22px; fill: rgb(0, 0, 0); opacity: 1; font-weight: normal; white-space: pre;">Statistical Power</text></g><g class="g-ytitle"><text class="ytitle" transform="rotate(-90,25,290)" x="25" y="290" text-anchor="middle" style="font-family: Arial; font-size: 22px; fill: rgb(0, 0, 0); opacity: 1; font-weight: normal; white-space: pre;">Proportion of Compounds with Sample Size >= 12</text></g></g></svg>