<svg class="main-svg" xmlns="http://www.w3.org/2000/svg" xmlns:xlink="http://www.w3.org/1999/xlink" width="700" height="600" style="" viewBox="0 0 700 600"><rect x="0" y="0" width="700" height="600" style="fill: rgb(255, 255, 255); fill-opacity: 1;"/><defs id="defs-8c972e"><g class="clips"><clipPath id="clip8c972exyplot" class="plotclip"><rect width="620" height="480"/></clipPath><clipPath class="axesclip" id="clip8c972ex"><rect x="80" y="0" width="620" height="600"/></clipPath><clipPath class="axesclip" id="clip8c972ey"><rect x="0" y="50" width="700" height="480"/></clipPath><clipPath class="axesclip" id="clip8c972exy"><rect x="80" y="50" width="620" height="480"/></clipPath></g><g class="gradients"/></defs><g class="bglayer"/><g class="layer-below"><g class="imagelayer"/><g class="shapelayer"/></g><g class="cartesianlayer"><g class="subplot xy"><g class="layer-subplot"><g class="shapelayer"/><g class="imagelayer"/></g><g class="gridlayer"><g class="x"/><g class="y"><path class="ygrid crisp" transform="translate(0,502.25)" d="M80,0h620" style="stroke: rgb(153, 153, 153); stroke-opacity: 1; stroke-width: 1px;"/><path class="ygrid crisp" transform="translate(0,416.47)" d="M80,0h620" style="stroke: rgb(153, 153, 153); stroke-opacity: 1; stroke-width: 1px;"/><path class="ygrid crisp" transform="translate(0,330.69)" d="M80,0h620" style="stroke: rgb(153, 153, 153); stroke-opacity: 1; stroke-width: 1px;"/><path class="ygrid crisp" transform="translate(0,244.91)" d="M80,0h620" style="stroke: rgb(153, 153, 153); stroke-opacity: 1; stroke-width: 1px;"/><path class="ygrid crisp" transform="translate(0,159.14)" d="M80,0h620" style="stroke: rgb(153, 153, 153); stroke-opacity: 1; stroke-width: 1px;"/><path class="ygrid crisp" transform="translate(0,73.36)" d="M80,0h620" style="stroke: rgb(153, 153, 153); stroke-opacity: 1; stroke-width: 1px;"/></g></g><g class="zerolinelayer"/><path class="xlines-below"/><path class="ylines-below"/><g class="overlines-below"/><g class="xaxislayer-below"/><g class="yaxislayer-below"/><g class="overaxes-below"/><g class="plot" transform="translate(80, 50)" clip-path="url('#clip8c972exyplot')"><g class="scatterlayer mlayer"><g class="trace scatter trace3b7206" style="stroke-miterlimit: 2; opacity: 1;"><g class="fills"/><g class="errorbars"/><g class="lines"/><g class="points"><path class="point" transform="translate(34.75,452.25)" d="M3,0A3,3 0 1,1 0,-3A3,3 0 0,1 3,0Z" style="opacity: 1; stroke-width: 0px; fill: rgb(0, 0, 0); fill-opacity: 0;"/></g><g class="text"/></g><g class="trace scatter traceb092e8" style="stroke-miterlimit: 2; opacity: 1;"><g class="fills"/><g class="errorbars"/><g class="lines"><path class="js-line" d="M34.81,24Q34.81,24.4 34.81,24.6C34.81,24.81 34.81,25.03 34.81,25.24C34.81,25.46 34.81,25.67 34.81,25.89C34.81,26.1 34.81,26.32 34.81,26.53C34.81,26.73 34.81,26.93 34.81,27.13C34.81,27.34 34.81,27.56 34.81,27.77C34.81,27.99 34.81,28.2 34.81,28.42C34.81,28.63 34.81,28.85 34.81,29.06C34.81,29.26 34.81,29.46 34.81,29.66C34.81,29.87 34.81,30.09 34.81,30.3C34.81,30.52 34.81,30.74 34.81,30.95C34.81,31.15 34.81,31.35 34.81,31.55C34.81,31.76 34.81,31.98 34.81,32.19C34.81,32.41 34.81,32.62 34.81,32.84C34.81,33.05 34.81,33.27 34.81,33.48C34.81,33.68 34.81,33.88 34.81,34.08C34.81,34.29 34.81,34.51 34.81,34.72C34.81,34.94 34.81,35.15 34.81,35.37C34.81,35.58 34.81,35.8 34.81,36.01C34.81,36.21 34.81,36.41 34.81,36.61C34.81,36.82 34.81,37.04 34.81,37.25C34.81,37.47 34.81,37.69 34.81,37.9C34.81,38.1 34.81,38.3 34.81,38.5C34.81,38.71 34.81,38.93 34.81,39.14C34.81,39.35 34.81,39.57 34.81,39.78C34.81,40 34.81,40.22 34.81,40.43C34.81,40.63 34.81,40.83 34.81,41.03C34.81,41.24 34.81,41.46 34.81,41.67C34.81,41.88 34.8,42.1 34.81,42.31C34.82,42.53 34.86,42.75 34.87,42.96C34.88,43.16 34.87,43.36 34.87,43.56C34.87,43.77 34.87,43.99 34.87,44.2C34.87,44.41 34.87,44.63 34.87,44.84C34.87,45.04 34.87,45.24 34.87,45.44C34.87,45.65 34.87,45.87 34.87,46.09C34.87,46.3 34.87,46.52 34.87,46.73C34.87,46.94 34.87,47.16 34.87,47.37C34.87,47.58 34.87,47.77 34.87,47.98C34.87,48.19 34.87,48.41 34.87,48.62C34.87,48.83 34.87,49.05 34.87,49.26C34.87,49.48 34.87,49.7 34.87,49.91C34.87,50.11 34.87,50.31 34.87,50.51C34.87,50.72 34.87,50.94 34.87,51.15C34.87,51.36 34.87,51.58 34.87,51.79C34.87,51.99 34.87,52.19 34.87,52.39C34.87,52.6 34.87,52.82 34.87,53.04C34.87,53.25 34.87,53.47 34.87,53.68C34.87,53.89 34.87,54.11 34.87,54.32C34.87,54.52 34.87,54.72 34.87,54.92C34.87,55.13 34.87,55.35 34.87,55.57C34.87,55.78 34.87,56 34.87,56.21C34.87,56.42 34.87,56.64 34.87,56.85C34.87,57.05 34.87,57.25 34.87,57.45C34.87,57.66 34.87,57.88 34.87,58.1C34.87,58.31 34.87,58.53 34.87,58.74C34.87,58.94 34.87,59.14 34.87,59.34C34.87,59.55 34.87,59.77 34.87,59.98C34.87,60.2 34.87,60.41 34.87,60.63C34.87,60.84 34.87,61.06 34.87,61.27C34.87,61.47 34.87,61.67 34.87,61.87C34.87,62.08 34.87,62.3 34.87,62.51C34.87,62.73 34.87,62.94 34.87,63.16C34.87,63.37 34.87,63.59 34.87,63.8C34.87,64 34.87,64.2 34.87,64.4C34.87,64.61 34.87,64.83 34.87,65.05C34.87,65.26 34.87,65.48 34.87,65.69C34.87,65.89 34.87,66.09 34.87,66.29C34.87,66.5 34.87,66.72 34.87,66.93C34.87,67.15 34.87,67.36 34.87,67.58C34.87,67.79 34.87,68.01 34.87,68.22C34.87,68.42 34.87,68.62 34.87,68.82C34.87,69.03 34.87,69.25 34.87,69.46C34.87,69.68 34.87,69.89 34.87,70.11C34.87,70.32 34.87,70.54 34.87,70.75C34.87,70.95 34.87,71.15 34.87,71.35C34.87,71.56 34.87,71.78 34.87,71.99C34.87,72.21 34.87,72.43 34.87,72.64C34.87,72.84 34.86,73.04 34.87,73.24C34.88,73.45 34.92,73.67 34.93,73.88C34.94,74.09 34.93,74.31 34.93,74.52C34.93,74.74 34.93,74.96 34.93,75.17C34.93,75.37 34.93,75.57 34.93,75.77C34.93,75.98 34.93,76.2 34.93,76.41C34.93,76.62 34.93,76.84 34.93,77.05C34.93,77.27 34.93,77.49 34.93,77.7C34.93,77.9 34.93,78.1 34.93,78.3C34.93,78.51 34.93,78.73 34.93,78.94C34.93,79.15 34.93,79.37 34.93,79.58C34.93,79.79 34.93,79.98 34.93,80.19C34.93,80.4 34.93,80.62 34.93,80.83C34.93,81.04 34.93,81.26 34.93,81.47C34.93,81.69 34.93,81.91 34.93,82.12C34.93,82.32 34.93,82.52 34.93,82.72C34.93,82.93 34.93,83.15 34.93,83.36C34.93,83.57 34.93,83.79 34.93,84C34.93,84.22 34.93,84.44 34.93,84.65C34.93,84.85 34.93,85.05 34.93,85.25C34.93,85.46 34.93,85.68 34.93,85.89C34.93,86.1 34.93,86.32 34.93,86.53C34.93,86.73 34.93,86.93 34.93,87.13C34.93,87.34 34.93,87.56 34.93,87.78C34.93,87.99 34.93,88.21 34.93,88.42C34.93,88.63 34.93,88.85 34.93,89.06C34.93,89.26 34.93,89.46 34.93,89.66C34.93,89.87 34.93,90.09 34.93,90.31C34.93,90.52 34.93,90.74 34.93,90.95C34.93,91.16 34.92,91.38 34.93,91.59C34.94,91.79 34.97,91.99 34.98,92.19C34.99,92.4 34.98,92.62 34.98,92.84C34.98,93.05 34.98,93.27 34.98,93.48C34.98,93.68 34.98,93.88 34.98,94.08C34.98,94.29 34.98,94.51 34.98,94.72C34.98,94.94 34.98,95.15 34.98,95.37C34.98,95.58 34.98,95.8 34.98,96.01C34.98,96.21 34.98,96.41 34.98,96.61C34.98,96.82 34.98,97.04 34.98,97.25C34.98,97.47 34.98,97.68 34.98,97.9C34.98,98.11 34.98,98.33 34.98,98.54C34.98,98.74 34.98,98.94 34.98,99.14C34.98,99.35 34.98,99.57 34.98,99.79C34.98,100 34.98,100.22 34.98,100.43C34.98,100.63 34.98,100.83 34.98,101.03C34.98,101.24 34.98,101.46 34.98,101.67C34.98,101.89 34.97,102.1 34.98,102.32C34.99,102.53 35.03,102.75 35.04,102.96C35.05,103.16 35.04,103.36 35.04,103.56C35.04,103.77 35.04,103.99 35.04,104.2C35.04,104.42 35.04,104.63 35.04,104.85C35.04,105.06 35.04,105.28 35.04,105.49C35.04,105.69 35.04,105.89 35.04,106.09C35.04,106.3 35.04,106.52 35.04,106.73C35.04,106.95 35.04,107.17 35.04,107.38C35.04,107.58 35.04,107.78 35.04,107.98C35.04,108.19 35.04,108.41 35.04,108.62C35.04,108.83 35.04,109.05 35.04,109.26C35.04,109.48 35.03,109.7 35.04,109.91C35.05,110.11 35.09,110.31 35.1,110.51C35.11,110.72 35.1,110.94 35.1,111.15C35.1,111.36 35.1,111.58 35.1,111.79C35.1,112.01 35.1,112.23 35.1,112.44C35.1,112.64 35.1,112.84 35.1,113.04C35.1,113.25 35.1,113.47 35.1,113.68C35.1,113.89 35.1,114.11 35.1,114.32C35.1,114.53 35.1,114.72 35.1,114.93C35.1,115.14 35.1,115.36 35.1,115.57C35.1,115.78 35.1,116 35.1,116.21C35.1,116.43 35.1,116.65 35.1,116.86C35.1,117.06 35.1,117.26 35.1,117.46C35.1,117.67 35.1,117.89 35.1,118.1C35.1,118.31 35.1,118.53 35.1,118.74C35.1,118.96 35.1,119.18 35.1,119.39C35.1,119.59 35.1,119.79 35.1,119.99C35.1,120.2 35.1,120.42 35.1,120.63C35.1,120.84 35.09,121.06 35.1,121.27C35.11,121.47 35.15,121.67 35.16,121.87C35.17,122.08 35.16,122.3 35.16,122.52C35.16,122.73 35.16,122.95 35.16,123.16C35.16,123.37 35.16,123.59 35.16,123.8C35.16,124 35.16,124.2 35.16,124.4C35.16,124.61 35.16,124.83 35.16,125.05C35.16,125.26 35.16,125.48 35.16,125.69C35.16,125.9 35.16,126.12 35.16,126.33C35.16,126.53 35.15,126.73 35.16,126.93C35.17,127.14 35.21,127.36 35.22,127.58C35.23,127.79 35.22,128.01 35.22,128.22C35.22,128.42 35.22,128.62 35.22,128.82C35.22,129.03 35.22,129.25 35.22,129.46C35.22,129.68 35.22,129.89 35.22,130.11C35.22,130.32 35.22,130.54 35.22,130.75C35.22,130.95 35.22,131.15 35.22,131.35C35.22,131.56 35.21,131.78 35.22,132C35.23,132.21 35.27,132.43 35.28,132.64C35.29,132.85 35.28,133.07 35.28,133.28C35.28,133.48 35.28,133.68 35.28,133.88C35.28,134.09 35.28,134.31 35.28,134.53C35.28,134.74 35.28,134.96 35.28,135.17C35.28,135.38 35.28,135.6 35.28,135.81C35.28,136.01 35.28,136.21 35.28,136.41C35.28,136.62 35.28,136.84 35.28,137.06C35.28,137.27 35.28,137.49 35.28,137.7C35.28,137.9 35.28,138.1 35.28,138.3C35.28,138.51 35.27,138.73 35.28,138.94C35.29,139.16 35.33,139.37 35.34,139.59C35.35,139.8 35.34,140.02 35.34,140.23C35.34,140.43 35.34,140.63 35.34,140.83C35.34,141.04 35.34,141.26 35.34,141.47C35.34,141.69 35.34,141.9 35.34,142.12C35.34,142.33 35.34,142.55 35.34,142.76C35.34,142.96 35.34,143.16 35.34,143.36C35.34,143.57 35.34,143.79 35.34,144C35.34,144.22 35.34,144.44 35.34,144.65C35.34,144.85 35.34,145.05 35.34,145.25C35.34,145.46 35.34,145.68 35.34,145.89C35.34,146.1 35.33,146.32 35.34,146.53C35.35,146.75 35.38,146.97 35.39,147.18C35.4,147.38 35.39,147.58 35.39,147.78C35.39,147.99 35.39,148.21 35.39,148.42C35.39,148.64 35.39,148.85 35.39,149.07C35.39,149.28 35.39,149.5 35.39,149.71C35.39,149.91 35.39,150.11 35.39,150.31C35.39,150.52 35.39,150.74 35.39,150.95C35.39,151.17 35.38,151.39 35.39,151.6C35.4,151.8 35.44,152 35.45,152.2C35.46,152.41 35.44,152.63 35.45,152.84C35.46,153.05 35.5,153.27 35.51,153.48C35.52,153.7 35.51,153.92 35.51,154.13C35.51,154.33 35.51,154.53 35.51,154.73C35.51,154.94 35.51,155.16 35.51,155.37C35.51,155.58 35.51,155.8 35.51,156.01C35.51,156.23 35.51,156.45 35.51,156.66C35.51,156.86 35.51,157.06 35.51,157.26C35.51,157.47 35.51,157.69 35.51,157.9C35.51,158.11 35.5,158.33 35.51,158.54C35.52,158.74 35.56,158.94 35.57,159.14C35.58,159.35 35.57,159.57 35.57,159.79C35.57,160 35.56,160.22 35.57,160.43C35.58,160.64 35.62,160.86 35.63,161.07C35.64,161.27 35.63,161.47 35.63,161.67C35.63,161.88 35.63,162.1 35.63,162.32C35.63,162.53 35.63,162.75 35.63,162.96C35.63,163.17 35.63,163.39 35.63,163.6C35.63,163.81 35.63,164 35.63,164.21C35.63,164.42 35.62,164.64 35.63,164.85C35.64,165.06 35.68,165.28 35.69,165.49C35.7,165.69 35.69,165.89 35.69,166.09C35.69,166.3 35.69,166.52 35.69,166.74C35.69,166.95 35.69,167.17 35.69,167.38C35.69,167.59 35.69,167.81 35.69,168.02C35.69,168.22 35.69,168.42 35.69,168.62C35.69,168.83 35.69,169.05 35.69,169.27C35.69,169.48 35.69,169.7 35.69,169.91C35.69,170.12 35.69,170.34 35.69,170.55C35.69,170.75 35.68,170.95 35.69,171.15C35.7,171.36 35.73,171.58 35.74,171.8C35.75,172.01 35.74,172.23 35.74,172.44C35.74,172.64 35.74,172.84 35.74,173.04C35.74,173.25 35.73,173.47 35.74,173.68C35.75,173.9 35.79,174.11 35.8,174.33C35.81,174.54 35.8,174.76 35.8,174.97C35.8,175.17 35.8,175.37 35.8,175.57C35.8,175.78 35.79,176 35.8,176.21C35.81,176.43 35.85,176.64 35.86,176.86C35.87,177.07 35.86,177.29 35.86,177.5C35.86,177.7 35.86,177.9 35.86,178.1C35.86,178.31 35.85,178.53 35.86,178.74C35.87,178.96 35.91,179.18 35.92,179.39C35.93,179.59 35.92,179.79 35.92,179.99C35.92,180.2 35.91,180.42 35.92,180.63C35.93,180.85 35.97,181.06 35.98,181.28C35.99,181.49 35.98,181.71 35.98,181.92C35.98,182.12 35.98,182.32 35.98,182.52C35.98,182.73 35.98,182.95 35.98,183.16C35.98,183.38 35.97,183.59 35.98,183.81C35.99,184.02 36.03,184.24 36.04,184.45C36.05,184.65 36.04,184.85 36.04,185.05C36.04,185.26 36.04,185.48 36.04,185.69C36.04,185.91 36.04,186.13 36.04,186.34C36.04,186.54 36.03,186.74 36.04,186.94C36.05,187.15 36.09,187.37 36.1,187.58C36.11,187.79 36.1,188.01 36.1,188.22C36.1,188.44 36.1,188.66 36.1,188.87C36.1,189.07 36.1,189.27 36.1,189.47C36.1,189.68 36.09,189.9 36.1,190.11C36.11,190.32 36.14,190.54 36.15,190.75C36.16,190.97 36.15,191.19 36.15,191.4C36.15,191.6 36.14,191.8 36.15,192C36.16,192.21 36.2,192.43 36.21,192.64C36.22,192.85 36.21,193.07 36.21,193.28C36.21,193.48 36.21,193.68 36.21,193.88C36.21,194.09 36.21,194.31 36.21,194.53C36.21,194.74 36.2,194.96 36.21,195.17C36.22,195.38 36.26,195.6 36.27,195.81C36.28,196.02 36.27,196.21 36.27,196.42C36.27,196.63 36.27,196.85 36.27,197.06C36.27,197.27 36.26,197.49 36.27,197.7C36.28,197.92 36.32,198.14 36.33,198.35C36.34,198.55 36.33,198.75 36.33,198.95C36.33,199.16 36.33,199.38 36.33,199.59C36.33,199.8 36.33,200.02 36.33,200.23C36.33,200.43 36.32,200.63 36.33,200.83C36.34,201.04 36.38,201.26 36.39,201.48C36.4,201.69 36.39,201.91 36.39,202.12C36.39,202.33 36.38,202.55 36.39,202.76C36.4,202.96 36.43,203.16 36.45,203.36C36.47,203.57 36.5,203.79 36.51,204.01C36.52,204.22 36.51,204.44 36.51,204.65C36.51,204.86 36.5,205.08 36.51,205.29C36.52,205.49 36.55,205.69 36.56,205.89C36.57,206.1 36.55,206.32 36.56,206.54C36.57,206.75 36.6,206.97 36.62,207.18C36.64,207.38 36.67,207.58 36.68,207.78C36.69,207.99 36.67,208.21 36.68,208.42C36.69,208.64 36.73,208.85 36.74,209.07C36.75,209.28 36.73,209.5 36.74,209.71C36.75,209.91 36.79,210.11 36.8,210.31C36.81,210.52 36.8,210.74 36.8,210.95C36.8,211.17 36.8,211.38 36.8,211.6C36.8,211.81 36.8,212.03 36.8,212.24C36.8,212.44 36.8,212.64 36.8,212.84C36.8,213.05 36.79,213.27 36.8,213.49C36.81,213.7 36.85,213.92 36.86,214.13C36.87,214.33 36.86,214.53 36.86,214.73C36.86,214.94 36.86,215.16 36.86,215.37C36.86,215.59 36.85,215.8 36.86,216.02C36.87,216.23 36.91,216.45 36.92,216.66C36.93,216.86 36.91,217.06 36.92,217.26C36.93,217.47 36.95,217.69 36.97,217.9C36.99,218.12 37.02,218.33 37.03,218.55C37.04,218.76 37.02,218.98 37.03,219.19C37.04,219.39 37.08,219.59 37.09,219.79C37.1,220 37.08,220.22 37.09,220.43C37.1,220.65 37.14,220.87 37.15,221.08C37.16,221.28 37.15,221.48 37.15,221.68C37.15,221.89 37.15,222.11 37.15,222.32C37.15,222.53 37.14,222.75 37.15,222.96C37.16,223.18 37.17,223.4 37.21,223.61C37.25,223.82 37.35,224 37.38,224.21C37.41,224.42 37.37,224.64 37.38,224.85C37.39,225.06 37.43,225.28 37.44,225.49C37.45,225.71 37.43,225.93 37.44,226.14C37.45,226.34 37.49,226.54 37.5,226.74C37.51,226.95 37.49,227.17 37.5,227.38C37.51,227.59 37.55,227.81 37.56,228.02C37.57,228.23 37.56,228.42 37.56,228.63C37.56,228.84 37.55,229.06 37.56,229.27C37.57,229.48 37.61,229.7 37.62,229.91C37.63,230.13 37.62,230.35 37.62,230.56C37.62,230.76 37.62,230.96 37.62,231.16C37.62,231.37 37.62,231.59 37.62,231.8C37.62,232.01 37.62,232.23 37.62,232.44C37.62,232.66 37.61,232.88 37.62,233.09C37.63,233.29 37.67,233.49 37.68,233.69C37.69,233.9 37.68,234.12 37.68,234.33C37.68,234.54 37.68,234.76 37.68,234.97C37.68,235.17 37.67,235.37 37.68,235.57C37.69,235.78 37.71,236 37.73,236.22C37.75,236.43 37.78,236.65 37.79,236.86C37.8,237.07 37.79,237.29 37.79,237.5C37.79,237.7 37.76,237.9 37.79,238.1C37.82,238.31 37.94,238.53 37.97,238.75C38,238.96 37.95,239.18 37.97,239.39C37.99,239.6 38.06,239.82 38.09,240.03C38.12,240.23 38.13,240.43 38.14,240.63C38.15,240.84 38.13,241.06 38.14,241.28C38.15,241.49 38.18,241.71 38.2,241.92C38.22,242.12 38.25,242.32 38.26,242.52C38.27,242.73 38.26,242.95 38.26,243.16C38.26,243.38 38.25,243.59 38.26,243.81C38.27,244.02 38.3,244.24 38.32,244.45C38.34,244.65 38.37,244.85 38.38,245.05C38.39,245.26 38.38,245.48 38.38,245.69C38.38,245.91 38.38,246.12 38.38,246.34C38.38,246.55 38.38,246.77 38.38,246.98C38.38,247.18 38.37,247.38 38.38,247.58C38.39,247.79 38.43,248.01 38.44,248.23C38.45,248.44 38.43,248.66 38.44,248.87C38.45,249.07 38.49,249.27 38.5,249.47C38.51,249.68 38.49,249.9 38.5,250.11C38.51,250.33 38.54,250.54 38.55,250.76C38.56,250.97 38.54,251.19 38.55,251.4C38.56,251.6 38.59,251.8 38.61,252C38.63,252.21 38.65,252.43 38.67,252.64C38.69,252.86 38.71,253.07 38.73,253.29C38.75,253.5 38.75,253.72 38.79,253.93C38.83,254.14 38.93,254.32 38.96,254.53C38.99,254.74 38.96,254.96 38.96,255.17C38.96,255.39 38.95,255.61 38.96,255.82C38.97,256.02 39.01,256.22 39.02,256.42C39.03,256.63 39.01,256.85 39.02,257.06C39.03,257.27 39.07,257.49 39.08,257.7C39.09,257.92 39.06,258.14 39.08,258.35C39.1,258.56 39.18,258.75 39.2,258.95C39.22,259.16 39.2,259.38 39.2,259.59C39.2,259.8 39.19,260.02 39.2,260.23C39.21,260.45 39.25,260.67 39.26,260.88C39.27,261.08 39.25,261.28 39.26,261.48C39.27,261.69 39.3,261.91 39.31,262.12C39.32,262.33 39.31,262.55 39.31,262.76C39.31,262.97 39.31,263.16 39.31,263.37C39.31,263.58 39.3,263.8 39.31,264.01C39.32,264.22 39.35,264.44 39.37,264.65C39.39,264.87 39.42,265.09 39.43,265.3C39.44,265.5 39.4,265.7 39.43,265.9C39.46,266.11 39.57,266.32 39.61,266.54C39.65,266.75 39.63,266.97 39.67,267.18C39.71,267.4 39.8,267.62 39.84,267.83C39.88,268.03 39.89,268.23 39.9,268.43C39.91,268.64 39.89,268.86 39.9,269.07C39.91,269.28 39.93,269.5 39.96,269.71C39.99,269.91 40.06,270.1 40.08,270.31C40.1,270.52 40.08,270.74 40.08,270.96C40.08,271.17 40.06,271.39 40.08,271.6C40.1,271.81 40.16,272.03 40.19,272.24C40.22,272.44 40.23,272.64 40.25,272.84C40.27,273.05 40.3,273.27 40.31,273.49C40.32,273.7 40.3,273.92 40.31,274.13C40.32,274.34 40.35,274.56 40.37,274.77C40.39,274.97 40.42,275.17 40.43,275.37C40.44,275.58 40.41,275.8 40.43,276.02C40.45,276.23 40.5,276.45 40.54,276.66C40.58,276.86 40.64,277.06 40.66,277.26C40.68,277.47 40.63,277.69 40.66,277.9C40.69,278.12 40.75,278.34 40.84,278.55C40.93,278.77 41.12,278.97 41.19,279.19C41.25,279.39 41.24,279.59 41.25,279.79C41.26,280 41.24,280.22 41.25,280.44C41.26,280.65 41.29,280.87 41.3,281.08C41.31,281.29 41.27,281.51 41.3,281.72C41.33,281.93 41.44,282.11 41.48,282.32C41.52,282.53 41.53,282.75 41.54,282.97C41.55,283.18 41.53,283.4 41.54,283.61C41.55,283.81 41.59,284.01 41.6,284.21C41.61,284.42 41.58,284.64 41.6,284.85C41.62,285.07 41.68,285.28 41.71,285.5C41.74,285.71 41.76,285.93 41.77,286.14C41.78,286.34 41.77,286.54 41.77,286.74C41.77,286.95 41.77,287.17 41.77,287.38C41.77,287.6 41.75,287.82 41.77,288.03C41.79,288.25 41.86,288.46 41.89,288.67C41.92,288.87 41.93,289.07 41.95,289.27C41.97,289.48 41.96,289.7 42.01,289.91C42.06,290.13 42.18,290.35 42.24,290.56C42.3,290.76 42.33,290.96 42.36,291.16C42.39,291.37 42.41,291.59 42.42,291.8C42.43,292.01 42.42,292.23 42.42,292.44C42.42,292.66 42.41,292.88 42.42,293.09C42.43,293.29 42.47,293.49 42.48,293.69C42.49,293.9 42.45,294.12 42.48,294.33C42.51,294.55 42.6,294.75 42.65,294.97C42.7,295.18 42.75,295.41 42.77,295.62C42.79,295.82 42.75,296.02 42.77,296.22C42.79,296.43 42.86,296.65 42.88,296.86C42.9,297.08 42.86,297.3 42.88,297.51C42.9,297.72 42.98,297.91 43,298.11C43.02,298.32 42.99,298.54 43,298.75C43.01,298.96 43.04,299.18 43.06,299.39C43.08,299.61 43.11,299.83 43.12,300.04C43.13,300.24 43.11,300.44 43.12,300.64C43.13,300.85 43.17,301.07 43.18,301.28C43.19,301.49 43.16,301.71 43.18,301.92C43.2,302.14 43.24,302.36 43.29,302.57C43.34,302.78 43.42,302.97 43.47,303.17C43.52,303.38 43.54,303.6 43.59,303.81C43.64,304.02 43.72,304.24 43.76,304.45C43.8,304.65 43.8,304.85 43.82,305.05C43.84,305.26 43.83,305.49 43.88,305.7C43.93,305.92 44.06,306.12 44.11,306.34C44.16,306.55 44.14,306.77 44.17,306.98C44.2,307.18 44.25,307.38 44.29,307.58C44.33,307.79 44.36,308.02 44.41,308.23C44.46,308.45 44.54,308.66 44.58,308.87C44.62,309.08 44.63,309.3 44.64,309.51C44.65,309.71 44.63,309.91 44.64,310.11C44.65,310.32 44.65,310.55 44.7,310.76C44.75,310.98 44.88,311.19 44.93,311.4C44.98,311.6 44.98,311.8 44.99,312C45,312.21 44.99,312.43 44.99,312.65C44.99,312.86 44.98,313.08 44.99,313.29C45,313.5 45.02,313.72 45.05,313.93C45.08,314.13 45.13,314.33 45.17,314.53C45.21,314.74 45.26,314.96 45.28,315.18C45.3,315.39 45.25,315.61 45.28,315.82C45.31,316.04 45.4,316.25 45.46,316.46C45.52,316.66 45.6,316.85 45.64,317.06C45.68,317.27 45.64,317.5 45.69,317.71C45.74,317.93 45.88,318.14 45.93,318.35C45.98,318.55 45.97,318.75 45.99,318.95C46.01,319.16 46.01,319.38 46.05,319.59C46.09,319.81 46.14,320.03 46.22,320.24C46.3,320.46 46.43,320.67 46.51,320.88C46.59,321.08 46.65,321.27 46.69,321.48C46.73,321.69 46.73,321.91 46.75,322.12C46.77,322.34 46.79,322.55 46.81,322.77C46.83,322.98 46.81,323.2 46.86,323.41C46.91,323.62 47,323.81 47.1,324.01C47.21,324.23 47.44,324.43 47.51,324.65C47.57,324.86 47.43,325.1 47.51,325.3C47.6,325.52 48,325.68 48.09,325.9C48.17,326.1 48.08,326.33 48.09,326.54C48.1,326.75 48.13,326.97 48.15,327.18C48.17,327.4 48.2,327.62 48.21,327.83C48.22,328.03 48.19,328.23 48.21,328.43C48.23,328.64 48.3,328.86 48.33,329.07C48.36,329.29 48.32,329.51 48.39,329.72C48.47,329.94 48.7,330.14 48.8,330.36C48.89,330.56 48.86,330.77 48.97,330.96C49.11,331.19 49.51,331.36 49.62,331.6C49.71,331.8 49.58,332.05 49.67,332.25C49.78,332.48 50.2,332.62 50.32,332.85C50.43,333.04 50.38,333.28 50.43,333.49C50.48,333.7 50.57,333.91 50.61,334.13C50.65,334.34 50.65,334.57 50.67,334.78C50.69,334.98 50.7,335.18 50.73,335.38C50.76,335.59 50.77,335.81 50.84,336.02C50.92,336.24 51.14,336.44 51.2,336.66C51.25,336.87 51.19,337.1 51.2,337.31C51.21,337.51 51.18,337.72 51.25,337.91C51.33,338.13 51.65,338.32 51.72,338.55C51.79,338.75 51.65,338.99 51.72,339.19C51.79,339.41 52.02,339.59 52.19,339.79C52.37,340.01 52.63,340.21 52.78,340.44C52.91,340.64 52.99,340.86 53.07,341.08C53.14,341.29 53.16,341.51 53.24,341.72C53.32,341.93 53.46,342.11 53.54,342.32C53.62,342.53 53.64,342.76 53.71,342.97C53.78,343.19 53.88,343.39 53.95,343.61C54.02,343.82 54.04,344.04 54.12,344.25C54.21,344.46 54.35,344.66 54.47,344.86C54.6,345.07 54.8,345.28 54.88,345.5C54.95,345.71 54.86,345.94 54.94,346.14C55.03,346.37 55.32,346.57 55.47,346.79C55.61,346.99 55.76,347.18 55.82,347.39C55.87,347.59 55.78,347.82 55.82,348.03C55.86,348.25 56.01,348.46 56.05,348.67C56.08,348.87 55.99,349.08 56.05,349.27C56.12,349.49 56.43,349.69 56.52,349.92C56.6,350.12 56.56,350.35 56.58,350.56C56.6,350.77 56.62,350.99 56.64,351.2C56.66,351.4 56.67,351.6 56.7,351.8C56.73,352.01 56.75,352.24 56.81,352.45C56.87,352.67 57,352.87 57.05,353.09C57.1,353.3 57.04,353.53 57.11,353.73C57.19,353.94 57.43,354.12 57.52,354.33C57.6,354.53 57.55,354.77 57.63,354.98C57.72,355.2 57.86,355.42 58.04,355.62C58.24,355.84 58.69,355.99 58.8,356.22C58.89,356.41 58.69,356.67 58.8,356.86C58.95,357.12 59.61,357.26 59.86,357.51C60.06,357.7 60.19,357.93 60.27,358.15C60.34,358.35 60.31,358.55 60.33,358.75C60.35,358.96 60.29,359.19 60.38,359.39C60.49,359.63 60.89,359.8 61.03,360.04C61.15,360.24 61.15,360.47 61.2,360.68C61.25,360.88 61.23,361.09 61.32,361.28C61.43,361.51 61.77,361.7 61.85,361.93C61.92,362.13 61.85,362.36 61.85,362.57C61.85,362.77 61.79,362.97 61.85,363.17C61.91,363.39 62.15,363.59 62.26,363.81C62.36,364.02 62.4,364.25 62.49,364.46C62.59,364.68 62.76,364.88 62.84,365.1C62.91,365.3 62.8,365.53 62.96,365.7C63.27,366.03 64.55,366.11 65.24,366.34C65.84,366.54 66.61,366.69 66.88,366.99C67.04,367.17 66.88,367.45 67.06,367.63C67.41,367.97 68.89,367.95 69.46,368.23C69.83,368.41 69.99,368.66 70.27,368.87C70.57,369.09 71.05,369.27 71.21,369.52C71.33,369.7 71.2,369.94 71.33,370.12C71.52,370.38 72.11,370.53 72.44,370.76C72.74,370.96 73.09,371.16 73.26,371.4C73.4,371.6 73.3,371.87 73.49,372.05C73.81,372.36 75.12,372.34 75.42,372.65C75.59,372.83 75.51,373.08 75.6,373.29C75.69,373.51 75.8,373.72 75.95,373.93C76.11,374.16 76.3,374.38 76.54,374.58C76.81,374.81 77.3,374.94 77.53,375.18C77.71,375.37 77.7,375.63 77.88,375.82C78.12,376.07 78.57,376.26 78.94,376.46C79.32,376.67 79.76,376.84 80.11,377.06C80.43,377.26 80.63,377.51 80.98,377.71C81.43,377.96 82.31,378.06 82.62,378.35C82.82,378.54 82.84,378.78 82.92,379C82.99,379.2 83,379.4 83.09,379.6C83.19,379.82 83.42,380.02 83.5,380.24C83.57,380.45 83.5,380.67 83.56,380.88C83.63,381.1 83.71,381.35 83.91,381.53C84.2,381.8 84.78,381.94 85.32,382.13C86.02,382.37 87.47,382.42 87.77,382.77C87.92,382.95 87.74,383.21 87.83,383.41C87.93,383.63 88.16,383.83 88.42,384.01C88.78,384.26 89.43,384.43 89.88,384.66C90.28,384.86 90.69,385.06 90.99,385.3C91.24,385.5 91.43,385.72 91.58,385.94C91.71,386.13 91.73,386.35 91.87,386.54C92.04,386.77 92.46,386.95 92.57,387.19C92.66,387.39 92.44,387.65 92.57,387.83C92.8,388.15 94.18,388.16 94.45,388.47C94.6,388.64 94.46,388.88 94.56,389.07C94.68,389.3 95.06,389.49 95.21,389.72C95.34,389.92 95.26,390.18 95.44,390.36C95.75,390.66 96.9,390.68 97.31,390.96C97.58,391.14 97.63,391.4 97.84,391.6C98.08,391.83 98.33,392.06 98.72,392.25C99.32,392.54 100.54,392.64 101.23,392.89C101.74,393.07 102.29,393.22 102.52,393.49C102.67,393.67 102.57,393.94 102.7,394.13C102.87,394.38 103.2,394.59 103.58,394.78C104.14,395.06 104.98,395.23 105.86,395.42C107.04,395.67 108.76,395.8 110.07,396.02C111.22,396.22 112.42,396.41 113.29,396.67C113.92,396.86 114.63,397.02 114.87,397.31C115.01,397.48 114.85,397.74 114.99,397.91C115.22,398.19 116.2,398.26 116.45,398.55C116.61,398.74 116.55,398.99 116.63,399.2C116.71,399.42 116.8,399.64 116.92,399.84C117.05,400.05 117.15,400.26 117.39,400.44C117.75,400.71 118.44,400.88 119.03,401.08C119.71,401.31 120.54,401.51 121.25,401.73C121.92,401.94 122.56,402.16 123.18,402.37C123.75,402.57 124.24,402.77 124.82,402.97C125.45,403.19 126.35,403.33 126.81,403.61C127.11,403.8 127.15,404.08 127.45,404.26C127.9,404.53 129,404.57 129.38,404.86C129.61,405.04 129.7,405.28 129.79,405.5C129.87,405.71 129.73,405.96 129.91,406.14C130.31,406.54 132.54,406.46 133.19,406.79C133.52,406.96 133.51,407.22 133.83,407.39C134.41,407.7 136.06,407.71 136.64,408.03C136.97,408.21 137,408.48 137.29,408.67C137.68,408.93 138.67,409.03 138.87,409.32C138.99,409.49 138.79,409.73 138.87,409.92C138.97,410.15 139.31,410.36 139.57,410.56C139.86,410.79 140.04,411.02 140.56,411.2C141.92,411.66 147.56,411.23 148.52,411.81C148.82,411.99 148.72,412.26 148.93,412.45C149.23,412.71 149.8,412.88 150.28,413.09C150.8,413.31 151.64,413.45 151.92,413.74C152.09,413.91 152.1,414.13 152.15,414.34C152.2,414.55 152.12,414.78 152.21,414.98C152.32,415.21 152.58,415.42 152.85,415.62C153.18,415.86 153.61,416.08 154.08,416.27C154.67,416.51 155.59,416.62 156.13,416.87C156.52,417.05 156.88,417.26 157.07,417.51C157.22,417.7 157.11,417.97 157.3,418.15C157.66,418.48 158.87,418.53 159.58,418.75C160.23,418.95 160.55,419.22 161.4,419.4C163.25,419.79 168.78,419.6 170.41,420.04C171.06,420.22 171.3,420.46 171.7,420.68C172.07,420.88 172.5,421.04 172.75,421.28C172.95,421.47 172.93,421.75 173.16,421.93C173.53,422.23 174.34,422.37 175.03,422.57C175.86,422.81 177.13,422.93 177.79,423.21C178.2,423.38 178.34,423.63 178.72,423.81C179.24,424.06 179.65,424.28 180.65,424.46C183.75,425.02 198.8,424.15 200.26,425.1C200.53,425.27 200.39,425.52 200.55,425.7C200.76,425.94 200.98,426.16 201.49,426.34C202.86,426.82 208.97,426.37 209.86,426.99C210.12,427.17 209.89,427.45 210.15,427.63C211.15,428.32 216.78,428.03 220.33,428.23C224.23,428.45 230.42,428.42 232.62,428.88C233.47,429.06 233.75,429.31 234.32,429.52C234.89,429.73 235.55,429.92 236.02,430.16C236.39,430.35 236.61,430.56 236.95,430.76C237.33,430.98 237.62,431.23 238.18,431.41C239.23,431.75 242.26,431.61 242.92,432.05C243.17,432.22 242.98,432.48 243.27,432.65C244.78,433.55 258.03,432.9 261.94,433.29C263.74,433.47 265.2,433.55 265.87,433.94C266.18,434.12 266.12,434.4 266.39,434.58C266.82,434.87 267.57,435.01 268.44,435.18C269.91,435.47 272.66,435.58 274.47,435.82C275.97,436.02 276.95,436.28 278.57,436.47C280.91,436.74 284.03,436.92 287.17,437.11C290.95,437.34 294.89,437.53 299.69,437.71C306.18,437.96 319.43,437.68 322.58,438.35C323.44,438.53 323.48,438.82 324.16,439C325.27,439.3 326.75,439.43 328.72,439.6C332.28,439.91 339.5,439.98 343.76,440.24C346.91,440.43 350.07,440.55 351.96,440.88C352.99,441.06 353.63,441.29 354.3,441.53C354.83,441.72 354.94,441.96 355.7,442.13C358.42,442.73 371.49,442.32 375.13,442.77C376.57,442.95 377,443.22 378.12,443.41C379.55,443.66 381.16,443.87 383.03,444.06C385.5,444.31 389.47,444.37 391.64,444.66C392.98,444.84 393.17,445.12 394.85,445.3C400.63,445.92 424.82,445.63 433.83,445.95C438.62,446.12 440.13,446.38 444.83,446.55C453.21,446.86 470.04,446.93 479.83,447.19C486.92,447.38 491.68,447.63 498.15,447.83C505.42,448.06 516.33,448.13 521.33,448.48C523.73,448.65 524.37,448.91 526.65,449.08C530.76,449.39 537.09,449.53 543.92,449.72C553.89,449.99 569.9,450.11 580.73,450.36C589.28,450.56 596.67,450.78 603.67,451.01C609.58,451.2 619.1,450.68 620,451.61Q620.18,451.79 620,452.25" style="vector-effect: non-scaling-stroke; fill: none; stroke: rgb(0, 0, 0); stroke-opacity: 1; stroke-width: 5px; opacity: 1;"/></g><g class="points"/><g class="text"/></g></g></g><g class="overplot"/><path class="xlines-above crisp" d="M78,531H700" style="fill: none; stroke-width: 2px; stroke: rgb(0, 0, 0); stroke-opacity: 1;"/><path class="ylines-above crisp" d="M79,50V530" style="fill: none; stroke-width: 2px; stroke: rgb(0, 0, 0); stroke-opacity: 1;"/><g class="overlines-above"/><g class="xaxislayer-above"><path class="xtick ticks crisp" d="M0,532v5" transform="translate(114.75,0)" style="stroke: rgb(0, 0, 0); stroke-opacity: 1; stroke-width: 3px;"/><path class="xtick ticks crisp" d="M0,532v5" transform="translate(231.8,0)" style="stroke: rgb(0, 0, 0); stroke-opacity: 1; stroke-width: 3px;"/><path class="xtick ticks crisp" d="M0,532v5" transform="translate(348.85,0)" style="stroke: rgb(0, 0, 0); stroke-opacity: 1; stroke-width: 3px;"/><path class="xtick ticks crisp" d="M0,532v5" transform="translate(465.9,0)" style="stroke: rgb(0, 0, 0); stroke-opacity: 1; stroke-width: 3px;"/><path class="xtick ticks crisp" d="M0,532v5" transform="translate(582.95,0)" style="stroke: rgb(0, 0, 0); stroke-opacity: 1; stroke-width: 3px;"/><path class="xtick ticks crisp" d="M0,532v5" transform="translate(700,0)" style="stroke: rgb(0, 0, 0); stroke-opacity: 1; stroke-width: 3px;"/><g class="xtick"><text text-anchor="middle" x="0" y="563.4" transform="translate(114.75,0)" style="font-family: Arial; font-size: 22px; fill: rgb(0, 0, 0); fill-opacity: 1; white-space: pre;">0</text></g><g class="xtick"><text text-anchor="middle" x="0" y="563.4" transform="translate(231.8,0)" style="font-family: Arial; font-size: 22px; fill: rgb(0, 0, 0); fill-opacity: 1; white-space: pre;">0.2</text></g><g class="xtick"><text text-anchor="middle" x="0" y="563.4" transform="translate(348.85,0)" style="font-family: Arial; font-size: 22px; fill: rgb(0, 0, 0); fill-opacity: 1; white-space: pre;">0.4</text></g><g class="xtick"><text text-anchor="middle" x="0" y="563.4" transform="translate(465.9,0)" style="font-family: Arial; font-size: 22px; fill: rgb(0, 0, 0); fill-opacity: 1; white-space: pre;">0.6</text></g><g class="xtick"><text text-anchor="middle" x="0" y="563.4" transform="translate(582.95,0)" style="font-family: Arial; font-size: 22px; fill: rgb(0, 0, 0); fill-opacity: 1; white-space: pre;">0.8</text></g><g class="xtick"><text text-anchor="middle" x="0" y="563.4" transform="translate(700,0)" style="font-family: Arial; font-size: 22px; fill: rgb(0, 0, 0); fill-opacity: 1; white-space: pre;">1</text></g></g><g class="yaxislayer-above"><path class="ytick ticks crisp" d="M78,0h-5" transform="translate(0,502.25)" style="stroke: rgb(0, 0, 0); stroke-opacity: 1; stroke-width: 3px;"/><path class="ytick ticks crisp" d="M78,0h-5" transform="translate(0,416.47)" style="stroke: rgb(0, 0, 0); stroke-opacity: 1; stroke-width: 3px;"/><path class="ytick ticks crisp" d="M78,0h-5" transform="translate(0,330.69)" style="stroke: rgb(0, 0, 0); stroke-opacity: 1; stroke-width: 3px;"/><path class="ytick ticks crisp" d="M78,0h-5" transform="translate(0,244.91)" style="stroke: rgb(0, 0, 0); stroke-opacity: 1; stroke-width: 3px;"/><path class="ytick ticks crisp" d="M78,0h-5" transform="translate(0,159.14)" style="stroke: rgb(0, 0, 0); stroke-opacity: 1; stroke-width: 3px;"/><path class="ytick ticks crisp" d="M78,0h-5" transform="translate(0,73.36)" style="stroke: rgb(0, 0, 0); stroke-opacity: 1; stroke-width: 3px;"/><g class="ytick"><text text-anchor="end" x="68.6" y="7.699999999999999" transform="translate(0,502.25)" style="font-family: Arial; font-size: 22px; fill: rgb(0, 0, 0); fill-opacity: 1; white-space: pre;">0</text></g><g class="ytick"><text text-anchor="end" x="68.6" y="7.699999999999999" transform="translate(0,416.47)" style="font-family: Arial; font-size: 22px; fill: rgb(0, 0, 0); fill-opacity: 1; white-space: pre;">0.2</text></g><g class="ytick"><text text-anchor="end" x="68.6" y="7.699999999999999" transform="translate(0,330.69)" style="font-family: Arial; font-size: 22px; fill: rgb(0, 0, 0); fill-opacity: 1; white-space: pre;">0.4</text></g><g class="ytick"><text text-anchor="end" x="68.6" y="7.699999999999999" transform="translate(0,244.91)" style="font-family: Arial; font-size: 22px; fill: rgb(0, 0, 0); fill-opacity: 1; white-space: pre;">0.6</text></g><g class="ytick"><text text-anchor="end" x="68.6" y="7.699999999999999" transform="translate(0,159.14)" style="font-family: Arial; font-size: 22px; fill: rgb(0, 0, 0); fill-opacity: 1; white-space: pre;">0.8</text></g><g class="ytick"><text text-anchor="end" x="68.6" y="7.699999999999999" transform="translate(0,73.36)" style="font-family: Arial; font-size: 22px; fill: rgb(0, 0, 0); fill-opacity: 1; white-space: pre;">1</text></g></g><g class="overaxes-above"/></g></g><g class="polarlayer"/><g class="ternarylayer"/><g class="geolayer"/><g class="funnelarealayer"/><g class="pielayer"/><g class="sunburstlayer"/><g class="glimages"/><defs id="topdefs-8c972e"><g class="clips"/></defs><g class="layer-above"><g class="imagelayer"/><g class="shapelayer"/></g><g class="infolayer"><g class="g-gtitle"><text class="gtitle" x="378" y="18" text-anchor="middle" dy="0.7em" style="font-family: Arial; font-size: 25px; fill: rgb(0, 0, 0); opacity: 1; font-weight: normal; white-space: pre;">Power of 12 Samples</text></g><g class="g-xtitle" transform="translate(0,-11.453125)"><text class="xtitle" x="390" y="607" text-anchor="middle" style="font-family: Arial; font-size: 22px; fill: rgb(0, 0, 0); opacity: 1; font-weight: normal; white-space: pre;">Statistical Power</text></g><g class="g-ytitle"><text class="ytitle" transform="rotate(-90,25,290)" x="25" y="290" text-anchor="middle" style="font-family: Arial; font-size: 22px; fill: rgb(0, 0, 0); opacity: 1; font-weight: normal; white-space: pre;">Proportion of Compounds with Sample Size >= 12</text></g></g></svg>