<svg class="main-svg" xmlns="http://www.w3.org/2000/svg" xmlns:xlink="http://www.w3.org/1999/xlink" width="700" height="600" style="" viewBox="0 0 700 600"><rect x="0" y="0" width="700" height="600" style="fill: rgb(255, 255, 255); fill-opacity: 1;"/><defs id="defs-4a8521"><g class="clips"><clipPath id="clip4a8521xyplot" class="plotclip"><rect width="620" height="480"/></clipPath><clipPath class="axesclip" id="clip4a8521x"><rect x="80" y="0" width="620" height="600"/></clipPath><clipPath class="axesclip" id="clip4a8521y"><rect x="0" y="50" width="700" height="480"/></clipPath><clipPath class="axesclip" id="clip4a8521xy"><rect x="80" y="50" width="620" height="480"/></clipPath></g><g class="gradients"/></defs><g class="bglayer"/><g class="layer-below"><g class="imagelayer"/><g class="shapelayer"/></g><g class="cartesianlayer"><g class="subplot xy"><g class="layer-subplot"><g class="shapelayer"/><g class="imagelayer"/></g><g class="gridlayer"><g class="x"/><g class="y"><path class="ygrid crisp" transform="translate(0,502.25)" d="M80,0h620" style="stroke: rgb(153, 153, 153); stroke-opacity: 1; stroke-width: 1px;"/><path class="ygrid crisp" transform="translate(0,416.48)" d="M80,0h620" style="stroke: rgb(153, 153, 153); stroke-opacity: 1; stroke-width: 1px;"/><path class="ygrid crisp" transform="translate(0,330.72)" d="M80,0h620" style="stroke: rgb(153, 153, 153); stroke-opacity: 1; stroke-width: 1px;"/><path class="ygrid crisp" transform="translate(0,244.95)" d="M80,0h620" style="stroke: rgb(153, 153, 153); stroke-opacity: 1; stroke-width: 1px;"/><path class="ygrid crisp" transform="translate(0,159.19)" d="M80,0h620" style="stroke: rgb(153, 153, 153); stroke-opacity: 1; stroke-width: 1px;"/><path class="ygrid crisp" transform="translate(0,73.42)" d="M80,0h620" style="stroke: rgb(153, 153, 153); stroke-opacity: 1; stroke-width: 1px;"/></g></g><g class="zerolinelayer"/><path class="xlines-below"/><path class="ylines-below"/><g class="overlines-below"/><g class="xaxislayer-below"/><g class="yaxislayer-below"/><g class="overaxes-below"/><g class="plot" transform="translate(80, 50)" clip-path="url('#clip4a8521xyplot')"><g class="scatterlayer mlayer"><g class="trace scatter trace4c2b6b" style="stroke-miterlimit: 2; opacity: 1;"><g class="fills"/><g class="errorbars"/><g class="lines"/><g class="points"><path class="point" transform="translate(34.75,452.25)" d="M3,0A3,3 0 1,1 0,-3A3,3 0 0,1 3,0Z" style="opacity: 1; stroke-width: 0px; fill: rgb(0, 0, 0); fill-opacity: 0;"/></g><g class="text"/></g><g class="trace scatter tracec95f00" style="stroke-miterlimit: 2; opacity: 1;"><g class="fills"/><g class="errorbars"/><g class="lines"><path class="js-line" d="M49.43,24L51.86,32.11L51.89,32.69L52.57,38.49L53.02,39.07L54.5,43.12L54.56,43.7L58.05,60.51L58.59,61.09L59.08,63.99L59.63,64.56L61.72,73.84L61.95,74.42L62.42,76.15L62.46,76.73L63,79.05L63.08,79.63L64.28,83.11L65.44,83.69L66.42,87.17L66.44,87.74L67.01,91.8L67.61,92.38L70.53,94.7L70.66,95.28L71.39,96.44L71.77,97.02L71.99,98.18L72.64,98.76L74.18,101.65L74.47,102.23L75.64,104.55L75.86,105.13L77.04,107.45L77.97,108.03L78.8,109.77L78.93,110.35L81.92,117.3L82.48,117.88L84.73,119.62L84.75,120.2L85.91,123.67L86.79,124.25L88.3,127.15L88.84,127.73L90.38,129.47L90.44,130.05L91.68,132.37L93.15,132.95L94.65,135.26L94.7,135.84L95.47,137L95.89,137.58L97.67,143.38L97.73,143.96L98.15,145.12L99.57,145.69L101.67,147.43L102.78,148.01L106.12,153.81L106.52,154.39L108.12,156.13L109.04,156.71L111.46,160.76L111.49,161.34L113.06,162.5L113.14,163.08L114.13,165.4L114.32,165.98L115.09,168.3L115.8,168.87L117.56,170.61L117.94,171.19L118.07,171.77L119,172.35L123.97,178.73L125.81,179.31L127.47,181.62L128.28,182.2L129.96,184.52L131.75,185.1L133.46,186.84L134.78,187.42L134.84,188L135.83,188.58L137.09,190.9L137.63,191.48L137.85,192.63L139.08,193.21L140.82,196.11L141.49,196.69L141.98,197.85L143.36,198.43L145.29,199.59L145.62,200.17L146.99,202.49L148.72,203.07L149.32,203.64L151.23,204.22L151.95,205.38L154.25,205.96L155.67,208.86L155.9,209.44L155.98,210.02L157.53,210.6L158.23,212.34L158.61,212.92L159.41,214.66L161.42,215.23L165.8,218.71L166.11,219.29L166.37,219.87L168,220.45L168.27,221.03L171.76,221.61L176,225.67L177.47,226.25L177.82,227.4L178.42,227.98L179.18,230.3L179.57,230.88L182.2,234.36L183.11,234.94L186.89,237.26L187.25,237.84L191.75,239.57L191.86,240.15L193.11,241.31L193.26,241.89L196.1,244.21L196.18,244.79L196.4,246.53L197.36,247.11L199.35,248.85L199.48,249.43L200.39,250L203.16,250.58L204.15,251.74L207.44,252.32L208.13,254.06L209.26,254.64L210.01,255.8L211.94,256.38L214.4,261.02L215.27,261.59L215.88,262.75L216.25,263.33L216.65,263.91L219.21,264.49L221.77,266.23L223.51,266.81L225.35,268.55L227.47,269.13L228.44,270.87L229.75,271.45L232.98,274.34L232.99,274.92L239.87,277.24L244.96,277.82L246.78,280.14L248.99,280.72L252.78,284.2L252.78,284.77L253.03,286.51L254.91,287.09L256.14,288.25L259.54,288.83L261.56,290.57L261.73,291.15L262.1,292.89L262.84,293.47L265.85,295.21L266.04,295.79L268.56,297.52L268.62,298.1L271.97,301.58L274.18,302.16L274.31,302.74L275.57,303.32L281.4,305.64L282.42,306.22L290.79,310.27L290.82,310.85L292.04,312.59L292.83,313.17L294.04,314.33L297.45,314.91L301.58,318.39L305.55,318.97L314.36,322.44L314.45,323.02L314.6,323.6L317.15,324.18L319.8,325.34L320.4,325.92L321.87,327.08L326.71,327.66L331.86,329.4L334.91,329.98L336.8,331.13L337.39,331.71L339.41,332.87L339.75,333.45L345.57,336.93L345.89,337.51L346.79,338.67L349.69,339.25L358.38,340.99L359.69,341.57L364.2,343.3L366.48,343.88L368.82,345.62L370.11,346.2L372.99,347.94L373.18,348.52L373.95,349.68L375.85,350.26L377.51,352.58L378.49,353.16L378.79,353.74L381.79,354.31L394.4,358.37L394.62,358.95L395.15,360.11L398.07,360.69L401.85,363.01L401.88,363.59L401.91,364.17L403.61,364.75L406.03,365.9L408.2,366.48L430.53,368.8L431.33,369.38L441.22,371.7L441.73,372.28L444.53,373.44L449.35,374.02L453.48,376.92L456.14,377.49L457.18,378.07L459.93,378.65L470.42,380.97L471.37,381.55L472.38,382.71L474.66,383.29L475.6,383.87L479.17,384.45L486.56,387.35L487.75,387.93L490.85,390.24L494.39,390.82L494.64,391.4L495.83,391.98L496.22,392.56L499.55,393.14L501.94,394.3L503.86,394.88L508.54,396.62L509.86,397.2L525.7,399.52L525.86,400.1L527.89,401.25L528.3,401.83L535.56,404.15L537.32,404.73L542.02,406.47L542.45,407.05L542.57,407.63L545.7,408.21L546.34,408.79L549.33,409.37L549.46,409.95L550.84,410.53L554.4,413.42L558.4,414L561.26,415.74L561.31,416.32L561.76,416.9L563.5,417.48L566.32,419.8L567.08,420.38L567.47,420.96L572.8,421.54L574.1,423.28L574.33,423.85L578.17,426.17L586.69,426.75L587.17,427.91L590.19,428.49L590.28,429.07L593.57,429.65L597.5,430.81L597.94,431.39L598.5,432.55L599.63,433.13L599.73,433.71L603.68,434.29L607.89,437.76L609.58,438.34L612.3,439.5L612.74,440.08L614.06,441.24L614.63,441.82L614.89,442.98L616.08,443.56L617.05,445.88L618.41,446.46L619.98,450.51L620,451.09L620,452.25" style="vector-effect: non-scaling-stroke; fill: none; stroke: rgb(0, 0, 0); stroke-opacity: 1; stroke-width: 2px; opacity: 1;"/></g><g class="points"/><g class="text"/></g></g></g><g class="overplot"/><path class="xlines-above crisp" d="M78,531H700" style="fill: none; stroke-width: 2px; stroke: rgb(0, 0, 0); stroke-opacity: 1;"/><path class="ylines-above crisp" d="M79,50V530" style="fill: none; stroke-width: 2px; stroke: rgb(0, 0, 0); stroke-opacity: 1;"/><g class="overlines-above"/><g class="xaxislayer-above"><path class="xtick ticks crisp" d="M0,532v5" transform="translate(114.75,0)" style="stroke: rgb(0, 0, 0); stroke-opacity: 1; stroke-width: 3px;"/><path class="xtick ticks crisp" d="M0,532v5" transform="translate(231.8,0)" style="stroke: rgb(0, 0, 0); stroke-opacity: 1; stroke-width: 3px;"/><path class="xtick ticks crisp" d="M0,532v5" transform="translate(348.85,0)" style="stroke: rgb(0, 0, 0); stroke-opacity: 1; stroke-width: 3px;"/><path class="xtick ticks crisp" d="M0,532v5" transform="translate(465.9,0)" style="stroke: rgb(0, 0, 0); stroke-opacity: 1; stroke-width: 3px;"/><path class="xtick ticks crisp" d="M0,532v5" transform="translate(582.95,0)" style="stroke: rgb(0, 0, 0); stroke-opacity: 1; stroke-width: 3px;"/><path class="xtick ticks crisp" d="M0,532v5" transform="translate(700,0)" style="stroke: rgb(0, 0, 0); stroke-opacity: 1; stroke-width: 3px;"/><g class="xtick"><text text-anchor="middle" x="0" y="563.4" transform="translate(114.75,0)" style="font-family: Arial; font-size: 22px; fill: rgb(0, 0, 0); fill-opacity: 1; white-space: pre;">0</text></g><g class="xtick"><text text-anchor="middle" x="0" y="563.4" transform="translate(231.8,0)" style="font-family: Arial; font-size: 22px; fill: rgb(0, 0, 0); fill-opacity: 1; white-space: pre;">0.2</text></g><g class="xtick"><text text-anchor="middle" x="0" y="563.4" transform="translate(348.85,0)" style="font-family: Arial; font-size: 22px; fill: rgb(0, 0, 0); fill-opacity: 1; white-space: pre;">0.4</text></g><g class="xtick"><text text-anchor="middle" x="0" y="563.4" transform="translate(465.9,0)" style="font-family: Arial; font-size: 22px; fill: rgb(0, 0, 0); fill-opacity: 1; white-space: pre;">0.6</text></g><g class="xtick"><text text-anchor="middle" x="0" y="563.4" transform="translate(582.95,0)" style="font-family: Arial; font-size: 22px; fill: rgb(0, 0, 0); fill-opacity: 1; white-space: pre;">0.8</text></g><g class="xtick"><text text-anchor="middle" x="0" y="563.4" transform="translate(700,0)" style="font-family: Arial; font-size: 22px; fill: rgb(0, 0, 0); fill-opacity: 1; white-space: pre;">1</text></g></g><g class="yaxislayer-above"><path class="ytick ticks crisp" d="M78,0h-5" transform="translate(0,502.25)" style="stroke: rgb(0, 0, 0); stroke-opacity: 1; stroke-width: 3px;"/><path class="ytick ticks crisp" d="M78,0h-5" transform="translate(0,416.48)" style="stroke: rgb(0, 0, 0); stroke-opacity: 1; stroke-width: 3px;"/><path class="ytick ticks crisp" d="M78,0h-5" transform="translate(0,330.72)" style="stroke: rgb(0, 0, 0); stroke-opacity: 1; stroke-width: 3px;"/><path class="ytick ticks crisp" d="M78,0h-5" transform="translate(0,244.95)" style="stroke: rgb(0, 0, 0); stroke-opacity: 1; stroke-width: 3px;"/><path class="ytick ticks crisp" d="M78,0h-5" transform="translate(0,159.19)" style="stroke: rgb(0, 0, 0); stroke-opacity: 1; stroke-width: 3px;"/><path class="ytick ticks crisp" d="M78,0h-5" transform="translate(0,73.42)" style="stroke: rgb(0, 0, 0); stroke-opacity: 1; stroke-width: 3px;"/><g class="ytick"><text text-anchor="end" x="68.6" y="7.699999999999999" transform="translate(0,502.25)" style="font-family: Arial; font-size: 22px; fill: rgb(0, 0, 0); fill-opacity: 1; white-space: pre;">0</text></g><g class="ytick"><text text-anchor="end" x="68.6" y="7.699999999999999" transform="translate(0,416.48)" style="font-family: Arial; font-size: 22px; fill: rgb(0, 0, 0); fill-opacity: 1; white-space: pre;">0.2</text></g><g class="ytick"><text text-anchor="end" x="68.6" y="7.699999999999999" transform="translate(0,330.72)" style="font-family: Arial; font-size: 22px; fill: rgb(0, 0, 0); fill-opacity: 1; white-space: pre;">0.4</text></g><g class="ytick"><text text-anchor="end" x="68.6" y="7.699999999999999" transform="translate(0,244.95)" style="font-family: Arial; font-size: 22px; fill: rgb(0, 0, 0); fill-opacity: 1; white-space: pre;">0.6</text></g><g class="ytick"><text text-anchor="end" x="68.6" y="7.699999999999999" transform="translate(0,159.19)" style="font-family: Arial; font-size: 22px; fill: rgb(0, 0, 0); fill-opacity: 1; white-space: pre;">0.8</text></g><g class="ytick"><text text-anchor="end" x="68.6" y="7.699999999999999" transform="translate(0,73.42)" style="font-family: Arial; font-size: 22px; fill: rgb(0, 0, 0); fill-opacity: 1; white-space: pre;">1</text></g></g><g class="overaxes-above"/></g></g><g class="polarlayer"/><g class="ternarylayer"/><g class="geolayer"/><g class="funnelarealayer"/><g class="pielayer"/><g class="sunburstlayer"/><g class="glimages"/><defs id="topdefs-4a8521"><g class="clips"/></defs><g class="layer-above"><g class="imagelayer"/><g class="shapelayer"/></g><g class="infolayer"><g class="g-gtitle"><text class="gtitle" x="378" y="18" text-anchor="middle" dy="0.7em" style="font-family: Arial; font-size: 25px; fill: rgb(0, 0, 0); opacity: 1; font-weight: normal; white-space: pre;">Power of 12 samples</text></g><g class="g-xtitle" transform="translate(0,-12)"><text class="xtitle" x="390" y="607" text-anchor="middle" style="font-family: Arial; font-size: 22px; fill: rgb(0, 0, 0); opacity: 1; font-weight: normal; white-space: pre;">Statistical Power</text></g><g class="g-ytitle"><text class="ytitle" transform="rotate(-90,25,290)" x="25" y="290" text-anchor="middle" style="font-family: Arial; font-size: 22px; fill: rgb(0, 0, 0); opacity: 1; font-weight: normal; white-space: pre;">Proportion of Compounds with sample size >= 12</text></g></g></svg>