<svg class="main-svg" xmlns="http://www.w3.org/2000/svg" xmlns:xlink="http://www.w3.org/1999/xlink" width="700" height="600" style="" viewBox="0 0 700 600"><rect x="0" y="0" width="700" height="600" style="fill: rgb(255, 255, 255); fill-opacity: 1;"/><defs id="defs-cdb20d"><g class="clips"><clipPath id="clipcdb20dxyplot" class="plotclip"><rect width="620" height="480"/></clipPath><clipPath class="axesclip" id="clipcdb20dx"><rect x="80" y="0" width="620" height="600"/></clipPath><clipPath class="axesclip" id="clipcdb20dy"><rect x="0" y="50" width="700" height="480"/></clipPath><clipPath class="axesclip" id="clipcdb20dxy"><rect x="80" y="50" width="620" height="480"/></clipPath></g><g class="gradients"/></defs><g class="bglayer"/><g class="layer-below"><g class="imagelayer"/><g class="shapelayer"/></g><g class="cartesianlayer"><g class="subplot xy"><g class="layer-subplot"><g class="shapelayer"/><g class="imagelayer"/></g><g class="gridlayer"><g class="x"/><g class="y"><path class="ygrid crisp" transform="translate(0,502.25)" d="M80,0h620" style="stroke: rgb(153, 153, 153); stroke-opacity: 1; stroke-width: 1px;"/><path class="ygrid crisp" transform="translate(0,416.48)" d="M80,0h620" style="stroke: rgb(153, 153, 153); stroke-opacity: 1; stroke-width: 1px;"/><path class="ygrid crisp" transform="translate(0,330.71)" d="M80,0h620" style="stroke: rgb(153, 153, 153); stroke-opacity: 1; stroke-width: 1px;"/><path class="ygrid crisp" transform="translate(0,244.94)" d="M80,0h620" style="stroke: rgb(153, 153, 153); stroke-opacity: 1; stroke-width: 1px;"/><path class="ygrid crisp" transform="translate(0,159.17000000000002)" d="M80,0h620" style="stroke: rgb(153, 153, 153); stroke-opacity: 1; stroke-width: 1px;"/><path class="ygrid crisp" transform="translate(0,73.4)" d="M80,0h620" style="stroke: rgb(153, 153, 153); stroke-opacity: 1; stroke-width: 1px;"/></g></g><g class="zerolinelayer"/><path class="xlines-below"/><path class="ylines-below"/><g class="overlines-below"/><g class="xaxislayer-below"/><g class="yaxislayer-below"/><g class="overaxes-below"/><g class="plot" transform="translate(80, 50)" clip-path="url('#clipcdb20dxyplot')"><g class="scatterlayer mlayer"><g class="trace scatter trace3584f4" style="stroke-miterlimit: 2; opacity: 1;"><g class="fills"/><g class="errorbars"/><g class="lines"/><g class="points"><path class="point" transform="translate(34.75,452.25)" d="M3,0A3,3 0 1,1 0,-3A3,3 0 0,1 3,0Z" style="opacity: 1; stroke-width: 0px; fill: rgb(0, 0, 0); fill-opacity: 0;"/></g><g class="text"/></g><g class="trace scatter trace836801" style="stroke-miterlimit: 2; opacity: 1;"><g class="fills"/><g class="errorbars"/><g class="lines"><path class="js-line" d="M44.99,24Q45.09,24.37 45.11,24.56C45.13,24.76 45.07,24.97 45.11,25.16C45.15,25.35 45.29,25.53 45.34,25.72C45.39,25.91 45.39,26.12 45.4,26.32C45.41,26.51 45.37,26.68 45.4,26.87C45.43,27.07 45.54,27.27 45.58,27.47C45.62,27.66 45.62,27.84 45.64,28.03C45.66,28.23 45.67,28.43 45.69,28.63C45.71,28.82 45.68,29.01 45.75,29.19C45.83,29.4 46.14,29.58 46.22,29.79C46.29,29.97 46.26,30.16 46.28,30.35C46.3,30.55 46.31,30.76 46.34,30.95C46.37,31.14 46.41,31.31 46.46,31.5C46.51,31.7 46.59,31.91 46.63,32.11C46.67,32.3 46.62,32.48 46.69,32.66C46.77,32.87 46.98,33.06 47.1,33.26C47.21,33.45 47.34,33.62 47.39,33.82C47.44,34.01 47.37,34.22 47.39,34.42C47.41,34.61 47.49,34.79 47.51,34.98C47.53,35.18 47.48,35.39 47.51,35.58C47.54,35.77 47.6,35.96 47.68,36.14C47.77,36.34 47.97,36.54 48.04,36.74C48.1,36.92 48.07,37.1 48.09,37.29C48.11,37.49 48.12,37.69 48.15,37.89C48.18,38.08 48.23,38.26 48.27,38.45C48.31,38.65 48.36,38.85 48.39,39.05C48.42,39.24 48.42,39.42 48.44,39.61C48.46,39.81 48.44,40.02 48.5,40.21C48.57,40.41 48.77,40.57 48.85,40.77C48.93,40.96 48.92,41.17 48.97,41.37C49.02,41.56 49.12,41.74 49.15,41.93C49.18,42.12 49.13,42.34 49.15,42.53C49.17,42.72 49.23,42.89 49.26,43.08C49.29,43.27 49.3,43.48 49.32,43.68C49.34,43.87 49.35,44.05 49.38,44.24C49.41,44.44 49.46,44.64 49.5,44.84C49.54,45.04 49.5,45.26 49.62,45.44C49.77,45.66 50.3,45.77 50.43,46C50.53,46.18 50.47,46.4 50.49,46.6C50.51,46.79 50.54,46.97 50.55,47.16C50.56,47.36 50.54,47.56 50.55,47.76C50.56,47.95 50.55,48.14 50.61,48.32C50.68,48.52 50.85,48.72 50.96,48.92C51.06,49.11 51.14,49.29 51.25,49.47C51.37,49.67 51.51,49.88 51.66,50.07C51.82,50.27 52,50.45 52.19,50.63C52.4,50.83 52.76,51.01 52.89,51.23C52.99,51.4 52.97,51.6 53.01,51.79C53.05,51.99 53.1,52.19 53.13,52.39C53.16,52.58 53.15,52.76 53.19,52.95C53.23,53.15 53.26,53.36 53.36,53.55C53.47,53.75 53.71,53.91 53.83,54.11C53.94,54.3 54.01,54.51 54.06,54.71C54.1,54.89 54.08,55.07 54.12,55.26C54.16,55.46 54.27,55.66 54.3,55.86C54.33,56.05 54.24,56.24 54.3,56.42C54.37,56.63 54.69,56.81 54.77,57.02C54.84,57.2 54.78,57.39 54.82,57.58C54.86,57.78 54.95,57.98 55,58.18C55.05,58.37 55.05,58.56 55.12,58.74C55.2,58.94 55.4,59.14 55.47,59.34C55.53,59.52 55.51,59.7 55.53,59.89C55.55,60.09 55.52,60.31 55.58,60.5C55.64,60.69 55.78,60.86 55.88,61.05C55.98,61.24 56.1,61.45 56.17,61.65C56.23,61.84 56.27,62.02 56.29,62.21C56.31,62.41 56.28,62.61 56.29,62.81C56.3,63 56.31,63.18 56.35,63.37C56.39,63.57 56.48,63.77 56.52,63.97C56.56,64.16 56.55,64.34 56.58,64.53C56.61,64.73 56.66,64.93 56.7,65.13C56.74,65.32 56.73,65.5 56.81,65.68C56.9,65.88 57.14,66.07 57.22,66.28C57.29,66.47 57.27,66.69 57.28,66.89C57.29,67.08 57.27,67.25 57.28,67.44C57.29,67.64 57.28,67.85 57.34,68.04C57.41,68.24 57.62,68.4 57.69,68.6C57.75,68.79 57.72,69 57.75,69.2C57.78,69.39 57.71,69.6 57.87,69.76C58.25,70.13 60.59,70 61.03,70.36C61.22,70.52 61.08,70.76 61.26,70.92C61.6,71.22 62.98,71.23 63.37,71.52C63.58,71.68 63.61,71.88 63.72,72.07C63.84,72.26 64,72.47 64.07,72.67C64.13,72.85 64.12,73.04 64.13,73.23C64.14,73.43 64.1,73.64 64.13,73.83C64.16,74.02 64.23,74.2 64.31,74.39C64.4,74.59 64.54,74.79 64.66,74.99C64.78,75.18 64.81,75.39 65.01,75.55C65.32,75.81 66.11,75.93 66.53,76.15C66.86,76.32 67.14,76.5 67.35,76.71C67.53,76.89 67.62,77.12 67.76,77.31C67.89,77.5 68.01,77.68 68.17,77.86C68.34,78.06 68.52,78.28 68.75,78.46C69.01,78.67 69.41,78.82 69.69,79.02C69.95,79.21 70.16,79.43 70.39,79.62C70.62,79.81 70.99,79.96 71.09,80.18C71.18,80.36 71.02,80.59 71.09,80.78C71.16,80.98 71.38,81.16 71.56,81.34C71.75,81.54 72.02,81.74 72.21,81.94C72.38,82.12 72.57,82.3 72.67,82.5C72.76,82.69 72.71,82.91 72.79,83.1C72.87,83.3 73.06,83.45 73.14,83.65C73.22,83.84 73.2,84.06 73.26,84.25C73.32,84.44 73.44,84.62 73.49,84.81C73.54,85 73.54,85.21 73.55,85.41C73.56,85.6 73.47,85.8 73.55,85.97C73.65,86.19 74.06,86.35 74.2,86.57C74.31,86.75 74.29,86.94 74.37,87.13C74.46,87.33 74.64,87.52 74.72,87.73C74.79,87.92 74.72,88.15 74.84,88.33C75,88.56 75.45,88.69 75.72,88.89C75.97,89.08 76.29,89.27 76.42,89.49C76.52,89.66 76.51,89.85 76.54,90.04C76.57,90.23 76.58,90.44 76.6,90.64C76.62,90.83 76.61,91.01 76.65,91.2C76.7,91.4 76.84,91.6 76.89,91.8C76.94,91.99 76.86,92.19 76.95,92.36C77.06,92.58 77.45,92.74 77.59,92.96C77.7,93.14 77.64,93.35 77.77,93.52C77.94,93.75 78.45,93.9 78.64,94.12C78.78,94.29 78.8,94.48 78.88,94.67C78.96,94.86 78.92,95.11 79.11,95.27C79.47,95.59 80.98,95.53 81.39,95.83C81.61,96 81.67,96.23 81.75,96.43C81.82,96.61 81.8,96.8 81.86,96.99C81.93,97.19 82.04,97.4 82.16,97.59C82.29,97.79 82.43,97.97 82.62,98.15C82.85,98.36 83.17,98.57 83.5,98.75C83.87,98.96 84.57,99.06 84.73,99.31C84.84,99.48 84.63,99.74 84.73,99.91C84.86,100.14 85.54,100.23 85.67,100.46C85.77,100.63 85.61,100.87 85.67,101.06C85.74,101.26 85.87,101.45 86.08,101.62C86.39,101.87 87.13,101.99 87.48,102.22C87.74,102.39 87.86,102.59 88.07,102.78C88.29,102.98 88.51,103.19 88.77,103.38C89.05,103.58 89.52,103.71 89.7,103.94C89.84,104.11 89.79,104.35 89.88,104.54C89.98,104.74 90.15,104.91 90.29,105.1C90.43,105.3 90.51,105.52 90.7,105.7C90.94,105.92 91.46,106.03 91.69,106.25C91.87,106.43 91.98,106.65 92.05,106.85C92.11,107.03 92.02,107.23 92.1,107.41C92.2,107.63 92.57,107.8 92.69,108.01C92.79,108.19 92.78,108.38 92.81,108.57C92.84,108.77 92.83,108.97 92.87,109.17C92.91,109.37 93,109.57 93.04,109.77C93.08,109.96 93.05,110.14 93.1,110.33C93.15,110.53 93.26,110.73 93.33,110.93C93.4,111.12 93.44,111.3 93.51,111.49C93.59,111.69 93.74,111.89 93.8,112.09C93.85,112.27 93.77,112.47 93.86,112.64C93.98,112.86 94.44,113.02 94.62,113.24C94.76,113.42 94.79,113.62 94.91,113.8C95.04,114 95.2,114.21 95.38,114.4C95.57,114.6 95.76,114.79 96.03,114.96C96.38,115.19 97.2,115.3 97.37,115.56C97.48,115.72 97.29,115.95 97.37,116.12C97.48,116.35 97.99,116.5 98.13,116.72C98.24,116.89 98.17,117.09 98.25,117.27C98.34,117.48 98.49,117.69 98.66,117.88C98.84,118.08 99.19,118.22 99.3,118.43C99.39,118.61 99.34,118.83 99.36,119.03C99.38,119.22 99.4,119.4 99.42,119.59C99.44,119.79 99.45,119.99 99.48,120.19C99.51,120.38 99.53,120.57 99.6,120.75C99.68,120.95 99.78,121.17 99.95,121.35C100.15,121.57 100.49,121.72 100.77,121.91C101.06,122.11 101.44,122.29 101.64,122.51C101.79,122.68 101.79,122.89 101.94,123.06C102.14,123.28 102.62,123.43 102.81,123.66C102.95,123.83 102.85,124.06 103.05,124.22C103.51,124.59 105.85,124.47 106.38,124.82C106.61,124.98 106.6,125.2 106.74,125.38C106.9,125.58 107.04,125.81 107.32,125.98C107.75,126.24 108.78,126.28 109.19,126.54C109.45,126.71 109.52,126.95 109.72,127.14C109.93,127.34 110.19,127.51 110.42,127.7C110.66,127.89 110.97,128.08 111.13,128.3C111.26,128.47 111.2,128.69 111.36,128.85C111.6,129.1 112.39,129.2 112.65,129.45C112.82,129.62 112.89,129.81 112.94,130.01C112.99,130.2 112.87,130.42 112.94,130.61C113.02,130.83 113.37,131 113.47,131.21C113.56,131.39 113.5,131.59 113.58,131.77C113.68,131.98 113.83,132.19 114.05,132.37C114.33,132.6 115.03,132.68 115.22,132.93C115.35,133.1 115.23,133.35 115.34,133.53C115.47,133.75 115.77,133.91 116.04,134.09C116.36,134.3 116.82,134.48 117.15,134.69C117.43,134.87 117.63,135.06 117.91,135.24C118.23,135.44 118.76,135.6 118.97,135.84C119.12,136.01 119.04,136.24 119.2,136.4C119.45,136.66 120.3,136.74 120.55,137C120.71,137.16 120.64,137.39 120.78,137.56C120.96,137.79 121.52,137.93 121.66,138.16C121.76,138.33 121.65,138.54 121.72,138.72C121.8,138.93 121.95,139.15 122.19,139.32C122.56,139.58 123.48,139.63 123.88,139.88C124.15,140.05 124.19,140.31 124.47,140.48C124.91,140.74 126.1,140.73 126.4,141.03C126.57,141.2 126.43,141.46 126.58,141.63C126.79,141.88 127.4,141.98 127.75,142.19C128.07,142.38 128.43,142.56 128.62,142.79C128.76,142.96 128.7,143.19 128.86,143.35C129.12,143.61 129.92,143.71 130.26,143.95C130.5,144.12 130.59,144.33 130.79,144.51C131.01,144.71 131.27,144.92 131.55,145.11C131.85,145.31 132.2,145.47 132.55,145.66C132.92,145.86 133.41,146.05 133.72,146.27C133.96,146.44 134.09,146.64 134.3,146.82C134.53,147.02 134.81,147.22 135.06,147.42C135.3,147.61 135.48,147.81 135.76,147.98C136.11,148.2 136.84,148.32 137.05,148.58C137.18,148.74 137.02,148.98 137.17,149.14C137.44,149.44 138.85,149.44 139.1,149.74C139.23,149.9 139.13,150.11 139.16,150.3C139.19,150.5 139.18,150.72 139.28,150.9C139.39,151.11 139.62,151.28 139.86,151.45C140.17,151.67 140.79,151.8 141.03,152.05C141.2,152.23 141.22,152.46 141.32,152.66C141.42,152.85 141.5,153.03 141.62,153.21C141.75,153.41 142.01,153.6 142.08,153.81C142.14,153.99 141.97,154.21 142.08,154.37C142.28,154.65 143.45,154.69 143.72,154.97C143.87,155.13 143.79,155.35 143.9,155.53C144.03,155.74 144.28,155.94 144.48,156.13C144.67,156.32 144.95,156.48 145.07,156.69C145.17,156.87 145.08,157.11 145.19,157.29C145.32,157.5 145.57,157.68 145.89,157.84C146.41,158.1 147.86,158.12 148.17,158.44C148.32,158.6 148.13,158.84 148.29,159C148.69,159.38 150.79,159.35 151.68,159.6C152.28,159.77 152.68,159.96 153.15,160.16C153.6,160.35 154.19,160.51 154.43,160.76C154.59,160.92 154.6,161.13 154.67,161.32C154.74,161.51 154.7,161.75 154.84,161.92C155.03,162.16 155.48,162.3 155.84,162.48C156.25,162.69 156.99,162.82 157.18,163.08C157.3,163.24 157.14,163.46 157.24,163.63C157.39,163.87 157.97,164 158.18,164.23C158.34,164.4 158.32,164.62 158.47,164.79C158.67,165.01 159.15,165.17 159.35,165.39C159.5,165.56 159.46,165.79 159.64,165.95C159.94,166.22 161.03,166.27 161.22,166.55C161.33,166.71 161.14,166.94 161.22,167.11C161.33,167.34 161.81,167.49 161.98,167.71C162.11,167.88 162.12,168.09 162.22,168.27C162.33,168.47 162.5,168.67 162.63,168.87C162.75,169.06 162.74,169.27 162.98,169.42C163.62,169.83 167,169.58 167.48,170.02C167.65,170.18 167.54,170.39 167.6,170.58C167.66,170.78 167.74,170.99 167.84,171.18C167.94,171.37 168,171.58 168.19,171.74C168.48,171.99 169.39,172.07 169.59,172.34C169.71,172.5 169.54,172.73 169.65,172.9C169.81,173.14 170.41,173.28 170.7,173.5C170.94,173.68 171.03,173.93 171.29,174.1C171.65,174.34 172.26,174.47 172.75,174.66C173.24,174.85 173.75,175.06 174.22,175.26C174.66,175.45 175.11,175.61 175.5,175.81C175.86,175.99 176.12,176.23 176.5,176.41C176.96,176.63 177.55,176.78 178.08,176.97C178.62,177.17 179.41,177.3 179.72,177.57C179.9,177.73 179.82,177.97 180.01,178.13C180.33,178.41 181.53,178.44 181.76,178.73C181.89,178.89 181.73,179.12 181.82,179.29C181.94,179.51 182.27,179.7 182.53,179.89C182.8,180.09 183.08,180.26 183.4,180.44C183.77,180.65 184.45,180.79 184.63,181.05C184.74,181.21 184.55,181.45 184.69,181.6C185.02,181.96 187.06,181.89 187.62,182.2C187.9,182.36 188.06,182.55 188.14,182.76C188.21,182.94 188.1,183.17 188.14,183.36C188.18,183.55 188.2,183.76 188.38,183.92C188.71,184.21 190.05,184.23 190.37,184.52C190.55,184.68 190.4,184.92 190.6,185.08C191.16,185.51 194.63,185.24 195.11,185.68C195.28,185.83 195.17,186.05 195.23,186.23C195.3,186.43 195.39,186.64 195.52,186.83C195.66,187.03 195.82,187.21 196.04,187.39C196.31,187.61 196.84,187.76 197.04,187.99C197.19,188.16 197.11,188.39 197.27,188.55C197.53,188.81 198.48,188.89 198.74,189.15C198.9,189.31 198.79,189.55 198.97,189.71C199.33,190.02 200.53,190.11 201.25,190.31C201.89,190.49 202.61,190.63 203.07,190.87C203.4,191.04 203.47,191.3 203.83,191.47C204.47,191.76 206.45,191.66 206.75,192.02C206.89,192.18 206.75,192.42 206.75,192.62C206.75,192.81 206.62,193.02 206.75,193.18C207.1,193.59 209.42,193.56 210.5,193.78C211.34,193.95 212.24,194.06 212.72,194.34C213.01,194.51 213.21,194.72 213.31,194.94C213.4,195.13 213.29,195.36 213.37,195.54C213.46,195.75 213.81,195.89 213.9,196.1C213.98,196.28 213.8,196.54 213.95,196.7C214.27,197.06 215.79,197.07 216.76,197.26C217.8,197.46 219.02,197.65 219.98,197.86C220.78,198.04 221.78,198.11 222.15,198.41C222.35,198.57 222.25,198.84 222.44,199.01C222.75,199.28 223.87,199.29 224.14,199.57C224.3,199.74 224.24,199.98 224.31,200.17C224.38,200.36 224.38,200.57 224.55,200.73C224.86,201.01 225.7,201.15 226.36,201.33C227.13,201.54 228.55,201.55 228.88,201.89C229.04,202.05 228.94,202.29 228.99,202.49C229.04,202.68 229.06,202.87 229.17,203.05C229.3,203.26 229.48,203.48 229.76,203.65C230.2,203.91 231.35,203.91 231.69,204.2C231.89,204.37 231.81,204.63 231.98,204.8C232.2,205.03 232.55,205.2 233.03,205.36C233.91,205.65 236.03,205.7 237.01,205.96C237.61,206.12 237.95,206.33 238.42,206.52C238.89,206.71 239.45,206.9 239.82,207.12C240.11,207.29 240.4,207.46 240.52,207.68C240.62,207.86 240.43,208.12 240.58,208.28C240.93,208.66 243.11,208.52 243.74,208.83C244.07,208.99 244.13,209.25 244.39,209.43C244.69,209.64 245.15,209.78 245.44,209.99C245.68,210.17 245.93,210.37 246.03,210.59C246.11,210.77 245.94,210.99 246.08,211.15C246.44,211.54 249,211.39 249.54,211.75C249.77,211.91 249.66,212.15 249.89,212.31C250.44,212.68 252.83,212.58 253.52,212.91C253.85,213.07 253.92,213.29 254.16,213.47C254.42,213.67 254.77,213.87 255.04,214.07C255.29,214.25 255.46,214.45 255.74,214.62C256.11,214.84 256.76,214.99 257.09,215.22C257.33,215.39 257.35,215.62 257.61,215.78C258.06,216.05 259.09,216.16 259.72,216.38C260.26,216.57 260.85,216.74 261.18,216.98C261.41,217.15 261.51,217.34 261.65,217.54C261.78,217.73 261.8,217.97 262,218.14C262.3,218.4 263.23,218.43 263.47,218.7C263.62,218.87 263.58,219.1 263.64,219.3C263.7,219.49 263.66,219.7 263.82,219.86C264.1,220.15 265.17,220.22 265.63,220.46C265.95,220.63 266,220.86 266.39,221.01C267.29,221.36 270.72,221.16 271.31,221.61C271.52,221.77 271.42,221.99 271.54,222.17C271.68,222.38 271.81,222.61 272.13,222.77C272.82,223.12 275.46,222.92 275.93,223.33C276.12,223.49 275.95,223.76 276.11,223.93C276.39,224.22 277.04,224.33 277.86,224.49C279.64,224.83 284.81,224.73 286.52,225.09C287.27,225.25 287.54,225.47 288.1,225.65C288.71,225.85 289.36,226.07 290.04,226.25C290.79,226.45 291.96,226.51 292.44,226.8C292.72,226.97 292.87,227.19 292.96,227.4C293.04,227.58 292.87,227.8 293.02,227.96C293.4,228.36 295.96,228.25 296.71,228.56C297.09,228.72 297.1,228.96 297.47,229.12C298.18,229.42 299.9,229.49 300.86,229.72C301.58,229.89 302.43,229.99 302.74,230.28C302.92,230.45 302.78,230.72 302.97,230.88C303.32,231.19 304.31,231.26 305.14,231.43C306.23,231.65 308.55,231.63 308.94,232.04C309.09,232.19 308.87,232.44 309,232.59C309.28,232.91 310.9,232.89 311.34,233.19C311.57,233.35 311.56,233.58 311.75,233.75C311.99,233.97 312.38,234.16 312.69,234.35C313,234.54 313.36,234.7 313.62,234.91C313.85,235.09 313.87,235.35 314.21,235.51C315.09,235.93 318.59,235.74 319.77,236.07C320.37,236.23 320.87,236.41 321.05,236.67C321.17,236.83 320.96,237.07 321.11,237.22C321.56,237.68 325.19,237.41 325.97,237.82C326.29,237.99 326.37,238.22 326.5,238.43C326.61,238.61 326.54,238.83 326.73,238.98C327.13,239.32 328.9,239.29 329.48,239.58C329.8,239.74 329.92,239.95 330.13,240.14C330.35,240.33 330.44,240.58 330.77,240.74C331.43,241.07 333.26,241.05 334.16,241.3C334.78,241.47 335.42,241.63 335.69,241.9C335.85,242.06 335.82,242.28 335.92,242.46C336.03,242.66 336.19,242.87 336.33,243.06C336.46,243.25 336.58,243.43 336.74,243.61C336.92,243.81 337.05,244.05 337.38,244.21C338.01,244.53 340.16,244.39 340.54,244.77C340.71,244.93 340.53,245.2 340.66,245.37C340.86,245.62 341.44,245.75 341.89,245.93C342.42,246.14 343.34,246.25 343.64,246.53C343.81,246.69 343.82,246.9 343.88,247.09C343.94,247.28 343.85,247.52 344,247.69C344.27,247.99 345.37,248.02 345.87,248.25C346.25,248.42 346.53,248.64 346.81,248.85C347.05,249.03 347.16,249.24 347.45,249.4C347.89,249.65 348.94,249.73 349.32,250C349.54,250.16 349.55,250.38 349.73,250.56C349.94,250.77 350.26,250.97 350.55,251.16C350.86,251.36 351.19,251.54 351.55,251.72C351.95,251.92 352.63,252.06 352.83,252.32C352.96,252.48 352.8,252.72 352.95,252.88C353.25,253.19 354.55,253.24 355.12,253.48C355.53,253.65 355.92,253.81 356.11,254.04C356.25,254.21 356.18,254.46 356.29,254.64C356.42,254.85 356.73,254.99 356.87,255.19C356.99,255.37 357,255.6 357.11,255.79C357.22,255.99 357.31,256.18 357.52,256.35C357.84,256.6 358.43,256.77 358.98,256.95C359.66,257.17 360.66,257.28 361.32,257.51C361.82,257.69 362.35,257.86 362.61,258.11C362.78,258.28 362.66,258.51 362.9,258.67C363.87,259.3 370.47,258.96 372.79,259.27C374.06,259.44 374.71,259.68 375.72,259.87C376.81,260.07 378.18,260.19 379.11,260.43C379.78,260.6 380.41,260.78 380.81,261.03C381.08,261.19 381.16,261.4 381.39,261.58C381.66,261.79 382.06,261.97 382.33,262.18C382.56,262.36 382.82,262.53 382.92,262.74C383.01,262.92 382.83,263.17 382.97,263.34C383.22,263.65 384.38,263.68 384.96,263.9C385.44,264.08 385.92,264.27 386.25,264.5C386.5,264.67 386.6,264.88 386.84,265.06C387.13,265.28 387.4,265.5 387.89,265.66C388.84,265.98 391.45,265.87 392.34,266.21C392.77,266.38 392.8,266.65 393.22,266.82C394.02,267.14 396.22,267.06 397.02,267.37C397.44,267.53 397.53,267.8 397.9,267.97C398.4,268.21 399.09,268.36 399.83,268.53C400.82,268.76 402.66,268.81 403.34,269.13C403.67,269.29 403.65,269.53 403.98,269.69C404.64,270.01 406.34,270.08 407.38,270.29C408.27,270.47 409.37,270.55 409.84,270.85C410.1,271.02 410.08,271.28 410.3,271.45C410.61,271.69 411.13,271.83 411.65,272C412.34,272.22 413.23,272.42 414.11,272.6C415.12,272.81 416.84,272.81 417.39,273.16C417.65,273.32 417.52,273.59 417.8,273.76C418.65,274.26 422.93,274 424.35,274.32C425.07,274.48 425.69,274.64 425.93,274.92C426.07,275.08 425.91,275.32 426.05,275.48C426.29,275.76 427.25,275.85 427.69,276.08C428.02,276.25 428.25,276.44 428.51,276.64C428.76,276.83 428.87,277.07 429.21,277.24C429.79,277.52 431.15,277.55 431.84,277.79C432.32,277.96 432.54,278.22 433.01,278.39C433.64,278.62 434.6,278.74 435.3,278.95C435.91,279.13 436.36,279.37 436.99,279.55C437.74,279.77 438.66,279.92 439.51,280.11C440.38,280.31 441.49,280.45 442.14,280.71C442.57,280.88 442.79,281.12 443.14,281.31C443.51,281.51 443.91,281.68 444.31,281.87C444.74,282.07 445.35,282.23 445.65,282.47C445.86,282.64 445.86,282.86 446.06,283.03C446.32,283.26 446.67,283.46 447.18,283.63C448.07,283.92 449.74,284 451.1,284.18C452.58,284.38 455.32,284.33 455.72,284.78C455.86,284.94 455.66,285.16 455.72,285.34C455.79,285.55 455.95,285.77 456.19,285.94C456.56,286.2 457.36,286.3 457.89,286.5C458.37,286.69 459.02,286.84 459.23,287.1C459.36,287.26 459.24,287.49 459.35,287.66C459.5,287.89 459.85,288.08 460.17,288.26C460.56,288.48 461.02,288.65 461.57,288.82C462.31,289.05 463.75,289.12 464.26,289.42C464.52,289.58 464.47,289.81 464.73,289.97C465.24,290.28 466.88,290.29 467.48,290.57C467.82,290.73 467.8,290.97 468.19,291.13C469.25,291.55 473.94,291.23 474.74,291.73C475,291.89 475.02,292.09 475.09,292.29C475.15,292.48 474.99,292.73 475.15,292.89C475.55,293.31 477.99,293.21 479.07,293.45C479.85,293.62 480.44,293.85 481.06,294.05C481.6,294.23 481.95,294.44 482.58,294.6C483.55,294.85 485.11,295.01 486.39,295.2C487.7,295.4 489.82,295.36 490.37,295.76C490.6,295.92 490.44,296.2 490.66,296.36C491.14,296.72 493.44,296.54 493.82,296.92C493.99,297.08 493.8,297.35 493.94,297.52C494.17,297.79 494.9,297.89 495.4,298.08C495.92,298.28 496.74,298.4 496.98,298.68C497.12,298.84 497,299.06 497.1,299.24C497.22,299.46 497.45,299.67 497.74,299.84C498.14,300.08 498.94,300.16 499.38,300.39C499.72,300.56 500.01,300.77 500.2,300.99C500.35,301.16 500.31,301.39 500.49,301.55C500.77,301.81 501.36,301.98 501.96,302.15C502.82,302.4 504.04,302.57 505.23,302.75C506.66,302.97 508.48,303.1 509.97,303.31C511.3,303.49 513.06,303.56 513.72,303.91C514.02,304.07 513.99,304.31 514.25,304.47C514.66,304.73 515.47,304.88 516.12,305.07C516.83,305.27 517.9,305.34 518.34,305.63C518.6,305.8 518.62,306.05 518.81,306.23C519.02,306.43 519.44,306.56 519.57,306.78C519.67,306.96 519.61,307.18 519.63,307.38C519.65,307.57 519.62,307.76 519.69,307.94C519.77,308.15 519.93,308.37 520.16,308.54C520.47,308.78 521.27,308.84 521.5,309.1C521.65,309.27 521.58,309.51 521.68,309.7C521.79,309.9 521.91,310.1 522.15,310.26C522.53,310.52 523.39,310.64 523.9,310.86C524.32,311.04 524.63,311.23 525.01,311.42C525.41,311.62 526.04,311.77 526.24,312.02C526.37,312.18 526.21,312.41 526.36,312.57C526.65,312.88 527.78,312.98 528.53,313.17C529.32,313.37 530.15,313.54 530.98,313.73C531.83,313.93 532.88,314.09 533.56,314.33C534.04,314.5 534.45,314.66 534.73,314.89C534.95,315.07 534.9,315.32 535.2,315.49C536.07,315.96 540.3,315.67 541.46,316.05C541.96,316.21 542.08,316.47 542.45,316.65C542.88,316.86 543.62,316.95 543.92,317.21C544.12,317.38 544.18,317.61 544.27,317.81C544.35,317.99 544.4,318.17 544.44,318.36C544.48,318.55 544.34,318.8 544.5,318.96C544.95,319.42 548.24,319.18 549.18,319.52C549.64,319.68 549.79,319.93 550.12,320.12C550.46,320.32 550.73,320.51 551.17,320.68C551.82,320.92 553.01,321.05 553.69,321.28C554.18,321.45 554.38,321.68 554.92,321.84C555.84,322.11 558.39,322.03 558.78,322.44C558.93,322.59 558.77,322.81 558.84,322.99C558.92,323.2 559.05,323.41 559.25,323.59C559.52,323.83 559.99,324.02 560.42,324.2C560.9,324.41 561.8,324.47 562,324.75C562.12,324.92 561.95,325.16 562,325.35C562.06,325.55 562.16,325.74 562.35,325.91C562.63,326.16 563.47,326.25 563.7,326.51C563.84,326.67 563.73,326.9 563.87,327.07C564.07,327.31 564.64,327.47 564.99,327.67C565.3,327.85 565.46,328.07 565.86,328.23C566.53,328.5 568.46,328.47 568.79,328.83C568.93,328.98 568.77,329.21 568.85,329.38C568.95,329.59 569.28,329.77 569.43,329.98C569.56,330.16 569.59,330.36 569.73,330.54C569.89,330.75 570.25,330.92 570.37,331.14C570.47,331.32 570.44,331.51 570.49,331.7C570.54,331.9 570.56,332.11 570.66,332.3C570.77,332.5 571.01,332.66 571.13,332.86C571.24,333.05 571.19,333.29 571.37,333.46C571.69,333.75 572.71,333.81 573.3,334.02C573.81,334.2 574.32,334.4 574.7,334.62C574.99,334.79 575.03,335.02 575.4,335.17C576.26,335.53 579.75,335.31 580.2,335.77C580.35,335.93 580.15,336.17 580.26,336.33C580.44,336.59 581.33,336.67 581.49,336.93C581.59,337.09 581.43,337.31 581.49,337.49C581.56,337.7 581.75,337.91 581.96,338.09C582.21,338.31 582.61,338.46 582.95,338.65C583.31,338.85 583.76,339.03 584.07,339.25C584.32,339.43 584.45,339.64 584.71,339.81C585.04,340.03 585.71,340.16 585.94,340.41C586.09,340.57 586.06,340.78 586.17,340.96C586.29,341.16 586.51,341.36 586.64,341.56C586.76,341.74 586.76,341.95 586.93,342.12C587.18,342.36 587.74,342.53 588.16,342.72C588.58,342.91 589,343.1 589.45,343.28C589.95,343.48 590.82,343.6 591.03,343.88C591.15,344.04 591.06,344.25 591.09,344.44C591.12,344.64 591.16,344.84 591.21,345.04C591.26,345.24 591.22,345.47 591.38,345.64C591.63,345.91 592.46,345.98 592.9,346.2C593.26,346.38 593.59,346.58 593.84,346.8C594.04,346.97 594.16,347.16 594.31,347.35C594.46,347.54 594.64,347.74 594.72,347.95C594.79,348.13 594.67,348.34 594.78,348.51C594.95,348.76 595.4,348.94 595.89,349.11C596.69,349.38 598.72,349.3 599.22,349.67C599.44,349.83 599.45,350.07 599.52,350.27C599.58,350.46 599.59,350.64 599.63,350.83C599.67,351.03 599.65,351.25 599.75,351.43C599.87,351.64 600.14,351.79 600.34,351.98C600.55,352.18 600.77,352.39 600.98,352.59C601.18,352.78 601.32,352.97 601.56,353.14C601.86,353.36 602.45,353.5 602.68,353.74C602.85,353.91 602.79,354.14 602.97,354.3C603.28,354.57 604.37,354.62 604.61,354.9C604.75,355.06 604.61,355.29 604.72,355.46C604.87,355.69 605.21,355.88 605.54,356.06C605.96,356.28 606.69,356.38 607.07,356.62C607.35,356.79 607.62,357 607.71,357.22C607.78,357.39 607.59,357.62 607.71,357.77C607.97,358.1 609.77,358.05 610.11,358.37C610.28,358.53 610.22,358.74 610.28,358.93C610.34,359.13 610.43,359.33 610.46,359.53C610.49,359.72 610.41,359.91 610.46,360.09C610.52,360.29 610.71,360.49 610.81,360.69C610.9,360.88 610.99,361.06 611.05,361.25C611.11,361.44 611.13,361.65 611.16,361.85C611.19,362.04 611.21,362.22 611.22,362.41C611.23,362.61 611.12,362.84 611.22,363.01C611.36,363.25 612,363.33 612.22,363.56C612.39,363.73 612.45,363.96 612.51,364.16C612.56,364.35 612.5,364.54 612.57,364.72C612.65,364.93 612.86,365.12 612.98,365.32C613.09,365.51 613.15,365.7 613.27,365.88C613.41,366.09 613.71,366.26 613.8,366.48C613.88,366.67 613.84,366.88 613.85,367.08C613.86,367.27 613.82,367.45 613.85,367.64C613.88,367.84 613.99,368.04 614.03,368.24C614.07,368.43 614.06,368.61 614.09,368.8C614.12,369 614.1,369.22 614.21,369.4C614.35,369.62 614.84,369.73 614.97,369.95C615.07,370.13 614.95,370.37 615.03,370.55C615.12,370.76 615.42,370.91 615.55,371.11C615.67,371.3 615.72,371.51 615.79,371.71C615.86,371.9 615.92,372.08 615.96,372.27C616,372.46 615.98,372.68 616.02,372.87C616.06,373.06 616.13,373.24 616.2,373.43C616.27,373.63 616.39,373.83 616.43,374.03C616.46,374.22 616.4,374.4 616.43,374.59C616.46,374.79 616.54,375 616.61,375.19C616.68,375.38 616.76,375.55 616.84,375.74C616.93,375.94 617.05,376.14 617.13,376.34C617.2,376.53 617.24,376.71 617.31,376.9C617.39,377.1 617.54,377.3 617.6,377.5C617.65,377.69 617.64,377.87 617.66,378.06C617.68,378.26 617.71,378.46 617.72,378.66C617.73,378.85 617.7,379.03 617.72,379.22C617.74,379.42 617.81,379.62 617.83,379.82C617.85,380.01 617.79,380.19 617.83,380.37C617.87,380.57 618.03,380.78 618.07,380.98C618.11,381.16 618.07,381.34 618.07,381.53C618.07,381.73 618.07,381.93 618.07,382.13C618.07,382.32 618.05,382.5 618.07,382.69C618.09,382.89 618.17,383.09 618.19,383.29C618.21,383.48 618.18,383.66 618.19,383.85C618.2,384.05 618.16,384.27 618.24,384.45C618.33,384.66 618.66,384.8 618.77,385.01C618.87,385.19 618.86,385.41 618.89,385.61C618.92,385.8 618.94,385.97 618.95,386.16C618.96,386.36 618.94,386.56 618.95,386.76C618.96,386.95 618.98,387.13 619.01,387.32C619.04,387.52 619.1,387.72 619.12,387.92C619.14,388.12 619.12,388.32 619.12,388.52C619.12,388.71 619.11,388.89 619.12,389.08C619.13,389.28 619.17,389.48 619.18,389.68C619.19,389.87 619.17,390.05 619.18,390.24C619.19,390.44 619.22,390.64 619.24,390.84C619.26,391.03 619.28,391.21 619.3,391.4C619.32,391.6 619.33,391.81 619.36,392C619.39,392.19 619.44,392.36 619.47,392.55C619.5,392.74 619.51,392.95 619.53,393.15C619.55,393.34 619.58,393.52 619.59,393.71C619.6,393.91 619.59,394.11 619.59,394.31C619.59,394.5 619.58,394.68 619.59,394.87C619.6,395.07 619.64,395.27 619.65,395.47C619.66,395.66 619.64,395.84 619.65,396.03C619.66,396.23 619.7,396.43 619.71,396.63C619.72,396.82 619.71,397 619.71,397.19C619.71,397.39 619.71,397.59 619.71,397.79C619.71,397.98 619.7,398.15 619.71,398.34C619.72,398.54 619.76,398.74 619.77,398.94C619.78,399.13 619.77,399.31 619.77,399.5C619.77,399.7 619.77,399.9 619.77,400.1C619.77,400.29 619.77,400.47 619.77,400.66C619.77,400.86 619.76,401.06 619.77,401.26C619.78,401.45 619.81,401.63 619.82,401.82C619.83,402.02 619.82,402.22 619.82,402.42C619.82,402.61 619.82,402.79 619.82,402.98C619.82,403.18 619.81,403.38 619.82,403.58C619.83,403.77 619.87,403.94 619.88,404.13C619.89,404.33 619.88,404.53 619.88,404.73C619.88,404.92 619.88,405.1 619.88,405.29C619.88,405.49 619.88,405.69 619.88,405.89C619.88,406.08 619.87,406.26 619.88,406.45C619.89,406.65 619.93,406.85 619.94,407.05C619.95,407.24 619.94,407.42 619.94,407.61C619.94,407.81 619.94,408.01 619.94,408.21C619.94,408.4 619.94,408.57 619.94,408.76C619.94,408.96 619.94,409.16 619.94,409.36C619.94,409.56 619.94,409.77 619.94,409.97C619.94,410.16 619.94,410.33 619.94,410.52C619.94,410.72 619.94,410.92 619.94,411.12C619.94,411.31 619.94,411.49 619.94,411.68C619.94,411.88 619.94,412.08 619.94,412.28C619.94,412.47 619.94,412.65 619.94,412.84C619.94,413.04 619.94,413.24 619.94,413.44C619.94,413.63 619.93,413.81 619.94,414C619.95,414.2 619.99,414.4 620,414.6C620.01,414.79 620,414.96 620,415.15C620,415.35 620,415.55 620,415.75C620,415.94 620,416.12 620,416.31C620,416.51 620,416.71 620,416.91C620,417.1 620,417.28 620,417.47C620,417.67 620,417.87 620,418.07C620,418.26 620,418.44 620,418.63C620,418.83 620,419.03 620,419.23C620,419.42 620,419.6 620,419.79C620,419.99 620,420.19 620,420.39C620,420.58 620,420.75 620,420.94C620,421.14 620,421.34 620,421.54C620,421.73 620,421.91 620,422.1C620,422.3 620,422.5 620,422.7C620,422.89 620,423.07 620,423.26C620,423.46 620,423.66 620,423.86C620,424.05 620,424.23 620,424.42C620,424.62 620,424.82 620,425.02C620,425.21 620,425.39 620,425.58C620,425.78 620,425.98 620,426.18C620,426.37 620,426.54 620,426.73C620,426.93 620,427.13 620,427.33C620,427.52 620,427.7 620,427.89C620,428.09 620,428.29 620,428.49C620,428.68 620,428.86 620,429.05C620,429.25 620,429.45 620,429.65C620,429.84 620,430.02 620,430.21C620,430.41 620,430.61 620,430.81C620,431.01 620,431.21 620,431.41C620,431.6 620,431.78 620,431.97C620,432.17 620,432.37 620,432.57C620,432.76 620,432.93 620,433.12C620,433.32 620,433.52 620,433.72C620,433.91 620,434.09 620,434.28C620,434.48 620,434.68 620,434.88C620,435.07 620,435.25 620,435.44C620,435.64 620,435.84 620,436.04C620,436.23 620,436.41 620,436.6C620,436.8 620,437 620,437.2C620,437.39 620,437.56 620,437.75C620,437.95 620,438.16 620,438.36C620,438.55 620,438.72 620,438.91C620,439.11 620,439.31 620,439.51C620,439.7 620,439.88 620,440.07C620,440.27 620,440.47 620,440.67C620,440.86 620,441.04 620,441.23C620,441.43 620,441.63 620,441.83C620,442.02 620,442.2 620,442.39C620,442.59 620,442.79 620,442.99C620,443.18 620,443.25 620,443.54C620,444.71 620,452.25 620,452.25C620,452.25 620,452.25 620,452.25C620,452.25 620,452.25 620,452.25C620,452.25 620,452.25 620,452.25C620,452.25 620,452.25 620,452.25C620,452.25 620,452.25 620,452.25C620,452.25 620,452.25 620,452.25C620,452.25 620,452.25 620,452.25C620,452.25 620,452.25 620,452.25C620,452.25 620,452.25 620,452.25C620,452.25 620,452.25 620,452.25C620,452.25 620,452.25 620,452.25C620,452.25 620,452.25 620,452.25C620,452.25 620,452.25 620,452.25Q620,452.25 620,452.25" style="vector-effect: non-scaling-stroke; fill: none; stroke: rgb(0, 0, 0); stroke-opacity: 1; stroke-width: 5px; opacity: 1;"/></g><g class="points"/><g class="text"/></g></g></g><g class="overplot"/><path class="xlines-above crisp" d="M78,531H700" style="fill: none; stroke-width: 2px; stroke: rgb(0, 0, 0); stroke-opacity: 1;"/><path class="ylines-above crisp" d="M79,50V530" style="fill: none; stroke-width: 2px; stroke: rgb(0, 0, 0); stroke-opacity: 1;"/><g class="overlines-above"/><g class="xaxislayer-above"><path class="xtick ticks crisp" d="M0,532v5" transform="translate(114.75,0)" style="stroke: rgb(0, 0, 0); stroke-opacity: 1; stroke-width: 3px;"/><path class="xtick ticks crisp" d="M0,532v5" transform="translate(231.8,0)" style="stroke: rgb(0, 0, 0); stroke-opacity: 1; stroke-width: 3px;"/><path class="xtick ticks crisp" d="M0,532v5" transform="translate(348.85,0)" style="stroke: rgb(0, 0, 0); stroke-opacity: 1; stroke-width: 3px;"/><path class="xtick ticks crisp" d="M0,532v5" transform="translate(465.9,0)" style="stroke: rgb(0, 0, 0); stroke-opacity: 1; stroke-width: 3px;"/><path class="xtick ticks crisp" d="M0,532v5" transform="translate(582.95,0)" style="stroke: rgb(0, 0, 0); stroke-opacity: 1; stroke-width: 3px;"/><path class="xtick ticks crisp" d="M0,532v5" transform="translate(700,0)" style="stroke: rgb(0, 0, 0); stroke-opacity: 1; stroke-width: 3px;"/><g class="xtick"><text text-anchor="middle" x="0" y="563.4" transform="translate(114.75,0)" style="font-family: Arial; font-size: 22px; fill: rgb(0, 0, 0); fill-opacity: 1; white-space: pre;">0</text></g><g class="xtick"><text text-anchor="middle" x="0" y="563.4" transform="translate(231.8,0)" style="font-family: Arial; font-size: 22px; fill: rgb(0, 0, 0); fill-opacity: 1; white-space: pre;">0.2</text></g><g class="xtick"><text text-anchor="middle" x="0" y="563.4" transform="translate(348.85,0)" style="font-family: Arial; font-size: 22px; fill: rgb(0, 0, 0); fill-opacity: 1; white-space: pre;">0.4</text></g><g class="xtick"><text text-anchor="middle" x="0" y="563.4" transform="translate(465.9,0)" style="font-family: Arial; font-size: 22px; fill: rgb(0, 0, 0); fill-opacity: 1; white-space: pre;">0.6</text></g><g class="xtick"><text text-anchor="middle" x="0" y="563.4" transform="translate(582.95,0)" style="font-family: Arial; font-size: 22px; fill: rgb(0, 0, 0); fill-opacity: 1; white-space: pre;">0.8</text></g><g class="xtick"><text text-anchor="middle" x="0" y="563.4" transform="translate(700,0)" style="font-family: Arial; font-size: 22px; fill: rgb(0, 0, 0); fill-opacity: 1; white-space: pre;">1</text></g></g><g class="yaxislayer-above"><path class="ytick ticks crisp" d="M78,0h-5" transform="translate(0,502.25)" style="stroke: rgb(0, 0, 0); stroke-opacity: 1; stroke-width: 3px;"/><path class="ytick ticks crisp" d="M78,0h-5" transform="translate(0,416.48)" style="stroke: rgb(0, 0, 0); stroke-opacity: 1; stroke-width: 3px;"/><path class="ytick ticks crisp" d="M78,0h-5" transform="translate(0,330.71)" style="stroke: rgb(0, 0, 0); stroke-opacity: 1; stroke-width: 3px;"/><path class="ytick ticks crisp" d="M78,0h-5" transform="translate(0,244.94)" style="stroke: rgb(0, 0, 0); stroke-opacity: 1; stroke-width: 3px;"/><path class="ytick ticks crisp" d="M78,0h-5" transform="translate(0,159.17000000000002)" style="stroke: rgb(0, 0, 0); stroke-opacity: 1; stroke-width: 3px;"/><path class="ytick ticks crisp" d="M78,0h-5" transform="translate(0,73.4)" style="stroke: rgb(0, 0, 0); stroke-opacity: 1; stroke-width: 3px;"/><g class="ytick"><text text-anchor="end" x="68.6" y="7.699999999999999" transform="translate(0,502.25)" style="font-family: Arial; font-size: 22px; fill: rgb(0, 0, 0); fill-opacity: 1; white-space: pre;">0</text></g><g class="ytick"><text text-anchor="end" x="68.6" y="7.699999999999999" transform="translate(0,416.48)" style="font-family: Arial; font-size: 22px; fill: rgb(0, 0, 0); fill-opacity: 1; white-space: pre;">0.2</text></g><g class="ytick"><text text-anchor="end" x="68.6" y="7.699999999999999" transform="translate(0,330.71)" style="font-family: Arial; font-size: 22px; fill: rgb(0, 0, 0); fill-opacity: 1; white-space: pre;">0.4</text></g><g class="ytick"><text text-anchor="end" x="68.6" y="7.699999999999999" transform="translate(0,244.94)" style="font-family: Arial; font-size: 22px; fill: rgb(0, 0, 0); fill-opacity: 1; white-space: pre;">0.6</text></g><g class="ytick"><text text-anchor="end" x="68.6" y="7.699999999999999" transform="translate(0,159.17000000000002)" style="font-family: Arial; font-size: 22px; fill: rgb(0, 0, 0); fill-opacity: 1; white-space: pre;">0.8</text></g><g class="ytick"><text text-anchor="end" x="68.6" y="7.699999999999999" transform="translate(0,73.4)" style="font-family: Arial; font-size: 22px; fill: rgb(0, 0, 0); fill-opacity: 1; white-space: pre;">1</text></g></g><g class="overaxes-above"/></g></g><g class="polarlayer"/><g class="ternarylayer"/><g class="geolayer"/><g class="funnelarealayer"/><g class="pielayer"/><g class="sunburstlayer"/><g class="glimages"/><defs id="topdefs-cdb20d"><g class="clips"/></defs><g class="layer-above"><g class="imagelayer"/><g class="shapelayer"/></g><g class="infolayer"><g class="g-gtitle"><text class="gtitle" x="378" y="18" text-anchor="middle" dy="0.7em" style="font-family: Arial; font-size: 25px; fill: rgb(0, 0, 0); opacity: 1; font-weight: normal; white-space: pre;">Power of 12 Samples</text></g><g class="g-xtitle" transform="translate(0,-11)"><text class="xtitle" x="390" y="607" text-anchor="middle" style="font-family: Arial; font-size: 22px; fill: rgb(0, 0, 0); opacity: 1; font-weight: normal; white-space: pre;">Statistical Power</text></g><g class="g-ytitle"><text class="ytitle" transform="rotate(-90,25,290)" x="25" y="290" text-anchor="middle" style="font-family: Arial; font-size: 22px; fill: rgb(0, 0, 0); opacity: 1; font-weight: normal; white-space: pre;">Proportion of Compounds with Sample Size >= 12</text></g></g></svg>