<svg class="main-svg" xmlns="http://www.w3.org/2000/svg" xmlns:xlink="http://www.w3.org/1999/xlink" width="700" height="600" style="" viewBox="0 0 700 600"><rect x="0" y="0" width="700" height="600" style="fill: rgb(255, 255, 255); fill-opacity: 1;"/><defs id="defs-5d90a2"><g class="clips"><clipPath id="clip5d90a2xyplot" class="plotclip"><rect width="620" height="480"/></clipPath><clipPath class="axesclip" id="clip5d90a2x"><rect x="80" y="0" width="620" height="600"/></clipPath><clipPath class="axesclip" id="clip5d90a2y"><rect x="0" y="50" width="700" height="480"/></clipPath><clipPath class="axesclip" id="clip5d90a2xy"><rect x="80" y="50" width="620" height="480"/></clipPath></g><g class="gradients"/></defs><g class="bglayer"/><g class="layer-below"><g class="imagelayer"/><g class="shapelayer"/></g><g class="cartesianlayer"><g class="subplot xy"><g class="layer-subplot"><g class="shapelayer"/><g class="imagelayer"/></g><g class="gridlayer"><g class="x"/><g class="y"><path class="ygrid crisp" transform="translate(0,502.25)" d="M80,0h620" style="stroke: rgb(153, 153, 153); stroke-opacity: 1; stroke-width: 1px;"/><path class="ygrid crisp" transform="translate(0,416.48)" d="M80,0h620" style="stroke: rgb(153, 153, 153); stroke-opacity: 1; stroke-width: 1px;"/><path class="ygrid crisp" transform="translate(0,330.72)" d="M80,0h620" style="stroke: rgb(153, 153, 153); stroke-opacity: 1; stroke-width: 1px;"/><path class="ygrid crisp" transform="translate(0,244.95)" d="M80,0h620" style="stroke: rgb(153, 153, 153); stroke-opacity: 1; stroke-width: 1px;"/><path class="ygrid crisp" transform="translate(0,159.19)" d="M80,0h620" style="stroke: rgb(153, 153, 153); stroke-opacity: 1; stroke-width: 1px;"/><path class="ygrid crisp" transform="translate(0,73.42)" d="M80,0h620" style="stroke: rgb(153, 153, 153); stroke-opacity: 1; stroke-width: 1px;"/></g></g><g class="zerolinelayer"/><path class="xlines-below"/><path class="ylines-below"/><g class="overlines-below"/><g class="xaxislayer-below"/><g class="yaxislayer-below"/><g class="overaxes-below"/><g class="plot" transform="translate(80, 50)" clip-path="url('#clip5d90a2xyplot')"><g class="scatterlayer mlayer"><g class="trace scatter trace2b9609" style="stroke-miterlimit: 2; opacity: 1;"><g class="fills"/><g class="errorbars"/><g class="lines"/><g class="points"><path class="point" transform="translate(34.75,452.25)" d="M3,0A3,3 0 1,1 0,-3A3,3 0 0,1 3,0Z" style="opacity: 1; stroke-width: 0px; fill: rgb(0, 0, 0); fill-opacity: 0;"/></g><g class="text"/></g><g class="trace scatter trace03f2c4" style="stroke-miterlimit: 2; opacity: 1;"><g class="fills"/><g class="errorbars"/><g class="lines"><path class="js-line" d="M45.94,24Q45.97,24.39 45.99,24.58C46.01,24.77 46.03,24.97 46.05,25.16C46.07,25.35 46.05,25.55 46.1,25.74C46.15,25.94 46.29,26.12 46.34,26.32C46.39,26.51 46.38,26.71 46.4,26.9C46.41,27.09 46.39,27.29 46.43,27.48C46.47,27.68 46.58,27.86 46.63,28.06C46.68,28.25 46.65,28.46 46.74,28.64C46.84,28.85 47.17,29.01 47.27,29.22C47.36,29.4 47.34,29.6 47.38,29.79C47.42,29.98 47.47,30.18 47.53,30.37C47.59,30.56 47.7,30.75 47.74,30.95C47.78,31.14 47.7,31.35 47.77,31.53C47.85,31.74 48.13,31.91 48.26,32.11C48.38,32.3 48.49,32.49 48.54,32.69C48.59,32.88 48.55,33.08 48.57,33.27C48.59,33.46 48.64,33.66 48.66,33.85C48.68,34.04 48.65,34.24 48.69,34.43C48.73,34.63 48.79,34.82 48.88,35.01C48.97,35.21 49.14,35.39 49.23,35.59C49.31,35.78 49.36,35.98 49.4,36.17C49.44,36.36 49.45,36.56 49.49,36.75C49.53,36.94 49.6,37.14 49.64,37.33C49.67,37.52 49.68,37.72 49.7,37.91C49.72,38.1 49.68,38.31 49.74,38.49C49.81,38.69 50.06,38.87 50.14,39.07C50.22,39.26 50.2,39.46 50.25,39.65C50.3,39.84 50.39,40.03 50.43,40.23C50.47,40.42 50.45,40.62 50.48,40.81C50.5,41 50.56,41.19 50.58,41.38C50.61,41.57 50.61,41.77 50.63,41.96C50.65,42.15 50.68,42.35 50.71,42.54C50.74,42.73 50.78,42.93 50.82,43.12C50.87,43.31 50.86,43.53 50.98,43.7C51.14,43.93 51.65,44.05 51.8,44.28C51.91,44.45 51.89,44.67 51.92,44.86C51.95,45.05 51.95,45.25 51.96,45.44C51.97,45.63 51.95,45.83 51.96,46.02C51.97,46.21 51.97,46.41 52.04,46.6C52.11,46.8 52.35,46.98 52.41,47.18C52.47,47.37 52.37,47.57 52.42,47.76C52.47,47.96 52.61,48.15 52.73,48.34C52.86,48.54 53.07,48.72 53.18,48.92C53.28,49.11 53.31,49.31 53.38,49.5C53.45,49.69 53.55,49.88 53.59,50.08C53.63,50.27 53.59,50.47 53.61,50.66C53.63,50.85 53.59,51.07 53.69,51.24C53.83,51.47 54.36,51.59 54.5,51.82C54.61,51.99 54.56,52.21 54.59,52.4C54.62,52.59 54.67,52.78 54.7,52.97C54.73,53.16 54.71,53.36 54.76,53.55C54.81,53.75 54.86,53.95 54.99,54.13C55.15,54.35 55.59,54.49 55.7,54.71C55.79,54.89 55.7,55.1 55.74,55.29C55.78,55.49 55.86,55.69 55.97,55.87C56.09,56.07 56.36,56.24 56.46,56.45C56.55,56.63 56.53,56.84 56.58,57.03C56.63,57.22 56.72,57.41 56.76,57.61C56.8,57.8 56.76,58.01 56.84,58.19C56.93,58.4 57.21,58.56 57.3,58.77C57.38,58.95 57.31,59.16 57.37,59.35C57.43,59.55 57.58,59.74 57.68,59.93C57.78,60.12 57.9,60.31 57.96,60.51C58.02,60.7 58.04,60.9 58.06,61.09C58.08,61.28 58.07,61.48 58.08,61.67C58.09,61.86 58.11,62.06 58.13,62.25C58.15,62.44 58.18,62.64 58.19,62.83C58.2,63.02 58.17,63.22 58.19,63.41C58.21,63.6 58.29,63.8 58.33,63.99C58.37,64.18 58.39,64.37 58.43,64.56C58.47,64.75 58.51,64.95 58.55,65.14C58.59,65.33 58.57,65.54 58.65,65.72C58.74,65.92 59,66.1 59.09,66.3C59.17,66.48 59.17,66.69 59.19,66.88C59.21,67.07 59.21,67.27 59.21,67.46C59.21,67.65 59.15,67.86 59.21,68.04C59.28,68.24 59.55,68.42 59.63,68.62C59.7,68.8 59.68,69.01 59.71,69.2C59.74,69.39 59.65,69.62 59.81,69.78C60.2,70.17 62.7,69.99 63.17,70.36C63.37,70.52 63.22,70.78 63.41,70.94C63.77,71.25 65.22,71.23 65.64,71.52C65.88,71.68 65.92,71.9 66.05,72.1C66.17,72.29 66.33,72.48 66.4,72.68C66.47,72.87 66.48,73.07 66.5,73.26C66.52,73.45 66.48,73.65 66.51,73.84C66.54,74.04 66.59,74.23 66.67,74.42C66.76,74.62 66.92,74.81 67.05,75C67.18,75.19 67.19,75.42 67.43,75.58C67.92,75.91 69.83,75.83 70.35,76.15C70.61,76.31 70.63,76.54 70.79,76.73C70.96,76.93 71.13,77.13 71.37,77.31C71.66,77.53 72.11,77.68 72.42,77.89C72.69,78.07 72.92,78.27 73.15,78.47C73.38,78.66 73.7,78.83 73.81,79.05C73.9,79.23 73.85,79.44 73.87,79.63C73.89,79.82 73.84,80.03 73.91,80.21C73.99,80.42 74.24,80.59 74.39,80.79C74.53,80.98 74.67,81.17 74.79,81.37C74.9,81.56 74.96,81.76 75.08,81.95C75.21,82.15 75.48,82.32 75.57,82.53C75.65,82.71 75.58,82.93 75.66,83.11C75.75,83.31 76.01,83.49 76.09,83.69C76.17,83.87 76.12,84.08 76.17,84.27C76.23,84.47 76.38,84.65 76.43,84.85C76.48,85.04 76.46,85.24 76.47,85.43C76.48,85.62 76.42,85.83 76.51,86.01C76.62,86.23 77.01,86.38 77.16,86.59C77.28,86.77 77.29,86.98 77.38,87.17C77.48,87.37 77.66,87.54 77.74,87.74C77.81,87.93 77.75,88.14 77.84,88.32C77.94,88.53 78.13,88.73 78.37,88.9C78.69,89.13 79.47,89.22 79.66,89.48C79.78,89.65 79.72,89.87 79.74,90.06C79.76,90.25 79.74,90.45 79.78,90.64C79.83,90.84 79.97,91.02 80.02,91.22C80.06,91.41 80.04,91.61 80.06,91.8C80.08,91.99 80.03,92.2 80.12,92.38C80.23,92.6 80.65,92.74 80.78,92.96C80.89,93.14 80.8,93.37 80.93,93.54C81.11,93.78 81.74,93.88 81.93,94.12C82.07,94.29 82.06,94.51 82.13,94.7C82.21,94.89 82.19,95.12 82.38,95.28C82.76,95.6 84.37,95.55 84.8,95.86C85.03,96.02 85.08,96.24 85.17,96.44C85.25,96.63 85.24,96.83 85.31,97.02C85.38,97.22 85.45,97.41 85.57,97.6C85.7,97.8 85.86,98 86.07,98.18C86.33,98.4 86.73,98.56 87.03,98.76C87.31,98.94 87.59,99.13 87.81,99.33C88.01,99.51 88.24,99.7 88.32,99.91C88.39,100.09 88.23,100.32 88.33,100.49C88.47,100.73 89.15,100.83 89.29,101.07C89.39,101.24 89.27,101.47 89.33,101.65C89.4,101.85 89.52,102.06 89.73,102.23C90.05,102.48 90.84,102.57 91.21,102.81C91.48,102.98 91.57,103.21 91.81,103.39C92.08,103.6 92.47,103.77 92.77,103.97C93.05,104.16 93.39,104.33 93.55,104.55C93.68,104.73 93.61,104.96 93.74,105.13C93.91,105.36 94.33,105.52 94.62,105.71C94.92,105.9 95.35,106.06 95.51,106.29C95.63,106.46 95.56,106.68 95.64,106.87C95.72,107.07 95.94,107.25 96.01,107.45C96.08,107.64 95.98,107.86 96.08,108.03C96.21,108.25 96.71,108.39 96.84,108.61C96.94,108.78 96.87,109 96.91,109.19C96.95,109.39 97.06,109.57 97.09,109.77C97.12,109.96 97.06,110.16 97.11,110.35C97.16,110.55 97.32,110.73 97.4,110.92C97.47,111.11 97.49,111.31 97.56,111.5C97.64,111.7 97.78,111.88 97.85,112.08C97.91,112.27 97.84,112.48 97.95,112.66C98.08,112.88 98.51,113.03 98.7,113.24C98.86,113.42 98.91,113.63 99.04,113.82C99.18,114.02 99.35,114.21 99.53,114.4C99.73,114.6 99.9,114.81 100.18,114.98C100.55,115.21 101.44,115.29 101.63,115.56C101.75,115.72 101.58,115.96 101.65,116.14C101.73,116.35 102.01,116.52 102.14,116.72C102.25,116.91 102.33,117.1 102.39,117.3C102.45,117.49 102.43,117.7 102.51,117.88C102.6,118.08 102.78,118.27 102.96,118.46C103.15,118.66 103.51,118.82 103.63,119.04C103.72,119.22 103.65,119.43 103.7,119.62C103.75,119.82 103.86,120.01 103.96,120.2C104.07,120.4 104.17,120.6 104.34,120.78C104.55,121 104.89,121.17 105.18,121.36C105.48,121.56 105.93,121.71 106.12,121.94C106.26,122.11 106.18,122.34 106.32,122.51C106.52,122.75 106.9,122.92 107.35,123.09C108.08,123.36 109.78,123.37 110.4,123.67C110.73,123.83 110.88,124.04 111.06,124.25C111.21,124.43 111.27,124.65 111.42,124.83C111.59,125.04 111.84,125.22 112.05,125.41C112.27,125.61 112.44,125.81 112.72,125.99C113.07,126.21 113.71,126.34 114.03,126.57C114.27,126.74 114.35,126.97 114.55,127.15C114.77,127.35 115.06,127.53 115.31,127.73C115.55,127.92 115.85,128.1 116.01,128.31C116.15,128.49 116.1,128.72 116.27,128.89C116.53,129.14 117.36,129.22 117.63,129.47C117.81,129.64 117.87,129.85 117.92,130.05C117.97,130.24 117.87,130.45 117.94,130.63C118.02,130.84 118.35,131 118.45,131.21C118.54,131.39 118.48,131.61 118.57,131.79C118.68,132 118.89,132.19 119.11,132.37C119.37,132.58 119.88,132.72 120.07,132.95C120.21,133.12 120.22,133.34 120.29,133.53C120.35,133.72 120.35,133.92 120.46,134.1C120.6,134.31 120.87,134.5 121.13,134.68C121.43,134.89 121.95,135.02 122.15,135.26C122.29,135.43 122.22,135.66 122.35,135.84C122.51,136.06 122.82,136.24 123.13,136.42C123.5,136.64 123.99,136.81 124.44,137C124.9,137.2 125.6,137.32 125.86,137.58C126.02,137.75 125.95,137.99 126.09,138.16C126.28,138.39 126.87,138.51 127.02,138.74C127.13,138.91 127.03,139.14 127.11,139.32C127.2,139.53 127.32,139.73 127.56,139.9C127.93,140.16 129.08,140.19 129.33,140.48C129.47,140.64 129.35,140.88 129.44,141.06C129.54,141.27 129.7,141.48 129.97,141.64C130.4,141.91 131.66,141.92 131.97,142.22C132.14,142.38 132.02,142.63 132.17,142.8C132.39,143.05 133.02,143.17 133.39,143.38C133.71,143.56 134.07,143.74 134.26,143.96C134.41,144.13 134.4,144.36 134.53,144.54C134.67,144.75 134.89,144.94 135.11,145.12C135.36,145.32 135.64,145.51 135.96,145.69C136.35,145.9 136.87,146.07 137.29,146.27C137.67,146.46 137.99,146.66 138.36,146.85C138.74,147.05 139.22,147.21 139.55,147.43C139.81,147.61 139.97,147.82 140.2,148.01C140.44,148.21 140.7,148.4 140.95,148.59C141.2,148.78 141.39,148.99 141.68,149.17C142.05,149.39 142.81,149.49 143.03,149.75C143.17,149.92 143.02,150.17 143.17,150.33C143.46,150.63 144.93,150.6 145.18,150.91C145.31,151.07 145.21,151.3 145.23,151.49C145.26,151.68 145.31,151.88 145.33,152.07C145.35,152.26 145.23,152.49 145.36,152.65C145.59,152.94 146.85,152.95 147.17,153.23C147.36,153.39 147.35,153.62 147.45,153.81C147.55,154.01 147.65,154.2 147.78,154.39C147.91,154.59 148.15,154.76 148.23,154.97C148.3,155.15 148.15,155.39 148.27,155.55C148.49,155.83 149.67,155.85 149.94,156.13C150.1,156.29 150,156.53 150.11,156.71C150.25,156.92 150.64,157.07 150.76,157.28C150.86,157.46 150.76,157.68 150.84,157.86C150.94,158.07 151.26,158.23 151.36,158.44C151.45,158.62 151.36,158.84 151.47,159.02C151.6,159.24 151.86,159.43 152.19,159.6C152.73,159.87 154.22,159.86 154.54,160.18C154.7,160.34 154.51,160.6 154.68,160.76C155.1,161.15 157.3,161.09 158.22,161.34C158.83,161.51 159.2,161.73 159.7,161.92C160.22,162.12 160.81,162.29 161.3,162.5C161.74,162.68 162.09,162.89 162.51,163.08C162.95,163.28 163.65,163.4 163.86,163.66C163.99,163.83 163.84,164.07 163.96,164.24C164.12,164.48 164.7,164.59 164.91,164.82C165.07,164.99 165.04,165.23 165.2,165.4C165.4,165.63 165.92,165.75 166.12,165.98C166.28,166.15 166.22,166.4 166.41,166.56C166.72,166.83 167.87,166.86 168.07,167.14C168.19,167.3 167.98,167.55 168.07,167.72C168.18,167.95 168.69,168.08 168.86,168.3C168.99,168.47 168.97,168.69 169.07,168.87C169.18,169.07 169.35,169.26 169.49,169.45C169.63,169.64 169.64,169.87 169.9,170.03C170.56,170.43 173.63,170.2 174.23,170.61C174.46,170.77 174.48,170.99 174.54,171.19C174.6,171.38 174.56,171.58 174.61,171.77C174.66,171.97 174.76,172.16 174.86,172.35C174.96,172.55 175.02,172.76 175.22,172.93C175.53,173.19 176.29,173.3 176.75,173.51C177.15,173.69 177.54,173.87 177.84,174.09C178.09,174.27 178.19,174.5 178.46,174.67C178.83,174.9 179.43,175.06 179.92,175.25C180.42,175.44 180.94,175.63 181.43,175.83C181.9,176.02 182.38,176.2 182.79,176.41C183.16,176.59 183.41,176.81 183.79,176.99C184.26,177.21 184.9,177.38 185.45,177.57C186,177.76 186.8,177.88 187.11,178.15C187.3,178.31 187.22,178.57 187.42,178.73C187.75,179.01 188.97,179.02 189.2,179.31C189.33,179.47 189.15,179.72 189.25,179.89C189.37,180.11 189.74,180.27 190.01,180.46C190.29,180.66 190.58,180.86 190.91,181.04C191.28,181.25 191.96,181.37 192.15,181.62C192.28,181.79 192.09,182.04 192.24,182.2C192.59,182.56 194.65,182.46 195.22,182.78C195.51,182.94 195.66,183.15 195.75,183.36C195.82,183.54 195.73,183.75 195.77,183.94C195.81,184.14 195.84,184.36 196.02,184.52C196.35,184.82 197.78,184.79 198.02,185.1C198.15,185.26 198.01,185.49 198.05,185.68C198.09,185.88 198.07,186.1 198.27,186.26C198.83,186.7 202.4,186.39 202.9,186.84C203.08,187 202.96,187.23 203.03,187.42C203.1,187.62 203.2,187.82 203.33,188C203.47,188.2 203.77,188.37 203.87,188.58C203.95,188.76 203.81,188.99 203.93,189.16C204.11,189.41 204.72,189.55 205.15,189.74C205.62,189.94 206.39,190.05 206.65,190.32C206.81,190.49 206.69,190.74 206.87,190.9C207.23,191.22 208.5,191.28 209.24,191.48C209.9,191.66 210.62,191.81 211.09,192.05C211.42,192.22 211.49,192.47 211.85,192.63C212.49,192.92 214.51,192.84 214.82,193.21C214.95,193.37 214.82,193.6 214.83,193.79C214.84,193.98 214.75,194.2 214.86,194.37C215.02,194.62 215.53,194.78 216,194.95C216.7,195.2 217.85,195.33 218.7,195.53C219.48,195.72 220.67,195.79 220.92,196.11C221.05,196.27 220.85,196.51 220.93,196.69C221.02,196.9 221.43,197.06 221.53,197.27C221.62,197.45 221.53,197.66 221.59,197.85C221.65,198.05 221.79,198.24 221.89,198.43C222,198.62 222,198.85 222.22,199.01C222.68,199.34 224.06,199.4 225.04,199.59C226.1,199.79 227.37,199.95 228.36,200.17C229.17,200.35 230.19,200.45 230.56,200.75C230.76,200.91 230.65,201.17 230.84,201.33C231.15,201.61 231.95,201.73 232.57,201.91C233.28,202.12 234.08,202.3 234.87,202.49C235.7,202.69 237.07,202.74 237.42,203.07C237.58,203.23 237.52,203.45 237.57,203.64C237.62,203.83 237.6,204.04 237.7,204.22C237.82,204.43 238.04,204.63 238.33,204.8C238.78,205.06 239.89,205.1 240.25,205.38C240.46,205.54 240.41,205.79 240.59,205.96C240.83,206.19 241.17,206.38 241.66,206.54C242.56,206.84 244.71,206.85 245.7,207.12C246.31,207.28 246.65,207.51 247.13,207.7C247.61,207.89 248.2,208.05 248.59,208.28C248.89,208.45 249.18,208.64 249.3,208.86C249.39,209.04 249.21,209.28 249.36,209.44C249.71,209.82 251.89,209.71 252.53,210.02C252.87,210.18 252.91,210.43 253.2,210.6C253.62,210.84 254.21,211.01 254.88,211.18C255.81,211.42 257.91,211.37 258.3,211.76C258.46,211.92 258.33,212.15 258.4,212.34C258.48,212.54 258.54,212.76 258.79,212.92C259.37,213.29 261.78,213.17 262.48,213.5C262.82,213.66 262.89,213.89 263.13,214.08C263.39,214.28 263.71,214.46 263.98,214.66C264.24,214.85 264.41,215.06 264.74,215.23C265.21,215.47 265.96,215.62 266.6,215.81C267.28,216.01 268.09,216.18 268.73,216.39C269.28,216.57 269.82,216.75 270.24,216.97C270.57,217.15 270.9,217.33 271.08,217.55C271.22,217.73 271.17,217.96 271.33,218.13C271.57,218.38 272.36,218.46 272.57,218.71C272.71,218.88 272.65,219.1 272.71,219.29C272.77,219.48 272.74,219.71 272.91,219.87C273.2,220.16 274.26,220.21 274.72,220.45C275.05,220.62 275.1,220.87 275.5,221.03C276.42,221.39 279.93,221.15 280.5,221.61C280.7,221.77 280.59,222.01 280.7,222.19C280.83,222.4 280.97,222.61 281.29,222.77C281.99,223.12 284.66,222.95 285.14,223.35C285.33,223.51 285.17,223.77 285.34,223.93C285.63,224.21 286.28,224.35 287.08,224.51C288.69,224.84 293.16,224.71 294.58,225.09C295.18,225.25 295.37,225.49 295.81,225.67C296.3,225.88 296.85,226.07 297.41,226.25C298.03,226.45 298.69,226.64 299.38,226.82C300.14,227.02 301.31,227.11 301.8,227.4C302.08,227.56 302.23,227.77 302.33,227.98C302.41,228.16 302.25,228.4 302.41,228.56C302.86,229 305.46,228.93 306.84,229.14C308.06,229.32 309.44,229.45 310.26,229.72C310.76,229.88 311.07,230.09 311.4,230.3C311.69,230.48 312.01,230.66 312.17,230.88C312.3,231.06 312.26,231.28 312.37,231.46C312.5,231.67 312.68,231.87 312.95,232.04C313.33,232.28 313.9,232.45 314.56,232.62C315.56,232.87 317.29,232.98 318.42,233.2C319.32,233.38 320.39,233.47 320.82,233.78C321.05,233.94 321.02,234.18 321.2,234.36C321.43,234.58 321.84,234.75 322.16,234.94C322.48,235.13 322.83,235.31 323.1,235.52C323.33,235.7 323.33,235.94 323.68,236.1C324.68,236.57 329.96,236.12 330.55,236.68C330.72,236.84 330.47,237.1 330.63,237.26C331.02,237.66 333.44,237.56 334.28,237.84C334.76,238 335.16,238.17 335.34,238.41C335.47,238.58 335.36,238.82 335.47,238.99C335.62,239.21 335.89,239.41 336.26,239.57C336.87,239.85 338.4,239.86 338.97,240.15C339.29,240.31 339.4,240.54 339.61,240.73C339.83,240.92 339.94,241.15 340.26,241.31C340.82,241.6 342.31,241.61 342.9,241.89C343.25,242.05 343.34,242.3 343.65,242.47C344.06,242.7 344.93,242.78 345.2,243.05C345.36,243.21 345.31,243.44 345.41,243.63C345.52,243.83 345.7,244.02 345.84,244.21C345.98,244.4 346,244.63 346.26,244.79C346.86,245.16 349.08,245.11 350.02,245.37C350.61,245.54 350.92,245.77 351.41,245.95C351.96,246.15 352.83,246.26 353.16,246.53C353.36,246.69 353.29,246.95 353.49,247.11C353.84,247.39 354.99,247.42 355.38,247.69C355.61,247.85 355.66,248.08 355.81,248.27C355.97,248.47 356.13,248.66 356.32,248.85C356.52,249.05 356.68,249.26 356.97,249.43C357.4,249.68 358.4,249.74 358.78,250C359.02,250.16 359.06,250.39 359.24,250.58C359.43,250.78 359.76,250.94 359.89,251.16C359.99,251.34 359.89,251.57 360.02,251.74C360.2,251.98 360.77,252.1 361.04,252.32C361.26,252.5 361.35,252.72 361.56,252.9C361.8,253.11 362.07,253.31 362.44,253.48C362.98,253.72 363.97,253.83 364.56,254.06C365.02,254.23 365.43,254.42 365.74,254.64C365.99,254.82 366.18,255.01 366.32,255.22C366.44,255.4 366.41,255.63 366.56,255.8C366.77,256.03 367.29,256.17 367.59,256.38C367.85,256.56 368.15,256.74 368.29,256.96C368.4,257.14 368.26,257.38 368.44,257.54C368.88,257.94 371.55,257.74 372.06,258.12C372.27,258.28 372.1,258.54 372.33,258.7C373.06,259.21 376.93,259.05 378.73,259.28C380.05,259.45 381.05,259.66 382.14,259.86C383.15,260.05 384.06,260.25 385.07,260.44C386.15,260.64 387.51,260.79 388.43,261.02C389.1,261.19 389.73,261.34 390.13,261.59C390.4,261.76 390.49,261.99 390.72,262.17C390.98,262.38 391.34,262.55 391.6,262.75C391.83,262.93 392.12,263.11 392.22,263.33C392.3,263.51 392.12,263.75 392.25,263.91C392.49,264.21 393.64,264.27 394.22,264.49C394.7,264.67 395.17,264.84 395.5,265.07C395.75,265.24 395.85,265.47 396.09,265.65C396.38,265.87 396.66,266.07 397.15,266.23C398.09,266.54 400.65,266.48 401.52,266.81C401.94,266.97 401.97,267.23 402.38,267.39C403.17,267.7 405,267.76 406.16,267.97C407.16,268.15 408.31,268.28 408.95,268.55C409.34,268.71 409.42,268.96 409.8,269.13C410.41,269.4 411.44,269.53 412.41,269.71C413.6,269.93 415.27,270.07 416.43,270.29C417.33,270.46 418.36,270.57 418.82,270.87C419.07,271.03 419.06,271.28 419.28,271.45C419.59,271.69 420.09,271.86 420.61,272.03C421.29,272.26 422.2,272.42 423.04,272.61C423.93,272.81 425.29,272.87 425.8,273.18C426.06,273.34 426.11,273.56 426.26,273.76C426.4,273.95 426.39,274.18 426.67,274.34C427.51,274.83 431.69,274.6 433.1,274.92C433.82,275.08 434.47,275.22 434.69,275.5C434.82,275.66 434.63,275.92 434.76,276.08C434.98,276.36 435.94,276.43 436.38,276.66C436.72,276.83 436.95,277.04 437.21,277.24C437.45,277.43 437.56,277.66 437.88,277.82C438.45,278.1 439.82,278.16 440.5,278.4C440.97,278.57 441.19,278.81 441.65,278.98C442.27,279.21 443.03,279.39 443.9,279.56C445.06,279.79 446.88,279.9 448.02,280.14C448.85,280.31 449.71,280.44 450.14,280.72C450.39,280.88 450.5,281.09 450.6,281.3C450.69,281.48 450.56,281.72 450.73,281.88C451.13,282.26 453.5,282.11 454.03,282.46C454.27,282.62 454.21,282.87 454.4,283.04C454.65,283.27 455.01,283.46 455.51,283.62C456.39,283.91 458.02,284.02 459.35,284.2C460.79,284.4 463.44,284.32 463.85,284.77C464,284.93 463.8,285.17 463.87,285.35C463.95,285.56 464.21,285.73 464.35,285.93C464.48,286.12 464.49,286.34 464.67,286.51C464.94,286.76 465.56,286.9 466,287.09C466.44,287.28 467.11,287.41 467.32,287.67C467.45,287.84 467.32,288.08 467.43,288.25C467.57,288.47 467.9,288.65 468.21,288.83C468.59,289.05 469.03,289.24 469.57,289.41C470.3,289.64 471.72,289.68 472.21,289.99C472.46,290.15 472.4,290.41 472.65,290.57C473.15,290.88 474.78,290.86 475.36,291.15C475.69,291.31 475.67,291.57 476.05,291.73C477.08,292.16 481.67,291.81 482.43,292.31C482.67,292.47 482.68,292.69 482.74,292.89C482.8,293.08 482.66,293.31 482.82,293.47C483.22,293.88 485.51,293.82 486.56,294.05C487.34,294.22 487.96,294.42 488.57,294.63C489.1,294.81 489.41,295.04 490.02,295.21C490.96,295.47 492.49,295.6 493.74,295.79C495.01,295.98 497.05,295.97 497.6,296.36C497.82,296.52 497.69,296.78 497.9,296.94C498.37,297.29 500.53,297.16 500.91,297.52C501.08,297.68 500.91,297.93 501.05,298.1C501.28,298.36 501.97,298.49 502.45,298.68C502.95,298.88 503.76,298.99 504,299.26C504.14,299.42 504.02,299.66 504.12,299.84C504.24,300.05 504.43,300.26 504.73,300.42C505.24,300.7 506.74,300.68 507.13,301C507.33,301.16 507.23,301.41 507.41,301.58C507.68,301.84 508.25,301.99 508.82,302.16C509.65,302.4 510.82,302.56 511.97,302.74C513.36,302.95 515.39,303.06 516.57,303.32C517.34,303.49 517.83,303.7 518.43,303.9C519.01,304.09 519.74,304.23 520.13,304.48C520.39,304.65 520.41,304.89 520.67,305.06C521.07,305.32 521.83,305.45 522.46,305.64C523.14,305.84 524.01,305.99 524.61,306.22C525.07,306.39 525.59,306.55 525.77,306.8C525.89,306.97 525.82,307.19 525.84,307.38C525.86,307.57 525.82,307.77 525.89,307.95C525.97,308.15 526.11,308.36 526.32,308.53C526.62,308.77 527.37,308.86 527.61,309.11C527.77,309.28 527.73,309.5 527.83,309.69C527.94,309.89 528.03,310.1 528.26,310.27C528.62,310.53 529.46,310.63 529.95,310.85C530.35,311.03 530.63,311.24 530.99,311.43C531.37,311.63 531.99,311.76 532.18,312.01C532.31,312.18 532.14,312.43 532.29,312.59C532.57,312.9 533.64,312.98 534.35,313.17C535.12,313.37 535.94,313.56 536.75,313.75C537.57,313.94 538.59,314.09 539.23,314.33C539.67,314.5 540.03,314.69 540.3,314.91C540.51,315.09 540.48,315.33 540.78,315.49C541.63,315.94 545.64,315.7 546.75,316.07C547.23,316.23 547.34,316.47 547.69,316.65C548.11,316.86 548.82,316.98 549.11,317.23C549.3,317.4 549.37,317.61 549.45,317.81C549.53,318 549.56,318.2 549.59,318.39C549.62,318.58 549.49,318.81 549.64,318.97C550.07,319.42 553.22,319.21 554.12,319.54C554.56,319.7 554.71,319.93 555.02,320.12C555.34,320.32 555.59,320.53 556.01,320.7C556.62,320.95 557.77,321.04 558.42,321.28C558.89,321.45 559.13,321.69 559.6,321.86C560.25,322.09 561.31,322.21 561.98,322.44C562.49,322.61 563.01,322.78 563.3,323.02C563.5,323.19 563.49,323.43 563.68,323.6C563.93,323.83 564.37,324 564.77,324.18C565.23,324.39 566.12,324.48 566.31,324.76C566.42,324.92 566.26,325.15 566.31,325.34C566.36,325.54 566.45,325.75 566.63,325.92C566.9,326.17 567.49,326.3 567.91,326.5C568.32,326.69 568.74,326.87 569.1,327.08C569.41,327.26 569.56,327.5 569.95,327.66C570.59,327.93 572.35,327.89 572.69,328.24C572.84,328.4 572.7,328.64 572.79,328.82C572.89,329.03 573.16,329.2 573.29,329.4C573.41,329.59 573.43,329.8 573.57,329.98C573.73,330.19 574.1,330.34 574.22,330.56C574.32,330.74 574.29,330.94 574.33,331.13C574.37,331.32 574.37,331.53 574.45,331.71C574.54,331.91 574.78,332.09 574.9,332.29C575.01,332.48 574.97,332.71 575.14,332.87C575.42,333.14 576.42,333.18 576.71,333.45C576.89,333.62 576.81,333.86 576.98,334.03C577.23,334.28 577.9,334.39 578.25,334.61C578.53,334.79 578.57,335.03 578.94,335.19C579.76,335.55 583.01,335.32 583.45,335.77C583.61,335.93 583.4,336.18 583.52,336.35C583.69,336.6 584.47,336.68 584.63,336.93C584.74,337.1 584.58,337.33 584.67,337.51C584.78,337.73 585.13,337.89 585.36,338.09C585.58,338.28 585.8,338.47 586.01,338.67C586.21,338.86 586.31,339.09 586.6,339.25C587.08,339.52 588.46,339.52 588.8,339.83C588.98,339.99 588.9,340.23 589.01,340.41C589.13,340.61 589.36,340.79 589.49,340.99C589.61,341.18 589.6,341.4 589.77,341.57C590,341.81 590.5,341.96 590.88,342.15C591.27,342.35 591.67,342.54 592.1,342.72C592.56,342.92 593.36,343.03 593.56,343.3C593.68,343.46 593.59,343.69 593.61,343.88C593.63,344.07 593.64,344.27 593.66,344.46C593.68,344.65 593.61,344.87 593.71,345.04C593.84,345.27 594.24,345.43 594.51,345.62C594.78,345.81 595.04,346.01 595.32,346.2C595.61,346.4 595.92,346.58 596.2,346.78C596.48,346.97 596.87,347.13 597,347.36C597.1,347.53 596.94,347.77 597.05,347.94C597.21,348.18 597.63,348.36 598.08,348.52C598.82,348.79 600.76,348.74 601.2,349.1C601.4,349.26 601.38,349.48 601.44,349.68C601.5,349.87 601.53,350.07 601.57,350.26C601.61,350.45 601.58,350.66 601.67,350.84C601.78,351.05 602.03,351.23 602.22,351.42C602.41,351.61 602.61,351.8 602.8,352C602.98,352.19 603.11,352.4 603.34,352.58C603.62,352.8 604.16,352.93 604.37,353.16C604.52,353.33 604.49,353.56 604.61,353.74C604.75,353.95 605,354.12 605.21,354.31C605.43,354.5 605.62,354.71 605.88,354.89C606.2,355.1 606.61,355.28 607.01,355.47C607.44,355.67 608.04,355.82 608.38,356.05C608.64,356.22 608.87,356.42 608.96,356.63C609.04,356.81 608.91,357.03 608.98,357.21C609.07,357.42 609.26,357.62 609.51,357.79C609.89,358.04 610.89,358.09 611.15,358.37C611.3,358.53 611.26,358.76 611.31,358.95C611.37,359.14 611.45,359.33 611.48,359.53C611.51,359.72 611.43,359.92 611.48,360.11C611.53,360.31 611.73,360.49 611.82,360.69C611.91,360.88 611.99,361.07 612.04,361.27C612.09,361.46 612.12,361.66 612.14,361.85C612.16,362.04 612.15,362.24 612.15,362.43C612.15,362.62 612.06,362.84 612.16,363.01C612.29,363.25 612.91,363.36 613.09,363.59C613.22,363.76 613.2,363.98 613.26,364.17C613.31,364.36 613.34,364.56 613.42,364.75C613.5,364.95 613.65,365.14 613.75,365.33C613.85,365.52 613.91,365.72 614.03,365.9C614.16,366.1 614.45,366.27 614.53,366.48C614.6,366.66 614.54,366.87 614.54,367.06C614.54,367.25 614.52,367.45 614.55,367.64C614.58,367.84 614.71,368.02 614.74,368.22C614.77,368.41 614.72,368.61 614.74,368.8C614.76,368.99 614.77,369.2 614.88,369.38C615.01,369.6 615.45,369.74 615.56,369.96C615.65,370.14 615.52,370.36 615.59,370.54C615.68,370.75 615.99,370.91 616.11,371.12C616.21,371.3 616.24,371.51 616.29,371.7C616.34,371.89 616.38,372.09 616.42,372.28C616.46,372.47 616.48,372.67 616.51,372.86C616.53,373.05 616.55,373.25 616.57,373.44C616.6,373.63 616.61,373.83 616.66,374.02C616.71,374.22 616.8,374.41 616.86,374.6C616.92,374.79 616.94,374.99 617,375.18C617.06,375.38 617.16,375.57 617.24,375.76C617.33,375.95 617.44,376.14 617.51,376.34C617.58,376.53 617.61,376.73 617.67,376.92C617.74,377.11 617.85,377.3 617.9,377.49C617.95,377.68 617.95,377.88 617.97,378.07C617.99,378.26 618,378.46 618.01,378.65C618.02,378.84 618.01,379.04 618.03,379.23C618.05,379.42 618.09,379.62 618.11,379.81C618.13,380 618.1,380.2 618.13,380.39C618.16,380.59 618.27,380.77 618.3,380.97C618.33,381.16 618.31,381.36 618.31,381.55C618.31,381.74 618.32,381.94 618.32,382.13C618.32,382.32 618.31,382.52 618.33,382.71C618.35,382.9 618.4,383.1 618.42,383.29C618.44,383.48 618.44,383.68 618.45,383.87C618.46,384.06 618.42,384.27 618.49,384.45C618.57,384.66 618.86,384.82 618.95,385.03C619.03,385.21 619.02,385.42 619.04,385.61C619.06,385.8 619.06,386 619.07,386.19C619.08,386.38 619.08,386.58 619.09,386.77C619.1,386.96 619.1,387.16 619.11,387.35C619.12,387.54 619.11,387.74 619.13,387.93C619.15,388.12 619.22,388.32 619.24,388.51C619.26,388.7 619.25,388.89 619.26,389.08C619.27,389.27 619.3,389.47 619.31,389.66C619.32,389.85 619.3,390.05 619.32,390.24C619.34,390.43 619.39,390.63 619.41,390.82C619.43,391.01 619.42,391.21 619.42,391.4C619.42,391.59 619.4,391.79 619.43,391.98C619.46,392.18 619.58,392.36 619.61,392.56C619.64,392.75 619.6,392.95 619.61,393.14C619.62,393.33 619.65,393.53 619.66,393.72C619.67,393.91 619.66,394.11 619.66,394.3C619.66,394.49 619.67,394.69 619.67,394.88C619.67,395.07 619.68,395.27 619.68,395.46C619.68,395.65 619.67,395.85 619.68,396.04C619.69,396.23 619.72,396.43 619.73,396.62C619.74,396.81 619.74,397.01 619.74,397.2C619.74,397.39 619.75,397.59 619.75,397.78C619.75,397.97 619.75,398.17 619.76,398.36C619.77,398.55 619.78,398.75 619.79,398.94C619.8,399.13 619.8,399.33 619.8,399.52C619.8,399.71 619.8,399.91 619.8,400.1C619.8,400.29 619.81,400.48 619.81,400.67C619.81,400.86 619.82,401.06 619.82,401.25C619.82,401.44 619.83,401.64 619.83,401.83C619.83,402.02 619.83,402.22 619.83,402.41C619.83,402.6 619.84,402.8 619.85,402.99C619.85,403.18 619.85,403.38 619.86,403.57C619.87,403.76 619.89,403.96 619.9,404.15C619.91,404.34 619.91,404.54 619.91,404.73C619.91,404.92 619.91,405.12 619.91,405.31C619.91,405.5 619.92,405.7 619.92,405.89C619.92,406.08 619.92,406.28 619.92,406.47C619.92,406.66 619.93,406.86 619.93,407.05C619.93,407.24 619.94,407.44 619.94,407.63C619.94,407.82 619.94,408.02 619.94,408.21C619.94,408.4 619.94,408.6 619.94,408.79C619.94,408.98 619.94,409.18 619.94,409.37C619.94,409.56 619.95,409.76 619.95,409.95C619.95,410.14 619.95,410.34 619.95,410.53C619.95,410.72 619.95,410.92 619.95,411.11C619.95,411.3 619.95,411.5 619.95,411.69C619.95,411.88 619.96,412.07 619.96,412.26C619.96,412.45 619.96,412.65 619.96,412.84C619.96,413.03 619.96,413.23 619.96,413.42C619.96,413.61 619.97,413.81 619.97,414C619.97,414.19 619.98,414.39 619.98,414.58C619.98,414.77 619.98,414.97 619.98,415.16C619.98,415.35 619.98,415.55 619.98,415.74C619.98,415.93 619.99,416.13 619.99,416.32C619.99,416.51 619.99,416.71 619.99,416.9C619.99,417.09 619.99,417.29 619.99,417.48C619.99,417.67 619.99,417.87 619.99,418.06C619.99,418.25 619.99,418.45 619.99,418.64C619.99,418.83 619.99,419.03 619.99,419.22C619.99,419.41 619.99,419.61 619.99,419.8C619.99,419.99 619.99,420.19 619.99,420.38C619.99,420.57 619.99,420.77 619.99,420.96C619.99,421.15 619.99,421.35 619.99,421.54C619.99,421.73 619.99,421.93 619.99,422.12C619.99,422.31 620,422.51 620,422.7C620,422.89 620,423.09 620,423.28C620,423.47 620,423.66 620,423.85C620,424.04 620,424.24 620,424.43C620,424.62 620,424.82 620,425.01C620,425.2 620,425.4 620,425.59C620,425.78 620,425.98 620,426.17C620,426.36 620,426.56 620,426.75C620,426.94 620,427.14 620,427.33C620,427.52 620,427.72 620,427.91C620,428.1 620,428.3 620,428.49C620,428.68 620,428.88 620,429.07C620,429.26 620,429.46 620,429.65C620,429.84 620,430.04 620,430.23C620,430.42 620,430.62 620,430.81C620,431 620,431.2 620,431.39C620,431.58 620,431.78 620,431.97C620,432.16 620,432.36 620,432.55C620,432.74 620,432.94 620,433.13C620,433.32 620,433.52 620,433.71C620,433.9 620,434.1 620,434.29C620,434.48 620,434.68 620,434.87C620,435.06 620,435.25 620,435.44C620,435.63 620,435.83 620,436.02C620,436.21 620,436.41 620,436.6C620,436.79 620,436.99 620,437.18C620,437.37 620,437.57 620,437.76C620,437.95 620,438.15 620,438.34C620,438.53 620,438.73 620,438.92C620,439.11 620,439.31 620,439.5C620,439.69 620,439.89 620,440.08C620,440.27 620,440.47 620,440.66C620,440.85 620,441.05 620,441.24C620,441.43 620,441.63 620,441.82C620,442.01 620,442.21 620,442.4C620,442.59 620,442.79 620,442.98C620,443.17 620,443.25 620,443.56C620,444.75 620,452.25 620,452.25C620,452.25 620,452.25 620,452.25C620,452.25 620,452.25 620,452.25C620,452.25 620,452.25 620,452.25C620,452.25 620,452.25 620,452.25C620,452.25 620,452.25 620,452.25C620,452.25 620,452.25 620,452.25C620,452.25 620,452.25 620,452.25C620,452.25 620,452.25 620,452.25C620,452.25 620,452.25 620,452.25C620,452.25 620,452.25 620,452.25C620,452.25 620,452.25 620,452.25C620,452.25 620,452.25 620,452.25C620,452.25 620,452.25 620,452.25Q620,452.25 620,452.25" style="vector-effect: non-scaling-stroke; fill: none; stroke: rgb(0, 0, 0); stroke-opacity: 1; stroke-width: 5px; opacity: 1;"/></g><g class="points"/><g class="text"/></g></g></g><g class="overplot"/><path class="xlines-above crisp" d="M78,531H700" style="fill: none; stroke-width: 2px; stroke: rgb(0, 0, 0); stroke-opacity: 1;"/><path class="ylines-above crisp" d="M79,50V530" style="fill: none; stroke-width: 2px; stroke: rgb(0, 0, 0); stroke-opacity: 1;"/><g class="overlines-above"/><g class="xaxislayer-above"><path class="xtick ticks crisp" d="M0,532v5" transform="translate(114.75,0)" style="stroke: rgb(0, 0, 0); stroke-opacity: 1; stroke-width: 3px;"/><path class="xtick ticks crisp" d="M0,532v5" transform="translate(231.8,0)" style="stroke: rgb(0, 0, 0); stroke-opacity: 1; stroke-width: 3px;"/><path class="xtick ticks crisp" d="M0,532v5" transform="translate(348.85,0)" style="stroke: rgb(0, 0, 0); stroke-opacity: 1; stroke-width: 3px;"/><path class="xtick ticks crisp" d="M0,532v5" transform="translate(465.9,0)" style="stroke: rgb(0, 0, 0); stroke-opacity: 1; stroke-width: 3px;"/><path class="xtick ticks crisp" d="M0,532v5" transform="translate(582.95,0)" style="stroke: rgb(0, 0, 0); stroke-opacity: 1; stroke-width: 3px;"/><path class="xtick ticks crisp" d="M0,532v5" transform="translate(700,0)" style="stroke: rgb(0, 0, 0); stroke-opacity: 1; stroke-width: 3px;"/><g class="xtick"><text text-anchor="middle" x="0" y="563.4" transform="translate(114.75,0)" style="font-family: Arial; font-size: 22px; fill: rgb(0, 0, 0); fill-opacity: 1; white-space: pre;">0</text></g><g class="xtick"><text text-anchor="middle" x="0" y="563.4" transform="translate(231.8,0)" style="font-family: Arial; font-size: 22px; fill: rgb(0, 0, 0); fill-opacity: 1; white-space: pre;">0.2</text></g><g class="xtick"><text text-anchor="middle" x="0" y="563.4" transform="translate(348.85,0)" style="font-family: Arial; font-size: 22px; fill: rgb(0, 0, 0); fill-opacity: 1; white-space: pre;">0.4</text></g><g class="xtick"><text text-anchor="middle" x="0" y="563.4" transform="translate(465.9,0)" style="font-family: Arial; font-size: 22px; fill: rgb(0, 0, 0); fill-opacity: 1; white-space: pre;">0.6</text></g><g class="xtick"><text text-anchor="middle" x="0" y="563.4" transform="translate(582.95,0)" style="font-family: Arial; font-size: 22px; fill: rgb(0, 0, 0); fill-opacity: 1; white-space: pre;">0.8</text></g><g class="xtick"><text text-anchor="middle" x="0" y="563.4" transform="translate(700,0)" style="font-family: Arial; font-size: 22px; fill: rgb(0, 0, 0); fill-opacity: 1; white-space: pre;">1</text></g></g><g class="yaxislayer-above"><path class="ytick ticks crisp" d="M78,0h-5" transform="translate(0,502.25)" style="stroke: rgb(0, 0, 0); stroke-opacity: 1; stroke-width: 3px;"/><path class="ytick ticks crisp" d="M78,0h-5" transform="translate(0,416.48)" style="stroke: rgb(0, 0, 0); stroke-opacity: 1; stroke-width: 3px;"/><path class="ytick ticks crisp" d="M78,0h-5" transform="translate(0,330.72)" style="stroke: rgb(0, 0, 0); stroke-opacity: 1; stroke-width: 3px;"/><path class="ytick ticks crisp" d="M78,0h-5" transform="translate(0,244.95)" style="stroke: rgb(0, 0, 0); stroke-opacity: 1; stroke-width: 3px;"/><path class="ytick ticks crisp" d="M78,0h-5" transform="translate(0,159.19)" style="stroke: rgb(0, 0, 0); stroke-opacity: 1; stroke-width: 3px;"/><path class="ytick ticks crisp" d="M78,0h-5" transform="translate(0,73.42)" style="stroke: rgb(0, 0, 0); stroke-opacity: 1; stroke-width: 3px;"/><g class="ytick"><text text-anchor="end" x="68.6" y="7.699999999999999" transform="translate(0,502.25)" style="font-family: Arial; font-size: 22px; fill: rgb(0, 0, 0); fill-opacity: 1; white-space: pre;">0</text></g><g class="ytick"><text text-anchor="end" x="68.6" y="7.699999999999999" transform="translate(0,416.48)" style="font-family: Arial; font-size: 22px; fill: rgb(0, 0, 0); fill-opacity: 1; white-space: pre;">0.2</text></g><g class="ytick"><text text-anchor="end" x="68.6" y="7.699999999999999" transform="translate(0,330.72)" style="font-family: Arial; font-size: 22px; fill: rgb(0, 0, 0); fill-opacity: 1; white-space: pre;">0.4</text></g><g class="ytick"><text text-anchor="end" x="68.6" y="7.699999999999999" transform="translate(0,244.95)" style="font-family: Arial; font-size: 22px; fill: rgb(0, 0, 0); fill-opacity: 1; white-space: pre;">0.6</text></g><g class="ytick"><text text-anchor="end" x="68.6" y="7.699999999999999" transform="translate(0,159.19)" style="font-family: Arial; font-size: 22px; fill: rgb(0, 0, 0); fill-opacity: 1; white-space: pre;">0.8</text></g><g class="ytick"><text text-anchor="end" x="68.6" y="7.699999999999999" transform="translate(0,73.42)" style="font-family: Arial; font-size: 22px; fill: rgb(0, 0, 0); fill-opacity: 1; white-space: pre;">1</text></g></g><g class="overaxes-above"/></g></g><g class="polarlayer"/><g class="ternarylayer"/><g class="geolayer"/><g class="funnelarealayer"/><g class="pielayer"/><g class="sunburstlayer"/><g class="glimages"/><defs id="topdefs-5d90a2"><g class="clips"/></defs><g class="layer-above"><g class="imagelayer"/><g class="shapelayer"/></g><g class="infolayer"><g class="g-gtitle"><text class="gtitle" x="378" y="18" text-anchor="middle" dy="0.7em" style="font-family: Arial; font-size: 25px; fill: rgb(0, 0, 0); opacity: 1; font-weight: normal; white-space: pre;">Power of 12 Samples</text></g><g class="g-xtitle" transform="translate(0,-12)"><text class="xtitle" x="390" y="607" text-anchor="middle" style="font-family: Arial; font-size: 22px; fill: rgb(0, 0, 0); opacity: 1; font-weight: normal; white-space: pre;">Statistical Power</text></g><g class="g-ytitle"><text class="ytitle" transform="rotate(-90,25,290)" x="25" y="290" text-anchor="middle" style="font-family: Arial; font-size: 22px; fill: rgb(0, 0, 0); opacity: 1; font-weight: normal; white-space: pre;">Proportion of Compounds with Sample Size >= 12</text></g></g></svg>