<svg class="main-svg" xmlns="http://www.w3.org/2000/svg" xmlns:xlink="http://www.w3.org/1999/xlink" width="800" height="600" style="" viewBox="0 0 800 600"><rect x="0" y="0" width="800" height="600" style="fill: rgb(255, 255, 255); fill-opacity: 1;"/><defs id="defs-526aa1"><g class="clips"><clipPath id="clip526aa1xyplot" class="plotclip"><rect width="571" height="490"/></clipPath><clipPath class="axesclip" id="clip526aa1x"><rect x="70" y="0" width="571" height="600"/></clipPath><clipPath class="axesclip" id="clip526aa1y"><rect x="0" y="50" width="800" height="490"/></clipPath><clipPath class="axesclip" id="clip526aa1xy"><rect x="70" y="50" width="571" height="490"/></clipPath></g><g class="gradients"/></defs><g class="bglayer"/><g class="layer-below"><g class="imagelayer"/><g class="shapelayer"/></g><g class="cartesianlayer"><g class="subplot xy"><g class="layer-subplot"><g class="shapelayer"/><g class="imagelayer"/></g><g class="gridlayer"><g class="x"><path class="xgrid crisp" transform="translate(92.28,0)" d="M0,50v490" style="stroke: rgb(153, 153, 153); stroke-opacity: 1; stroke-width: 1px;"/><path class="xgrid crisp" transform="translate(210.58,0)" d="M0,50v490" style="stroke: rgb(153, 153, 153); stroke-opacity: 1; stroke-width: 1px;"/><path class="xgrid crisp" transform="translate(447.17,0)" d="M0,50v490" style="stroke: rgb(153, 153, 153); stroke-opacity: 1; stroke-width: 1px;"/><path class="xgrid crisp" transform="translate(565.47,0)" d="M0,50v490" style="stroke: rgb(153, 153, 153); stroke-opacity: 1; stroke-width: 1px;"/></g><g class="y"><path class="ygrid crisp" transform="translate(0,480.96)" d="M70,0h571" style="stroke: rgb(153, 153, 153); stroke-opacity: 1; stroke-width: 1px;"/><path class="ygrid crisp" transform="translate(0,387.57)" d="M70,0h571" style="stroke: rgb(153, 153, 153); stroke-opacity: 1; stroke-width: 1px;"/><path class="ygrid crisp" transform="translate(0,200.8)" d="M70,0h571" style="stroke: rgb(153, 153, 153); stroke-opacity: 1; stroke-width: 1px;"/><path class="ygrid crisp" transform="translate(0,107.42)" d="M70,0h571" style="stroke: rgb(153, 153, 153); stroke-opacity: 1; stroke-width: 1px;"/></g></g><g class="zerolinelayer"><path class="xzl zl crisp" transform="translate(328.88,0)" d="M0,50v490" style="stroke: rgb(0, 0, 0); stroke-opacity: 1; stroke-width: 1px;"/><path class="yzl zl crisp" transform="translate(0,294.19)" d="M70,0h571" style="stroke: rgb(0, 0, 0); stroke-opacity: 1; stroke-width: 1px;"/></g><path class="xlines-below"/><path class="ylines-below"/><g class="overlines-below"/><g class="xaxislayer-below"/><g class="yaxislayer-below"/><g class="overaxes-below"/><g class="plot" transform="translate(70, 50)" clip-path="url('#clip526aa1xyplot')"><g class="scatterlayer mlayer"><g class="trace scatter trace55226e" style="stroke-miterlimit: 2; opacity: 1;"><g class="fills"/><g class="errorbars"/><g class="lines"/><g class="points"><path class="point" transform="translate(123.81,287.73)" d="M7.5,0A7.5,7.5 0 1,1 0,-7.5A7.5,7.5 0 0,1 7.5,0Z" style="opacity: 1; stroke-width: 0px; fill: rgb(228, 59, 45); fill-opacity: 1;"/><path class="point" transform="translate(204.14,339.09)" d="M7.5,0A7.5,7.5 0 1,1 0,-7.5A7.5,7.5 0 0,1 7.5,0Z" style="opacity: 1; stroke-width: 0px; fill: rgb(228, 59, 45); fill-opacity: 1;"/><path class="point" transform="translate(166.71,317.97)" d="M7.5,0A7.5,7.5 0 1,1 0,-7.5A7.5,7.5 0 0,1 7.5,0Z" style="opacity: 1; stroke-width: 0px; fill: rgb(228, 59, 45); fill-opacity: 1;"/><path class="point" transform="translate(153.36,209.28)" d="M7.5,0A7.5,7.5 0 1,1 0,-7.5A7.5,7.5 0 0,1 7.5,0Z" style="opacity: 1; stroke-width: 0px; fill: rgb(228, 59, 45); fill-opacity: 1;"/><path class="point" transform="translate(76.29,207.06)" d="M7.5,0A7.5,7.5 0 1,1 0,-7.5A7.5,7.5 0 0,1 7.5,0Z" style="opacity: 1; stroke-width: 0px; fill: rgb(228, 59, 45); fill-opacity: 1;"/><path class="point" transform="translate(152.04,214.49)" d="M7.5,0A7.5,7.5 0 1,1 0,-7.5A7.5,7.5 0 0,1 7.5,0Z" style="opacity: 1; stroke-width: 0px; fill: rgb(228, 59, 45); fill-opacity: 1;"/></g><g class="text"/></g><g class="trace scatter trace8834b5" style="stroke-miterlimit: 2; opacity: 1;"><g class="fills"/><g class="errorbars"/><g class="lines"/><g class="points"><path class="point" transform="translate(443.21,303.52)" d="M7.5,0A7.5,7.5 0 1,1 0,-7.5A7.5,7.5 0 0,1 7.5,0Z" style="opacity: 1; stroke-width: 0px; fill: rgb(55, 126, 183); fill-opacity: 1;"/><path class="point" transform="translate(432.89,273.43)" d="M7.5,0A7.5,7.5 0 1,1 0,-7.5A7.5,7.5 0 0,1 7.5,0Z" style="opacity: 1; stroke-width: 0px; fill: rgb(55, 126, 183); fill-opacity: 1;"/><path class="point" transform="translate(343.44,174.15)" d="M7.5,0A7.5,7.5 0 1,1 0,-7.5A7.5,7.5 0 0,1 7.5,0Z" style="opacity: 1; stroke-width: 0px; fill: rgb(55, 126, 183); fill-opacity: 1;"/><path class="point" transform="translate(339.64,193.71)" d="M7.5,0A7.5,7.5 0 1,1 0,-7.5A7.5,7.5 0 0,1 7.5,0Z" style="opacity: 1; stroke-width: 0px; fill: rgb(55, 126, 183); fill-opacity: 1;"/><path class="point" transform="translate(379.41,253.12)" d="M7.5,0A7.5,7.5 0 1,1 0,-7.5A7.5,7.5 0 0,1 7.5,0Z" style="opacity: 1; stroke-width: 0px; fill: rgb(55, 126, 183); fill-opacity: 1;"/><path class="point" transform="translate(291.58,156.71)" d="M7.5,0A7.5,7.5 0 1,1 0,-7.5A7.5,7.5 0 0,1 7.5,0Z" style="opacity: 1; stroke-width: 0px; fill: rgb(55, 126, 183); fill-opacity: 1;"/></g><g class="text"/></g><g class="trace scatter trace0a53e0" style="stroke-miterlimit: 2; opacity: 1;"><g class="fills"><g><path class="js-fill" d="M292.39,392.7L291.28,372.57L287.97,350.78L282.51,327.66L274.98,303.54L265.49,278.81L254.2,253.83L241.27,228.99L226.89,204.65L211.28,181.19L194.69,158.97L177.36,138.32L159.56,119.55L141.55,102.95L123.61,88.77L106.01,77.23L89.02,68.49L72.89,62.7L57.87,59.94L44.19,60.25L32.05,63.63L21.64,70.02L13.12,79.34L6.61,91.43L2.21,106.11L0,123.17L0,142.35L2.21,163.34L6.61,185.84L13.12,209.51L21.64,233.98L32.05,258.88L44.19,283.84L57.87,308.48L72.89,332.42L89.02,355.3L106.01,376.78L123.61,396.53L141.55,414.25L159.56,429.67L177.36,442.55L194.69,452.71L211.28,459.99L226.89,464.27L241.27,465.5L254.2,463.65L265.49,458.76L274.98,450.89L282.51,440.16L287.97,426.75L291.28,410.85L292.39,392.7Z" style="fill: rgb(228, 59, 45); fill-opacity: 0.1; stroke-width: 0;"/></g></g><g class="errorbars"/><g class="lines"><path class="js-line" d="M292.39,392.7L291.28,372.57L287.97,350.78L282.51,327.66L274.98,303.54L265.49,278.81L254.2,253.83L241.27,228.99L226.89,204.65L211.28,181.19L194.69,158.97L177.36,138.32L159.56,119.55L141.55,102.95L123.61,88.77L106.01,77.23L89.02,68.49L72.89,62.7L57.87,59.94L44.19,60.25L32.05,63.63L21.64,70.02L13.12,79.34L6.61,91.43L2.21,106.11L0,123.17L0,142.35L2.21,163.34L6.61,185.84L13.12,209.51L21.64,233.98L32.05,258.88L44.19,283.84L57.87,308.48L72.89,332.42L89.02,355.3L106.01,376.78L123.61,396.53L141.55,414.25L159.56,429.67L177.36,442.55L194.69,452.71L211.28,459.99L226.89,464.27L241.27,465.5L254.2,463.65L265.49,458.76L274.98,450.89L282.51,440.16L287.97,426.75L291.28,410.85L292.39,392.7" style="vector-effect: non-scaling-stroke; fill: none; stroke: rgb(228, 59, 45); stroke-opacity: 0.1; stroke-width: 1.88976px; opacity: 1;"/></g><g class="points"/><g class="text"/></g><g class="trace scatter traceebca6f" style="stroke-miterlimit: 2; opacity: 1;"><g class="fills"><g><path class="js-fill" d="M571,419.78L569.49,411.66L564.98,400.73L557.54,387.14L547.29,371.11L534.37,352.87L518.98,332.71L481.78,287.85L460.53,263.84L414.33,214.45L390.08,189.82L341.12,142.57L317.15,120.66L272.04,81.93L251.59,65.7L232.95,51.89L216.42,40.72L202.24,32.35L190.63,26.92L181.77,24.5L175.78,25.13L172.77,28.8L172.77,35.46L175.78,45.01L181.77,57.29L190.63,72.13L202.24,89.3L216.42,108.53L232.95,129.54L272.04,175.61L294.01,199.96L341.12,249.46L365.56,273.86L414.33,320.11L437.93,341.26L481.78,378.02L501.37,393.07L518.98,405.58L534.37,415.37L547.29,422.28L557.54,426.22L564.98,427.11L569.49,424.96L571,419.78Z" style="fill: rgb(55, 126, 183); fill-opacity: 0.1; stroke-width: 0;"/></g></g><g class="errorbars"/><g class="lines"><path class="js-line" d="M571,419.78L569.49,411.66L564.98,400.73L557.54,387.14L547.29,371.11L534.37,352.87L518.98,332.71L481.78,287.85L460.53,263.84L414.33,214.45L390.08,189.82L341.12,142.57L317.15,120.66L272.04,81.93L251.59,65.7L232.95,51.89L216.42,40.72L202.24,32.35L190.63,26.92L181.77,24.5L175.78,25.13L172.77,28.8L172.77,35.46L175.78,45.01L181.77,57.29L190.63,72.13L202.24,89.3L216.42,108.53L232.95,129.54L272.04,175.61L294.01,199.96L341.12,249.46L365.56,273.86L414.33,320.11L437.93,341.26L481.78,378.02L501.37,393.07L518.98,405.58L534.37,415.37L547.29,422.28L557.54,426.22L564.98,427.11L569.49,424.96L571,419.78" style="vector-effect: non-scaling-stroke; fill: none; stroke: rgb(55, 126, 183); stroke-opacity: 0.1; stroke-width: 1.88976px; opacity: 1;"/></g><g class="points"/><g class="text"/></g></g></g><g class="overplot"/><path class="xlines-above crisp" d="M68,541H641" style="fill: none; stroke-width: 2px; stroke: rgb(0, 0, 0); stroke-opacity: 1;"/><path class="ylines-above crisp" d="M69,50V540" style="fill: none; stroke-width: 2px; stroke: rgb(0, 0, 0); stroke-opacity: 1;"/><g class="overlines-above"/><g class="xaxislayer-above"><path class="xtick ticks crisp" d="M0,542v5" transform="translate(92.28,0)" style="stroke: rgb(0, 0, 0); stroke-opacity: 1; stroke-width: 3px;"/><path class="xtick ticks crisp" d="M0,542v5" transform="translate(210.58,0)" style="stroke: rgb(0, 0, 0); stroke-opacity: 1; stroke-width: 3px;"/><path class="xtick ticks crisp" d="M0,542v5" transform="translate(328.88,0)" style="stroke: rgb(0, 0, 0); stroke-opacity: 1; stroke-width: 3px;"/><path class="xtick ticks crisp" d="M0,542v5" transform="translate(447.17,0)" style="stroke: rgb(0, 0, 0); stroke-opacity: 1; stroke-width: 3px;"/><path class="xtick ticks crisp" d="M0,542v5" transform="translate(565.47,0)" style="stroke: rgb(0, 0, 0); stroke-opacity: 1; stroke-width: 3px;"/><g class="xtick"><text text-anchor="middle" x="0" y="573.4" transform="translate(92.28,0)" style="font-family: Arial; font-size: 22px; fill: rgb(0, 0, 0); fill-opacity: 1; white-space: pre;">−20</text></g><g class="xtick"><text text-anchor="middle" x="0" y="573.4" transform="translate(210.58,0)" style="font-family: Arial; font-size: 22px; fill: rgb(0, 0, 0); fill-opacity: 1; white-space: pre;">−10</text></g><g class="xtick"><text text-anchor="middle" x="0" y="573.4" transform="translate(328.88,0)" style="font-family: Arial; font-size: 22px; fill: rgb(0, 0, 0); fill-opacity: 1; white-space: pre;">0</text></g><g class="xtick"><text text-anchor="middle" x="0" y="573.4" transform="translate(447.17,0)" style="font-family: Arial; font-size: 22px; fill: rgb(0, 0, 0); fill-opacity: 1; white-space: pre;">10</text></g><g class="xtick"><text text-anchor="middle" x="0" y="573.4" transform="translate(565.47,0)" style="font-family: Arial; font-size: 22px; fill: rgb(0, 0, 0); fill-opacity: 1; white-space: pre;">20</text></g></g><g class="yaxislayer-above"><path class="ytick ticks crisp" d="M68,0h-5" transform="translate(0,480.96)" style="stroke: rgb(0, 0, 0); stroke-opacity: 1; stroke-width: 3px;"/><path class="ytick ticks crisp" d="M68,0h-5" transform="translate(0,387.57)" style="stroke: rgb(0, 0, 0); stroke-opacity: 1; stroke-width: 3px;"/><path class="ytick ticks crisp" d="M68,0h-5" transform="translate(0,294.19)" style="stroke: rgb(0, 0, 0); stroke-opacity: 1; stroke-width: 3px;"/><path class="ytick ticks crisp" d="M68,0h-5" transform="translate(0,200.8)" style="stroke: rgb(0, 0, 0); stroke-opacity: 1; stroke-width: 3px;"/><path class="ytick ticks crisp" d="M68,0h-5" transform="translate(0,107.42)" style="stroke: rgb(0, 0, 0); stroke-opacity: 1; stroke-width: 3px;"/><g class="ytick"><text text-anchor="end" x="58.6" y="7.699999999999999" transform="translate(0,480.96)" style="font-family: Arial; font-size: 22px; fill: rgb(0, 0, 0); fill-opacity: 1; white-space: pre;">−40</text></g><g class="ytick"><text text-anchor="end" x="58.6" y="7.699999999999999" transform="translate(0,387.57)" style="font-family: Arial; font-size: 22px; fill: rgb(0, 0, 0); fill-opacity: 1; white-space: pre;">−20</text></g><g class="ytick"><text text-anchor="end" x="58.6" y="7.699999999999999" transform="translate(0,294.19)" style="font-family: Arial; font-size: 22px; fill: rgb(0, 0, 0); fill-opacity: 1; white-space: pre;">0</text></g><g class="ytick"><text text-anchor="end" x="58.6" y="7.699999999999999" transform="translate(0,200.8)" style="font-family: Arial; font-size: 22px; fill: rgb(0, 0, 0); fill-opacity: 1; white-space: pre;">20</text></g><g class="ytick"><text text-anchor="end" x="58.6" y="7.699999999999999" transform="translate(0,107.42)" style="font-family: Arial; font-size: 22px; fill: rgb(0, 0, 0); fill-opacity: 1; white-space: pre;">40</text></g></g><g class="overaxes-above"/></g></g><g class="polarlayer"/><g class="ternarylayer"/><g class="geolayer"/><g class="funnelarealayer"/><g class="pielayer"/><g class="sunburstlayer"/><g class="glimages"/><defs id="topdefs-526aa1"><g class="clips"/><clipPath id="legend526aa1"><rect width="144" height="91" x="1" y="1"/></clipPath></defs><g class="layer-above"><g class="imagelayer"/><g class="shapelayer"/></g><g class="infolayer"><g class="legend" pointer-events="all" transform="translate(654, 50)"><rect class="bg" shape-rendering="crispEdges" width="145" height="92" x="0.5" y="0.5" style="stroke: rgb(255, 255, 255); stroke-opacity: 1; fill: rgb(255, 255, 255); fill-opacity: 1; stroke-width: 1px;"/><g class="scrollbox" transform="translate(0, 0)" clip-path="url('#legend526aa1')"><g class="groups" transform="translate(0, 0)"><g class="traces" transform="translate(1, 23.75)" style="opacity: 1;"><text class="legendtext user-select-none" text-anchor="start" x="40" y="9.75" style="font-family: Arial; font-size: 25px; fill: rgb(0, 0, 0); fill-opacity: 1; white-space: pre;">Lmbrd1  </text><g class="layers" style="opacity: 1;"><g class="legendfill"/><g class="legendlines"/><g class="legendsymbols"><g class="legendpoints"><path class="scatterpts" transform="translate(20,0)" d="M7.5,0A7.5,7.5 0 1,1 0,-7.5A7.5,7.5 0 0,1 7.5,0Z" style="opacity: 1; stroke-width: 0px; fill: rgb(228, 59, 45); fill-opacity: 1;"/></g></g></g><rect class="legendtoggle" pointer-events="all" x="0" y="-17.75" width="186" height="35.5" style="cursor: pointer; fill: rgb(0, 0, 0); fill-opacity: 0;"/></g></g><g class="groups" transform="translate(0, 10)"><g class="traces" transform="translate(1, 59.25)" style="opacity: 1;"><text class="legendtext user-select-none" text-anchor="start" x="40" y="9.75" style="font-family: Arial; font-size: 25px; fill: rgb(0, 0, 0); fill-opacity: 1; white-space: pre;">Null  </text><g class="layers" style="opacity: 1;"><g class="legendfill"/><g class="legendlines"/><g class="legendsymbols"><g class="legendpoints"><path class="scatterpts" transform="translate(20,0)" d="M7.5,0A7.5,7.5 0 1,1 0,-7.5A7.5,7.5 0 0,1 7.5,0Z" style="opacity: 1; stroke-width: 0px; fill: rgb(55, 126, 183); fill-opacity: 1;"/></g></g></g><rect class="legendtoggle" pointer-events="all" x="0" y="-17.75" width="186" height="35.5" style="cursor: pointer; fill: rgb(0, 0, 0); fill-opacity: 0;"/></g></g></g><rect class="scrollbar" rx="20" ry="3" width="0" height="0" x="0" y="0" style="fill: rgb(128, 139, 164); fill-opacity: 1;"/></g><g class="g-gtitle"><text class="gtitle" x="384" y="18" text-anchor="middle" dy="0.7em" style="font-family: Arial; font-size: 25px; fill: rgb(0, 0, 0); opacity: 1; font-weight: normal; white-space: pre;">PCA Score Plot</text></g><g class="g-xtitle" transform="translate(0,-21.98453712463379)"><text class="xtitle" x="355.5" y="617" text-anchor="middle" style="font-family: Arial; font-size: 22px; fill: rgb(0, 0, 0); opacity: 1; font-weight: normal; white-space: pre;">PC1 (18.40%)</text></g><g class="g-ytitle" transform="translate(5,0)"><text class="ytitle" transform="rotate(-90,15,295)" x="15" y="295" text-anchor="middle" style="font-family: Arial; font-size: 22px; fill: rgb(0, 0, 0); opacity: 1; font-weight: normal; white-space: pre;">PC2 (24.60%)</text></g></g></svg>