<svg class="main-svg" xmlns="http://www.w3.org/2000/svg" xmlns:xlink="http://www.w3.org/1999/xlink" width="800" height="600" style="" viewBox="0 0 800 600"><rect x="0" y="0" width="800" height="600" style="fill: rgb(255, 255, 255); fill-opacity: 1;"/><defs id="defs-a52458"><g class="clips"><clipPath id="clipa52458xyplot" class="plotclip"><rect width="571" height="490"/></clipPath><clipPath class="axesclip" id="clipa52458x"><rect x="70" y="0" width="571" height="600"/></clipPath><clipPath class="axesclip" id="clipa52458y"><rect x="0" y="50" width="800" height="490"/></clipPath><clipPath class="axesclip" id="clipa52458xy"><rect x="70" y="50" width="571" height="490"/></clipPath></g><g class="gradients"/></defs><g class="bglayer"/><g class="layer-below"><g class="imagelayer"/><g class="shapelayer"/></g><g class="cartesianlayer"><g class="subplot xy"><g class="layer-subplot"><g class="shapelayer"/><g class="imagelayer"/></g><g class="gridlayer"><g class="x"><path class="xgrid crisp" transform="translate(91.89,0)" d="M0,50v490" style="stroke: rgb(153, 153, 153); stroke-opacity: 1; stroke-width: 1px;"/><path class="xgrid crisp" transform="translate(210.34,0)" d="M0,50v490" style="stroke: rgb(153, 153, 153); stroke-opacity: 1; stroke-width: 1px;"/><path class="xgrid crisp" transform="translate(447.23,0)" d="M0,50v490" style="stroke: rgb(153, 153, 153); stroke-opacity: 1; stroke-width: 1px;"/><path class="xgrid crisp" transform="translate(565.6800000000001,0)" d="M0,50v490" style="stroke: rgb(153, 153, 153); stroke-opacity: 1; stroke-width: 1px;"/></g><g class="y"><path class="ygrid crisp" transform="translate(0,480.89)" d="M70,0h571" style="stroke: rgb(153, 153, 153); stroke-opacity: 1; stroke-width: 1px;"/><path class="ygrid crisp" transform="translate(0,387.54)" d="M70,0h571" style="stroke: rgb(153, 153, 153); stroke-opacity: 1; stroke-width: 1px;"/><path class="ygrid crisp" transform="translate(0,200.84)" d="M70,0h571" style="stroke: rgb(153, 153, 153); stroke-opacity: 1; stroke-width: 1px;"/><path class="ygrid crisp" transform="translate(0,107.49000000000001)" d="M70,0h571" style="stroke: rgb(153, 153, 153); stroke-opacity: 1; stroke-width: 1px;"/></g></g><g class="zerolinelayer"><path class="xzl zl crisp" transform="translate(328.78,0)" d="M0,50v490" style="stroke: rgb(0, 0, 0); stroke-opacity: 1; stroke-width: 1px;"/><path class="yzl zl crisp" transform="translate(0,294.19)" d="M70,0h571" style="stroke: rgb(0, 0, 0); stroke-opacity: 1; stroke-width: 1px;"/></g><path class="xlines-below"/><path class="ylines-below"/><g class="overlines-below"/><g class="xaxislayer-below"/><g class="yaxislayer-below"/><g class="overaxes-below"/><g class="plot" transform="translate(70, 50)" clip-path="url('#clipa52458xyplot')"><g class="scatterlayer mlayer"><g class="trace scatter tracedfb905" style="stroke-miterlimit: 2; opacity: 1;"><g class="fills"/><g class="errorbars"/><g class="lines"/><g class="points"><path class="point" transform="translate(123.68,287.68)" d="M7.5,0A7.5,7.5 0 1,1 0,-7.5A7.5,7.5 0 0,1 7.5,0Z" style="opacity: 1; stroke-width: 0px; fill: rgb(228, 59, 45); fill-opacity: 1;"/><path class="point" transform="translate(203.74,339.18)" d="M7.5,0A7.5,7.5 0 1,1 0,-7.5A7.5,7.5 0 0,1 7.5,0Z" style="opacity: 1; stroke-width: 0px; fill: rgb(228, 59, 45); fill-opacity: 1;"/><path class="point" transform="translate(166.09,317.78)" d="M7.5,0A7.5,7.5 0 1,1 0,-7.5A7.5,7.5 0 0,1 7.5,0Z" style="opacity: 1; stroke-width: 0px; fill: rgb(228, 59, 45); fill-opacity: 1;"/><path class="point" transform="translate(152.96,209.14)" d="M7.5,0A7.5,7.5 0 1,1 0,-7.5A7.5,7.5 0 0,1 7.5,0Z" style="opacity: 1; stroke-width: 0px; fill: rgb(228, 59, 45); fill-opacity: 1;"/><path class="point" transform="translate(76.03,207.09)" d="M7.5,0A7.5,7.5 0 1,1 0,-7.5A7.5,7.5 0 0,1 7.5,0Z" style="opacity: 1; stroke-width: 0px; fill: rgb(228, 59, 45); fill-opacity: 1;"/><path class="point" transform="translate(152.35,214.38)" d="M7.5,0A7.5,7.5 0 1,1 0,-7.5A7.5,7.5 0 0,1 7.5,0Z" style="opacity: 1; stroke-width: 0px; fill: rgb(228, 59, 45); fill-opacity: 1;"/></g><g class="text"/></g><g class="trace scatter trace959c76" style="stroke-miterlimit: 2; opacity: 1;"><g class="fills"/><g class="errorbars"/><g class="lines"/><g class="points"><path class="point" transform="translate(443.29,303.64)" d="M7.5,0A7.5,7.5 0 1,1 0,-7.5A7.5,7.5 0 0,1 7.5,0Z" style="opacity: 1; stroke-width: 0px; fill: rgb(55, 126, 183); fill-opacity: 1;"/><path class="point" transform="translate(432.85,273.61)" d="M7.5,0A7.5,7.5 0 1,1 0,-7.5A7.5,7.5 0 0,1 7.5,0Z" style="opacity: 1; stroke-width: 0px; fill: rgb(55, 126, 183); fill-opacity: 1;"/><path class="point" transform="translate(343.45,174.08)" d="M7.5,0A7.5,7.5 0 1,1 0,-7.5A7.5,7.5 0 0,1 7.5,0Z" style="opacity: 1; stroke-width: 0px; fill: rgb(55, 126, 183); fill-opacity: 1;"/><path class="point" transform="translate(339.92,193.79)" d="M7.5,0A7.5,7.5 0 1,1 0,-7.5A7.5,7.5 0 0,1 7.5,0Z" style="opacity: 1; stroke-width: 0px; fill: rgb(55, 126, 183); fill-opacity: 1;"/><path class="point" transform="translate(379.45,253.01)" d="M7.5,0A7.5,7.5 0 1,1 0,-7.5A7.5,7.5 0 0,1 7.5,0Z" style="opacity: 1; stroke-width: 0px; fill: rgb(55, 126, 183); fill-opacity: 1;"/><path class="point" transform="translate(291.58,156.87)" d="M7.5,0A7.5,7.5 0 1,1 0,-7.5A7.5,7.5 0 0,1 7.5,0Z" style="opacity: 1; stroke-width: 0px; fill: rgb(55, 126, 183); fill-opacity: 1;"/></g><g class="text"/></g><g class="trace scatter trace0b4d5d" style="stroke-miterlimit: 2; opacity: 1;"><g class="fills"><g><path class="js-fill" d="M291.89,392.09L290.79,371.9L287.48,350.06L282.03,326.89L274.51,302.74L265.04,277.99L253.77,253L240.86,228.15L226.5,203.83L210.93,180.4L194.36,158.21L177.06,137.6L159.29,118.89L141.31,102.36L123.4,88.25L105.83,76.79L88.87,68.14L72.77,62.44L57.77,59.77L44.11,60.18L32,63.65L21.6,70.14L13.09,79.54L6.6,91.72L2.21,106.49L0,123.63L0,142.87L2.21,163.92L6.6,186.47L13.09,210.18L21.6,234.67L32,259.59L44.11,284.56L57.77,309.19L72.77,333.11L88.87,355.96L105.83,377.4L123.4,397.1L141.31,414.75L159.29,430.1L177.06,442.91L194.36,452.99L210.93,460.17L226.5,464.37L240.86,465.5L253.77,463.56L265.04,458.57L274.51,450.6L282.03,439.79L287.48,426.29L290.79,410.31L291.89,392.09Z" style="fill: rgb(228, 59, 45); fill-opacity: 0.1; stroke-width: 0;"/></g></g><g class="errorbars"/><g class="lines"><path class="js-line" d="M291.89,392.09L290.79,371.9L287.48,350.06L282.03,326.89L274.51,302.74L265.04,277.99L253.77,253L240.86,228.15L226.5,203.83L210.93,180.4L194.36,158.21L177.06,137.6L159.29,118.89L141.31,102.36L123.4,88.25L105.83,76.79L88.87,68.14L72.77,62.44L57.77,59.77L44.11,60.18L32,63.65L21.6,70.14L13.09,79.54L6.6,91.72L2.21,106.49L0,123.63L0,142.87L2.21,163.92L6.6,186.47L13.09,210.18L21.6,234.67L32,259.59L44.11,284.56L57.77,309.19L72.77,333.11L88.87,355.96L105.83,377.4L123.4,397.1L141.31,414.75L159.29,430.1L177.06,442.91L194.36,452.99L210.93,460.17L226.5,464.37L240.86,465.5L253.77,463.56L265.04,458.57L274.51,450.6L282.03,439.79L287.48,426.29L290.79,410.31L291.89,392.09" style="vector-effect: non-scaling-stroke; fill: none; stroke: rgb(228, 59, 45); stroke-opacity: 0.1; stroke-width: 1.88976px; opacity: 1;"/></g><g class="points"/><g class="text"/></g><g class="trace scatter trace4ff82e" style="stroke-miterlimit: 2; opacity: 1;"><g class="fills"><g><path class="js-fill" d="M571,419.92L569.49,411.82L564.98,400.89L557.55,387.31L547.29,371.28L534.38,353.04L519,332.88L481.81,288.01L460.57,263.99L414.38,214.59L390.14,189.96L341.2,142.68L317.23,120.76L272.14,82.01L251.69,65.76L233.06,51.94L216.54,40.76L202.36,32.38L190.76,26.93L181.9,24.5L175.91,25.12L172.9,28.78L172.9,35.43L175.91,44.97L181.9,57.25L190.76,72.08L202.36,89.25L216.54,108.48L233.06,129.5L272.14,175.57L294.1,199.92L341.2,249.44L365.62,273.85L414.38,320.12L437.98,341.28L481.81,378.07L501.39,393.13L519,405.66L534.38,415.46L547.29,422.38L557.55,426.33L564.98,427.24L569.49,425.09L571,419.92Z" style="fill: rgb(55, 126, 183); fill-opacity: 0.1; stroke-width: 0;"/></g></g><g class="errorbars"/><g class="lines"><path class="js-line" d="M571,419.92L569.49,411.82L564.98,400.89L557.55,387.31L547.29,371.28L534.38,353.04L519,332.88L481.81,288.01L460.57,263.99L414.38,214.59L390.14,189.96L341.2,142.68L317.23,120.76L272.14,82.01L251.69,65.76L233.06,51.94L216.54,40.76L202.36,32.38L190.76,26.93L181.9,24.5L175.91,25.12L172.9,28.78L172.9,35.43L175.91,44.97L181.9,57.25L190.76,72.08L202.36,89.25L216.54,108.48L233.06,129.5L272.14,175.57L294.1,199.92L341.2,249.44L365.62,273.85L414.38,320.12L437.98,341.28L481.81,378.07L501.39,393.13L519,405.66L534.38,415.46L547.29,422.38L557.55,426.33L564.98,427.24L569.49,425.09L571,419.92" style="vector-effect: non-scaling-stroke; fill: none; stroke: rgb(55, 126, 183); stroke-opacity: 0.1; stroke-width: 1.88976px; opacity: 1;"/></g><g class="points"/><g class="text"/></g></g></g><g class="overplot"/><path class="xlines-above crisp" d="M68,541H641" style="fill: none; stroke-width: 2px; stroke: rgb(0, 0, 0); stroke-opacity: 1;"/><path class="ylines-above crisp" d="M69,50V540" style="fill: none; stroke-width: 2px; stroke: rgb(0, 0, 0); stroke-opacity: 1;"/><g class="overlines-above"/><g class="xaxislayer-above"><path class="xtick ticks crisp" d="M0,542v5" transform="translate(91.89,0)" style="stroke: rgb(0, 0, 0); stroke-opacity: 1; stroke-width: 3px;"/><path class="xtick ticks crisp" d="M0,542v5" transform="translate(210.34,0)" style="stroke: rgb(0, 0, 0); stroke-opacity: 1; stroke-width: 3px;"/><path class="xtick ticks crisp" d="M0,542v5" transform="translate(328.78,0)" style="stroke: rgb(0, 0, 0); stroke-opacity: 1; stroke-width: 3px;"/><path class="xtick ticks crisp" d="M0,542v5" transform="translate(447.23,0)" style="stroke: rgb(0, 0, 0); stroke-opacity: 1; stroke-width: 3px;"/><path class="xtick ticks crisp" d="M0,542v5" transform="translate(565.6800000000001,0)" style="stroke: rgb(0, 0, 0); stroke-opacity: 1; stroke-width: 3px;"/><g class="xtick"><text text-anchor="middle" x="0" y="573.4" transform="translate(91.89,0)" style="font-family: Arial; font-size: 22px; fill: rgb(0, 0, 0); fill-opacity: 1; white-space: pre;">−20</text></g><g class="xtick"><text text-anchor="middle" x="0" y="573.4" transform="translate(210.34,0)" style="font-family: Arial; font-size: 22px; fill: rgb(0, 0, 0); fill-opacity: 1; white-space: pre;">−10</text></g><g class="xtick"><text text-anchor="middle" x="0" y="573.4" transform="translate(328.78,0)" style="font-family: Arial; font-size: 22px; fill: rgb(0, 0, 0); fill-opacity: 1; white-space: pre;">0</text></g><g class="xtick"><text text-anchor="middle" x="0" y="573.4" transform="translate(447.23,0)" style="font-family: Arial; font-size: 22px; fill: rgb(0, 0, 0); fill-opacity: 1; white-space: pre;">10</text></g><g class="xtick"><text text-anchor="middle" x="0" y="573.4" transform="translate(565.6800000000001,0)" style="font-family: Arial; font-size: 22px; fill: rgb(0, 0, 0); fill-opacity: 1; white-space: pre;">20</text></g></g><g class="yaxislayer-above"><path class="ytick ticks crisp" d="M68,0h-5" transform="translate(0,480.89)" style="stroke: rgb(0, 0, 0); stroke-opacity: 1; stroke-width: 3px;"/><path class="ytick ticks crisp" d="M68,0h-5" transform="translate(0,387.54)" style="stroke: rgb(0, 0, 0); stroke-opacity: 1; stroke-width: 3px;"/><path class="ytick ticks crisp" d="M68,0h-5" transform="translate(0,294.19)" style="stroke: rgb(0, 0, 0); stroke-opacity: 1; stroke-width: 3px;"/><path class="ytick ticks crisp" d="M68,0h-5" transform="translate(0,200.84)" style="stroke: rgb(0, 0, 0); stroke-opacity: 1; stroke-width: 3px;"/><path class="ytick ticks crisp" d="M68,0h-5" transform="translate(0,107.49000000000001)" style="stroke: rgb(0, 0, 0); stroke-opacity: 1; stroke-width: 3px;"/><g class="ytick"><text text-anchor="end" x="58.6" y="7.699999999999999" transform="translate(0,480.89)" style="font-family: Arial; font-size: 22px; fill: rgb(0, 0, 0); fill-opacity: 1; white-space: pre;">−40</text></g><g class="ytick"><text text-anchor="end" x="58.6" y="7.699999999999999" transform="translate(0,387.54)" style="font-family: Arial; font-size: 22px; fill: rgb(0, 0, 0); fill-opacity: 1; white-space: pre;">−20</text></g><g class="ytick"><text text-anchor="end" x="58.6" y="7.699999999999999" transform="translate(0,294.19)" style="font-family: Arial; font-size: 22px; fill: rgb(0, 0, 0); fill-opacity: 1; white-space: pre;">0</text></g><g class="ytick"><text text-anchor="end" x="58.6" y="7.699999999999999" transform="translate(0,200.84)" style="font-family: Arial; font-size: 22px; fill: rgb(0, 0, 0); fill-opacity: 1; white-space: pre;">20</text></g><g class="ytick"><text text-anchor="end" x="58.6" y="7.699999999999999" transform="translate(0,107.49000000000001)" style="font-family: Arial; font-size: 22px; fill: rgb(0, 0, 0); fill-opacity: 1; white-space: pre;">40</text></g></g><g class="overaxes-above"/></g></g><g class="polarlayer"/><g class="ternarylayer"/><g class="geolayer"/><g class="funnelarealayer"/><g class="pielayer"/><g class="sunburstlayer"/><g class="glimages"/><defs id="topdefs-a52458"><g class="clips"/><clipPath id="legenda52458"><rect width="144" height="91" x="1" y="1"/></clipPath></defs><g class="layer-above"><g class="imagelayer"/><g class="shapelayer"/></g><g class="infolayer"><g class="legend" pointer-events="all" transform="translate(654, 50)"><rect class="bg" shape-rendering="crispEdges" width="145" height="92" x="0.5" y="0.5" style="stroke: rgb(255, 255, 255); stroke-opacity: 1; fill: rgb(255, 255, 255); fill-opacity: 1; stroke-width: 1px;"/><g class="scrollbox" transform="translate(0, 0)" clip-path="url('#legenda52458')"><g class="groups" transform="translate(0, 0)"><g class="traces" transform="translate(1, 23.75)" style="opacity: 1;"><text class="legendtext user-select-none" text-anchor="start" x="40" y="9.75" style="font-family: Arial; font-size: 25px; fill: rgb(0, 0, 0); fill-opacity: 1; white-space: pre;">Lmbrd1  </text><g class="layers" style="opacity: 1;"><g class="legendfill"/><g class="legendlines"/><g class="legendsymbols"><g class="legendpoints"><path class="scatterpts" transform="translate(20,0)" d="M7.5,0A7.5,7.5 0 1,1 0,-7.5A7.5,7.5 0 0,1 7.5,0Z" style="opacity: 1; stroke-width: 0px; fill: rgb(228, 59, 45); fill-opacity: 1;"/></g></g></g><rect class="legendtoggle" pointer-events="all" x="0" y="-17.75" width="186" height="35.5" style="cursor: pointer; fill: rgb(0, 0, 0); fill-opacity: 0;"/></g></g><g class="groups" transform="translate(0, 10)"><g class="traces" transform="translate(1, 59.25)" style="opacity: 1;"><text class="legendtext user-select-none" text-anchor="start" x="40" y="9.75" style="font-family: Arial; font-size: 25px; fill: rgb(0, 0, 0); fill-opacity: 1; white-space: pre;">Null  </text><g class="layers" style="opacity: 1;"><g class="legendfill"/><g class="legendlines"/><g class="legendsymbols"><g class="legendpoints"><path class="scatterpts" transform="translate(20,0)" d="M7.5,0A7.5,7.5 0 1,1 0,-7.5A7.5,7.5 0 0,1 7.5,0Z" style="opacity: 1; stroke-width: 0px; fill: rgb(55, 126, 183); fill-opacity: 1;"/></g></g></g><rect class="legendtoggle" pointer-events="all" x="0" y="-17.75" width="186" height="35.5" style="cursor: pointer; fill: rgb(0, 0, 0); fill-opacity: 0;"/></g></g></g><rect class="scrollbar" rx="20" ry="3" width="0" height="0" x="0" y="0" style="fill: rgb(128, 139, 164); fill-opacity: 1;"/></g><g class="g-gtitle"><text class="gtitle" x="384" y="18" text-anchor="middle" dy="0.7em" style="font-family: Arial; font-size: 25px; fill: rgb(0, 0, 0); opacity: 1; font-weight: normal; white-space: pre;">PCA Score Plot</text></g><g class="g-xtitle" transform="translate(0,-21.640625)"><text class="xtitle" x="355.5" y="617" text-anchor="middle" style="font-family: Arial; font-size: 22px; fill: rgb(0, 0, 0); opacity: 1; font-weight: normal; white-space: pre;">PC1 (18.40%)</text></g><g class="g-ytitle" transform="translate(5,0)"><text class="ytitle" transform="rotate(-90,15,295)" x="15" y="295" text-anchor="middle" style="font-family: Arial; font-size: 22px; fill: rgb(0, 0, 0); opacity: 1; font-weight: normal; white-space: pre;">PC2 (24.60%)</text></g></g></svg>