<svg class="main-svg" xmlns="http://www.w3.org/2000/svg" xmlns:xlink="http://www.w3.org/1999/xlink" width="800" height="600" style="" viewBox="0 0 800 600"><rect x="0" y="0" width="800" height="600" style="fill: rgb(255, 255, 255); fill-opacity: 1;"/><defs id="defs-dbdabb"><g class="clips"><clipPath id="clipdbdabbxyplot" class="plotclip"><rect width="571" height="490"/></clipPath><clipPath class="axesclip" id="clipdbdabbx"><rect x="70" y="0" width="571" height="600"/></clipPath><clipPath class="axesclip" id="clipdbdabby"><rect x="0" y="50" width="800" height="490"/></clipPath><clipPath class="axesclip" id="clipdbdabbxy"><rect x="70" y="50" width="571" height="490"/></clipPath></g><g class="gradients"/></defs><g class="bglayer"/><g class="layer-below"><g class="imagelayer"/><g class="shapelayer"/></g><g class="cartesianlayer"><g class="subplot xy"><g class="layer-subplot"><g class="shapelayer"/><g class="imagelayer"/></g><g class="gridlayer"><g class="x"><path class="xgrid crisp" transform="translate(149.44,0)" d="M0,50v490" style="stroke: rgb(153, 153, 153); stroke-opacity: 1; stroke-width: 1px;"/><path class="xgrid crisp" transform="translate(252.84,0)" d="M0,50v490" style="stroke: rgb(153, 153, 153); stroke-opacity: 1; stroke-width: 1px;"/><path class="xgrid crisp" transform="translate(459.65,0)" d="M0,50v490" style="stroke: rgb(153, 153, 153); stroke-opacity: 1; stroke-width: 1px;"/><path class="xgrid crisp" transform="translate(563.05,0)" d="M0,50v490" style="stroke: rgb(153, 153, 153); stroke-opacity: 1; stroke-width: 1px;"/></g><g class="y"><path class="ygrid crisp" transform="translate(0,488.61)" d="M70,0h571" style="stroke: rgb(153, 153, 153); stroke-opacity: 1; stroke-width: 1px;"/><path class="ygrid crisp" transform="translate(0,433.49)" d="M70,0h571" style="stroke: rgb(153, 153, 153); stroke-opacity: 1; stroke-width: 1px;"/><path class="ygrid crisp" transform="translate(0,378.36)" d="M70,0h571" style="stroke: rgb(153, 153, 153); stroke-opacity: 1; stroke-width: 1px;"/><path class="ygrid crisp" transform="translate(0,268.11)" d="M70,0h571" style="stroke: rgb(153, 153, 153); stroke-opacity: 1; stroke-width: 1px;"/><path class="ygrid crisp" transform="translate(0,212.98)" d="M70,0h571" style="stroke: rgb(153, 153, 153); stroke-opacity: 1; stroke-width: 1px;"/><path class="ygrid crisp" transform="translate(0,157.85)" d="M70,0h571" style="stroke: rgb(153, 153, 153); stroke-opacity: 1; stroke-width: 1px;"/><path class="ygrid crisp" transform="translate(0,102.72999999999999)" d="M70,0h571" style="stroke: rgb(153, 153, 153); stroke-opacity: 1; stroke-width: 1px;"/></g></g><g class="zerolinelayer"><path class="xzl zl crisp" transform="translate(356.25,0)" d="M0,50v490" style="stroke: rgb(0, 0, 0); stroke-opacity: 1; stroke-width: 1px;"/><path class="yzl zl crisp" transform="translate(0,323.23)" d="M70,0h571" style="stroke: rgb(0, 0, 0); stroke-opacity: 1; stroke-width: 1px;"/></g><path class="xlines-below"/><path class="ylines-below"/><g class="overlines-below"/><g class="xaxislayer-below"/><g class="yaxislayer-below"/><g class="overaxes-below"/><g class="plot" transform="translate(70, 50)" clip-path="url('#clipdbdabbxyplot')"><g class="scatterlayer mlayer"><g class="trace scatter trace18381c" style="stroke-miterlimit: 2; opacity: 1;"><g class="fills"/><g class="errorbars"/><g class="lines"/><g class="points"><path class="point" transform="translate(278.06,267.6)" d="M7.5,0A7.5,7.5 0 1,1 0,-7.5A7.5,7.5 0 0,1 7.5,0Z" style="opacity: 1; stroke-width: 0px; fill: rgb(228, 59, 45); fill-opacity: 1;"/><path class="point" transform="translate(202.07,249.05)" d="M7.5,0A7.5,7.5 0 1,1 0,-7.5A7.5,7.5 0 0,1 7.5,0Z" style="opacity: 1; stroke-width: 0px; fill: rgb(228, 59, 45); fill-opacity: 1;"/><path class="point" transform="translate(234.05,233.9)" d="M7.5,0A7.5,7.5 0 1,1 0,-7.5A7.5,7.5 0 0,1 7.5,0Z" style="opacity: 1; stroke-width: 0px; fill: rgb(228, 59, 45); fill-opacity: 1;"/><path class="point" transform="translate(381.79,330.22)" d="M7.5,0A7.5,7.5 0 1,1 0,-7.5A7.5,7.5 0 0,1 7.5,0Z" style="opacity: 1; stroke-width: 0px; fill: rgb(228, 59, 45); fill-opacity: 1;"/><path class="point" transform="translate(373.93,131.04)" d="M7.5,0A7.5,7.5 0 1,1 0,-7.5A7.5,7.5 0 0,1 7.5,0Z" style="opacity: 1; stroke-width: 0px; fill: rgb(228, 59, 45); fill-opacity: 1;"/><path class="point" transform="translate(363.62,257.02)" d="M7.5,0A7.5,7.5 0 1,1 0,-7.5A7.5,7.5 0 0,1 7.5,0Z" style="opacity: 1; stroke-width: 0px; fill: rgb(228, 59, 45); fill-opacity: 1;"/></g><g class="text"/></g><g class="trace scatter trace42d7ba" style="stroke-miterlimit: 2; opacity: 1;"><g class="fills"/><g class="errorbars"/><g class="lines"/><g class="points"><path class="point" transform="translate(168.07,281.95)" d="M7.5,0A7.5,7.5 0 1,1 0,-7.5A7.5,7.5 0 0,1 7.5,0Z" style="opacity: 1; stroke-width: 0px; fill: rgb(55, 126, 183); fill-opacity: 1;"/><path class="point" transform="translate(201.41,275.92)" d="M7.5,0A7.5,7.5 0 1,1 0,-7.5A7.5,7.5 0 0,1 7.5,0Z" style="opacity: 1; stroke-width: 0px; fill: rgb(55, 126, 183); fill-opacity: 1;"/><path class="point" transform="translate(337.9,298.03)" d="M7.5,0A7.5,7.5 0 1,1 0,-7.5A7.5,7.5 0 0,1 7.5,0Z" style="opacity: 1; stroke-width: 0px; fill: rgb(55, 126, 183); fill-opacity: 1;"/><path class="point" transform="translate(312.49,359.44)" d="M7.5,0A7.5,7.5 0 1,1 0,-7.5A7.5,7.5 0 0,1 7.5,0Z" style="opacity: 1; stroke-width: 0px; fill: rgb(55, 126, 183); fill-opacity: 1;"/><path class="point" transform="translate(225.29,284.79)" d="M7.5,0A7.5,7.5 0 1,1 0,-7.5A7.5,7.5 0 0,1 7.5,0Z" style="opacity: 1; stroke-width: 0px; fill: rgb(55, 126, 183); fill-opacity: 1;"/><path class="point" transform="translate(356.27,309.81)" d="M7.5,0A7.5,7.5 0 1,1 0,-7.5A7.5,7.5 0 0,1 7.5,0Z" style="opacity: 1; stroke-width: 0px; fill: rgb(55, 126, 183); fill-opacity: 1;"/></g><g class="text"/></g><g class="trace scatter tracedf9d49" style="stroke-miterlimit: 2; opacity: 1;"><g class="fills"><g><path class="js-fill" d="M571,237.45L568.99,210.4L562.98,183.87L553.08,158.27L539.42,133.97L522.22,111.36L501.73,90.77L478.27,72.52L452.19,56.87L423.89,44.08L393.8,34.33L362.37,27.77L330.08,24.5L297.41,24.57L264.88,27.98L232.95,34.67L202.13,44.55L172.88,57.47L145.64,73.23L120.82,91.58L98.81,112.26L79.93,134.95L64.47,159.31L52.66,184.96L44.69,211.51L40.68,238.58L40.68,265.73L44.69,292.57L52.66,318.69L64.47,343.68L79.93,367.18L98.81,388.82L120.82,408.28L145.64,425.26L172.88,439.51L202.13,450.8L232.95,458.97L264.88,463.9L297.41,465.5L330.08,463.76L362.37,458.7L393.8,450.39L423.89,438.97L452.19,424.61L478.27,407.52L501.73,387.97L522.22,366.24L539.42,342.67L553.08,317.62L562.98,291.47L568.99,264.61L571,237.45Z" style="fill: rgb(228, 59, 45); fill-opacity: 0.1; stroke-width: 0;"/></g></g><g class="errorbars"/><g class="lines"><path class="js-line" d="M571,237.45L568.99,210.4L562.98,183.87L553.08,158.27L539.42,133.97L522.22,111.36L501.73,90.77L478.27,72.52L452.19,56.87L423.89,44.08L393.8,34.33L362.37,27.77L330.08,24.5L297.41,24.57L264.88,27.98L232.95,34.67L202.13,44.55L172.88,57.47L145.64,73.23L120.82,91.58L98.81,112.26L79.93,134.95L64.47,159.31L52.66,184.96L44.69,211.51L40.68,238.58L40.68,265.73L44.69,292.57L52.66,318.69L64.47,343.68L79.93,367.18L98.81,388.82L120.82,408.28L145.64,425.26L172.88,439.51L202.13,450.8L232.95,458.97L264.88,463.9L297.41,465.5L330.08,463.76L362.37,458.7L393.8,450.39L423.89,438.97L452.19,424.61L478.27,407.52L501.73,387.97L522.22,366.24L539.42,342.67L553.08,317.62L562.98,291.47L568.99,264.61L571,237.45" style="vector-effect: non-scaling-stroke; fill: none; stroke: rgb(228, 59, 45); stroke-opacity: 0.1; stroke-width: 1.88976px; opacity: 1;"/></g><g class="points"/><g class="text"/></g><g class="trace scatter tracef64b5c" style="stroke-miterlimit: 2; opacity: 1;"><g class="fills"><g><path class="js-fill" d="M534.32,366.06L532.29,355.4L526.24,343.92L516.26,331.8L502.5,319.23L485.17,306.39L464.53,293.47L440.89,280.68L414.61,268.21L386.1,256.25L355.78,244.97L324.11,234.56L291.58,225.16L258.67,216.92L225.89,209.96L193.72,204.4L162.67,200.31L133.2,197.75L105.75,196.77L80.75,197.38L58.57,199.57L39.55,203.31L23.97,208.54L12.08,215.18L4.05,223.14L0,232.28L0,242.47L4.05,253.56L12.08,265.38L23.97,277.75L39.55,290.49L58.57,303.39L80.75,316.26L105.75,328.92L133.2,341.16L162.67,352.8L193.72,363.67L225.89,373.59L258.67,382.43L291.58,390.04L324.11,396.31L355.78,401.15L386.1,404.48L414.61,406.25L440.89,406.44L464.53,405.03L485.17,402.06L502.5,397.57L516.26,391.62L526.24,384.31L532.29,375.75L534.32,366.06Z" style="fill: rgb(55, 126, 183); fill-opacity: 0.1; stroke-width: 0;"/></g></g><g class="errorbars"/><g class="lines"><path class="js-line" d="M534.32,366.06L532.29,355.4L526.24,343.92L516.26,331.8L502.5,319.23L485.17,306.39L464.53,293.47L440.89,280.68L414.61,268.21L386.1,256.25L355.78,244.97L324.11,234.56L291.58,225.16L258.67,216.92L225.89,209.96L193.72,204.4L162.67,200.31L133.2,197.75L105.75,196.77L80.75,197.38L58.57,199.57L39.55,203.31L23.97,208.54L12.08,215.18L4.05,223.14L0,232.28L0,242.47L4.05,253.56L12.08,265.38L23.97,277.75L39.55,290.49L58.57,303.39L80.75,316.26L105.75,328.92L133.2,341.16L162.67,352.8L193.72,363.67L225.89,373.59L258.67,382.43L291.58,390.04L324.11,396.31L355.78,401.15L386.1,404.48L414.61,406.25L440.89,406.44L464.53,405.03L485.17,402.06L502.5,397.57L516.26,391.62L526.24,384.31L532.29,375.75L534.32,366.06" style="vector-effect: non-scaling-stroke; fill: none; stroke: rgb(55, 126, 183); stroke-opacity: 0.1; stroke-width: 1.88976px; opacity: 1;"/></g><g class="points"/><g class="text"/></g></g></g><g class="overplot"/><path class="xlines-above crisp" d="M68,541H641" style="fill: none; stroke-width: 2px; stroke: rgb(0, 0, 0); stroke-opacity: 1;"/><path class="ylines-above crisp" d="M69,50V540" style="fill: none; stroke-width: 2px; stroke: rgb(0, 0, 0); stroke-opacity: 1;"/><g class="overlines-above"/><g class="xaxislayer-above"><path class="xtick ticks crisp" d="M0,542v5" transform="translate(149.44,0)" style="stroke: rgb(0, 0, 0); stroke-opacity: 1; stroke-width: 3px;"/><path class="xtick ticks crisp" d="M0,542v5" transform="translate(252.84,0)" style="stroke: rgb(0, 0, 0); stroke-opacity: 1; stroke-width: 3px;"/><path class="xtick ticks crisp" d="M0,542v5" transform="translate(356.25,0)" style="stroke: rgb(0, 0, 0); stroke-opacity: 1; stroke-width: 3px;"/><path class="xtick ticks crisp" d="M0,542v5" transform="translate(459.65,0)" style="stroke: rgb(0, 0, 0); stroke-opacity: 1; stroke-width: 3px;"/><path class="xtick ticks crisp" d="M0,542v5" transform="translate(563.05,0)" style="stroke: rgb(0, 0, 0); stroke-opacity: 1; stroke-width: 3px;"/><g class="xtick"><text text-anchor="middle" x="0" y="573.4" transform="translate(149.44,0)" style="font-family: Arial; font-size: 22px; fill: rgb(0, 0, 0); fill-opacity: 1; white-space: pre;">−40</text></g><g class="xtick"><text text-anchor="middle" x="0" y="573.4" transform="translate(252.84,0)" style="font-family: Arial; font-size: 22px; fill: rgb(0, 0, 0); fill-opacity: 1; white-space: pre;">−20</text></g><g class="xtick"><text text-anchor="middle" x="0" y="573.4" transform="translate(356.25,0)" style="font-family: Arial; font-size: 22px; fill: rgb(0, 0, 0); fill-opacity: 1; white-space: pre;">0</text></g><g class="xtick"><text text-anchor="middle" x="0" y="573.4" transform="translate(459.65,0)" style="font-family: Arial; font-size: 22px; fill: rgb(0, 0, 0); fill-opacity: 1; white-space: pre;">20</text></g><g class="xtick"><text text-anchor="middle" x="0" y="573.4" transform="translate(563.05,0)" style="font-family: Arial; font-size: 22px; fill: rgb(0, 0, 0); fill-opacity: 1; white-space: pre;">40</text></g></g><g class="yaxislayer-above"><path class="ytick ticks crisp" d="M68,0h-5" transform="translate(0,488.61)" style="stroke: rgb(0, 0, 0); stroke-opacity: 1; stroke-width: 3px;"/><path class="ytick ticks crisp" d="M68,0h-5" transform="translate(0,433.49)" style="stroke: rgb(0, 0, 0); stroke-opacity: 1; stroke-width: 3px;"/><path class="ytick ticks crisp" d="M68,0h-5" transform="translate(0,378.36)" style="stroke: rgb(0, 0, 0); stroke-opacity: 1; stroke-width: 3px;"/><path class="ytick ticks crisp" d="M68,0h-5" transform="translate(0,323.23)" style="stroke: rgb(0, 0, 0); stroke-opacity: 1; stroke-width: 3px;"/><path class="ytick ticks crisp" d="M68,0h-5" transform="translate(0,268.11)" style="stroke: rgb(0, 0, 0); stroke-opacity: 1; stroke-width: 3px;"/><path class="ytick ticks crisp" d="M68,0h-5" transform="translate(0,212.98)" style="stroke: rgb(0, 0, 0); stroke-opacity: 1; stroke-width: 3px;"/><path class="ytick ticks crisp" d="M68,0h-5" transform="translate(0,157.85)" style="stroke: rgb(0, 0, 0); stroke-opacity: 1; stroke-width: 3px;"/><path class="ytick ticks crisp" d="M68,0h-5" transform="translate(0,102.72999999999999)" style="stroke: rgb(0, 0, 0); stroke-opacity: 1; stroke-width: 3px;"/><g class="ytick"><text text-anchor="end" x="58.6" y="7.699999999999999" transform="translate(0,488.61)" style="font-family: Arial; font-size: 22px; fill: rgb(0, 0, 0); fill-opacity: 1; white-space: pre;">−30</text></g><g class="ytick"><text text-anchor="end" x="58.6" y="7.699999999999999" transform="translate(0,433.49)" style="font-family: Arial; font-size: 22px; fill: rgb(0, 0, 0); fill-opacity: 1; white-space: pre;">−20</text></g><g class="ytick"><text text-anchor="end" x="58.6" y="7.699999999999999" transform="translate(0,378.36)" style="font-family: Arial; font-size: 22px; fill: rgb(0, 0, 0); fill-opacity: 1; white-space: pre;">−10</text></g><g class="ytick"><text text-anchor="end" x="58.6" y="7.699999999999999" transform="translate(0,323.23)" style="font-family: Arial; font-size: 22px; fill: rgb(0, 0, 0); fill-opacity: 1; white-space: pre;">0</text></g><g class="ytick"><text text-anchor="end" x="58.6" y="7.699999999999999" transform="translate(0,268.11)" style="font-family: Arial; font-size: 22px; fill: rgb(0, 0, 0); fill-opacity: 1; white-space: pre;">10</text></g><g class="ytick"><text text-anchor="end" x="58.6" y="7.699999999999999" transform="translate(0,212.98)" style="font-family: Arial; font-size: 22px; fill: rgb(0, 0, 0); fill-opacity: 1; white-space: pre;">20</text></g><g class="ytick"><text text-anchor="end" x="58.6" y="7.699999999999999" transform="translate(0,157.85)" style="font-family: Arial; font-size: 22px; fill: rgb(0, 0, 0); fill-opacity: 1; white-space: pre;">30</text></g><g class="ytick"><text text-anchor="end" x="58.6" y="7.699999999999999" transform="translate(0,102.72999999999999)" style="font-family: Arial; font-size: 22px; fill: rgb(0, 0, 0); fill-opacity: 1; white-space: pre;">40</text></g></g><g class="overaxes-above"/></g></g><g class="polarlayer"/><g class="ternarylayer"/><g class="geolayer"/><g class="funnelarealayer"/><g class="pielayer"/><g class="sunburstlayer"/><g class="glimages"/><defs id="topdefs-dbdabb"><g class="clips"/><clipPath id="legenddbdabb"><rect width="144" height="91" x="1" y="1"/></clipPath></defs><g class="layer-above"><g class="imagelayer"/><g class="shapelayer"/></g><g class="infolayer"><g class="legend" pointer-events="all" transform="translate(654, 50)"><rect class="bg" shape-rendering="crispEdges" width="145" height="92" x="0.5" y="0.5" style="stroke: rgb(255, 255, 255); stroke-opacity: 1; fill: rgb(255, 255, 255); fill-opacity: 1; stroke-width: 1px;"/><g class="scrollbox" transform="translate(0, 0)" clip-path="url('#legenddbdabb')"><g class="groups" transform="translate(0, 0)"><g class="traces" transform="translate(1, 23.75)" style="opacity: 1;"><text class="legendtext user-select-none" text-anchor="start" x="40" y="9.75" style="font-family: Arial; font-size: 25px; fill: rgb(0, 0, 0); fill-opacity: 1; white-space: pre;">Lmbrd1  </text><g class="layers" style="opacity: 1;"><g class="legendfill"/><g class="legendlines"/><g class="legendsymbols"><g class="legendpoints"><path class="scatterpts" transform="translate(20,0)" d="M7.5,0A7.5,7.5 0 1,1 0,-7.5A7.5,7.5 0 0,1 7.5,0Z" style="opacity: 1; stroke-width: 0px; fill: rgb(228, 59, 45); fill-opacity: 1;"/></g></g></g><rect class="legendtoggle" pointer-events="all" x="0" y="-17.75" width="186" height="35.5" style="cursor: pointer; fill: rgb(0, 0, 0); fill-opacity: 0;"/></g></g><g class="groups" transform="translate(0, 10)"><g class="traces" transform="translate(1, 59.25)" style="opacity: 1;"><text class="legendtext user-select-none" text-anchor="start" x="40" y="9.75" style="font-family: Arial; font-size: 25px; fill: rgb(0, 0, 0); fill-opacity: 1; white-space: pre;">Null  </text><g class="layers" style="opacity: 1;"><g class="legendfill"/><g class="legendlines"/><g class="legendsymbols"><g class="legendpoints"><path class="scatterpts" transform="translate(20,0)" d="M7.5,0A7.5,7.5 0 1,1 0,-7.5A7.5,7.5 0 0,1 7.5,0Z" style="opacity: 1; stroke-width: 0px; fill: rgb(55, 126, 183); fill-opacity: 1;"/></g></g></g><rect class="legendtoggle" pointer-events="all" x="0" y="-17.75" width="186" height="35.5" style="cursor: pointer; fill: rgb(0, 0, 0); fill-opacity: 0;"/></g></g></g><rect class="scrollbar" rx="20" ry="3" width="0" height="0" x="0" y="0" style="fill: rgb(128, 139, 164); fill-opacity: 1;"/></g><g class="g-gtitle"><text class="gtitle" x="384" y="18" text-anchor="middle" dy="0.7em" style="font-family: Arial; font-size: 25px; fill: rgb(0, 0, 0); opacity: 1; font-weight: normal; white-space: pre;">PCA Score Plot</text></g><g class="g-xtitle" transform="translate(0,-21.98453712463379)"><text class="xtitle" x="355.5" y="617" text-anchor="middle" style="font-family: Arial; font-size: 22px; fill: rgb(0, 0, 0); opacity: 1; font-weight: normal; white-space: pre;">PC1 (30.25%)</text></g><g class="g-ytitle" transform="translate(5,0)"><text class="ytitle" transform="rotate(-90,15,295)" x="15" y="295" text-anchor="middle" style="font-family: Arial; font-size: 22px; fill: rgb(0, 0, 0); opacity: 1; font-weight: normal; white-space: pre;">PC2 (14.35%)</text></g></g></svg>