<svg class="main-svg" xmlns="http://www.w3.org/2000/svg" xmlns:xlink="http://www.w3.org/1999/xlink" width="800" height="600" style="" viewBox="0 0 800 600"><rect x="0" y="0" width="800" height="600" style="fill: rgb(255, 255, 255); fill-opacity: 1;"/><defs id="defs-3cc594"><g class="clips"><clipPath id="clip3cc594xyplot" class="plotclip"><rect width="572" height="490"/></clipPath><clipPath class="axesclip" id="clip3cc594x"><rect x="70" y="0" width="572" height="600"/></clipPath><clipPath class="axesclip" id="clip3cc594y"><rect x="0" y="50" width="800" height="490"/></clipPath><clipPath class="axesclip" id="clip3cc594xy"><rect x="70" y="50" width="572" height="490"/></clipPath></g><g class="gradients"/></defs><g class="bglayer"/><g class="layer-below"><g class="imagelayer"/><g class="shapelayer"/></g><g class="cartesianlayer"><g class="subplot xy"><g class="layer-subplot"><g class="shapelayer"/><g class="imagelayer"/></g><g class="gridlayer"><g class="x"><path class="xgrid crisp" transform="translate(130.18,0)" d="M0,50v490" style="stroke: rgb(153, 153, 153); stroke-opacity: 1; stroke-width: 1px;"/><path class="xgrid crisp" transform="translate(234.7,0)" d="M0,50v490" style="stroke: rgb(153, 153, 153); stroke-opacity: 1; stroke-width: 1px;"/><path class="xgrid crisp" transform="translate(443.74,0)" d="M0,50v490" style="stroke: rgb(153, 153, 153); stroke-opacity: 1; stroke-width: 1px;"/><path class="xgrid crisp" transform="translate(548.26,0)" d="M0,50v490" style="stroke: rgb(153, 153, 153); stroke-opacity: 1; stroke-width: 1px;"/></g><g class="y"><path class="ygrid crisp" transform="translate(0,523.3399999999999)" d="M70,0h572" style="stroke: rgb(153, 153, 153); stroke-opacity: 1; stroke-width: 1px;"/><path class="ygrid crisp" transform="translate(0,471.06)" d="M70,0h572" style="stroke: rgb(153, 153, 153); stroke-opacity: 1; stroke-width: 1px;"/><path class="ygrid crisp" transform="translate(0,418.78)" d="M70,0h572" style="stroke: rgb(153, 153, 153); stroke-opacity: 1; stroke-width: 1px;"/><path class="ygrid crisp" transform="translate(0,366.5)" d="M70,0h572" style="stroke: rgb(153, 153, 153); stroke-opacity: 1; stroke-width: 1px;"/><path class="ygrid crisp" transform="translate(0,261.95)" d="M70,0h572" style="stroke: rgb(153, 153, 153); stroke-opacity: 1; stroke-width: 1px;"/><path class="ygrid crisp" transform="translate(0,209.67)" d="M70,0h572" style="stroke: rgb(153, 153, 153); stroke-opacity: 1; stroke-width: 1px;"/><path class="ygrid crisp" transform="translate(0,157.39)" d="M70,0h572" style="stroke: rgb(153, 153, 153); stroke-opacity: 1; stroke-width: 1px;"/><path class="ygrid crisp" transform="translate(0,105.11)" d="M70,0h572" style="stroke: rgb(153, 153, 153); stroke-opacity: 1; stroke-width: 1px;"/><path class="ygrid crisp" transform="translate(0,52.83)" d="M70,0h572" style="stroke: rgb(153, 153, 153); stroke-opacity: 1; stroke-width: 1px;"/></g></g><g class="zerolinelayer"><path class="xzl zl crisp" transform="translate(339.22,0)" d="M0,50v490" style="stroke: rgb(0, 0, 0); stroke-opacity: 1; stroke-width: 1px;"/><path class="yzl zl crisp" transform="translate(0,314.23)" d="M70,0h572" style="stroke: rgb(0, 0, 0); stroke-opacity: 1; stroke-width: 1px;"/></g><path class="xlines-below"/><path class="ylines-below"/><g class="overlines-below"/><g class="xaxislayer-below"/><g class="yaxislayer-below"/><g class="overaxes-below"/><g class="plot" transform="translate(70, 50)" clip-path="url('#clip3cc594xyplot')"><g class="scatterlayer mlayer"><g class="trace scatter traceab5a0b" style="stroke-miterlimit: 2; opacity: 1;"><g class="fills"/><g class="errorbars"/><g class="lines"/><g class="points"><path class="point" transform="translate(329.24,152.26)" d="M7.5,0A7.5,7.5 0 1,1 0,-7.5A7.5,7.5 0 0,1 7.5,0Z" style="opacity: 1; stroke-width: 0px; fill: rgb(228, 59, 45); fill-opacity: 1;"/><path class="point" transform="translate(302.58,105.81)" d="M7.5,0A7.5,7.5 0 1,1 0,-7.5A7.5,7.5 0 0,1 7.5,0Z" style="opacity: 1; stroke-width: 0px; fill: rgb(228, 59, 45); fill-opacity: 1;"/><path class="point" transform="translate(398.24,221.45)" d="M7.5,0A7.5,7.5 0 1,1 0,-7.5A7.5,7.5 0 0,1 7.5,0Z" style="opacity: 1; stroke-width: 0px; fill: rgb(228, 59, 45); fill-opacity: 1;"/><path class="point" transform="translate(362.18,210.99)" d="M7.5,0A7.5,7.5 0 1,1 0,-7.5A7.5,7.5 0 0,1 7.5,0Z" style="opacity: 1; stroke-width: 0px; fill: rgb(228, 59, 45); fill-opacity: 1;"/><path class="point" transform="translate(288.45,47.08)" d="M7.5,0A7.5,7.5 0 1,1 0,-7.5A7.5,7.5 0 0,1 7.5,0Z" style="opacity: 1; stroke-width: 0px; fill: rgb(228, 59, 45); fill-opacity: 1;"/><path class="point" transform="translate(360.85,180.34)" d="M7.5,0A7.5,7.5 0 1,1 0,-7.5A7.5,7.5 0 0,1 7.5,0Z" style="opacity: 1; stroke-width: 0px; fill: rgb(228, 59, 45); fill-opacity: 1;"/><path class="point" transform="translate(449.48,293.17)" d="M7.5,0A7.5,7.5 0 1,1 0,-7.5A7.5,7.5 0 0,1 7.5,0Z" style="opacity: 1; stroke-width: 0px; fill: rgb(228, 59, 45); fill-opacity: 1;"/><path class="point" transform="translate(416.53,301.63)" d="M7.5,0A7.5,7.5 0 1,1 0,-7.5A7.5,7.5 0 0,1 7.5,0Z" style="opacity: 1; stroke-width: 0px; fill: rgb(228, 59, 45); fill-opacity: 1;"/><path class="point" transform="translate(422.18,277.86)" d="M7.5,0A7.5,7.5 0 1,1 0,-7.5A7.5,7.5 0 0,1 7.5,0Z" style="opacity: 1; stroke-width: 0px; fill: rgb(228, 59, 45); fill-opacity: 1;"/><path class="point" transform="translate(472.12,275.36)" d="M7.5,0A7.5,7.5 0 1,1 0,-7.5A7.5,7.5 0 0,1 7.5,0Z" style="opacity: 1; stroke-width: 0px; fill: rgb(228, 59, 45); fill-opacity: 1;"/><path class="point" transform="translate(445.86,324.1)" d="M7.5,0A7.5,7.5 0 1,1 0,-7.5A7.5,7.5 0 0,1 7.5,0Z" style="opacity: 1; stroke-width: 0px; fill: rgb(228, 59, 45); fill-opacity: 1;"/><path class="point" transform="translate(362.97,182.1)" d="M7.5,0A7.5,7.5 0 1,1 0,-7.5A7.5,7.5 0 0,1 7.5,0Z" style="opacity: 1; stroke-width: 0px; fill: rgb(228, 59, 45); fill-opacity: 1;"/><path class="point" transform="translate(505.8,364.3)" d="M7.5,0A7.5,7.5 0 1,1 0,-7.5A7.5,7.5 0 0,1 7.5,0Z" style="opacity: 1; stroke-width: 0px; fill: rgb(228, 59, 45); fill-opacity: 1;"/><path class="point" transform="translate(382.91,253.27)" d="M7.5,0A7.5,7.5 0 1,1 0,-7.5A7.5,7.5 0 0,1 7.5,0Z" style="opacity: 1; stroke-width: 0px; fill: rgb(228, 59, 45); fill-opacity: 1;"/><path class="point" transform="translate(428.56,237.94)" d="M7.5,0A7.5,7.5 0 1,1 0,-7.5A7.5,7.5 0 0,1 7.5,0Z" style="opacity: 1; stroke-width: 0px; fill: rgb(228, 59, 45); fill-opacity: 1;"/><path class="point" transform="translate(497,311.37)" d="M7.5,0A7.5,7.5 0 1,1 0,-7.5A7.5,7.5 0 0,1 7.5,0Z" style="opacity: 1; stroke-width: 0px; fill: rgb(228, 59, 45); fill-opacity: 1;"/><path class="point" transform="translate(483.96,322.71)" d="M7.5,0A7.5,7.5 0 1,1 0,-7.5A7.5,7.5 0 0,1 7.5,0Z" style="opacity: 1; stroke-width: 0px; fill: rgb(228, 59, 45); fill-opacity: 1;"/><path class="point" transform="translate(430.41,273.87)" d="M7.5,0A7.5,7.5 0 1,1 0,-7.5A7.5,7.5 0 0,1 7.5,0Z" style="opacity: 1; stroke-width: 0px; fill: rgb(228, 59, 45); fill-opacity: 1;"/><path class="point" transform="translate(380.18,193.82)" d="M7.5,0A7.5,7.5 0 1,1 0,-7.5A7.5,7.5 0 0,1 7.5,0Z" style="opacity: 1; stroke-width: 0px; fill: rgb(228, 59, 45); fill-opacity: 1;"/><path class="point" transform="translate(321.88,185.84)" d="M7.5,0A7.5,7.5 0 1,1 0,-7.5A7.5,7.5 0 0,1 7.5,0Z" style="opacity: 1; stroke-width: 0px; fill: rgb(228, 59, 45); fill-opacity: 1;"/></g><g class="text"/></g><g class="trace scatter trace6be1c5" style="stroke-miterlimit: 2; opacity: 1;"><g class="fills"/><g class="errorbars"/><g class="lines"/><g class="points"><path class="point" transform="translate(77.3,197.95)" d="M7.5,0A7.5,7.5 0 1,1 0,-7.5A7.5,7.5 0 0,1 7.5,0Z" style="opacity: 1; stroke-width: 0px; fill: rgb(55, 126, 183); fill-opacity: 1;"/><path class="point" transform="translate(187.58,323.8)" d="M7.5,0A7.5,7.5 0 1,1 0,-7.5A7.5,7.5 0 0,1 7.5,0Z" style="opacity: 1; stroke-width: 0px; fill: rgb(55, 126, 183); fill-opacity: 1;"/><path class="point" transform="translate(145.23,293.34)" d="M7.5,0A7.5,7.5 0 1,1 0,-7.5A7.5,7.5 0 0,1 7.5,0Z" style="opacity: 1; stroke-width: 0px; fill: rgb(55, 126, 183); fill-opacity: 1;"/><path class="point" transform="translate(149.07,313.55)" d="M7.5,0A7.5,7.5 0 1,1 0,-7.5A7.5,7.5 0 0,1 7.5,0Z" style="opacity: 1; stroke-width: 0px; fill: rgb(55, 126, 183); fill-opacity: 1;"/><path class="point" transform="translate(170.81,314.16)" d="M7.5,0A7.5,7.5 0 1,1 0,-7.5A7.5,7.5 0 0,1 7.5,0Z" style="opacity: 1; stroke-width: 0px; fill: rgb(55, 126, 183); fill-opacity: 1;"/><path class="point" transform="translate(94.66,212.47)" d="M7.5,0A7.5,7.5 0 1,1 0,-7.5A7.5,7.5 0 0,1 7.5,0Z" style="opacity: 1; stroke-width: 0px; fill: rgb(55, 126, 183); fill-opacity: 1;"/><path class="point" transform="translate(223.32,377.81)" d="M7.5,0A7.5,7.5 0 1,1 0,-7.5A7.5,7.5 0 0,1 7.5,0Z" style="opacity: 1; stroke-width: 0px; fill: rgb(55, 126, 183); fill-opacity: 1;"/><path class="point" transform="translate(46.01,173.45)" d="M7.5,0A7.5,7.5 0 1,1 0,-7.5A7.5,7.5 0 0,1 7.5,0Z" style="opacity: 1; stroke-width: 0px; fill: rgb(55, 126, 183); fill-opacity: 1;"/><path class="point" transform="translate(164.88,322.07)" d="M7.5,0A7.5,7.5 0 1,1 0,-7.5A7.5,7.5 0 0,1 7.5,0Z" style="opacity: 1; stroke-width: 0px; fill: rgb(55, 126, 183); fill-opacity: 1;"/><path class="point" transform="translate(150.02,328.49)" d="M7.5,0A7.5,7.5 0 1,1 0,-7.5A7.5,7.5 0 0,1 7.5,0Z" style="opacity: 1; stroke-width: 0px; fill: rgb(55, 126, 183); fill-opacity: 1;"/><path class="point" transform="translate(77.14,233.16)" d="M7.5,0A7.5,7.5 0 1,1 0,-7.5A7.5,7.5 0 0,1 7.5,0Z" style="opacity: 1; stroke-width: 0px; fill: rgb(55, 126, 183); fill-opacity: 1;"/><path class="point" transform="translate(156.43,349.19)" d="M7.5,0A7.5,7.5 0 1,1 0,-7.5A7.5,7.5 0 0,1 7.5,0Z" style="opacity: 1; stroke-width: 0px; fill: rgb(55, 126, 183); fill-opacity: 1;"/><path class="point" transform="translate(149.34,304.64)" d="M7.5,0A7.5,7.5 0 1,1 0,-7.5A7.5,7.5 0 0,1 7.5,0Z" style="opacity: 1; stroke-width: 0px; fill: rgb(55, 126, 183); fill-opacity: 1;"/><path class="point" transform="translate(189.96,345.41)" d="M7.5,0A7.5,7.5 0 1,1 0,-7.5A7.5,7.5 0 0,1 7.5,0Z" style="opacity: 1; stroke-width: 0px; fill: rgb(55, 126, 183); fill-opacity: 1;"/><path class="point" transform="translate(223.22,427.14)" d="M7.5,0A7.5,7.5 0 1,1 0,-7.5A7.5,7.5 0 0,1 7.5,0Z" style="opacity: 1; stroke-width: 0px; fill: rgb(55, 126, 183); fill-opacity: 1;"/><path class="point" transform="translate(135.88,310.03)" d="M7.5,0A7.5,7.5 0 1,1 0,-7.5A7.5,7.5 0 0,1 7.5,0Z" style="opacity: 1; stroke-width: 0px; fill: rgb(55, 126, 183); fill-opacity: 1;"/><path class="point" transform="translate(129.9,309.75)" d="M7.5,0A7.5,7.5 0 1,1 0,-7.5A7.5,7.5 0 0,1 7.5,0Z" style="opacity: 1; stroke-width: 0px; fill: rgb(55, 126, 183); fill-opacity: 1;"/><path class="point" transform="translate(56.45,209.96)" d="M7.5,0A7.5,7.5 0 1,1 0,-7.5A7.5,7.5 0 0,1 7.5,0Z" style="opacity: 1; stroke-width: 0px; fill: rgb(55, 126, 183); fill-opacity: 1;"/><path class="point" transform="translate(120.15,283.16)" d="M7.5,0A7.5,7.5 0 1,1 0,-7.5A7.5,7.5 0 0,1 7.5,0Z" style="opacity: 1; stroke-width: 0px; fill: rgb(55, 126, 183); fill-opacity: 1;"/><path class="point" transform="translate(80.1,224.27)" d="M7.5,0A7.5,7.5 0 1,1 0,-7.5A7.5,7.5 0 0,1 7.5,0Z" style="opacity: 1; stroke-width: 0px; fill: rgb(55, 126, 183); fill-opacity: 1;"/></g><g class="text"/></g><g class="trace scatter tracedd2197" style="stroke-miterlimit: 2; opacity: 1;"><g class="fills"><g><path class="js-fill" d="M572,432.96L570.71,422.03L566.87,408.27L560.52,391.89L551.78,373.15L540.77,352.33L527.65,329.74L512.63,305.72L495.93,280.64L477.81,254.89L458.55,228.84L417.75,177.45L396.84,152.9L376,129.59L355.57,107.9L335.83,88.14L317.1,70.62L299.66,55.61L283.77,43.33L269.68,33.96L257.59,27.65L247.69,24.5L240.14,24.55L235.03,27.8L232.46,34.21L232.46,43.67L235.03,56.04L240.14,71.13L247.69,88.72L257.59,108.55L269.68,130.29L283.77,153.64L299.66,178.23L317.1,203.7L335.83,229.65L376,281.44L396.84,306.48L417.75,330.46L438.42,353L458.55,373.77L477.81,392.44L495.93,408.74L512.63,422.41L527.65,433.26L540.77,441.11L551.78,445.85L560.52,447.4L566.87,445.75L570.71,440.91L572,432.96Z" style="fill: rgb(228, 59, 45); fill-opacity: 0.1; stroke-width: 0;"/></g></g><g class="errorbars"/><g class="lines"><path class="js-line" d="M572,432.96L570.71,422.03L566.87,408.27L560.52,391.89L551.78,373.15L540.77,352.33L527.65,329.74L512.63,305.72L495.93,280.64L477.81,254.89L458.55,228.84L417.75,177.45L396.84,152.9L376,129.59L355.57,107.9L335.83,88.14L317.1,70.62L299.66,55.61L283.77,43.33L269.68,33.96L257.59,27.65L247.69,24.5L240.14,24.55L235.03,27.8L232.46,34.21L232.46,43.67L235.03,56.04L240.14,71.13L247.69,88.72L257.59,108.55L269.68,130.29L283.77,153.64L299.66,178.23L317.1,203.7L335.83,229.65L376,281.44L396.84,306.48L417.75,330.46L438.42,353L458.55,373.77L477.81,392.44L495.93,408.74L512.63,422.41L527.65,433.26L540.77,441.11L551.78,445.85L560.52,447.4L566.87,445.75L570.71,440.91L572,432.96" style="vector-effect: non-scaling-stroke; fill: none; stroke: rgb(228, 59, 45); stroke-opacity: 0.1; stroke-width: 1.88976px; opacity: 1;"/></g><g class="points"/><g class="text"/></g><g class="trace scatter traceab3706" style="stroke-miterlimit: 2; opacity: 1;"><g class="fills"><g><path class="js-fill" d="M273,457.83L271.97,450.2L268.88,440.18L263.78,427.93L256.75,413.63L237.34,379.76L225.27,360.72L197.27,319.84L181.78,298.62L148.98,256.25L132.16,235.73L98.98,197.58L83.12,180.53L54.03,151.75L41.26,140.47L29.93,131.5L20.21,124.96L12.25,120.97L6.17,119.59L2.07,120.83L0,124.67L0,131.06L2.07,139.9L6.17,151.06L12.25,164.36L20.21,179.61L29.93,196.57L54.03,234.59L68.06,255.07L98.98,297.42L115.41,318.64L148.98,359.61L165.6,378.72L197.27,412.76L211.84,427.17L237.34,449.69L247.89,457.46L256.75,462.73L263.78,465.43L268.88,465.5L271.97,462.95L273,457.83Z" style="fill: rgb(55, 126, 183); fill-opacity: 0.1; stroke-width: 0;"/></g></g><g class="errorbars"/><g class="lines"><path class="js-line" d="M273,457.83L271.97,450.2L268.88,440.18L263.78,427.93L256.75,413.63L237.34,379.76L225.27,360.72L197.27,319.84L181.78,298.62L148.98,256.25L132.16,235.73L98.98,197.58L83.12,180.53L54.03,151.75L41.26,140.47L29.93,131.5L20.21,124.96L12.25,120.97L6.17,119.59L2.07,120.83L0,124.67L0,131.06L2.07,139.9L6.17,151.06L12.25,164.36L20.21,179.61L29.93,196.57L54.03,234.59L68.06,255.07L98.98,297.42L115.41,318.64L148.98,359.61L165.6,378.72L197.27,412.76L211.84,427.17L237.34,449.69L247.89,457.46L256.75,462.73L263.78,465.43L268.88,465.5L271.97,462.95L273,457.83" style="vector-effect: non-scaling-stroke; fill: none; stroke: rgb(55, 126, 183); stroke-opacity: 0.1; stroke-width: 1.88976px; opacity: 1;"/></g><g class="points"/><g class="text"/></g></g></g><g class="overplot"/><path class="xlines-above crisp" d="M68,541H642" style="fill: none; stroke-width: 2px; stroke: rgb(0, 0, 0); stroke-opacity: 1;"/><path class="ylines-above crisp" d="M69,50V540" style="fill: none; stroke-width: 2px; stroke: rgb(0, 0, 0); stroke-opacity: 1;"/><g class="overlines-above"/><g class="xaxislayer-above"><path class="xtick ticks crisp" d="M0,542v5" transform="translate(130.18,0)" style="stroke: rgb(0, 0, 0); stroke-opacity: 1; stroke-width: 3px;"/><path class="xtick ticks crisp" d="M0,542v5" transform="translate(234.7,0)" style="stroke: rgb(0, 0, 0); stroke-opacity: 1; stroke-width: 3px;"/><path class="xtick ticks crisp" d="M0,542v5" transform="translate(339.22,0)" style="stroke: rgb(0, 0, 0); stroke-opacity: 1; stroke-width: 3px;"/><path class="xtick ticks crisp" d="M0,542v5" transform="translate(443.74,0)" style="stroke: rgb(0, 0, 0); stroke-opacity: 1; stroke-width: 3px;"/><path class="xtick ticks crisp" d="M0,542v5" transform="translate(548.26,0)" style="stroke: rgb(0, 0, 0); stroke-opacity: 1; stroke-width: 3px;"/><g class="xtick"><text text-anchor="middle" x="0" y="573.4" transform="translate(130.18,0)" style="font-family: Arial; font-size: 22px; fill: rgb(0, 0, 0); fill-opacity: 1; white-space: pre;">−20</text></g><g class="xtick"><text text-anchor="middle" x="0" y="573.4" transform="translate(234.7,0)" style="font-family: Arial; font-size: 22px; fill: rgb(0, 0, 0); fill-opacity: 1; white-space: pre;">−10</text></g><g class="xtick"><text text-anchor="middle" x="0" y="573.4" transform="translate(339.22,0)" style="font-family: Arial; font-size: 22px; fill: rgb(0, 0, 0); fill-opacity: 1; white-space: pre;">0</text></g><g class="xtick"><text text-anchor="middle" x="0" y="573.4" transform="translate(443.74,0)" style="font-family: Arial; font-size: 22px; fill: rgb(0, 0, 0); fill-opacity: 1; white-space: pre;">10</text></g><g class="xtick"><text text-anchor="middle" x="0" y="573.4" transform="translate(548.26,0)" style="font-family: Arial; font-size: 22px; fill: rgb(0, 0, 0); fill-opacity: 1; white-space: pre;">20</text></g></g><g class="yaxislayer-above"><path class="ytick ticks crisp" d="M68,0h-5" transform="translate(0,523.3399999999999)" style="stroke: rgb(0, 0, 0); stroke-opacity: 1; stroke-width: 3px;"/><path class="ytick ticks crisp" d="M68,0h-5" transform="translate(0,471.06)" style="stroke: rgb(0, 0, 0); stroke-opacity: 1; stroke-width: 3px;"/><path class="ytick ticks crisp" d="M68,0h-5" transform="translate(0,418.78)" style="stroke: rgb(0, 0, 0); stroke-opacity: 1; stroke-width: 3px;"/><path class="ytick ticks crisp" d="M68,0h-5" transform="translate(0,366.5)" style="stroke: rgb(0, 0, 0); stroke-opacity: 1; stroke-width: 3px;"/><path class="ytick ticks crisp" d="M68,0h-5" transform="translate(0,314.23)" style="stroke: rgb(0, 0, 0); stroke-opacity: 1; stroke-width: 3px;"/><path class="ytick ticks crisp" d="M68,0h-5" transform="translate(0,261.95)" style="stroke: rgb(0, 0, 0); stroke-opacity: 1; stroke-width: 3px;"/><path class="ytick ticks crisp" d="M68,0h-5" transform="translate(0,209.67)" style="stroke: rgb(0, 0, 0); stroke-opacity: 1; stroke-width: 3px;"/><path class="ytick ticks crisp" d="M68,0h-5" transform="translate(0,157.39)" style="stroke: rgb(0, 0, 0); stroke-opacity: 1; stroke-width: 3px;"/><path class="ytick ticks crisp" d="M68,0h-5" transform="translate(0,105.11)" style="stroke: rgb(0, 0, 0); stroke-opacity: 1; stroke-width: 3px;"/><path class="ytick ticks crisp" d="M68,0h-5" transform="translate(0,52.83)" style="stroke: rgb(0, 0, 0); stroke-opacity: 1; stroke-width: 3px;"/><g class="ytick"><text text-anchor="end" x="58.6" y="7.699999999999999" transform="translate(0,523.3399999999999)" style="font-family: Arial; font-size: 22px; fill: rgb(0, 0, 0); fill-opacity: 1; white-space: pre;">−20</text></g><g class="ytick"><text text-anchor="end" x="58.6" y="7.699999999999999" transform="translate(0,471.06)" style="font-family: Arial; font-size: 22px; fill: rgb(0, 0, 0); fill-opacity: 1; white-space: pre;">−15</text></g><g class="ytick"><text text-anchor="end" x="58.6" y="7.699999999999999" transform="translate(0,418.78)" style="font-family: Arial; font-size: 22px; fill: rgb(0, 0, 0); fill-opacity: 1; white-space: pre;">−10</text></g><g class="ytick"><text text-anchor="end" x="58.6" y="7.699999999999999" transform="translate(0,366.5)" style="font-family: Arial; font-size: 22px; fill: rgb(0, 0, 0); fill-opacity: 1; white-space: pre;">−5</text></g><g class="ytick"><text text-anchor="end" x="58.6" y="7.699999999999999" transform="translate(0,314.23)" style="font-family: Arial; font-size: 22px; fill: rgb(0, 0, 0); fill-opacity: 1; white-space: pre;">0</text></g><g class="ytick"><text text-anchor="end" x="58.6" y="7.699999999999999" transform="translate(0,261.95)" style="font-family: Arial; font-size: 22px; fill: rgb(0, 0, 0); fill-opacity: 1; white-space: pre;">5</text></g><g class="ytick"><text text-anchor="end" x="58.6" y="7.699999999999999" transform="translate(0,209.67)" style="font-family: Arial; font-size: 22px; fill: rgb(0, 0, 0); fill-opacity: 1; white-space: pre;">10</text></g><g class="ytick"><text text-anchor="end" x="58.6" y="7.699999999999999" transform="translate(0,157.39)" style="font-family: Arial; font-size: 22px; fill: rgb(0, 0, 0); fill-opacity: 1; white-space: pre;">15</text></g><g class="ytick"><text text-anchor="end" x="58.6" y="7.699999999999999" transform="translate(0,105.11)" style="font-family: Arial; font-size: 22px; fill: rgb(0, 0, 0); fill-opacity: 1; white-space: pre;">20</text></g><g class="ytick"><text text-anchor="end" x="58.6" y="7.699999999999999" transform="translate(0,52.83)" style="font-family: Arial; font-size: 22px; fill: rgb(0, 0, 0); fill-opacity: 1; white-space: pre;">25</text></g></g><g class="overaxes-above"/></g></g><g class="polarlayer"/><g class="ternarylayer"/><g class="geolayer"/><g class="funnelarealayer"/><g class="pielayer"/><g class="sunburstlayer"/><g class="glimages"/><defs id="topdefs-3cc594"><g class="clips"/><clipPath id="legend3cc594"><rect width="143" height="91" x="1" y="1"/></clipPath></defs><g class="layer-above"><g class="imagelayer"/><g class="shapelayer"/></g><g class="infolayer"><g class="legend" pointer-events="all" transform="translate(655, 50)"><rect class="bg" shape-rendering="crispEdges" width="144" height="92" x="0.5" y="0.5" style="stroke: rgb(255, 255, 255); stroke-opacity: 1; fill: rgb(255, 255, 255); fill-opacity: 1; stroke-width: 1px;"/><g class="scrollbox" transform="translate(0, 0)" clip-path="url('#legend3cc594')"><g class="groups" transform="translate(0, 0)"><g class="traces" transform="translate(1, 23.75)" style="opacity: 1;"><text class="legendtext user-select-none" text-anchor="start" x="40" y="9.75" style="font-family: Arial; font-size: 25px; fill: rgb(0, 0, 0); fill-opacity: 1; white-space: pre;">Male  </text><g class="layers" style="opacity: 1;"><g class="legendfill"/><g class="legendlines"/><g class="legendsymbols"><g class="legendpoints"><path class="scatterpts" transform="translate(20,0)" d="M7.5,0A7.5,7.5 0 1,1 0,-7.5A7.5,7.5 0 0,1 7.5,0Z" style="opacity: 1; stroke-width: 0px; fill: rgb(228, 59, 45); fill-opacity: 1;"/></g></g></g><rect class="legendtoggle" pointer-events="all" x="0" y="-17.75" width="185" height="35.5" style="cursor: pointer; fill: rgb(0, 0, 0); fill-opacity: 0;"/></g></g><g class="groups" transform="translate(0, 10)"><g class="traces" transform="translate(1, 59.25)" style="opacity: 1;"><text class="legendtext user-select-none" text-anchor="start" x="40" y="9.75" style="font-family: Arial; font-size: 25px; fill: rgb(0, 0, 0); fill-opacity: 1; white-space: pre;">Female  </text><g class="layers" style="opacity: 1;"><g class="legendfill"/><g class="legendlines"/><g class="legendsymbols"><g class="legendpoints"><path class="scatterpts" transform="translate(20,0)" d="M7.5,0A7.5,7.5 0 1,1 0,-7.5A7.5,7.5 0 0,1 7.5,0Z" style="opacity: 1; stroke-width: 0px; fill: rgb(55, 126, 183); fill-opacity: 1;"/></g></g></g><rect class="legendtoggle" pointer-events="all" x="0" y="-17.75" width="185" height="35.5" style="cursor: pointer; fill: rgb(0, 0, 0); fill-opacity: 0;"/></g></g></g><rect class="scrollbar" rx="20" ry="3" width="0" height="0" x="0" y="0" style="fill: rgb(128, 139, 164); fill-opacity: 1;"/></g><g class="g-gtitle"><text class="gtitle" x="384" y="18" text-anchor="middle" dy="0.7em" style="font-family: Arial; font-size: 25px; fill: rgb(0, 0, 0); opacity: 1; font-weight: normal; white-space: pre;">PLSDA Score Plot</text></g><g class="g-xtitle" transform="translate(0,-22)"><text class="xtitle" x="356" y="617" text-anchor="middle" style="font-family: Arial; font-size: 22px; fill: rgb(0, 0, 0); opacity: 1; font-weight: normal; white-space: pre;">PC1 (28.20%)</text></g><g class="g-ytitle" transform="translate(5,0)"><text class="ytitle" transform="rotate(-90,15,295)" x="15" y="295" text-anchor="middle" style="font-family: Arial; font-size: 22px; fill: rgb(0, 0, 0); opacity: 1; font-weight: normal; white-space: pre;">PC2 (7.86%)</text></g></g></svg>