<svg class="main-svg" xmlns="http://www.w3.org/2000/svg" xmlns:xlink="http://www.w3.org/1999/xlink" width="900" height="600" style="" viewBox="0 0 900 600"><rect x="0" y="0" width="900" height="600" style="fill: rgb(255, 255, 255); fill-opacity: 1;"/><defs id="defs-ab839c"><g class="clips"><clipPath id="clipab839cxyplot" class="plotclip"><rect width="545" height="480"/></clipPath><clipPath class="axesclip" id="clipab839cx"><rect x="80" y="0" width="545" height="600"/></clipPath><clipPath class="axesclip" id="clipab839cy"><rect x="0" y="50" width="900" height="480"/></clipPath><clipPath class="axesclip" id="clipab839cxy"><rect x="80" y="50" width="545" height="480"/></clipPath></g><g class="gradients"/></defs><g class="bglayer"/><g class="layer-below"><g class="imagelayer"/><g class="shapelayer"/></g><g class="cartesianlayer"><g class="subplot xy"><g class="layer-subplot"><g class="shapelayer"/><g class="imagelayer"/></g><g class="gridlayer"><g class="x"/><g class="y"><path class="ygrid crisp" transform="translate(0,435.85)" d="M80,0h545" style="stroke: rgb(153, 153, 153); stroke-opacity: 1; stroke-width: 1px;"/><path class="ygrid crisp" transform="translate(0,369.46)" d="M80,0h545" style="stroke: rgb(153, 153, 153); stroke-opacity: 1; stroke-width: 1px;"/><path class="ygrid crisp" transform="translate(0,303.06)" d="M80,0h545" style="stroke: rgb(153, 153, 153); stroke-opacity: 1; stroke-width: 1px;"/><path class="ygrid crisp" transform="translate(0,236.67)" d="M80,0h545" style="stroke: rgb(153, 153, 153); stroke-opacity: 1; stroke-width: 1px;"/><path class="ygrid crisp" transform="translate(0,170.26999999999998)" d="M80,0h545" style="stroke: rgb(153, 153, 153); stroke-opacity: 1; stroke-width: 1px;"/><path class="ygrid crisp" transform="translate(0,103.88)" d="M80,0h545" style="stroke: rgb(153, 153, 153); stroke-opacity: 1; stroke-width: 1px;"/></g></g><g class="zerolinelayer"><path class="yzl zl crisp" transform="translate(0,502.25)" d="M80,0h545" style="stroke: rgb(0, 0, 0); stroke-opacity: 1; stroke-width: 1px;"/></g><path class="xlines-below"/><path class="ylines-below"/><g class="overlines-below"/><g class="xaxislayer-below"/><g class="yaxislayer-below"/><g class="overaxes-below"/><g class="plot" transform="translate(80, 50)" clip-path="url('#clipab839cxyplot')"><g class="barlayer mlayer"><g class="trace bars" style="opacity: 1;"><g class="points"><g class="point"><path d="M13.77,452.25V50.56H48.23V452.25Z" style="vector-effect: non-scaling-stroke; opacity: 1; stroke-width: 2px; fill: rgb(89, 181, 199); fill-opacity: 1; stroke: rgb(89, 181, 199); stroke-opacity: 1;"/></g><g class="point"><path d="M56.85,452.25V261.7H91.31V452.25Z" style="vector-effect: non-scaling-stroke; opacity: 1; stroke-width: 2px; fill: rgb(89, 181, 199); fill-opacity: 1; stroke: rgb(89, 181, 199); stroke-opacity: 1;"/></g><g class="point"><path d="M99.92,452.25V273.38H134.38V452.25Z" style="vector-effect: non-scaling-stroke; opacity: 1; stroke-width: 2px; fill: rgb(89, 181, 199); fill-opacity: 1; stroke: rgb(89, 181, 199); stroke-opacity: 1;"/></g><g class="point"><path d="M143,452.25V331.14H177.46V452.25Z" style="vector-effect: non-scaling-stroke; opacity: 1; stroke-width: 2px; fill: rgb(89, 181, 199); fill-opacity: 1; stroke: rgb(89, 181, 199); stroke-opacity: 1;"/></g><g class="point"><path d="M186.07,452.25V368.33H220.53V452.25Z" style="vector-effect: non-scaling-stroke; opacity: 1; stroke-width: 2px; fill: rgb(89, 181, 199); fill-opacity: 1; stroke: rgb(89, 181, 199); stroke-opacity: 1;"/></g><g class="point"><path d="M229.15,452.25V372.71H263.61V452.25Z" style="vector-effect: non-scaling-stroke; opacity: 1; stroke-width: 2px; fill: rgb(89, 181, 199); fill-opacity: 1; stroke: rgb(89, 181, 199); stroke-opacity: 1;"/></g><g class="point"><path d="M272.22,452.25V380.54H306.68V452.25Z" style="vector-effect: non-scaling-stroke; opacity: 1; stroke-width: 2px; fill: rgb(89, 181, 199); fill-opacity: 1; stroke: rgb(89, 181, 199); stroke-opacity: 1;"/></g><g class="point"><path d="M315.3,452.25V389.31H349.76V452.25Z" style="vector-effect: non-scaling-stroke; opacity: 1; stroke-width: 2px; fill: rgb(89, 181, 199); fill-opacity: 1; stroke: rgb(89, 181, 199); stroke-opacity: 1;"/></g><g class="point"><path d="M358.37,452.25V402.32H392.83V452.25Z" style="vector-effect: non-scaling-stroke; opacity: 1; stroke-width: 2px; fill: rgb(89, 181, 199); fill-opacity: 1; stroke: rgb(89, 181, 199); stroke-opacity: 1;"/></g><g class="point"><path d="M401.45,452.25V406.57H435.91V452.25Z" style="vector-effect: non-scaling-stroke; opacity: 1; stroke-width: 2px; fill: rgb(89, 181, 199); fill-opacity: 1; stroke: rgb(89, 181, 199); stroke-opacity: 1;"/></g><g class="point"><path d="M444.52,452.25V410.29H478.98V452.25Z" style="vector-effect: non-scaling-stroke; opacity: 1; stroke-width: 2px; fill: rgb(89, 181, 199); fill-opacity: 1; stroke: rgb(89, 181, 199); stroke-opacity: 1;"/></g><g class="point"><path d="M487.6,452.25V452.25H522.06V452.25Z" style="vector-effect: non-scaling-stroke; opacity: 1; stroke-width: 2px; fill: rgb(89, 181, 199); fill-opacity: 1; stroke: rgb(89, 181, 199); stroke-opacity: 1;"/></g></g></g></g><g class="scatterlayer mlayer"><g class="trace scatter trace6837ee" style="stroke-miterlimit: 2; opacity: 1;"><g class="fills"/><g class="errorbars"/><g class="lines"><path class="js-line" d="M31,50.56L74.08,261.7L117.15,273.38L160.23,331.14L203.3,368.33L246.38,372.71L289.45,380.54L332.53,389.31L375.6,402.32L461.75,410.29L504.83,452.25" style="vector-effect: non-scaling-stroke; fill: none; stroke: rgb(0, 0, 0); stroke-opacity: 1; stroke-width: 2px; opacity: 1;"/></g><g class="points"><path class="point" transform="translate(31,50.56)" d="M3,0A3,3 0 1,1 0,-3A3,3 0 0,1 3,0Z" style="opacity: 1; stroke-width: 2px; fill: rgb(0, 0, 0); fill-opacity: 1; stroke: rgb(0, 0, 0); stroke-opacity: 1;"/><path class="point" transform="translate(74.08,261.7)" d="M3,0A3,3 0 1,1 0,-3A3,3 0 0,1 3,0Z" style="opacity: 1; stroke-width: 2px; fill: rgb(0, 0, 0); fill-opacity: 1; stroke: rgb(0, 0, 0); stroke-opacity: 1;"/><path class="point" transform="translate(117.15,273.38)" d="M3,0A3,3 0 1,1 0,-3A3,3 0 0,1 3,0Z" style="opacity: 1; stroke-width: 2px; fill: rgb(0, 0, 0); fill-opacity: 1; stroke: rgb(0, 0, 0); stroke-opacity: 1;"/><path class="point" transform="translate(160.23,331.14)" d="M3,0A3,3 0 1,1 0,-3A3,3 0 0,1 3,0Z" style="opacity: 1; stroke-width: 2px; fill: rgb(0, 0, 0); fill-opacity: 1; stroke: rgb(0, 0, 0); stroke-opacity: 1;"/><path class="point" transform="translate(203.3,368.33)" d="M3,0A3,3 0 1,1 0,-3A3,3 0 0,1 3,0Z" style="opacity: 1; stroke-width: 2px; fill: rgb(0, 0, 0); fill-opacity: 1; stroke: rgb(0, 0, 0); stroke-opacity: 1;"/><path class="point" transform="translate(246.38,372.71)" d="M3,0A3,3 0 1,1 0,-3A3,3 0 0,1 3,0Z" style="opacity: 1; stroke-width: 2px; fill: rgb(0, 0, 0); fill-opacity: 1; stroke: rgb(0, 0, 0); stroke-opacity: 1;"/><path class="point" transform="translate(289.45,380.54)" d="M3,0A3,3 0 1,1 0,-3A3,3 0 0,1 3,0Z" style="opacity: 1; stroke-width: 2px; fill: rgb(0, 0, 0); fill-opacity: 1; stroke: rgb(0, 0, 0); stroke-opacity: 1;"/><path class="point" transform="translate(332.53,389.31)" d="M3,0A3,3 0 1,1 0,-3A3,3 0 0,1 3,0Z" style="opacity: 1; stroke-width: 2px; fill: rgb(0, 0, 0); fill-opacity: 1; stroke: rgb(0, 0, 0); stroke-opacity: 1;"/><path class="point" transform="translate(375.6,402.32)" d="M3,0A3,3 0 1,1 0,-3A3,3 0 0,1 3,0Z" style="opacity: 1; stroke-width: 2px; fill: rgb(0, 0, 0); fill-opacity: 1; stroke: rgb(0, 0, 0); stroke-opacity: 1;"/><path class="point" transform="translate(418.68,406.57)" d="M3,0A3,3 0 1,1 0,-3A3,3 0 0,1 3,0Z" style="opacity: 1; stroke-width: 2px; fill: rgb(0, 0, 0); fill-opacity: 1; stroke: rgb(0, 0, 0); stroke-opacity: 1;"/><path class="point" transform="translate(461.75,410.29)" d="M3,0A3,3 0 1,1 0,-3A3,3 0 0,1 3,0Z" style="opacity: 1; stroke-width: 2px; fill: rgb(0, 0, 0); fill-opacity: 1; stroke: rgb(0, 0, 0); stroke-opacity: 1;"/><path class="point" transform="translate(504.83,452.25)" d="M3,0A3,3 0 1,1 0,-3A3,3 0 0,1 3,0Z" style="opacity: 1; stroke-width: 2px; fill: rgb(0, 0, 0); fill-opacity: 1; stroke: rgb(0, 0, 0); stroke-opacity: 1;"/></g><g class="text"/></g><g class="trace scatter trace2515b2" style="stroke-miterlimit: 2; opacity: 1;"><g class="fills"/><g class="errorbars"/><g class="lines"/><g class="points"/><g class="text"><g class="textpoint" transform="translate(0,3.75)"><text x="43.92" y="24" text-anchor="middle" style="font-family: 'Open Sans', verdana, arial, sans-serif; font-size: 15px; fill: rgb(0, 0, 0); fill-opacity: 1; white-space: pre;">30.25%</text></g><g class="textpoint" transform="translate(0,3.75)"><text x="87" y="235.14" text-anchor="middle" style="font-family: 'Open Sans', verdana, arial, sans-serif; font-size: 15px; fill: rgb(0, 0, 0); fill-opacity: 1; white-space: pre;">14.35%</text></g><g class="textpoint" transform="translate(0,3.75)"><text x="130.07" y="246.82" text-anchor="middle" style="font-family: 'Open Sans', verdana, arial, sans-serif; font-size: 15px; fill: rgb(0, 0, 0); fill-opacity: 1; white-space: pre;">13.47%</text></g><g class="textpoint" transform="translate(0,3.75)"><text x="173.15" y="304.59" text-anchor="middle" style="font-family: 'Open Sans', verdana, arial, sans-serif; font-size: 15px; fill: rgb(0, 0, 0); fill-opacity: 1; white-space: pre;">9.12%</text></g><g class="textpoint" transform="translate(0,3.75)"><text x="216.22" y="341.77" text-anchor="middle" style="font-family: 'Open Sans', verdana, arial, sans-serif; font-size: 15px; fill: rgb(0, 0, 0); fill-opacity: 1; white-space: pre;">6.32%</text></g><g class="textpoint" transform="translate(0,3.75)"><text x="259.3" y="346.15" text-anchor="middle" style="font-family: 'Open Sans', verdana, arial, sans-serif; font-size: 15px; fill: rgb(0, 0, 0); fill-opacity: 1; white-space: pre;">5.99%</text></g><g class="textpoint" transform="translate(0,3.75)"><text x="302.37" y="353.98" text-anchor="middle" style="font-family: 'Open Sans', verdana, arial, sans-serif; font-size: 15px; fill: rgb(0, 0, 0); fill-opacity: 1; white-space: pre;">5.40%</text></g><g class="textpoint" transform="translate(0,3.75)"><text x="345.45" y="362.75" text-anchor="middle" style="font-family: 'Open Sans', verdana, arial, sans-serif; font-size: 15px; fill: rgb(0, 0, 0); fill-opacity: 1; white-space: pre;">4.74%</text></g><g class="textpoint" transform="translate(0,3.75)"><text x="388.52" y="375.76" text-anchor="middle" style="font-family: 'Open Sans', verdana, arial, sans-serif; font-size: 15px; fill: rgb(0, 0, 0); fill-opacity: 1; white-space: pre;">3.76%</text></g><g class="textpoint" transform="translate(0,3.75)"><text x="431.6" y="380.01" text-anchor="middle" style="font-family: 'Open Sans', verdana, arial, sans-serif; font-size: 15px; fill: rgb(0, 0, 0); fill-opacity: 1; white-space: pre;">3.44%</text></g><g class="textpoint" transform="translate(0,3.75)"><text x="474.67" y="383.73" text-anchor="middle" style="font-family: 'Open Sans', verdana, arial, sans-serif; font-size: 15px; fill: rgb(0, 0, 0); fill-opacity: 1; white-space: pre;">3.16%</text></g><g class="textpoint" transform="translate(0,3.75)"><text x="517.75" y="425.69" text-anchor="middle" style="font-family: 'Open Sans', verdana, arial, sans-serif; font-size: 15px; fill: rgb(0, 0, 0); fill-opacity: 1; white-space: pre;">0.00%</text></g></g></g></g></g><g class="overplot"/><path class="xlines-above crisp" d="M78,531H625" style="fill: none; stroke-width: 2px; stroke: rgb(0, 0, 0); stroke-opacity: 1;"/><path class="ylines-above crisp" d="M79,50V530" style="fill: none; stroke-width: 2px; stroke: rgb(0, 0, 0); stroke-opacity: 1;"/><g class="overlines-above"/><g class="xaxislayer-above"><path class="xtick ticks crisp" d="M0,532v5" transform="translate(154.07999999999998,0)" style="stroke: rgb(0, 0, 0); stroke-opacity: 1; stroke-width: 3px;"/><path class="xtick ticks crisp" d="M0,532v5" transform="translate(240.23,0)" style="stroke: rgb(0, 0, 0); stroke-opacity: 1; stroke-width: 3px;"/><path class="xtick ticks crisp" d="M0,532v5" transform="translate(326.38,0)" style="stroke: rgb(0, 0, 0); stroke-opacity: 1; stroke-width: 3px;"/><path class="xtick ticks crisp" d="M0,532v5" transform="translate(412.53,0)" style="stroke: rgb(0, 0, 0); stroke-opacity: 1; stroke-width: 3px;"/><path class="xtick ticks crisp" d="M0,532v5" transform="translate(498.68,0)" style="stroke: rgb(0, 0, 0); stroke-opacity: 1; stroke-width: 3px;"/><path class="xtick ticks crisp" d="M0,532v5" transform="translate(584.8299999999999,0)" style="stroke: rgb(0, 0, 0); stroke-opacity: 1; stroke-width: 3px;"/><g class="xtick"><text text-anchor="middle" x="0" y="563.4" transform="translate(154.07999999999998,0)" style="font-family: Arial; font-size: 22px; fill: rgb(0, 0, 0); fill-opacity: 1; white-space: pre;">2</text></g><g class="xtick"><text text-anchor="middle" x="0" y="563.4" transform="translate(240.23,0)" style="font-family: Arial; font-size: 22px; fill: rgb(0, 0, 0); fill-opacity: 1; white-space: pre;">4</text></g><g class="xtick"><text text-anchor="middle" x="0" y="563.4" transform="translate(326.38,0)" style="font-family: Arial; font-size: 22px; fill: rgb(0, 0, 0); fill-opacity: 1; white-space: pre;">6</text></g><g class="xtick"><text text-anchor="middle" x="0" y="563.4" transform="translate(412.53,0)" style="font-family: Arial; font-size: 22px; fill: rgb(0, 0, 0); fill-opacity: 1; white-space: pre;">8</text></g><g class="xtick"><text text-anchor="middle" x="0" y="563.4" transform="translate(498.68,0)" style="font-family: Arial; font-size: 22px; fill: rgb(0, 0, 0); fill-opacity: 1; white-space: pre;">10</text></g><g class="xtick"><text text-anchor="middle" x="0" y="563.4" transform="translate(584.8299999999999,0)" style="font-family: Arial; font-size: 22px; fill: rgb(0, 0, 0); fill-opacity: 1; white-space: pre;">12</text></g></g><g class="yaxislayer-above"><path class="ytick ticks crisp" d="M78,0h-5" transform="translate(0,502.25)" style="stroke: rgb(0, 0, 0); stroke-opacity: 1; stroke-width: 3px;"/><path class="ytick ticks crisp" d="M78,0h-5" transform="translate(0,435.85)" style="stroke: rgb(0, 0, 0); stroke-opacity: 1; stroke-width: 3px;"/><path class="ytick ticks crisp" d="M78,0h-5" transform="translate(0,369.46)" style="stroke: rgb(0, 0, 0); stroke-opacity: 1; stroke-width: 3px;"/><path class="ytick ticks crisp" d="M78,0h-5" transform="translate(0,303.06)" style="stroke: rgb(0, 0, 0); stroke-opacity: 1; stroke-width: 3px;"/><path class="ytick ticks crisp" d="M78,0h-5" transform="translate(0,236.67)" style="stroke: rgb(0, 0, 0); stroke-opacity: 1; stroke-width: 3px;"/><path class="ytick ticks crisp" d="M78,0h-5" transform="translate(0,170.26999999999998)" style="stroke: rgb(0, 0, 0); stroke-opacity: 1; stroke-width: 3px;"/><path class="ytick ticks crisp" d="M78,0h-5" transform="translate(0,103.88)" style="stroke: rgb(0, 0, 0); stroke-opacity: 1; stroke-width: 3px;"/><g class="ytick"><text text-anchor="end" x="68.6" y="7.699999999999999" transform="translate(0,502.25)" style="font-family: Arial; font-size: 22px; fill: rgb(0, 0, 0); fill-opacity: 1; white-space: pre;">0</text></g><g class="ytick"><text text-anchor="end" x="68.6" y="7.699999999999999" transform="translate(0,435.85)" style="font-family: Arial; font-size: 22px; fill: rgb(0, 0, 0); fill-opacity: 1; white-space: pre;">0.05</text></g><g class="ytick"><text text-anchor="end" x="68.6" y="7.699999999999999" transform="translate(0,369.46)" style="font-family: Arial; font-size: 22px; fill: rgb(0, 0, 0); fill-opacity: 1; white-space: pre;">0.1</text></g><g class="ytick"><text text-anchor="end" x="68.6" y="7.699999999999999" transform="translate(0,303.06)" style="font-family: Arial; font-size: 22px; fill: rgb(0, 0, 0); fill-opacity: 1; white-space: pre;">0.15</text></g><g class="ytick"><text text-anchor="end" x="68.6" y="7.699999999999999" transform="translate(0,236.67)" style="font-family: Arial; font-size: 22px; fill: rgb(0, 0, 0); fill-opacity: 1; white-space: pre;">0.2</text></g><g class="ytick"><text text-anchor="end" x="68.6" y="7.699999999999999" transform="translate(0,170.26999999999998)" style="font-family: Arial; font-size: 22px; fill: rgb(0, 0, 0); fill-opacity: 1; white-space: pre;">0.25</text></g><g class="ytick"><text text-anchor="end" x="68.6" y="7.699999999999999" transform="translate(0,103.88)" style="font-family: Arial; font-size: 22px; fill: rgb(0, 0, 0); fill-opacity: 1; white-space: pre;">0.3</text></g></g><g class="overaxes-above"/></g></g><g class="polarlayer"/><g class="ternarylayer"/><g class="geolayer"/><g class="funnelarealayer"/><g class="pielayer"/><g class="sunburstlayer"/><g class="glimages"/><defs id="topdefs-ab839c"><g class="clips"/><clipPath id="legendab839c"><rect width="260" height="46" x="1" y="1"/></clipPath></defs><g class="layer-above"><g class="imagelayer"/><g class="shapelayer"/></g><g class="infolayer"><g class="legend" pointer-events="all" transform="translate(637.535, 50)"><rect class="bg" shape-rendering="crispEdges" width="261" height="47" x="0.5" y="0.5" style="stroke: rgb(255, 255, 255); stroke-opacity: 1; fill: rgb(255, 255, 255); fill-opacity: 1; stroke-width: 1px;"/><g class="scrollbox" transform="translate(0, 0)" clip-path="url('#legendab839c')"><g class="groups"><g class="traces" transform="translate(1, 23.75)" style="opacity: 1;"><text class="legendtext user-select-none" text-anchor="start" x="40" y="9.75" style="font-family: Arial; font-size: 25px; fill: rgb(0, 0, 0); fill-opacity: 1; white-space: pre;">Variance Explained</text><g class="layers" style="opacity: 1;"><g class="legendfill"/><g class="legendlines"/><g class="legendsymbols"><g class="legendpoints"><path class="legendundefined" d="M6,6H-6V-6H6Z" transform="translate(20,0)" style="stroke-width: 2px; fill: rgb(89, 181, 199); fill-opacity: 1; stroke: rgb(89, 181, 199); stroke-opacity: 1;"/></g></g></g><rect class="legendtoggle" pointer-events="all" x="0" y="-17.75" width="302" height="35.5" style="cursor: pointer; fill: rgb(0, 0, 0); fill-opacity: 0;"/></g></g></g><rect class="scrollbar" rx="20" ry="3" width="0" height="0" x="0" y="0" style="fill: rgb(128, 139, 164); fill-opacity: 1;"/></g><g class="g-gtitle"><text class="gtitle" x="432" y="18" text-anchor="middle" dy="0.7em" style="font-family: Arial; font-size: 25px; fill: rgb(0, 0, 0); opacity: 1; font-weight: normal; white-space: pre;">PCA Scree Plot</text></g><g class="g-xtitle" transform="translate(0,-11.984537124633789)"><text class="xtitle" x="352.5" y="607" text-anchor="middle" style="font-family: Arial; font-size: 22px; fill: rgb(0, 0, 0); opacity: 1; font-weight: normal; white-space: pre;">Number of Principal Components</text></g><g class="g-ytitle" transform="translate(-5,0)"><text class="ytitle" transform="rotate(-90,25,290)" x="25" y="290" text-anchor="middle" style="font-family: Arial; font-size: 22px; fill: rgb(0, 0, 0); opacity: 1; font-weight: normal; white-space: pre;">Percentage of Variance Explained</text></g></g></svg>