<svg class="main-svg" xmlns="http://www.w3.org/2000/svg" xmlns:xlink="http://www.w3.org/1999/xlink" width="700" height="500" viewBox="0 0 700 500"><rect x="0" y="0" width="700" height="500" style="fill: rgb(255, 255, 255); fill-opacity: 1;"/><defs id="defs-9806b5"><g class="clips"><clipPath id="clip9806b5xyplot" class="plotclip"><rect width="413" height="320"/></clipPath><clipPath class="axesclip" id="clip9806b5x"><rect x="80" y="0" width="413" height="500"/></clipPath><clipPath class="axesclip" id="clip9806b5y"><rect x="0" y="100" width="700" height="320"/></clipPath><clipPath class="axesclip" id="clip9806b5xy"><rect x="80" y="100" width="413" height="320"/></clipPath></g><g class="gradients"/></defs><g class="bglayer"/><g class="layer-below"><g class="imagelayer"/><g class="shapelayer"/></g><g class="cartesianlayer"><g class="subplot xy"><g class="layer-subplot"><g class="shapelayer"/><g class="imagelayer"/></g><g class="gridlayer"><g class="x"><path class="xgrid crisp" transform="translate(104.28999999999999,0)" d="M0,100v320" style="stroke: rgb(0, 0, 0); stroke-opacity: 0; stroke-width: 1px;"/><path class="xgrid crisp" transform="translate(144.78,0)" d="M0,100v320" style="stroke: rgb(0, 0, 0); stroke-opacity: 0; stroke-width: 1px;"/><path class="xgrid crisp" transform="translate(185.26999999999998,0)" d="M0,100v320" style="stroke: rgb(0, 0, 0); stroke-opacity: 0; stroke-width: 1px;"/><path class="xgrid crisp" transform="translate(225.76,0)" d="M0,100v320" style="stroke: rgb(0, 0, 0); stroke-opacity: 0; stroke-width: 1px;"/><path class="xgrid crisp" transform="translate(266.25,0)" d="M0,100v320" style="stroke: rgb(0, 0, 0); stroke-opacity: 0; stroke-width: 1px;"/><path class="xgrid crisp" transform="translate(306.75,0)" d="M0,100v320" style="stroke: rgb(0, 0, 0); stroke-opacity: 0; stroke-width: 1px;"/><path class="xgrid crisp" transform="translate(347.24,0)" d="M0,100v320" style="stroke: rgb(0, 0, 0); stroke-opacity: 0; stroke-width: 1px;"/><path class="xgrid crisp" transform="translate(387.73,0)" d="M0,100v320" style="stroke: rgb(0, 0, 0); stroke-opacity: 0; stroke-width: 1px;"/><path class="xgrid crisp" transform="translate(428.22,0)" d="M0,100v320" style="stroke: rgb(0, 0, 0); stroke-opacity: 0; stroke-width: 1px;"/><path class="xgrid crisp" transform="translate(468.71,0)" d="M0,100v320" style="stroke: rgb(0, 0, 0); stroke-opacity: 0; stroke-width: 1px;"/></g><g class="y"><path class="ygrid crisp" transform="translate(0,399.57)" d="M80,0h413" style="stroke: rgb(0, 0, 0); stroke-opacity: 0.2; stroke-width: 1px;"/><path class="ygrid crisp" transform="translate(0,347.2)" d="M80,0h413" style="stroke: rgb(0, 0, 0); stroke-opacity: 0.2; stroke-width: 1px;"/><path class="ygrid crisp" transform="translate(0,294.83000000000004)" d="M80,0h413" style="stroke: rgb(0, 0, 0); stroke-opacity: 0.2; stroke-width: 1px;"/><path class="ygrid crisp" transform="translate(0,242.45)" d="M80,0h413" style="stroke: rgb(0, 0, 0); stroke-opacity: 0.2; stroke-width: 1px;"/><path class="ygrid crisp" transform="translate(0,190.07999999999998)" d="M80,0h413" style="stroke: rgb(0, 0, 0); stroke-opacity: 0.2; stroke-width: 1px;"/><path class="ygrid crisp" transform="translate(0,137.71)" d="M80,0h413" style="stroke: rgb(0, 0, 0); stroke-opacity: 0.2; stroke-width: 1px;"/></g></g><g class="zerolinelayer"/><path class="xlines-below"/><path class="ylines-below"/><g class="overlines-below"/><g class="xaxislayer-below"/><g class="yaxislayer-below"/><g class="overaxes-below"/><g class="plot" transform="translate(80, 100)" clip-path="url(#clip9806b5xyplot)"><g class="barlayer mlayer"><g class="trace bars" style="opacity: 1;"><g class="points"><g class="point"><path d="M8.1,299.57V36.98H40.49V299.57Z" style="vector-effect: non-scaling-stroke; opacity: 1; stroke-width: 2px; fill: rgb(89, 181, 199); fill-opacity: 1; stroke: rgb(89, 181, 199); stroke-opacity: 1;"/></g><g class="point"><path d="M48.59,299.57V137.11H80.98V299.57Z" style="vector-effect: non-scaling-stroke; opacity: 1; stroke-width: 2px; fill: rgb(89, 181, 199); fill-opacity: 1; stroke: rgb(89, 181, 199); stroke-opacity: 1;"/></g><g class="point"><path d="M89.08,299.57V193.26H121.47V299.57Z" style="vector-effect: non-scaling-stroke; opacity: 1; stroke-width: 2px; fill: rgb(89, 181, 199); fill-opacity: 1; stroke: rgb(89, 181, 199); stroke-opacity: 1;"/></g><g class="point"><path d="M129.57,299.57V210.12H161.96V299.57Z" style="vector-effect: non-scaling-stroke; opacity: 1; stroke-width: 2px; fill: rgb(89, 181, 199); fill-opacity: 1; stroke: rgb(89, 181, 199); stroke-opacity: 1;"/></g><g class="point"><path d="M170.06,299.57V227.09H202.45V299.57Z" style="vector-effect: non-scaling-stroke; opacity: 1; stroke-width: 2px; fill: rgb(89, 181, 199); fill-opacity: 1; stroke: rgb(89, 181, 199); stroke-opacity: 1;"/></g><g class="point"><path d="M210.55,299.57V235.99H242.94V299.57Z" style="vector-effect: non-scaling-stroke; opacity: 1; stroke-width: 2px; fill: rgb(89, 181, 199); fill-opacity: 1; stroke: rgb(89, 181, 199); stroke-opacity: 1;"/></g><g class="point"><path d="M251.04,299.57V248.46H283.43V299.57Z" style="vector-effect: non-scaling-stroke; opacity: 1; stroke-width: 2px; fill: rgb(89, 181, 199); fill-opacity: 1; stroke: rgb(89, 181, 199); stroke-opacity: 1;"/></g><g class="point"><path d="M291.53,299.57V249.19H323.92V299.57Z" style="vector-effect: non-scaling-stroke; opacity: 1; stroke-width: 2px; fill: rgb(89, 181, 199); fill-opacity: 1; stroke: rgb(89, 181, 199); stroke-opacity: 1;"/></g><g class="point"><path d="M332.02,299.57V255.27H364.41V299.57Z" style="vector-effect: non-scaling-stroke; opacity: 1; stroke-width: 2px; fill: rgb(89, 181, 199); fill-opacity: 1; stroke: rgb(89, 181, 199); stroke-opacity: 1;"/></g><g class="point"><path d="M372.51,299.57V264.8H404.9V299.57Z" style="vector-effect: non-scaling-stroke; opacity: 1; stroke-width: 2px; fill: rgb(89, 181, 199); fill-opacity: 1; stroke: rgb(89, 181, 199); stroke-opacity: 1;"/></g><g class="point"><path d="M413,299.57V271.08H445.39V299.57Z" style="vector-effect: non-scaling-stroke; opacity: 1; stroke-width: 2px; fill: rgb(89, 181, 199); fill-opacity: 1; stroke: rgb(89, 181, 199); stroke-opacity: 1;"/></g><g class="point"><path d="M453.49,299.57V273.91H485.88V299.57Z" style="vector-effect: non-scaling-stroke; opacity: 1; stroke-width: 2px; fill: rgb(89, 181, 199); fill-opacity: 1; stroke: rgb(89, 181, 199); stroke-opacity: 1;"/></g><g class="point"><path d="M493.98,299.57V278H526.37V299.57Z" style="vector-effect: non-scaling-stroke; opacity: 1; stroke-width: 2px; fill: rgb(89, 181, 199); fill-opacity: 1; stroke: rgb(89, 181, 199); stroke-opacity: 1;"/></g><g class="point"><path d="M534.47,299.57V281.56H566.86V299.57Z" style="vector-effect: non-scaling-stroke; opacity: 1; stroke-width: 2px; fill: rgb(89, 181, 199); fill-opacity: 1; stroke: rgb(89, 181, 199); stroke-opacity: 1;"/></g><g class="point"><path d="M574.96,299.57V283.44H607.35V299.57Z" style="vector-effect: non-scaling-stroke; opacity: 1; stroke-width: 2px; fill: rgb(89, 181, 199); fill-opacity: 1; stroke: rgb(89, 181, 199); stroke-opacity: 1;"/></g><g class="point"><path d="M0,0Z" style="vector-effect: non-scaling-stroke; opacity: 1; stroke-width: 2px; fill: rgb(89, 181, 199); fill-opacity: 1; stroke: rgb(89, 181, 199); stroke-opacity: 1;"/></g></g></g></g><g class="scatterlayer mlayer"><g class="trace scatter trace5fcc79" style="stroke-miterlimit: 2; opacity: 1;"><g class="fills"/><g class="errorbars"/><g class="lines"><path class="js-line" d="M24.29,36.98L64.78,137.11L105.27,193.26L186.25,227.09L226.75,235.99L267.24,248.46L307.73,249.19L348.22,255.27L388.71,264.8L429.2,271.08L469.69,273.91L591.16,283.44L631.65,299.57" style="vector-effect: non-scaling-stroke; fill: none; stroke: rgb(0, 0, 0); stroke-opacity: 1; stroke-width: 2px; opacity: 1;"/></g><g class="points"><path class="point" transform="translate(24.29,36.98)" d="M3,0A3,3 0 1,1 0,-3A3,3 0 0,1 3,0Z" style="opacity: 1; stroke-width: 2px; fill: rgb(0, 0, 0); fill-opacity: 1; stroke: rgb(0, 0, 0); stroke-opacity: 1;"/><path class="point" transform="translate(64.78,137.11)" d="M3,0A3,3 0 1,1 0,-3A3,3 0 0,1 3,0Z" style="opacity: 1; stroke-width: 2px; fill: rgb(0, 0, 0); fill-opacity: 1; stroke: rgb(0, 0, 0); stroke-opacity: 1;"/><path class="point" transform="translate(105.27,193.26)" d="M3,0A3,3 0 1,1 0,-3A3,3 0 0,1 3,0Z" style="opacity: 1; stroke-width: 2px; fill: rgb(0, 0, 0); fill-opacity: 1; stroke: rgb(0, 0, 0); stroke-opacity: 1;"/><path class="point" transform="translate(145.76,210.12)" d="M3,0A3,3 0 1,1 0,-3A3,3 0 0,1 3,0Z" style="opacity: 1; stroke-width: 2px; fill: rgb(0, 0, 0); fill-opacity: 1; stroke: rgb(0, 0, 0); stroke-opacity: 1;"/><path class="point" transform="translate(186.25,227.09)" d="M3,0A3,3 0 1,1 0,-3A3,3 0 0,1 3,0Z" style="opacity: 1; stroke-width: 2px; fill: rgb(0, 0, 0); fill-opacity: 1; stroke: rgb(0, 0, 0); stroke-opacity: 1;"/><path class="point" transform="translate(226.75,235.99)" d="M3,0A3,3 0 1,1 0,-3A3,3 0 0,1 3,0Z" style="opacity: 1; stroke-width: 2px; fill: rgb(0, 0, 0); fill-opacity: 1; stroke: rgb(0, 0, 0); stroke-opacity: 1;"/><path class="point" transform="translate(267.24,248.46)" d="M3,0A3,3 0 1,1 0,-3A3,3 0 0,1 3,0Z" style="opacity: 1; stroke-width: 2px; fill: rgb(0, 0, 0); fill-opacity: 1; stroke: rgb(0, 0, 0); stroke-opacity: 1;"/><path class="point" transform="translate(307.73,249.19)" d="M3,0A3,3 0 1,1 0,-3A3,3 0 0,1 3,0Z" style="opacity: 1; stroke-width: 2px; fill: rgb(0, 0, 0); fill-opacity: 1; stroke: rgb(0, 0, 0); stroke-opacity: 1;"/><path class="point" transform="translate(348.22,255.27)" d="M3,0A3,3 0 1,1 0,-3A3,3 0 0,1 3,0Z" style="opacity: 1; stroke-width: 2px; fill: rgb(0, 0, 0); fill-opacity: 1; stroke: rgb(0, 0, 0); stroke-opacity: 1;"/><path class="point" transform="translate(388.71,264.8)" d="M3,0A3,3 0 1,1 0,-3A3,3 0 0,1 3,0Z" style="opacity: 1; stroke-width: 2px; fill: rgb(0, 0, 0); fill-opacity: 1; stroke: rgb(0, 0, 0); stroke-opacity: 1;"/><path class="point" transform="translate(429.2,271.08)" d="M3,0A3,3 0 1,1 0,-3A3,3 0 0,1 3,0Z" style="opacity: 1; stroke-width: 2px; fill: rgb(0, 0, 0); fill-opacity: 1; stroke: rgb(0, 0, 0); stroke-opacity: 1;"/><path class="point" transform="translate(469.69,273.91)" d="M3,0A3,3 0 1,1 0,-3A3,3 0 0,1 3,0Z" style="opacity: 1; stroke-width: 2px; fill: rgb(0, 0, 0); fill-opacity: 1; stroke: rgb(0, 0, 0); stroke-opacity: 1;"/><path class="point" transform="translate(510.18,278)" d="M3,0A3,3 0 1,1 0,-3A3,3 0 0,1 3,0Z" style="opacity: 1; stroke-width: 2px; fill: rgb(0, 0, 0); fill-opacity: 1; stroke: rgb(0, 0, 0); stroke-opacity: 1;"/><path class="point" transform="translate(550.67,281.56)" d="M3,0A3,3 0 1,1 0,-3A3,3 0 0,1 3,0Z" style="opacity: 1; stroke-width: 2px; fill: rgb(0, 0, 0); fill-opacity: 1; stroke: rgb(0, 0, 0); stroke-opacity: 1;"/><path class="point" transform="translate(591.16,283.44)" d="M3,0A3,3 0 1,1 0,-3A3,3 0 0,1 3,0Z" style="opacity: 1; stroke-width: 2px; fill: rgb(0, 0, 0); fill-opacity: 1; stroke: rgb(0, 0, 0); stroke-opacity: 1;"/><path class="point" transform="translate(631.65,299.57)" d="M3,0A3,3 0 1,1 0,-3A3,3 0 0,1 3,0Z" style="opacity: 1; stroke-width: 2px; fill: rgb(0, 0, 0); fill-opacity: 1; stroke: rgb(0, 0, 0); stroke-opacity: 1;"/></g><g class="text"/></g><g class="trace scatter trace3ceedb" style="stroke-miterlimit: 2; opacity: 1;"><g class="fills"/><g class="errorbars"/><g class="lines"/><g class="points"/><g class="text"><g class="textpoint" transform="translate(0,3.75)"><text x="36.44" y="16.03" text-anchor="middle" style="font-family: 'Dorid Sans'; font-size: 15px; fill: rgb(0, 0, 0); fill-opacity: 1; white-space: pre;">25.07%</text></g><g class="textpoint" transform="translate(0,3.75)"><text x="76.93" y="116.16" text-anchor="middle" style="font-family: 'Dorid Sans'; font-size: 15px; fill: rgb(0, 0, 0); fill-opacity: 1; white-space: pre;">15.51%</text></g><g class="textpoint" transform="translate(0,3.75)"><text x="117.42" y="172.31" text-anchor="middle" style="font-family: 'Dorid Sans'; font-size: 15px; fill: rgb(0, 0, 0); fill-opacity: 1; white-space: pre;">10.15%</text></g><g class="textpoint" transform="translate(0,3.75)"><text x="157.91" y="189.17" text-anchor="middle" style="font-family: 'Dorid Sans'; font-size: 15px; fill: rgb(0, 0, 0); fill-opacity: 1; white-space: pre;">8.54%</text></g><g class="textpoint" transform="translate(0,3.75)"><text x="198.4" y="206.14" text-anchor="middle" style="font-family: 'Dorid Sans'; font-size: 15px; fill: rgb(0, 0, 0); fill-opacity: 1; white-space: pre;">6.92%</text></g><g class="textpoint" transform="translate(0,3.75)"><text x="238.89" y="215.04" text-anchor="middle" style="font-family: 'Dorid Sans'; font-size: 15px; fill: rgb(0, 0, 0); fill-opacity: 1; white-space: pre;">6.07%</text></g><g class="textpoint" transform="translate(0,3.75)"><text x="279.38" y="227.51" text-anchor="middle" style="font-family: 'Dorid Sans'; font-size: 15px; fill: rgb(0, 0, 0); fill-opacity: 1; white-space: pre;">4.88%</text></g><g class="textpoint" transform="translate(0,3.75)"><text x="319.87" y="228.24" text-anchor="middle" style="font-family: 'Dorid Sans'; font-size: 15px; fill: rgb(0, 0, 0); fill-opacity: 1; white-space: pre;">4.81%</text></g><g class="textpoint" transform="translate(0,3.75)"><text x="360.36" y="234.32" text-anchor="middle" style="font-family: 'Dorid Sans'; font-size: 15px; fill: rgb(0, 0, 0); fill-opacity: 1; white-space: pre;">4.23%</text></g><g class="textpoint" transform="translate(0,3.75)"><text x="400.85" y="243.85" text-anchor="middle" style="font-family: 'Dorid Sans'; font-size: 15px; fill: rgb(0, 0, 0); fill-opacity: 1; white-space: pre;">3.32%</text></g><g class="textpoint" transform="translate(0,3.75)"><text x="441.34" y="250.13" text-anchor="middle" style="font-family: 'Dorid Sans'; font-size: 15px; fill: rgb(0, 0, 0); fill-opacity: 1; white-space: pre;">2.72%</text></g><g class="textpoint" transform="translate(0,3.75)"><text x="481.83" y="252.96" text-anchor="middle" style="font-family: 'Dorid Sans'; font-size: 15px; fill: rgb(0, 0, 0); fill-opacity: 1; white-space: pre;">2.45%</text></g><g class="textpoint" transform="translate(0,3.75)"><text x="522.32" y="257.05" text-anchor="middle" style="font-family: 'Dorid Sans'; font-size: 15px; fill: rgb(0, 0, 0); fill-opacity: 1; white-space: pre;">2.06%</text></g><g class="textpoint" transform="translate(0,3.75)"><text x="562.81" y="260.61" text-anchor="middle" style="font-family: 'Dorid Sans'; font-size: 15px; fill: rgb(0, 0, 0); fill-opacity: 1; white-space: pre;">1.72%</text></g><g class="textpoint" transform="translate(0,3.75)"><text x="603.3" y="262.49" text-anchor="middle" style="font-family: 'Dorid Sans'; font-size: 15px; fill: rgb(0, 0, 0); fill-opacity: 1; white-space: pre;">1.54%</text></g><g class="textpoint" transform="translate(0,3.75)"><text x="643.79" y="278.63" text-anchor="middle" style="font-family: 'Dorid Sans'; font-size: 15px; fill: rgb(0, 0, 0); fill-opacity: 1; white-space: pre;">0.00%</text></g></g></g></g></g><g class="overplot"/><path class="xlines-above crisp" d="" style="fill: none; stroke-width: 1px; stroke: rgb(0, 0, 0); stroke-opacity: 0;"/><path class="ylines-above crisp" d="" style="fill: none; stroke-width: 1px; stroke: rgb(0, 0, 0); stroke-opacity: 0;"/><g class="overlines-above"/><g class="xaxislayer-above"><path class="xtick ticks crisp" d="M0,421v3.65" transform="translate(104.28999999999999,0)" style="stroke: rgb(68, 68, 68); stroke-opacity: 1; stroke-width: 0.66px;"/><path class="xtick ticks crisp" d="M0,421v3.65" transform="translate(144.78,0)" style="stroke: rgb(68, 68, 68); stroke-opacity: 1; stroke-width: 0.66px;"/><path class="xtick ticks crisp" d="M0,421v3.65" transform="translate(185.26999999999998,0)" style="stroke: rgb(68, 68, 68); stroke-opacity: 1; stroke-width: 0.66px;"/><path class="xtick ticks crisp" d="M0,421v3.65" transform="translate(225.76,0)" style="stroke: rgb(68, 68, 68); stroke-opacity: 1; stroke-width: 0.66px;"/><path class="xtick ticks crisp" d="M0,421v3.65" transform="translate(266.25,0)" style="stroke: rgb(68, 68, 68); stroke-opacity: 1; stroke-width: 0.66px;"/><path class="xtick ticks crisp" d="M0,421v3.65" transform="translate(306.75,0)" style="stroke: rgb(68, 68, 68); stroke-opacity: 1; stroke-width: 0.66px;"/><path class="xtick ticks crisp" d="M0,421v3.65" transform="translate(347.24,0)" style="stroke: rgb(68, 68, 68); stroke-opacity: 1; stroke-width: 0.66px;"/><path class="xtick ticks crisp" d="M0,421v3.65" transform="translate(387.73,0)" style="stroke: rgb(68, 68, 68); stroke-opacity: 1; stroke-width: 0.66px;"/><path class="xtick ticks crisp" d="M0,421v3.65" transform="translate(428.22,0)" style="stroke: rgb(68, 68, 68); stroke-opacity: 1; stroke-width: 0.66px;"/><path class="xtick ticks crisp" d="M0,421v3.65" transform="translate(468.71,0)" style="stroke: rgb(68, 68, 68); stroke-opacity: 1; stroke-width: 0.66px;"/><g class="xtick"><text text-anchor="middle" x="0" y="442.65" transform="translate(104.28999999999999,0)" style="font-family: 'Dorid Sans'; font-size: 15px; fill: rgb(0, 0, 0); fill-opacity: 1; white-space: pre;">1</text></g><g class="xtick"><text text-anchor="middle" x="0" y="442.65" transform="translate(144.78,0)" style="font-family: 'Dorid Sans'; font-size: 15px; fill: rgb(0, 0, 0); fill-opacity: 1; white-space: pre;">2</text></g><g class="xtick"><text text-anchor="middle" x="0" y="442.65" transform="translate(185.26999999999998,0)" style="font-family: 'Dorid Sans'; font-size: 15px; fill: rgb(0, 0, 0); fill-opacity: 1; white-space: pre;">3</text></g><g class="xtick"><text text-anchor="middle" x="0" y="442.65" transform="translate(225.76,0)" style="font-family: 'Dorid Sans'; font-size: 15px; fill: rgb(0, 0, 0); fill-opacity: 1; white-space: pre;">4</text></g><g class="xtick"><text text-anchor="middle" x="0" y="442.65" transform="translate(266.25,0)" style="font-family: 'Dorid Sans'; font-size: 15px; fill: rgb(0, 0, 0); fill-opacity: 1; white-space: pre;">5</text></g><g class="xtick"><text text-anchor="middle" x="0" y="442.65" transform="translate(306.75,0)" style="font-family: 'Dorid Sans'; font-size: 15px; fill: rgb(0, 0, 0); fill-opacity: 1; white-space: pre;">6</text></g><g class="xtick"><text text-anchor="middle" x="0" y="442.65" transform="translate(347.24,0)" style="font-family: 'Dorid Sans'; font-size: 15px; fill: rgb(0, 0, 0); fill-opacity: 1; white-space: pre;">7</text></g><g class="xtick"><text text-anchor="middle" x="0" y="442.65" transform="translate(387.73,0)" style="font-family: 'Dorid Sans'; font-size: 15px; fill: rgb(0, 0, 0); fill-opacity: 1; white-space: pre;">8</text></g><g class="xtick"><text text-anchor="middle" x="0" y="442.65" transform="translate(428.22,0)" style="font-family: 'Dorid Sans'; font-size: 15px; fill: rgb(0, 0, 0); fill-opacity: 1; white-space: pre;">9</text></g><g class="xtick"><text text-anchor="middle" x="0" y="442.65" transform="translate(468.71,0)" style="font-family: 'Dorid Sans'; font-size: 15px; fill: rgb(0, 0, 0); fill-opacity: 1; white-space: pre;">10</text></g></g><g class="yaxislayer-above"><path class="ytick ticks crisp" d="M79,0h-3.65" transform="translate(0,399.57)" style="stroke: rgb(0, 0, 0); stroke-opacity: 1; stroke-width: 0.66px;"/><path class="ytick ticks crisp" d="M79,0h-3.65" transform="translate(0,347.2)" style="stroke: rgb(0, 0, 0); stroke-opacity: 1; stroke-width: 0.66px;"/><path class="ytick ticks crisp" d="M79,0h-3.65" transform="translate(0,294.83000000000004)" style="stroke: rgb(0, 0, 0); stroke-opacity: 1; stroke-width: 0.66px;"/><path class="ytick ticks crisp" d="M79,0h-3.65" transform="translate(0,242.45)" style="stroke: rgb(0, 0, 0); stroke-opacity: 1; stroke-width: 0.66px;"/><path class="ytick ticks crisp" d="M79,0h-3.65" transform="translate(0,190.07999999999998)" style="stroke: rgb(0, 0, 0); stroke-opacity: 1; stroke-width: 0.66px;"/><path class="ytick ticks crisp" d="M79,0h-3.65" transform="translate(0,137.71)" style="stroke: rgb(0, 0, 0); stroke-opacity: 1; stroke-width: 0.66px;"/><g class="ytick"><text text-anchor="end" x="72.35" y="5.25" transform="translate(0,399.57)" style="font-family: 'Dorid Sans'; font-size: 15px; fill: rgb(0, 0, 0); fill-opacity: 1; white-space: pre;">0</text></g><g class="ytick"><text text-anchor="end" x="72.35" y="5.25" transform="translate(0,347.2)" style="font-family: 'Dorid Sans'; font-size: 15px; fill: rgb(0, 0, 0); fill-opacity: 1; white-space: pre;">0.05</text></g><g class="ytick"><text text-anchor="end" x="72.35" y="5.25" transform="translate(0,294.83000000000004)" style="font-family: 'Dorid Sans'; font-size: 15px; fill: rgb(0, 0, 0); fill-opacity: 1; white-space: pre;">0.1</text></g><g class="ytick"><text text-anchor="end" x="72.35" y="5.25" transform="translate(0,242.45)" style="font-family: 'Dorid Sans'; font-size: 15px; fill: rgb(0, 0, 0); fill-opacity: 1; white-space: pre;">0.15</text></g><g class="ytick"><text text-anchor="end" x="72.35" y="5.25" transform="translate(0,190.07999999999998)" style="font-family: 'Dorid Sans'; font-size: 15px; fill: rgb(0, 0, 0); fill-opacity: 1; white-space: pre;">0.2</text></g><g class="ytick"><text text-anchor="end" x="72.35" y="5.25" transform="translate(0,137.71)" style="font-family: 'Dorid Sans'; font-size: 15px; fill: rgb(0, 0, 0); fill-opacity: 1; white-space: pre;">0.25</text></g></g><g class="overaxes-above"/></g></g><g class="polarlayer"/><g class="ternarylayer"/><g class="geolayer"/><g class="pielayer"/><g class="sunburstlayer"/><g class="glimages"/><defs id="topdefs-9806b5"><g class="clips"/><clipPath id="legend9806b5"><rect width="187" height="37" x="0" y="0"/></clipPath></defs><g class="layer-above"><g class="imagelayer"/><g class="shapelayer"><path data-index="0" fill-rule="evenodd" d="M80,420H493V100H80Z" style="opacity: 1; stroke: rgb(0, 0, 0); stroke-opacity: 1; fill: rgb(0, 0, 0); fill-opacity: 0; stroke-width: 1px;"/></g></g><g class="infolayer"><g class="legend" pointer-events="all" transform="translate(501.26, 100)"><rect class="bg" shape-rendering="crispEdges" style="stroke: rgb(68, 68, 68); stroke-opacity: 1; fill: rgb(255, 255, 255); fill-opacity: 1; stroke-width: 0px;" width="187" height="37" x="0" y="0"/><g class="scrollbox" transform="translate(0, 0)" clip-path="url(#legend9806b5)"><g class="groups"><g class="traces" transform="translate(0, 18.200000000000003)" style="opacity: 1;"><text class="legendtext user-select-none" text-anchor="start" x="40" y="7.0200000000000005" style="font-family: 'Dorid Sans'; font-size: 18px; fill: rgb(0, 0, 0); fill-opacity: 1; white-space: pre;">Variance Explained</text><g class="layers" style="opacity: 1;"><g class="legendfill"/><g class="legendlines"/><g class="legendsymbols"><g class="legendpoints"><path class="legendbar" d="M6,6H-6V-6H6Z" transform="translate(20,0)" style="stroke-width: 2px; fill: rgb(89, 181, 199); fill-opacity: 1; stroke: rgb(89, 181, 199); stroke-opacity: 1;"/></g></g></g><rect class="legendtoggle" pointer-events="all" x="0" y="-13.200000000000001" width="227" height="26.400000000000002" style="cursor: pointer; fill: rgb(0, 0, 0); fill-opacity: 0;"/></g></g></g><rect class="scrollbar" rx="20" ry="3" width="0" height="0" style="fill: rgb(128, 139, 164); fill-opacity: 1;" x="0" y="0"/></g><g class="g-gtitle"><text class="gtitle" x="350" y="50" text-anchor="middle" dy="0em" style="font-family: 'Dorid Sans'; font-size: 25px; fill: rgb(0, 0, 0); opacity: 1; font-weight: normal; white-space: pre;">Scree Plot</text></g><g class="g-xtitle"><text class="xtitle" x="286.5" y="484" text-anchor="middle" style="font-family: 'Dorid Sans'; font-size: 18px; fill: rgb(0, 0, 0); opacity: 1; font-weight: normal; white-space: pre;">Number of Principal Components</text></g><g class="g-ytitle"><text class="ytitle" transform="rotate(-90,34,260)" x="34" y="260" text-anchor="middle" style="font-family: 'Dorid Sans'; font-size: 18px; fill: rgb(0, 0, 0); opacity: 1; font-weight: normal; white-space: pre;">Percentage of Variance Explained</text></g></g></svg>