<svg class="main-svg" xmlns="http://www.w3.org/2000/svg" xmlns:xlink="http://www.w3.org/1999/xlink" width="700" height="600" style="" viewBox="0 0 700 600"><rect x="0" y="0" width="700" height="600" style="fill: rgb(255, 255, 255); fill-opacity: 1;"/><defs id="defs-2b278b"><g class="clips"><clipPath id="clip2b278bxyplot" class="plotclip"><rect width="620" height="480"/></clipPath><clipPath class="axesclip" id="clip2b278bx"><rect x="80" y="0" width="620" height="600"/></clipPath><clipPath class="axesclip" id="clip2b278by"><rect x="0" y="50" width="700" height="480"/></clipPath><clipPath class="axesclip" id="clip2b278bxy"><rect x="80" y="50" width="620" height="480"/></clipPath></g><g class="gradients"/></defs><g class="bglayer"/><g class="layer-below"><g class="imagelayer"/><g class="shapelayer"/></g><g class="cartesianlayer"><g class="subplot xy"><g class="layer-subplot"><g class="shapelayer"/><g class="imagelayer"/></g><g class="gridlayer"><g class="x"/><g class="y"><path class="ygrid crisp" transform="translate(0,502.25)" d="M80,0h620" style="stroke: rgb(153, 153, 153); stroke-opacity: 1; stroke-width: 1px;"/><path class="ygrid crisp" transform="translate(0,416.6)" d="M80,0h620" style="stroke: rgb(153, 153, 153); stroke-opacity: 1; stroke-width: 1px;"/><path class="ygrid crisp" transform="translate(0,330.95)" d="M80,0h620" style="stroke: rgb(153, 153, 153); stroke-opacity: 1; stroke-width: 1px;"/><path class="ygrid crisp" transform="translate(0,245.3)" d="M80,0h620" style="stroke: rgb(153, 153, 153); stroke-opacity: 1; stroke-width: 1px;"/><path class="ygrid crisp" transform="translate(0,159.65)" d="M80,0h620" style="stroke: rgb(153, 153, 153); stroke-opacity: 1; stroke-width: 1px;"/><path class="ygrid crisp" transform="translate(0,74)" d="M80,0h620" style="stroke: rgb(153, 153, 153); stroke-opacity: 1; stroke-width: 1px;"/></g></g><g class="zerolinelayer"/><path class="xlines-below"/><path class="ylines-below"/><g class="overlines-below"/><g class="xaxislayer-below"/><g class="yaxislayer-below"/><g class="overaxes-below"/><g class="plot" transform="translate(80, 50)" clip-path="url('#clip2b278bxyplot')"><g class="scatterlayer mlayer"><g class="trace scatter tracef31b2e" style="stroke-miterlimit: 2; opacity: 1;"><g class="fills"/><g class="errorbars"/><g class="lines"/><g class="points"><path class="point" transform="translate(0,452.25)" d="M3,0A3,3 0 1,1 0,-3A3,3 0 0,1 3,0Z" style="opacity: 1; stroke-width: 0px; fill: rgb(0, 0, 0); fill-opacity: 0;"/></g><g class="text"/></g><g class="trace scatter trace3866d5" style="stroke-miterlimit: 2; opacity: 1;"><g class="fills"/><g class="errorbars"/><g class="lines"><path class="js-line" d="M11.45,451.67Q11.62,451.28 11.73,451.09C11.84,450.89 11.99,450.7 12.12,450.51C12.25,450.32 12.42,450.14 12.52,449.94C12.62,449.75 12.65,449.55 12.73,449.36C12.81,449.17 12.91,448.98 12.98,448.78C13.05,448.59 13.08,448.39 13.17,448.2C13.26,448 13.45,447.82 13.54,447.62C13.62,447.43 13.58,447.22 13.68,447.04C13.8,446.83 14.14,446.67 14.28,446.46C14.4,446.28 14.47,446.08 14.52,445.88C14.57,445.69 14.56,445.5 14.6,445.31C14.64,445.12 14.72,444.92 14.75,444.73C14.78,444.54 14.78,444.34 14.79,444.15C14.81,443.96 14.75,443.75 14.84,443.57C14.95,443.35 15.39,443.21 15.5,442.99C15.59,442.81 15.53,442.6 15.55,442.41C15.56,442.22 15.55,442.02 15.59,441.83C15.63,441.63 15.72,441.44 15.79,441.25C15.86,441.06 15.9,440.86 16,440.68C16.1,440.48 16.32,440.3 16.4,440.1C16.48,439.91 16.46,439.71 16.5,439.52C16.55,439.33 16.61,439.13 16.67,438.94C16.72,438.75 16.78,438.55 16.83,438.36C16.88,438.17 16.91,437.97 16.95,437.78C17,437.59 17.06,437.39 17.1,437.2C17.14,437.01 17.17,436.81 17.19,436.62C17.21,436.43 17.18,436.24 17.2,436.05C17.22,435.86 17.24,435.66 17.3,435.47C17.36,435.27 17.5,435.09 17.55,434.89C17.59,434.7 17.55,434.5 17.58,434.31C17.61,434.11 17.73,433.93 17.76,433.73C17.79,433.54 17.72,433.34 17.77,433.15C17.82,432.95 18.01,432.77 18.06,432.57C18.11,432.38 18.04,432.18 18.07,431.99C18.1,431.8 18.17,431.61 18.22,431.42C18.28,431.23 18.34,431.03 18.4,430.84C18.46,430.65 18.49,430.45 18.56,430.26C18.63,430.06 18.75,429.88 18.82,429.68C18.89,429.49 18.86,429.28 18.97,429.1C19.11,428.88 19.55,428.74 19.66,428.52C19.75,428.34 19.69,428.13 19.71,427.94C19.73,427.75 19.74,427.56 19.76,427.37C19.78,427.18 19.77,426.98 19.83,426.79C19.89,426.59 20.04,426.41 20.11,426.21C20.18,426.02 20.22,425.82 20.25,425.63C20.28,425.44 20.19,425.22 20.3,425.05C20.46,424.81 21.07,424.69 21.33,424.47C21.54,424.29 21.66,424.09 21.8,423.89C21.93,423.7 22.05,423.51 22.15,423.31C22.25,423.12 22.37,422.94 22.42,422.74C22.47,422.55 22.4,422.35 22.45,422.16C22.5,421.96 22.66,421.78 22.72,421.58C22.77,421.39 22.77,421.19 22.79,421C22.81,420.81 22.81,420.61 22.86,420.42C22.91,420.22 23.03,420.04 23.09,419.84C23.15,419.65 23.21,419.45 23.23,419.26C23.25,419.07 23.2,418.87 23.23,418.68C23.26,418.49 23.34,418.3 23.39,418.11C23.43,417.92 23.46,417.72 23.5,417.53C23.54,417.34 23.6,417.14 23.63,416.95C23.66,416.76 23.69,416.56 23.7,416.37C23.71,416.18 23.66,415.98 23.72,415.79C23.78,415.59 24.03,415.41 24.09,415.21C24.15,415.02 24.1,414.82 24.12,414.63C24.14,414.44 24.13,414.23 24.22,414.05C24.32,413.84 24.61,413.68 24.72,413.48C24.82,413.3 24.84,413.09 24.89,412.9C24.94,412.71 24.99,412.51 25.01,412.32C25.03,412.13 24.98,411.93 25.01,411.74C25.04,411.54 25.15,411.36 25.18,411.16C25.21,410.97 25.21,410.77 25.22,410.58C25.23,410.39 25.23,410.19 25.23,410C25.23,409.81 25.21,409.62 25.24,409.43C25.27,409.24 25.36,409.04 25.39,408.85C25.42,408.66 25.38,408.46 25.4,408.27C25.42,408.08 25.47,407.88 25.49,407.69C25.51,407.5 25.51,407.3 25.53,407.11C25.55,406.92 25.58,406.72 25.63,406.53C25.69,406.33 25.82,406.15 25.86,405.95C25.9,405.76 25.84,405.56 25.87,405.37C25.9,405.18 25.99,404.99 26.02,404.8C26.05,404.61 26.01,404.41 26.04,404.22C26.07,404.02 26.11,403.82 26.21,403.64C26.33,403.43 26.64,403.27 26.75,403.06C26.85,402.88 26.83,402.67 26.88,402.48C26.93,402.29 27,402.09 27.03,401.9C27.06,401.71 27.05,401.51 27.07,401.32C27.09,401.13 27.12,400.93 27.15,400.74C27.18,400.55 27.2,400.36 27.23,400.17C27.26,399.98 27.33,399.78 27.35,399.59C27.37,399.4 27.35,399.2 27.37,399.01C27.39,398.82 27.43,398.62 27.48,398.43C27.53,398.23 27.64,398.05 27.69,397.85C27.74,397.66 27.74,397.46 27.76,397.27C27.78,397.08 27.78,396.88 27.8,396.69C27.82,396.5 27.81,396.3 27.88,396.11C27.95,395.91 28.16,395.74 28.22,395.54C28.27,395.35 28.23,395.15 28.24,394.96C28.25,394.77 28.29,394.57 28.31,394.38C28.33,394.19 28.36,393.99 28.37,393.8C28.38,393.61 28.33,393.41 28.37,393.22C28.42,393.02 28.6,392.84 28.65,392.64C28.7,392.45 28.58,392.23 28.67,392.06C28.79,391.83 29.36,391.71 29.49,391.48C29.58,391.31 29.51,391.1 29.52,390.91C29.53,390.72 29.51,390.52 29.57,390.33C29.63,390.13 29.83,389.95 29.89,389.75C29.95,389.56 29.92,389.36 29.96,389.17C30,388.98 30.07,388.78 30.11,388.59C30.15,388.4 30.13,388.2 30.19,388.01C30.26,387.81 30.47,387.63 30.53,387.43C30.59,387.25 30.56,387.05 30.58,386.86C30.6,386.67 30.63,386.47 30.65,386.28C30.67,386.09 30.68,385.89 30.7,385.7C30.73,385.51 30.75,385.31 30.8,385.12C30.85,384.92 30.87,384.71 31.02,384.54C31.23,384.3 31.91,384.2 32.08,383.96C32.2,383.79 32.14,383.57 32.17,383.38C32.19,383.19 32.19,382.99 32.23,382.8C32.27,382.61 32.36,382.42 32.39,382.23C32.42,382.04 32.41,381.84 32.42,381.65C32.43,381.46 32.43,381.26 32.44,381.07C32.45,380.88 32.41,380.68 32.46,380.49C32.51,380.29 32.72,380.11 32.77,379.91C32.82,379.72 32.76,379.52 32.79,379.33C32.82,379.14 32.91,378.94 32.94,378.75C32.97,378.56 32.94,378.36 32.96,378.17C32.98,377.98 33.01,377.79 33.04,377.6C33.07,377.41 33.08,377.21 33.15,377.02C33.23,376.82 33.41,376.64 33.51,376.44C33.61,376.25 33.64,376.05 33.74,375.86C33.84,375.66 34,375.48 34.12,375.28C34.23,375.09 34.35,374.9 34.43,374.7C34.51,374.51 34.53,374.31 34.6,374.12C34.67,373.92 34.79,373.74 34.85,373.54C34.91,373.35 34.92,373.16 34.95,372.97C34.98,372.78 34.99,372.58 35.02,372.39C35.05,372.2 35.08,372 35.12,371.81C35.16,371.62 35.21,371.42 35.27,371.23C35.33,371.04 35.36,370.83 35.47,370.65C35.59,370.44 35.91,370.28 36,370.07C36.08,369.89 35.94,369.67 36.03,369.49C36.13,369.27 36.56,369.12 36.68,368.91C36.78,368.73 36.78,368.53 36.8,368.34C36.82,368.15 36.77,367.95 36.8,367.76C36.83,367.56 36.93,367.38 36.96,367.18C36.99,366.99 36.97,366.79 36.98,366.6C36.98,366.41 36.93,366.2 36.99,366.02C37.06,365.82 37.3,365.64 37.41,365.44C37.51,365.25 37.55,365.05 37.63,364.86C37.71,364.67 37.83,364.48 37.9,364.29C37.96,364.1 37.98,363.9 38.02,363.71C38.06,363.52 38.04,363.31 38.14,363.13C38.27,362.91 38.72,362.77 38.82,362.55C38.9,362.37 38.83,362.16 38.83,361.97C38.83,361.78 38.83,361.58 38.84,361.39C38.85,361.2 38.87,361 38.91,360.81C38.95,360.62 39,360.42 39.06,360.23C39.12,360.04 39.24,359.85 39.28,359.66C39.32,359.47 39.27,359.27 39.29,359.08C39.31,358.89 39.36,358.69 39.4,358.5C39.43,358.31 39.38,358.09 39.5,357.92C39.67,357.68 40.3,357.57 40.52,357.34C40.69,357.17 40.78,356.96 40.83,356.76C40.88,356.57 40.79,356.37 40.84,356.18C40.9,355.98 41.02,355.78 41.18,355.6C41.37,355.39 41.69,355.23 41.92,355.03C42.13,354.84 42.34,354.65 42.5,354.45C42.64,354.27 42.73,354.07 42.84,353.87C42.94,353.68 43.06,353.49 43.13,353.29C43.19,353.1 43.15,352.89 43.24,352.71C43.34,352.5 43.6,352.33 43.73,352.13C43.84,351.94 43.9,351.74 43.98,351.55C44.07,351.36 44.15,351.16 44.24,350.97C44.32,350.78 44.44,350.6 44.49,350.4C44.54,350.21 44.51,350.01 44.53,349.82C44.55,349.63 44.56,349.43 44.59,349.24C44.62,349.05 44.57,348.83 44.7,348.66C44.91,348.4 45.72,348.32 46.02,348.08C46.23,347.91 46.37,347.7 46.44,347.5C46.5,347.32 46.41,347.11 46.46,346.92C46.51,346.72 46.66,346.53 46.77,346.34C46.88,346.15 47.01,345.96 47.12,345.77C47.23,345.58 47.33,345.38 47.43,345.19C47.53,345 47.68,344.81 47.73,344.61C47.78,344.42 47.74,344.22 47.75,344.03C47.76,343.84 47.76,343.64 47.77,343.45C47.78,343.26 47.72,343.05 47.79,342.87C47.88,342.66 48.16,342.49 48.33,342.29C48.49,342.1 48.64,341.91 48.78,341.72C48.92,341.53 49.1,341.34 49.18,341.14C49.26,340.95 49.24,340.75 49.28,340.56C49.33,340.37 49.41,340.18 49.45,339.98C49.49,339.79 49.42,339.57 49.52,339.4C49.65,339.18 50.12,339.04 50.28,338.82C50.41,338.64 50.42,338.43 50.49,338.24C50.56,338.05 50.63,337.85 50.71,337.66C50.78,337.47 50.9,337.28 50.94,337.09C50.98,336.9 50.89,336.7 50.95,336.51C51.01,336.31 51.27,336.13 51.33,335.93C51.39,335.74 51.23,335.51 51.35,335.35C51.54,335.08 52.56,335.03 52.82,334.77C52.98,334.6 52.94,334.38 53.04,334.19C53.14,333.99 53.36,333.81 53.44,333.61C53.51,333.42 53.45,333.21 53.53,333.03C53.62,332.83 53.92,332.66 54.01,332.46C54.09,332.28 54.05,332.07 54.09,331.88C54.13,331.69 54.2,331.49 54.23,331.3C54.26,331.11 54.26,330.91 54.27,330.72C54.28,330.53 54.26,330.33 54.3,330.14C54.34,329.94 54.45,329.76 54.5,329.56C54.55,329.37 54.55,329.17 54.59,328.98C54.63,328.79 54.71,328.59 54.74,328.4C54.77,328.21 54.68,328 54.77,327.83C54.9,327.6 55.42,327.47 55.6,327.25C55.75,327.07 55.76,326.86 55.86,326.67C55.96,326.47 56.1,326.28 56.22,326.09C56.34,325.9 56.52,325.71 56.6,325.51C56.67,325.32 56.68,325.12 56.69,324.93C56.7,324.74 56.63,324.53 56.69,324.35C56.76,324.14 57.02,323.97 57.15,323.77C57.27,323.58 57.4,323.4 57.47,323.2C57.54,323.01 57.5,322.81 57.58,322.62C57.66,322.42 57.8,322.22 57.96,322.04C58.14,321.83 58.47,321.67 58.65,321.46C58.8,321.28 58.84,321.06 58.99,320.88C59.17,320.67 59.51,320.51 59.68,320.3C59.82,320.12 59.88,319.91 59.97,319.72C60.06,319.53 60.06,319.32 60.22,319.15C60.46,318.9 61.32,318.83 61.49,318.57C61.6,318.4 61.49,318.18 61.5,317.99C61.51,317.8 61.52,317.6 61.54,317.41C61.56,317.22 61.56,317.02 61.64,316.83C61.72,316.63 61.93,316.45 62.04,316.25C62.15,316.06 62.12,315.83 62.3,315.67C62.6,315.4 63.71,315.37 63.96,315.09C64.1,314.93 64.02,314.71 64.09,314.52C64.16,314.32 64.25,314.12 64.39,313.94C64.56,313.73 64.85,313.55 65.08,313.36C65.3,313.17 65.53,312.98 65.74,312.78C65.94,312.59 66.21,312.41 66.3,312.2C66.38,312.02 66.28,311.81 66.33,311.62C66.39,311.42 66.56,311.23 66.66,311.04C66.76,310.85 66.83,310.65 66.95,310.46C67.08,310.26 67.31,310.09 67.41,309.89C67.5,309.71 67.5,309.5 67.53,309.31C67.56,309.12 67.53,308.92 67.59,308.73C67.66,308.53 67.86,308.35 67.94,308.15C68.01,307.96 68.04,307.76 68.06,307.57C68.08,307.38 68.07,307.18 68.08,306.99C68.09,306.8 68.05,306.6 68.1,306.41C68.16,306.21 68.28,306.01 68.42,305.83C68.58,305.63 68.83,305.46 69.01,305.26C69.19,305.07 69.39,304.89 69.5,304.68C69.59,304.5 69.56,304.28 69.65,304.1C69.75,303.89 69.96,303.71 70.12,303.52C70.28,303.32 70.4,303.11 70.63,302.94C70.94,302.71 71.52,302.57 71.9,302.36C72.23,302.18 72.55,302 72.77,301.78C72.95,301.6 73.08,301.41 73.16,301.21C73.23,301.03 73.14,300.81 73.24,300.63C73.36,300.41 73.76,300.26 73.9,300.05C74.02,299.87 74.05,299.67 74.08,299.47C74.11,299.28 74.04,299.07 74.11,298.89C74.18,298.68 74.4,298.5 74.54,298.31C74.68,298.12 74.86,297.93 74.93,297.73C74.99,297.54 74.87,297.32 74.97,297.15C75.1,296.92 75.67,296.81 75.81,296.58C75.92,296.41 75.78,296.17 75.9,296C76.07,295.76 76.62,295.61 76.98,295.42C77.34,295.23 77.79,295.07 78.04,294.84C78.23,294.67 78.29,294.45 78.45,294.26C78.62,294.06 78.78,293.86 79.02,293.68C79.31,293.46 79.95,293.35 80.1,293.1C80.2,292.93 80.1,292.71 80.12,292.52C80.14,292.33 80.07,292.11 80.21,291.95C80.46,291.66 81.76,291.66 82.06,291.37C82.23,291.21 82.13,290.97 82.26,290.79C82.42,290.57 82.91,290.44 83.06,290.21C83.17,290.04 83.07,289.8 83.18,289.63C83.32,289.41 83.76,289.26 83.97,289.05C84.14,288.87 84.26,288.67 84.37,288.47C84.47,288.28 84.56,288.09 84.6,287.89C84.64,287.7 84.57,287.5 84.63,287.32C84.7,287.12 84.9,286.93 85.03,286.74C85.16,286.55 85.35,286.36 85.43,286.16C85.5,285.97 85.48,285.77 85.52,285.58C85.56,285.39 85.65,285.19 85.67,285C85.69,284.81 85.56,284.59 85.67,284.42C85.85,284.16 86.6,284.04 87.04,283.84C87.45,283.65 87.95,283.5 88.21,283.26C88.39,283.09 88.47,282.89 88.55,282.69C88.62,282.5 88.54,282.28 88.66,282.11C88.83,281.87 89.54,281.77 89.69,281.53C89.8,281.36 89.7,281.14 89.73,280.95C89.76,280.76 89.76,280.55 89.87,280.37C90,280.15 90.26,279.97 90.54,279.79C90.89,279.57 91.48,279.43 91.84,279.21C92.13,279.04 92.37,278.85 92.56,278.64C92.72,278.46 92.76,278.24 92.93,278.06C93.14,277.84 93.59,277.7 93.77,277.48C93.91,277.31 93.91,277.09 93.99,276.9C94.07,276.71 94.14,276.5 94.26,276.32C94.4,276.12 94.7,275.95 94.79,275.74C94.87,275.56 94.75,275.34 94.82,275.16C94.91,274.95 95.07,274.74 95.34,274.58C95.79,274.3 97.19,274.32 97.49,274.01C97.64,273.85 97.57,273.62 97.62,273.43C97.67,273.24 97.65,273.02 97.78,272.85C97.95,272.62 98.41,272.47 98.71,272.27C99,272.08 99.32,271.9 99.55,271.69C99.74,271.51 99.91,271.31 100.01,271.11C100.1,270.93 100.05,270.7 100.17,270.53C100.33,270.3 100.67,270.13 101,269.95C101.4,269.73 102,269.59 102.42,269.38C102.77,269.2 103.15,269.03 103.36,268.8C103.52,268.63 103.49,268.39 103.66,268.22C103.88,267.99 104.3,267.82 104.67,267.64C105.09,267.43 105.79,267.31 106.07,267.06C106.25,266.89 106.19,266.64 106.38,266.48C106.69,266.21 107.68,266.16 108.02,265.9C108.24,265.73 108.32,265.52 108.43,265.32C108.53,265.14 108.54,264.93 108.65,264.75C108.77,264.55 108.95,264.35 109.14,264.17C109.36,263.96 109.79,263.81 109.9,263.59C109.99,263.42 109.87,263.2 109.91,263.01C109.95,262.81 110.05,262.62 110.15,262.43C110.25,262.23 110.4,262.05 110.5,261.85C110.59,261.66 110.59,261.45 110.72,261.27C110.87,261.06 111.11,260.86 111.39,260.69C111.74,260.47 112.29,260.32 112.72,260.12C113.13,259.93 113.49,259.73 113.9,259.54C114.34,259.34 114.75,259.13 115.3,258.96C116.04,258.73 117.64,258.73 117.98,258.38C118.14,258.22 117.95,257.96 118.09,257.8C118.32,257.53 119.42,257.5 119.64,257.22C119.77,257.06 119.65,256.83 119.71,256.64C119.77,256.44 119.89,256.26 120.01,256.07C120.14,255.87 120.37,255.7 120.46,255.49C120.54,255.31 120.51,255.1 120.57,254.91C120.63,254.71 120.7,254.51 120.82,254.33C120.95,254.13 121.13,253.93 121.34,253.75C121.6,253.54 122.05,253.39 122.28,253.17C122.47,252.99 122.57,252.79 122.68,252.59C122.78,252.4 122.8,252.19 122.91,252.01C123.03,251.81 123.29,251.64 123.37,251.44C123.45,251.26 123.37,251.05 123.43,250.86C123.49,250.66 123.64,250.48 123.73,250.28C123.81,250.09 123.81,249.87 123.94,249.7C124.11,249.48 124.57,249.34 124.76,249.12C124.91,248.94 124.97,248.74 125.06,248.54C125.15,248.35 125.23,248.15 125.3,247.96C125.37,247.77 125.36,247.55 125.5,247.38C125.68,247.15 126.22,247.04 126.38,246.81C126.5,246.64 126.41,246.4 126.53,246.23C126.69,246 127.1,245.85 127.36,245.65C127.6,245.46 127.72,245.24 128.02,245.07C128.46,244.82 129.53,244.78 129.83,244.49C130,244.33 129.97,244.1 130.04,243.91C130.11,243.72 130.2,243.53 130.25,243.33C130.3,243.14 130.24,242.92 130.35,242.75C130.49,242.53 130.91,242.39 131.11,242.18C131.28,242 131.29,241.77 131.49,241.6C131.78,241.36 132.54,241.27 132.81,241.02C133,240.85 133.03,240.63 133.14,240.44C133.25,240.25 133.27,240.03 133.46,239.86C133.74,239.61 134.54,239.53 134.85,239.28C135.06,239.11 135.18,238.9 135.26,238.7C135.33,238.52 135.25,238.31 135.33,238.13C135.43,237.92 135.61,237.72 135.88,237.55C136.31,237.29 137.57,237.27 137.81,236.97C137.94,236.81 137.7,236.55 137.85,236.39C138.23,235.98 141.06,236.19 141.61,235.81C141.84,235.65 141.8,235.42 141.93,235.23C142.08,235.03 142.28,234.84 142.46,234.65C142.64,234.46 142.87,234.28 143,234.07C143.11,233.89 143.05,233.66 143.21,233.5C143.46,233.24 144.07,233.1 144.59,232.92C145.24,232.7 146.26,232.58 146.84,232.34C147.24,232.17 147.58,231.98 147.8,231.76C147.97,231.59 148.07,231.38 148.15,231.18C148.22,230.99 148.18,230.78 148.27,230.6C148.37,230.39 148.56,230.21 148.74,230.02C148.94,229.82 149.11,229.61 149.43,229.44C149.92,229.18 150.78,229.05 151.53,228.87C152.4,228.66 154.03,228.65 154.34,228.29C154.48,228.13 154.32,227.9 154.38,227.71C154.44,227.51 154.53,227.3 154.73,227.13C155.05,226.87 155.81,226.75 156.31,226.55C156.77,226.36 157.19,226.17 157.6,225.97C157.98,225.78 158.35,225.59 158.68,225.39C158.98,225.21 159.08,224.97 159.51,224.81C160.48,224.45 163.62,224.55 164.75,224.24C165.33,224.08 165.8,223.91 166.01,223.66C166.15,223.49 165.99,223.24 166.16,223.08C166.53,222.73 168.49,222.82 169.01,222.5C169.27,222.34 169.36,222.12 169.46,221.92C169.55,221.74 169.43,221.5 169.61,221.34C170.06,220.93 172.76,221.11 173.47,220.76C173.8,220.6 173.81,220.35 174.08,220.18C174.44,219.95 175.29,219.87 175.53,219.61C175.68,219.45 175.64,219.22 175.69,219.03C175.73,218.84 175.68,218.62 175.8,218.45C175.97,218.21 176.62,218.11 176.81,217.87C176.95,217.7 176.89,217.47 177.01,217.29C177.16,217.07 177.42,216.89 177.7,216.71C178.04,216.49 178.48,216.31 178.94,216.13C179.48,215.92 180.15,215.76 180.73,215.56C181.28,215.37 181.93,215.22 182.33,214.98C182.62,214.81 182.75,214.59 182.98,214.4C183.22,214.2 183.5,214.02 183.72,213.82C183.93,213.63 183.98,213.4 184.29,213.24C184.91,212.91 187.06,213.01 187.58,212.66C187.82,212.5 187.87,212.28 187.94,212.08C188.01,211.89 187.87,211.66 188.03,211.5C188.39,211.13 190.32,211.16 191.19,210.93C191.82,210.76 192.4,210.59 192.79,210.35C193.07,210.18 193.1,209.93 193.42,209.77C194.04,209.46 196.16,209.56 196.51,209.19C196.66,209.03 196.48,208.79 196.58,208.61C196.7,208.39 196.99,208.2 197.28,208.03C197.66,207.8 198.25,207.64 198.74,207.45C199.22,207.26 199.57,207.03 200.19,206.87C201.22,206.6 203.46,206.59 204.41,206.3C204.93,206.14 205.3,205.96 205.56,205.72C205.75,205.55 205.7,205.3 205.92,205.14C206.31,204.85 207.53,204.82 208.02,204.56C208.34,204.39 208.57,204.2 208.71,203.98C208.82,203.8 208.81,203.59 208.86,203.4C208.91,203.21 208.85,202.98 209.02,202.82C209.4,202.47 210.95,202.44 211.89,202.24C212.79,202.05 213.72,201.88 214.54,201.67C215.27,201.49 216.21,201.38 216.58,201.09C216.79,200.93 216.69,200.67 216.91,200.51C217.35,200.19 218.58,200.11 219.56,199.93C220.78,199.71 222.35,199.55 223.68,199.35C224.93,199.16 226.72,199.13 227.31,198.77C227.57,198.61 227.59,198.38 227.73,198.19C227.87,198 228.05,197.81 228.13,197.61C228.2,197.43 228.11,197.21 228.21,197.04C228.34,196.82 228.88,196.69 229,196.46C229.09,196.29 228.88,196.04 229.02,195.88C229.33,195.51 230.94,195.48 231.99,195.3C233.16,195.1 234.73,194.97 235.7,194.72C236.36,194.55 237.1,194.42 237.31,194.14C237.43,193.98 237.34,193.75 237.35,193.56C237.36,193.37 237.22,193.15 237.36,192.99C237.75,192.55 240.71,192.71 241.66,192.41C242.17,192.25 242.3,192 242.77,191.83C243.48,191.58 244.57,191.43 245.56,191.25C246.69,191.04 248.67,191.05 249.21,190.67C249.44,190.51 249.33,190.25 249.54,190.09C249.95,189.78 251.16,189.71 251.91,189.51C252.6,189.32 253.6,189.23 253.87,188.93C254.01,188.77 253.86,188.53 253.97,188.36C254.12,188.13 254.61,187.99 254.85,187.78C255.05,187.6 255.22,187.4 255.34,187.2C255.45,187.02 255.34,186.78 255.55,186.62C256.32,186.04 262.44,186.58 263.37,186.04C263.65,185.88 263.69,185.66 263.76,185.46C263.83,185.27 263.66,185.04 263.81,184.88C264.18,184.48 266.77,184.65 267.36,184.3C267.62,184.14 267.72,183.93 267.8,183.73C267.87,183.55 267.74,183.32 267.85,183.15C268,182.91 268.32,182.73 268.79,182.57C269.84,182.21 273.72,182.48 274.31,181.99C274.51,181.83 274.32,181.57 274.49,181.41C274.83,181.09 276.12,181.04 276.84,180.83C277.47,180.65 278.02,180.45 278.58,180.25C279.1,180.06 279.84,179.94 280.07,179.67C280.21,179.51 280.02,179.26 280.19,179.1C280.6,178.71 283.07,178.85 283.74,178.52C284.07,178.36 284.04,178.1 284.36,177.94C285.02,177.61 286.63,177.55 287.78,177.36C288.93,177.17 290.25,177 291.26,176.78C292.06,176.6 292.62,176.38 293.4,176.2C294.31,175.99 295.35,175.81 296.37,175.62C297.46,175.42 298.64,175.23 299.77,175.04C300.89,174.85 302.23,174.72 303.1,174.47C303.69,174.3 303.98,174.06 304.53,173.89C305.25,173.66 306.16,173.49 307.1,173.31C308.21,173.1 309.99,173.04 310.77,172.73C311.18,172.57 311.38,172.35 311.64,172.15C311.87,171.97 312.13,171.78 312.26,171.57C312.37,171.39 312.3,171.16 312.42,170.99C312.57,170.77 312.75,170.58 313.2,170.42C314.72,169.88 322.54,170.32 324.27,169.84C324.85,169.68 324.99,169.45 325.35,169.26C325.72,169.07 326.17,168.9 326.47,168.68C326.71,168.5 326.76,168.26 327.04,168.1C327.5,167.83 328.92,167.83 329.17,167.52C329.3,167.36 329.04,167.1 329.19,166.94C329.6,166.49 332.91,166.7 333.79,166.36C334.2,166.2 334.23,165.95 334.6,165.79C335.21,165.52 336.61,165.48 337.22,165.21C337.59,165.05 337.66,164.79 338.04,164.63C338.67,164.35 340.37,164.38 340.81,164.05C341.02,163.89 340.88,163.63 341.11,163.47C341.67,163.07 343.82,163.09 345.13,162.89C346.38,162.7 347.48,162.49 348.8,162.31C350.34,162.1 352.15,161.92 353.8,161.73C355.4,161.54 356.61,161.32 358.55,161.16C361.62,160.9 369.13,161.23 370.46,160.58C370.8,160.42 370.64,160.16 370.96,160C372.03,159.46 377.32,159.71 379.33,159.42C380.48,159.26 381.54,159.16 382.01,158.84C382.25,158.68 382.18,158.42 382.4,158.26C382.78,157.98 383.99,157.97 384.34,157.68C384.54,157.52 384.45,157.26 384.66,157.1C385.07,156.79 386.54,156.8 387.08,156.53C387.4,156.37 387.37,156.11 387.75,155.95C388.77,155.52 393.58,155.9 394.23,155.37C394.43,155.21 394.24,154.95 394.4,154.79C394.68,154.5 395.66,154.42 396.21,154.21C396.69,154.03 397.11,153.83 397.53,153.63C397.92,153.44 398.09,153.21 398.65,153.05C400.02,152.66 405.4,153.05 406.09,152.48C406.29,152.32 406.16,152.09 406.25,151.9C406.35,151.7 406.57,151.52 406.67,151.32C406.76,151.13 406.64,150.9 406.85,150.74C407.63,150.12 414.35,150.68 415.54,150.16C415.91,150 415.8,149.74 416.16,149.58C417.11,149.15 420.52,149.23 422.24,149C423.53,148.83 424.46,148.61 425.59,148.42C426.74,148.23 427.96,148.05 429.08,147.85C430.14,147.66 430.96,147.44 432.15,147.27C433.77,147.04 436.04,146.89 437.92,146.69C439.73,146.5 441.35,146.29 443.24,146.11C445.37,145.9 448.03,145.75 450.07,145.53C451.72,145.35 453.2,145.16 454.55,144.95C455.68,144.77 456.82,144.61 457.65,144.37C458.23,144.2 458.46,143.95 459.1,143.79C460.22,143.51 462.14,143.4 463.87,143.22C465.94,143.01 469.39,143.01 470.7,142.64C471.27,142.48 471.24,142.22 471.85,142.06C473.69,141.57 480.9,141.78 483.59,141.48C485.02,141.32 486.2,141.21 486.85,140.9C487.18,140.74 487.1,140.48 487.5,140.32C488.92,139.74 496.12,140.05 498.62,139.74C499.91,139.58 500.95,139.46 501.53,139.16C501.84,139 501.78,138.75 502.13,138.59C503.08,138.16 506.9,138.32 508.24,138.01C508.93,137.85 509.02,137.59 509.77,137.43C511.6,137.04 516.29,137.05 519.5,136.85C522.65,136.66 526.1,136.49 528.84,136.27C530.99,136.09 533.32,136 534.6,135.69C535.27,135.53 535.38,135.27 536.08,135.11C537.63,134.76 541.47,134.74 543.79,134.53C545.71,134.35 547.9,134.27 549.04,133.96C549.63,133.8 549.86,133.56 550.33,133.38C550.87,133.17 551.29,132.96 552.11,132.8C553.77,132.47 557.63,132.45 559.85,132.22C561.53,132.05 563.36,131.96 564.28,131.64C564.74,131.48 564.78,131.22 565.24,131.06C566.14,130.74 568.99,130.9 569.51,130.48C569.71,130.32 569.54,130.07 569.72,129.91C570.08,129.59 571.03,129.49 572.16,129.33C574.61,128.98 581.58,129.11 584,128.75C585.09,128.59 585.35,128.33 586.33,128.17C587.93,127.9 590.54,127.78 592.73,127.59C595.03,127.39 597.65,127.22 599.79,127.01C601.59,126.83 602.7,126.6 604.74,126.43C608.02,126.16 614,126.08 617.59,125.85C620.18,125.68 622.05,125.47 624.27,125.28C626.46,125.09 628.94,124.93 630.82,124.7C632.25,124.53 633.13,124.29 634.59,124.12C636.57,123.89 638.4,123.7 641.65,123.54C648.86,123.18 667.73,123.23 676.48,122.96C681.77,122.8 686.61,122.74 689.22,122.38C690.4,122.22 690.58,121.96 691.75,121.8C694.26,121.45 699.86,121.42 703.8,121.22C707.6,121.03 711.98,120.9 714.99,120.65C717.04,120.48 718.59,120.29 720.14,120.07C721.43,119.89 722.87,119.78 723.66,119.49C724.1,119.33 724.1,119.07 724.62,118.91C726.13,118.44 731.28,118.55 734.14,118.33C736.48,118.15 739.06,118.05 740.52,117.75C741.31,117.59 741.6,117.34 742.31,117.17C743.3,116.93 744.51,116.76 745.93,116.59C747.96,116.35 752.53,116.57 753.35,116.02C753.59,115.86 753.37,115.61 753.64,115.44C755.21,114.44 770.01,115.11 776.09,114.86C780.25,114.69 783.32,114.49 786.6,114.28C789.49,114.1 792.28,113.91 794.76,113.7C796.84,113.52 798.19,113.29 800.49,113.12C803.95,112.87 811.25,112.97 813.53,112.54C814.37,112.38 814.48,112.12 815.21,111.96C816.46,111.68 818.97,111.62 820.45,111.39C821.55,111.22 822.21,110.98 823.3,110.81C824.76,110.58 827.68,110.66 828.44,110.23C828.73,110.07 828.62,109.81 828.89,109.65C829.47,109.3 831.41,109.33 832.25,109.07C832.79,108.9 832.85,108.65 833.54,108.49C835.71,107.98 845.53,108.4 847.76,107.91C848.48,107.75 848.48,107.5 849.14,107.34C850.59,106.99 854.63,107.04 856.39,106.76C857.42,106.6 857.61,106.34 858.8,106.18C862,105.75 870.72,105.79 876.73,105.6C882.82,105.41 891.18,105.36 895.12,105.02C896.99,104.86 897.4,104.6 899.25,104.44C903,104.11 910.27,104.04 916.33,103.86C923.24,103.65 931.91,103.5 938.5,103.28C943.8,103.11 946.94,102.87 952.83,102.71C962.31,102.45 981.32,102.43 989.95,102.13C994.58,101.97 998.99,102.05 1000.6,101.55C1001.12,101.39 1000.98,101.14 1001.56,100.97C1004.36,100.16 1025.91,101.39 1028.03,100.39C1028.39,100.22 1028.19,99.98 1028.53,99.81C1030.02,99.09 1037.61,99.41 1043,99.23C1049.82,99.01 1057.95,98.83 1066.17,98.65C1075.53,98.44 1087.68,98.31 1096.21,98.08C1102.55,97.91 1108.16,97.74 1112.77,97.5C1116.09,97.33 1118.9,97.15 1121.32,96.92C1123.1,96.75 1124.02,96.5 1125.96,96.34C1129.17,96.07 1132.59,95.92 1138.82,95.76C1155.36,95.33 1214.56,95.67 1229.56,95.18C1234.51,95.02 1236.27,94.8 1239.43,94.6C1242.36,94.41 1243.99,94.18 1247.91,94.02C1256.74,93.66 1282.83,93.85 1291.01,93.45C1294.28,93.29 1294.75,93.03 1297.85,92.87C1304.37,92.53 1323.81,92.86 1328.28,92.29C1329.57,92.13 1329.96,91.91 1330.73,91.71C1331.42,91.53 1331.75,91.29 1332.69,91.13C1334.91,90.75 1341.88,90.92 1344.14,90.55C1345.11,90.39 1345.4,90.14 1346.19,89.97C1347.25,89.74 1347.93,89.55 1349.97,89.39C1358.47,88.71 1398.55,89.07 1416.09,88.82C1427.69,88.65 1439.17,88.61 1444.99,88.24C1447.52,88.08 1448.02,87.82 1450.41,87.66C1455.06,87.35 1465.01,87.3 1471.02,87.08C1475.69,86.91 1478.16,86.66 1483.48,86.5C1492.92,86.21 1517.42,86.54 1522.83,85.92C1524.26,85.76 1524.68,85.55 1525.5,85.34C1526.22,85.16 1526.49,84.93 1527.49,84.77C1530.31,84.32 1539.94,84.47 1543.93,84.19C1546.23,84.03 1546.83,83.77 1549.34,83.61C1555.03,83.25 1571.51,83.39 1577.27,83.03C1579.86,82.87 1580.24,82.61 1582.9,82.45C1589.34,82.06 1606.24,82.09 1616.01,81.87C1623.77,81.69 1629.39,81.47 1636.9,81.29C1645.67,81.08 1655.34,80.89 1665.44,80.71C1676.86,80.5 1696.69,80.72 1701.96,80.14C1703.43,79.98 1703.71,79.74 1704.76,79.56C1706.09,79.34 1706.95,79.14 1709.3,78.98C1717.27,78.43 1743.84,78.59 1762.09,78.4C1781.76,78.2 1800.62,78 1823.38,77.82C1852.01,77.6 1892.13,77.47 1920.34,77.24C1942.18,77.07 1960.17,76.87 1978.47,76.66C1994.85,76.48 2002.15,76.24 2025.04,76.08C2089.24,75.63 2322.26,75.91 2391.44,75.51C2418.78,75.35 2429.4,75.12 2448.65,74.93C2468.27,74.73 2492.29,74.6 2508.07,74.35C2518.53,74.18 2530.51,74.37 2534.14,73.77C2535.13,73.61 2535.04,73.35 2535.98,73.19C2538.79,72.71 2545.7,72.77 2553.14,72.61C2566.94,72.31 2591.49,72.21 2612.24,72.03C2635.31,71.83 2650.3,71.61 2685.34,71.45C2775,71.04 3080.6,71.33 3163.96,70.88C3193.44,70.72 3191.33,70.47 3223.82,70.3C3366.24,69.57 4246.67,70.56 4373.76,69.72C4399.02,69.55 4404.97,69.35 4419.17,69.14C4431.73,68.96 4437.96,68.72 4454.66,68.56C4494.73,68.18 4648.59,70.06 4659.01,67.98C4659.91,67.8 4659.71,67.56 4660.42,67.4C4662.28,66.98 4666.13,66.98 4670.91,66.82C4681.24,66.47 4697.39,66.41 4719.88,66.25C4769.71,65.9 4907.91,66 4960.2,65.67C4985.53,65.51 4997.01,65.28 5016.61,65.09C5037.93,64.89 5061.65,64.71 5083.39,64.51C5104.13,64.32 5122.17,64.11 5144.19,63.93C5170.39,63.72 5224.53,64.83 5230.23,63.35C5230.91,63.17 5230.65,62.94 5231.29,62.77C5234.88,61.82 5257.27,62.4 5269.2,62.2C5279.87,62.02 5290.85,61.85 5299.51,61.62C5306.01,61.45 5309.14,61.2 5316.56,61.04C5330.48,60.74 5350.92,60.62 5376.64,60.46C5422.76,60.17 5503.18,60.07 5569.88,59.88C5641.5,59.68 5745.59,59.65 5792.67,59.3C5814.52,59.14 5817.11,58.88 5840.65,58.72C5906.18,58.27 6137.2,58.5 6212.69,58.14C6245.72,57.98 6255.44,57.74 6283.91,57.57C6326.55,57.32 6396,57.21 6443.67,56.99C6482.3,56.81 6500.83,56.57 6548.58,56.41C6651.29,56.06 6898.24,56.07 7034.09,55.83C7132.35,55.66 7238.41,55.64 7288.07,55.25C7308.68,55.09 7307.94,54.84 7331.82,54.67C7439.54,53.92 7997.48,54.36 8222.46,54.09C8359.72,53.93 8478.36,53.82 8553.96,53.51C8593.26,53.35 8609.48,53.11 8643.57,52.94C8688.87,52.71 8749.7,52.56 8801.8,52.36C8852.64,52.17 8876.28,51.94 8952.49,51.78C9191.98,51.27 10186.97,51.67 10440.67,51.2C10527.84,51.04 10582.43,51.01 10616.34,50.62C10630.16,50.46 10629.95,50.2 10645.52,50.04C10707.95,49.38 10956.98,49.65 11114.68,49.46C11275.06,49.27 11400.88,49.04 11599.92,48.88C11918.27,48.62 12613.51,48.43 12841.18,48.31C12927.59,48.26 13003.97,64.24 13020,48.2031604104001Q13025.9,42.3 13020,24" style="vector-effect: non-scaling-stroke; fill: none; stroke: rgb(0, 0, 0); stroke-opacity: 1; stroke-width: 5px; opacity: 1;"/></g><g class="points"/><g class="text"/></g></g></g><g class="overplot"/><path class="xlines-above crisp" d="M78,531H700" style="fill: none; stroke-width: 2px; stroke: rgb(0, 0, 0); stroke-opacity: 1;"/><path class="ylines-above crisp" d="M79,50V530" style="fill: none; stroke-width: 2px; stroke: rgb(0, 0, 0); stroke-opacity: 1;"/><g class="overlines-above"/><g class="xaxislayer-above"><path class="xtick ticks crisp" d="M0,532v5" transform="translate(80,0)" style="stroke: rgb(0, 0, 0); stroke-opacity: 1; stroke-width: 3px;"/><path class="xtick ticks crisp" d="M0,532v5" transform="translate(204,0)" style="stroke: rgb(0, 0, 0); stroke-opacity: 1; stroke-width: 3px;"/><path class="xtick ticks crisp" d="M0,532v5" transform="translate(328,0)" style="stroke: rgb(0, 0, 0); stroke-opacity: 1; stroke-width: 3px;"/><path class="xtick ticks crisp" d="M0,532v5" transform="translate(452,0)" style="stroke: rgb(0, 0, 0); stroke-opacity: 1; stroke-width: 3px;"/><path class="xtick ticks crisp" d="M0,532v5" transform="translate(576,0)" style="stroke: rgb(0, 0, 0); stroke-opacity: 1; stroke-width: 3px;"/><path class="xtick ticks crisp" d="M0,532v5" transform="translate(700,0)" style="stroke: rgb(0, 0, 0); stroke-opacity: 1; stroke-width: 3px;"/><g class="xtick"><text text-anchor="middle" x="0" y="563.4" transform="translate(80,0)" style="font-family: Arial; font-size: 22px; fill: rgb(0, 0, 0); fill-opacity: 1; white-space: pre;">0</text></g><g class="xtick"><text text-anchor="middle" x="0" y="563.4" transform="translate(204,0)" style="font-family: Arial; font-size: 22px; fill: rgb(0, 0, 0); fill-opacity: 1; white-space: pre;">20</text></g><g class="xtick"><text text-anchor="middle" x="0" y="563.4" transform="translate(328,0)" style="font-family: Arial; font-size: 22px; fill: rgb(0, 0, 0); fill-opacity: 1; white-space: pre;">40</text></g><g class="xtick"><text text-anchor="middle" x="0" y="563.4" transform="translate(452,0)" style="font-family: Arial; font-size: 22px; fill: rgb(0, 0, 0); fill-opacity: 1; white-space: pre;">60</text></g><g class="xtick"><text text-anchor="middle" x="0" y="563.4" transform="translate(576,0)" style="font-family: Arial; font-size: 22px; fill: rgb(0, 0, 0); fill-opacity: 1; white-space: pre;">80</text></g><g class="xtick"><text text-anchor="middle" x="0" y="563.4" transform="translate(700,0)" style="font-family: Arial; font-size: 22px; fill: rgb(0, 0, 0); fill-opacity: 1; white-space: pre;">100</text></g></g><g class="yaxislayer-above"><path class="ytick ticks crisp" d="M78,0h-5" transform="translate(0,502.25)" style="stroke: rgb(0, 0, 0); stroke-opacity: 1; stroke-width: 3px;"/><path class="ytick ticks crisp" d="M78,0h-5" transform="translate(0,416.6)" style="stroke: rgb(0, 0, 0); stroke-opacity: 1; stroke-width: 3px;"/><path class="ytick ticks crisp" d="M78,0h-5" transform="translate(0,330.95)" style="stroke: rgb(0, 0, 0); stroke-opacity: 1; stroke-width: 3px;"/><path class="ytick ticks crisp" d="M78,0h-5" transform="translate(0,245.3)" style="stroke: rgb(0, 0, 0); stroke-opacity: 1; stroke-width: 3px;"/><path class="ytick ticks crisp" d="M78,0h-5" transform="translate(0,159.65)" style="stroke: rgb(0, 0, 0); stroke-opacity: 1; stroke-width: 3px;"/><path class="ytick ticks crisp" d="M78,0h-5" transform="translate(0,74)" style="stroke: rgb(0, 0, 0); stroke-opacity: 1; stroke-width: 3px;"/><g class="ytick"><text text-anchor="end" x="68.6" y="7.699999999999999" transform="translate(0,502.25)" style="font-family: Arial; font-size: 22px; fill: rgb(0, 0, 0); fill-opacity: 1; white-space: pre;">0</text></g><g class="ytick"><text text-anchor="end" x="68.6" y="7.699999999999999" transform="translate(0,416.6)" style="font-family: Arial; font-size: 22px; fill: rgb(0, 0, 0); fill-opacity: 1; white-space: pre;">0.2</text></g><g class="ytick"><text text-anchor="end" x="68.6" y="7.699999999999999" transform="translate(0,330.95)" style="font-family: Arial; font-size: 22px; fill: rgb(0, 0, 0); fill-opacity: 1; white-space: pre;">0.4</text></g><g class="ytick"><text text-anchor="end" x="68.6" y="7.699999999999999" transform="translate(0,245.3)" style="font-family: Arial; font-size: 22px; fill: rgb(0, 0, 0); fill-opacity: 1; white-space: pre;">0.6</text></g><g class="ytick"><text text-anchor="end" x="68.6" y="7.699999999999999" transform="translate(0,159.65)" style="font-family: Arial; font-size: 22px; fill: rgb(0, 0, 0); fill-opacity: 1; white-space: pre;">0.8</text></g><g class="ytick"><text text-anchor="end" x="68.6" y="7.699999999999999" transform="translate(0,74)" style="font-family: Arial; font-size: 22px; fill: rgb(0, 0, 0); fill-opacity: 1; white-space: pre;">1</text></g></g><g class="overaxes-above"/></g></g><g class="polarlayer"/><g class="ternarylayer"/><g class="geolayer"/><g class="funnelarealayer"/><g class="pielayer"/><g class="sunburstlayer"/><g class="glimages"/><defs id="topdefs-2b278b"><g class="clips"/></defs><g class="layer-above"><g class="imagelayer"/><g class="shapelayer"/></g><g class="infolayer"><g class="g-gtitle"><text class="gtitle" x="378" y="18" text-anchor="middle" dy="0.7em" style="font-family: Arial; font-size: 25px; fill: rgb(0, 0, 0); opacity: 1; font-weight: normal; white-space: pre;">Sample Size for 80% Power</text></g><g class="g-xtitle" transform="translate(0,-12)"><text class="xtitle" x="390" y="607" text-anchor="middle" style="font-family: Arial; font-size: 22px; fill: rgb(0, 0, 0); opacity: 1; font-weight: normal; white-space: pre;">Number of Samples per Group</text></g><g class="g-ytitle"><text class="ytitle" transform="rotate(-90,25,290)" x="25" y="290" text-anchor="middle" style="font-family: Arial; font-size: 22px; fill: rgb(0, 0, 0); opacity: 1; font-weight: normal; white-space: pre;">Proportion of Compounds with Power >= 80%</text></g></g></svg>