<svg class="main-svg" xmlns="http://www.w3.org/2000/svg" xmlns:xlink="http://www.w3.org/1999/xlink" width="700" height="600" style="" viewBox="0 0 700 600"><rect x="0" y="0" width="700" height="600" style="fill: rgb(255, 255, 255); fill-opacity: 1;"/><defs id="defs-985057"><g class="clips"><clipPath id="clip985057xyplot" class="plotclip"><rect width="620" height="480"/></clipPath><clipPath class="axesclip" id="clip985057x"><rect x="80" y="0" width="620" height="600"/></clipPath><clipPath class="axesclip" id="clip985057y"><rect x="0" y="50" width="700" height="480"/></clipPath><clipPath class="axesclip" id="clip985057xy"><rect x="80" y="50" width="620" height="480"/></clipPath></g><g class="gradients"/></defs><g class="bglayer"/><g class="layer-below"><g class="imagelayer"/><g class="shapelayer"/></g><g class="cartesianlayer"><g class="subplot xy"><g class="layer-subplot"><g class="shapelayer"/><g class="imagelayer"/></g><g class="gridlayer"><g class="x"/><g class="y"><path class="ygrid crisp" transform="translate(0,502.25)" d="M80,0h620" style="stroke: rgb(153, 153, 153); stroke-opacity: 1; stroke-width: 1px;"/><path class="ygrid crisp" transform="translate(0,416.6)" d="M80,0h620" style="stroke: rgb(153, 153, 153); stroke-opacity: 1; stroke-width: 1px;"/><path class="ygrid crisp" transform="translate(0,330.95)" d="M80,0h620" style="stroke: rgb(153, 153, 153); stroke-opacity: 1; stroke-width: 1px;"/><path class="ygrid crisp" transform="translate(0,245.3)" d="M80,0h620" style="stroke: rgb(153, 153, 153); stroke-opacity: 1; stroke-width: 1px;"/><path class="ygrid crisp" transform="translate(0,159.65)" d="M80,0h620" style="stroke: rgb(153, 153, 153); stroke-opacity: 1; stroke-width: 1px;"/><path class="ygrid crisp" transform="translate(0,74)" d="M80,0h620" style="stroke: rgb(153, 153, 153); stroke-opacity: 1; stroke-width: 1px;"/></g></g><g class="zerolinelayer"/><path class="xlines-below"/><path class="ylines-below"/><g class="overlines-below"/><g class="xaxislayer-below"/><g class="yaxislayer-below"/><g class="overaxes-below"/><g class="plot" transform="translate(80, 50)" clip-path="url('#clip985057xyplot')"><g class="scatterlayer mlayer"><g class="trace scatter tracefef63d" style="stroke-miterlimit: 2; opacity: 1;"><g class="fills"/><g class="errorbars"/><g class="lines"/><g class="points"><path class="point" transform="translate(0,452.25)" d="M3,0A3,3 0 1,1 0,-3A3,3 0 0,1 3,0Z" style="opacity: 1; stroke-width: 0px; fill: rgb(0, 0, 0); fill-opacity: 0;"/></g><g class="text"/></g><g class="trace scatter trace41d0dd" style="stroke-miterlimit: 2; opacity: 1;"><g class="fills"/><g class="errorbars"/><g class="lines"><path class="js-line" d="M11.51,451.67Q11.67,451.28 11.79,451.09C11.92,450.89 12.11,450.71 12.25,450.51C12.38,450.32 12.5,450.14 12.59,449.94C12.68,449.75 12.72,449.55 12.8,449.36C12.88,449.17 12.98,448.98 13.06,448.78C13.13,448.59 13.16,448.39 13.25,448.2C13.34,448 13.53,447.82 13.62,447.62C13.7,447.43 13.66,447.22 13.76,447.04C13.88,446.83 14.23,446.67 14.37,446.46C14.49,446.28 14.55,446.08 14.61,445.88C14.66,445.69 14.66,445.5 14.7,445.31C14.74,445.12 14.82,444.92 14.85,444.73C14.88,444.54 14.88,444.34 14.89,444.15C14.91,443.96 14.85,443.75 14.94,443.57C15.05,443.35 15.5,443.21 15.61,442.99C15.7,442.81 15.64,442.6 15.65,442.41C15.66,442.22 15.65,442.02 15.69,441.83C15.73,441.63 15.83,441.44 15.9,441.25C15.97,441.06 16,440.86 16.1,440.68C16.2,440.48 16.43,440.3 16.51,440.1C16.59,439.91 16.57,439.71 16.61,439.52C16.66,439.33 16.72,439.13 16.78,438.94C16.83,438.75 16.89,438.55 16.94,438.36C16.99,438.17 17.02,437.97 17.07,437.78C17.12,437.59 17.18,437.39 17.22,437.2C17.26,437.01 17.29,436.81 17.31,436.62C17.33,436.43 17.3,436.24 17.32,436.05C17.34,435.86 17.36,435.66 17.42,435.47C17.48,435.27 17.62,435.09 17.67,434.89C17.72,434.7 17.67,434.5 17.71,434.31C17.75,434.11 17.86,433.93 17.89,433.73C17.92,433.54 17.86,433.34 17.9,433.15C17.95,432.95 18.13,432.77 18.18,432.57C18.23,432.38 18.17,432.18 18.2,431.99C18.23,431.8 18.3,431.61 18.35,431.42C18.41,431.23 18.47,431.03 18.53,430.84C18.59,430.65 18.63,430.45 18.7,430.26C18.77,430.06 18.89,429.88 18.96,429.68C19.03,429.49 18.99,429.28 19.11,429.1C19.25,428.88 19.74,428.74 19.85,428.52C19.94,428.34 19.85,428.13 19.86,427.94C19.87,427.75 19.88,427.56 19.9,427.37C19.92,427.18 19.91,426.98 19.97,426.79C20.03,426.59 20.19,426.41 20.26,426.21C20.33,426.02 20.36,425.82 20.39,425.63C20.42,425.44 20.34,425.22 20.45,425.05C20.61,424.81 21.23,424.69 21.49,424.47C21.7,424.29 21.82,424.09 21.96,423.89C22.09,423.7 22.21,423.51 22.32,423.31C22.42,423.12 22.54,422.94 22.59,422.74C22.64,422.55 22.57,422.35 22.62,422.16C22.67,421.96 22.84,421.78 22.9,421.58C22.95,421.39 22.94,421.19 22.96,421C22.98,420.81 22.98,420.61 23.03,420.42C23.08,420.22 23.21,420.04 23.27,419.84C23.33,419.65 23.38,419.45 23.4,419.26C23.42,419.07 23.38,418.87 23.41,418.68C23.44,418.49 23.51,418.3 23.56,418.11C23.61,417.92 23.66,417.72 23.7,417.53C23.74,417.34 23.78,417.14 23.81,416.95C23.84,416.76 23.87,416.56 23.88,416.37C23.89,416.18 23.84,415.98 23.9,415.79C23.96,415.59 24.21,415.41 24.27,415.21C24.33,415.02 24.28,414.82 24.3,414.63C24.32,414.44 24.31,414.23 24.4,414.05C24.5,413.84 24.8,413.69 24.92,413.48C25.02,413.3 25.04,413.09 25.09,412.9C25.14,412.71 25.19,412.51 25.21,412.32C25.23,412.13 25.18,411.93 25.21,411.74C25.24,411.54 25.35,411.36 25.38,411.16C25.41,410.97 25.4,410.77 25.41,410.58C25.42,410.39 25.43,410.19 25.43,410C25.43,409.81 25.41,409.62 25.43,409.43C25.45,409.24 25.55,409.04 25.58,408.85C25.61,408.66 25.57,408.46 25.59,408.27C25.61,408.08 25.67,407.88 25.69,407.69C25.71,407.5 25.71,407.3 25.73,407.11C25.75,406.92 25.77,406.72 25.82,406.53C25.88,406.33 26.02,406.15 26.06,405.95C26.1,405.76 26.04,405.56 26.07,405.37C26.1,405.18 26.19,404.99 26.22,404.8C26.25,404.61 26.21,404.41 26.24,404.22C26.27,404.02 26.31,403.82 26.41,403.64C26.53,403.43 26.85,403.27 26.96,403.06C27.06,402.88 27.05,402.67 27.09,402.48C27.14,402.29 27.21,402.09 27.23,401.9C27.25,401.71 27.23,401.51 27.24,401.32C27.25,401.13 27.25,400.93 27.28,400.74C27.31,400.55 27.39,400.36 27.44,400.17C27.49,399.98 27.54,399.78 27.56,399.59C27.58,399.4 27.56,399.2 27.58,399.01C27.6,398.82 27.65,398.62 27.7,398.43C27.75,398.23 27.85,398.05 27.9,397.85C27.94,397.66 27.95,397.46 27.97,397.27C27.99,397.08 28,396.88 28.02,396.69C28.04,396.5 28.03,396.3 28.1,396.11C28.17,395.91 28.38,395.74 28.44,395.54C28.49,395.35 28.45,395.15 28.46,394.96C28.47,394.77 28.51,394.57 28.53,394.38C28.55,394.19 28.58,393.99 28.59,393.8C28.6,393.61 28.56,393.41 28.6,393.22C28.65,393.02 28.76,392.83 28.88,392.64C29.01,392.44 29.2,392.26 29.34,392.06C29.48,391.87 29.65,391.68 29.73,391.48C29.8,391.3 29.76,391.1 29.81,390.91C29.86,390.72 29.95,390.52 30.01,390.33C30.07,390.14 30.13,389.94 30.19,389.75C30.25,389.56 30.32,389.37 30.35,389.17C30.38,388.98 30.38,388.78 30.39,388.59C30.4,388.4 30.39,388.2 30.42,388.01C30.45,387.81 30.54,387.62 30.6,387.43C30.66,387.24 30.73,387.05 30.77,386.86C30.81,386.67 30.78,386.47 30.82,386.28C30.87,386.08 30.97,385.89 31.05,385.7C31.12,385.51 31.23,385.32 31.27,385.12C31.31,384.93 31.18,384.71 31.28,384.54C31.43,384.3 32.16,384.2 32.33,383.96C32.45,383.79 32.39,383.57 32.42,383.38C32.44,383.19 32.44,382.99 32.48,382.8C32.52,382.61 32.62,382.42 32.65,382.23C32.68,382.04 32.67,381.84 32.68,381.65C32.69,381.46 32.69,381.26 32.69,381.07C32.7,380.88 32.66,380.68 32.71,380.49C32.77,380.29 32.97,380.11 33.03,379.91C33.08,379.72 33.02,379.52 33.05,379.33C33.08,379.14 33.17,378.94 33.2,378.75C33.23,378.56 33.21,378.36 33.23,378.17C33.25,377.98 33.27,377.79 33.3,377.6C33.33,377.41 33.34,377.21 33.41,377.02C33.49,376.82 33.68,376.64 33.78,376.44C33.88,376.25 33.91,376.05 34.01,375.86C34.11,375.66 34.28,375.48 34.39,375.28C34.5,375.09 34.63,374.9 34.68,374.7C34.73,374.51 34.67,374.31 34.7,374.12C34.73,373.92 34.81,373.73 34.88,373.54C34.95,373.35 35.05,373.16 35.12,372.97C35.19,372.78 35.25,372.58 35.3,372.39C35.35,372.2 35.36,372 35.4,371.81C35.44,371.62 35.5,371.42 35.56,371.23C35.62,371.04 35.64,370.83 35.75,370.65C35.87,370.44 36.2,370.28 36.29,370.07C36.37,369.89 36.23,369.67 36.32,369.49C36.42,369.27 36.85,369.12 36.97,368.91C37.07,368.73 37.07,368.53 37.09,368.34C37.11,368.15 37.06,367.95 37.09,367.76C37.12,367.56 37.23,367.38 37.26,367.18C37.29,366.99 37.27,366.79 37.27,366.6C37.27,366.41 37.22,366.2 37.28,366.02C37.35,365.81 37.6,365.64 37.71,365.44C37.81,365.25 37.88,365.06 37.93,364.86C37.98,364.67 37.97,364.48 38.01,364.29C38.06,364.1 38.13,363.9 38.2,363.71C38.27,363.51 38.32,363.31 38.45,363.13C38.61,362.92 39.03,362.77 39.13,362.55C39.21,362.37 39.14,362.16 39.14,361.97C39.14,361.78 39.14,361.58 39.15,361.39C39.16,361.2 39.18,361 39.22,360.81C39.26,360.62 39.31,360.42 39.37,360.23C39.43,360.04 39.56,359.85 39.6,359.66C39.64,359.47 39.58,359.27 39.6,359.08C39.62,358.89 39.68,358.69 39.72,358.5C39.76,358.31 39.69,358.09 39.82,357.92C40.03,357.66 40.98,357.6 41.16,357.34C41.27,357.17 41.12,356.95 41.17,356.76C41.22,356.56 41.34,356.36 41.5,356.18C41.69,355.97 42.01,355.79 42.25,355.6C42.49,355.41 42.73,355.23 42.94,355.03C43.14,354.84 43.37,354.66 43.48,354.45C43.57,354.27 43.5,354.05 43.59,353.87C43.69,353.66 43.95,353.49 44.08,353.29C44.19,353.1 44.25,352.9 44.33,352.71C44.41,352.52 44.52,352.33 44.56,352.13C44.6,351.94 44.55,351.74 44.6,351.55C44.65,351.35 44.8,351.17 44.85,350.97C44.9,350.78 44.87,350.59 44.89,350.4C44.91,350.21 44.92,350.01 44.95,349.82C44.98,349.63 45.01,349.43 45.06,349.24C45.11,349.04 45.11,348.83 45.26,348.66C45.47,348.42 46.12,348.31 46.39,348.08C46.59,347.91 46.74,347.7 46.81,347.5C46.87,347.32 46.78,347.11 46.83,346.92C46.89,346.72 47.06,346.54 47.15,346.34C47.24,346.15 47.32,345.96 47.38,345.77C47.44,345.58 47.4,345.37 47.5,345.19C47.62,344.98 48.02,344.83 48.12,344.61C48.2,344.43 48.14,344.22 48.15,344.03C48.16,343.84 48.09,343.63 48.17,343.45C48.26,343.24 48.6,343.08 48.72,342.87C48.82,342.69 48.8,342.48 48.87,342.29C48.95,342.09 49.06,341.91 49.17,341.72C49.29,341.52 49.49,341.34 49.57,341.14C49.65,340.95 49.63,340.75 49.67,340.56C49.72,340.37 49.8,340.17 49.84,339.98C49.88,339.79 49.81,339.57 49.92,339.4C50.08,339.16 50.69,339.05 50.89,338.82C51.04,338.65 51.09,338.44 51.15,338.24C51.2,338.05 51.2,337.85 51.23,337.66C51.26,337.47 51.33,337.28 51.35,337.09C51.37,336.9 51.3,336.7 51.36,336.51C51.42,336.31 51.68,336.13 51.74,335.93C51.8,335.74 51.64,335.51 51.76,335.35C51.95,335.08 52.98,335.03 53.24,334.77C53.4,334.6 53.36,334.38 53.46,334.19C53.57,333.99 53.71,333.8 53.87,333.61C54.04,333.41 54.35,333.24 54.45,333.03C54.54,332.85 54.49,332.65 54.52,332.46C54.56,332.27 54.63,332.07 54.66,331.88C54.69,331.69 54.69,331.49 54.7,331.3C54.71,331.11 54.7,330.91 54.74,330.72C54.78,330.52 54.89,330.34 54.94,330.14C54.99,329.95 54.98,329.75 55.02,329.56C55.06,329.37 55.15,329.18 55.18,328.98C55.21,328.79 55.11,328.57 55.21,328.4C55.34,328.17 55.87,328.05 56.05,327.83C56.2,327.66 56.21,327.44 56.31,327.25C56.41,327.05 56.55,326.86 56.67,326.67C56.79,326.48 56.97,326.29 57.05,326.09C57.12,325.9 57.13,325.7 57.15,325.51C57.17,325.32 57.09,325.11 57.15,324.93C57.22,324.72 57.48,324.55 57.61,324.35C57.74,324.16 57.86,323.97 57.93,323.77C58,323.58 57.92,323.37 58.04,323.2C58.22,322.96 58.96,322.86 59.11,322.62C59.21,322.45 59.07,322.23 59.12,322.04C59.18,321.84 59.31,321.64 59.46,321.46C59.64,321.25 59.99,321.09 60.16,320.88C60.3,320.7 60.36,320.49 60.45,320.3C60.54,320.11 60.63,319.91 60.7,319.72C60.77,319.53 60.72,319.32 60.86,319.15C61.06,318.91 61.83,318.82 61.98,318.57C62.08,318.4 61.98,318.18 61.99,317.99C62,317.8 62.01,317.6 62.03,317.41C62.05,317.22 62.05,317.02 62.13,316.83C62.21,316.63 62.42,316.45 62.53,316.25C62.64,316.06 62.62,315.83 62.8,315.67C63.1,315.4 64.22,315.37 64.47,315.09C64.61,314.93 64.53,314.71 64.6,314.52C64.67,314.32 64.76,314.12 64.9,313.94C65.07,313.73 65.36,313.55 65.59,313.36C65.82,313.17 66.05,312.98 66.26,312.78C66.46,312.59 66.74,312.41 66.83,312.2C66.91,312.02 66.81,311.81 66.86,311.62C66.92,311.42 67.09,311.23 67.19,311.04C67.29,310.85 67.36,310.65 67.48,310.46C67.61,310.26 67.85,310.09 67.95,309.89C68.04,309.71 68.01,309.5 68.07,309.31C68.13,309.11 68.26,308.93 68.33,308.73C68.4,308.54 68.44,308.34 68.49,308.15C68.53,307.96 68.58,307.76 68.6,307.57C68.62,307.38 68.61,307.18 68.62,306.99C68.63,306.8 68.59,306.6 68.64,306.41C68.7,306.21 68.82,306.01 68.96,305.83C69.12,305.63 69.38,305.46 69.56,305.26C69.74,305.07 69.94,304.89 70.05,304.68C70.14,304.5 70.13,304.29 70.2,304.1C70.27,303.9 70.31,303.7 70.45,303.52C70.62,303.3 71.07,303.16 71.19,302.94C71.29,302.76 71.13,302.53 71.25,302.36C71.43,302.11 72.1,301.99 72.47,301.78C72.79,301.6 73.13,301.43 73.35,301.21C73.53,301.03 73.66,300.83 73.74,300.63C73.81,300.44 73.72,300.23 73.82,300.05C73.94,299.83 74.35,299.69 74.49,299.47C74.61,299.29 74.64,299.09 74.67,298.89C74.7,298.7 74.63,298.49 74.7,298.31C74.77,298.1 74.99,297.92 75.13,297.73C75.27,297.54 75.46,297.35 75.53,297.15C75.59,296.97 75.47,296.75 75.57,296.58C75.7,296.35 76.28,296.23 76.42,296C76.53,295.83 76.38,295.59 76.5,295.42C76.67,295.17 77.24,295.03 77.6,294.84C77.96,294.65 78.41,294.49 78.66,294.26C78.85,294.09 78.9,293.86 79.07,293.68C79.26,293.47 79.52,293.28 79.78,293.1C80.07,292.9 80.59,292.76 80.73,292.52C80.83,292.35 80.74,292.14 80.76,291.95C80.78,291.76 80.71,291.53 80.85,291.37C81.1,291.07 82.41,291.08 82.71,290.79C82.88,290.63 82.78,290.39 82.91,290.21C83.08,289.99 83.57,289.86 83.72,289.63C83.84,289.46 83.74,289.22 83.85,289.05C84,288.83 84.42,288.68 84.63,288.47C84.81,288.29 84.93,288.09 85.04,287.89C85.14,287.7 85.23,287.51 85.27,287.32C85.31,287.13 85.25,286.92 85.31,286.74C85.38,286.54 85.56,286.35 85.71,286.16C85.86,285.96 86.09,285.79 86.2,285.58C86.29,285.4 86.33,285.19 86.35,285C86.37,284.81 86.24,284.59 86.35,284.42C86.53,284.15 87.29,284.04 87.73,283.84C88.14,283.65 88.65,283.5 88.91,283.26C89.09,283.09 89.17,282.89 89.25,282.69C89.32,282.5 89.28,282.29 89.37,282.11C89.47,281.9 89.7,281.72 89.87,281.53C90.04,281.34 90.31,281.16 90.4,280.95C90.48,280.77 90.35,280.55 90.44,280.37C90.55,280.15 90.97,280.01 91.08,279.79C91.17,279.61 91.11,279.4 91.14,279.21C91.17,279.02 91.13,278.8 91.26,278.64C91.47,278.38 92.21,278.28 92.57,278.06C92.86,277.88 93.11,277.69 93.3,277.48C93.46,277.3 93.5,277.08 93.67,276.9C93.88,276.68 94.34,276.54 94.52,276.32C94.66,276.15 94.66,275.93 94.74,275.74C94.82,275.55 94.89,275.34 95.01,275.16C95.15,274.96 95.45,274.79 95.54,274.58C95.61,274.4 95.5,274.19 95.57,274.01C95.66,273.8 95.83,273.59 96.1,273.43C96.56,273.15 97.96,273.16 98.26,272.85C98.42,272.69 98.27,272.44 98.4,272.27C98.59,272.03 99.16,271.89 99.5,271.69C99.8,271.51 100.11,271.32 100.34,271.11C100.53,270.93 100.7,270.73 100.8,270.53C100.89,270.35 100.84,270.12 100.96,269.95C101.12,269.73 101.47,269.56 101.8,269.38C102.2,269.16 102.81,269.01 103.23,268.8C103.59,268.62 104,268.45 104.21,268.22C104.37,268.05 104.32,267.81 104.48,267.64C104.69,267.41 105.13,267.24 105.5,267.06C105.92,266.85 106.62,266.73 106.9,266.48C107.09,266.31 107.02,266.06 107.22,265.9C107.54,265.63 108.54,265.58 108.88,265.32C109.1,265.16 109.17,264.95 109.28,264.75C109.38,264.56 109.4,264.35 109.51,264.17C109.63,263.97 109.9,263.8 110,263.59C110.09,263.41 110.02,263.19 110.12,263.01C110.24,262.79 110.67,262.65 110.77,262.43C110.85,262.25 110.74,262.04 110.78,261.85C110.82,261.65 110.92,261.46 111.02,261.27C111.12,261.07 111.27,260.89 111.37,260.69C111.46,260.5 111.47,260.3 111.6,260.12C111.75,259.91 111.99,259.71 112.27,259.54C112.63,259.32 113.19,259.16 113.62,258.96C114.03,258.77 114.4,258.57 114.8,258.38C115.2,258.19 115.51,257.97 116.02,257.8C116.77,257.55 118.56,257.58 118.91,257.22C119.07,257.06 118.88,256.8 119.02,256.64C119.25,256.37 120.16,256.29 120.59,256.07C120.92,255.9 121.26,255.72 121.41,255.49C121.52,255.32 121.46,255.1 121.52,254.91C121.58,254.71 121.66,254.51 121.78,254.33C121.91,254.13 122.09,253.93 122.3,253.75C122.53,253.54 122.98,253.4 123.13,253.17C123.24,253 123.15,252.77 123.25,252.59C123.37,252.38 123.69,252.21 123.88,252.01C124.05,251.83 124.2,251.63 124.34,251.44C124.48,251.25 124.61,251.06 124.71,250.86C124.8,250.67 124.79,250.46 124.91,250.28C125.06,250.06 125.47,249.92 125.61,249.7C125.72,249.52 125.68,249.31 125.75,249.12C125.82,248.92 125.93,248.73 126.05,248.54C126.18,248.34 126.3,248.14 126.49,247.96C126.72,247.74 127.21,247.61 127.38,247.38C127.5,247.21 127.41,246.98 127.53,246.81C127.69,246.59 128.1,246.43 128.36,246.23C128.6,246.04 128.89,245.87 129.03,245.65C129.15,245.47 129.05,245.23 129.21,245.07C129.48,244.79 130.58,244.77 130.86,244.49C131.03,244.33 131,244.1 131.07,243.91C131.14,243.72 131.23,243.53 131.28,243.33C131.33,243.14 131.27,242.92 131.38,242.75C131.52,242.53 131.93,242.38 132.15,242.18C132.35,242 132.53,241.8 132.65,241.6C132.76,241.42 132.72,241.19 132.86,241.02C133.06,240.79 133.63,240.67 133.86,240.44C134.03,240.27 134.08,240.05 134.19,239.86C134.3,239.67 134.32,239.45 134.51,239.28C134.79,239.03 135.61,238.94 135.92,238.7C136.13,238.53 136.09,238.29 136.33,238.13C136.8,237.82 138.59,237.89 138.89,237.55C139.03,237.39 138.79,237.13 138.94,236.97C139.32,236.56 142.16,236.77 142.72,236.39C142.95,236.23 142.91,236 143.05,235.81C143.2,235.61 143.4,235.42 143.58,235.23C143.76,235.04 144,234.86 144.13,234.65C144.24,234.47 144.18,234.24 144.34,234.07C144.59,233.81 145.2,233.67 145.73,233.5C146.39,233.28 147.35,233.14 148,232.92C148.51,232.74 149.13,232.6 149.32,232.34C149.44,232.17 149.37,231.95 149.39,231.76C149.41,231.57 149.33,231.35 149.44,231.18C149.61,230.93 150.14,230.77 150.6,230.6C151.19,230.37 151.97,230.2 152.73,230.02C153.59,229.81 155.22,229.79 155.52,229.44C155.66,229.28 155.54,229.06 155.55,228.87C155.56,228.68 155.54,228.48 155.6,228.29C155.67,228.09 155.75,227.88 155.95,227.71C156.27,227.45 157.04,227.33 157.54,227.13C158,226.94 158.59,226.8 158.84,226.55C159.01,226.38 158.95,226.15 159.1,225.97C159.28,225.75 159.55,225.55 159.93,225.39C160.59,225.11 161.92,225.01 162.89,224.81C163.82,224.62 165.15,224.56 165.64,224.24C165.89,224.08 165.84,223.83 166.05,223.66C166.34,223.42 167.11,223.33 167.32,223.08C167.46,222.91 167.3,222.66 167.47,222.5C167.84,222.15 169.82,222.24 170.34,221.92C170.6,221.76 170.69,221.54 170.79,221.34C170.88,221.16 170.77,220.92 170.94,220.76C171.31,220.41 173.01,220.43 173.72,220.18C174.19,220.01 174.53,219.82 174.83,219.61C175.08,219.43 175.18,219.2 175.45,219.03C175.82,218.8 176.67,218.72 176.91,218.45C177.06,218.28 177.02,218.06 177.07,217.87C177.11,217.68 177.05,217.46 177.18,217.29C177.38,217.04 178.06,216.93 178.4,216.71C178.68,216.53 178.81,216.31 179.09,216.13C179.44,215.91 179.89,215.74 180.35,215.56C180.89,215.35 181.57,215.18 182.15,214.98C182.7,214.79 183.36,214.64 183.76,214.4C184.05,214.23 184.19,214.01 184.42,213.82C184.66,213.62 184.93,213.44 185.16,213.24C185.37,213.05 185.43,212.82 185.74,212.66C186.37,212.33 188.52,212.44 189.05,212.08C189.29,211.92 189.19,211.66 189.41,211.5C189.79,211.22 190.83,211.15 191.42,210.93C191.9,210.75 192.24,210.53 192.69,210.35C193.19,210.15 193.9,210.01 194.3,209.77C194.58,209.6 194.61,209.35 194.94,209.19C195.56,208.88 197.7,208.98 198.05,208.61C198.2,208.45 198.02,208.21 198.12,208.03C198.24,207.81 198.53,207.62 198.83,207.45C199.22,207.22 199.81,207.06 200.3,206.87C200.79,206.68 201.13,206.46 201.76,206.3C202.8,206.03 205.05,206.02 206.01,205.72C206.54,205.56 206.91,205.38 207.17,205.14C207.36,204.97 207.31,204.72 207.53,204.56C207.92,204.27 209.16,204.24 209.65,203.98C209.97,203.81 210.2,203.62 210.34,203.4C210.45,203.22 210.44,203.01 210.49,202.82C210.54,202.63 210.48,202.4 210.66,202.24C211.05,201.89 212.61,201.87 213.55,201.67C214.46,201.48 215.39,201.3 216.22,201.09C216.95,200.91 217.91,200.8 218.28,200.51C218.49,200.35 218.39,200.09 218.61,199.93C219.05,199.6 220.29,199.53 221.28,199.35C222.51,199.13 224.09,198.97 225.43,198.77C226.69,198.58 228.32,198.5 229.09,198.19C229.49,198.03 229.78,197.84 229.92,197.61C230.02,197.44 229.93,197.22 229.99,197.04C230.06,196.84 230.2,196.65 230.33,196.46C230.47,196.26 230.54,196.04 230.81,195.88C231.36,195.56 232.75,195.49 233.8,195.3C234.95,195.1 236.45,194.96 237.43,194.72C238.12,194.55 238.95,194.43 239.17,194.14C239.3,193.98 239.2,193.75 239.21,193.56C239.22,193.37 239.08,193.15 239.22,192.99C239.61,192.55 242.59,192.71 243.55,192.41C244.06,192.25 244.2,192 244.67,191.83C245.38,191.58 246.48,191.43 247.48,191.25C248.62,191.04 250.61,191.05 251.16,190.67C251.39,190.51 251.33,190.27 251.49,190.09C251.68,189.87 251.95,189.68 252.27,189.51C252.7,189.28 253.31,189.11 253.88,188.93C254.53,188.73 255.43,188.6 255.96,188.36C256.33,188.19 256.61,187.99 256.85,187.78C257.05,187.6 257.22,187.4 257.34,187.2C257.45,187.02 257.41,186.79 257.55,186.62C257.74,186.39 258.03,186.2 258.53,186.04C259.77,185.65 264.53,185.96 265.43,185.46C265.72,185.3 265.6,185.04 265.87,184.88C266.47,184.52 268.85,184.65 269.45,184.3C269.72,184.14 269.81,183.93 269.89,183.73C269.96,183.55 269.83,183.32 269.94,183.15C270.09,182.91 270.42,182.73 270.89,182.57C271.95,182.21 275.85,182.48 276.45,181.99C276.65,181.83 276.46,181.57 276.63,181.41C276.97,181.09 278.39,181.07 279.01,180.83C279.45,180.66 279.77,180.46 280.08,180.25C280.34,180.07 280.47,179.84 280.76,179.67C281.15,179.44 282.03,179.37 282.26,179.1C282.4,178.94 282.21,178.68 282.38,178.52C282.79,178.12 285.28,178.27 285.96,177.94C286.29,177.78 286.25,177.52 286.58,177.36C287.24,177.03 288.87,176.97 290.03,176.78C291.19,176.59 292.52,176.42 293.54,176.2C294.35,176.02 294.92,175.8 295.7,175.62C296.61,175.41 297.66,175.23 298.69,175.04C299.79,174.84 300.98,174.66 302.11,174.47C303.23,174.28 304.58,174.14 305.46,173.89C306.05,173.72 306.35,173.48 306.91,173.31C307.64,173.08 308.56,172.91 309.5,172.73C310.62,172.52 312.41,172.46 313.2,172.15C313.62,171.99 313.82,171.77 314.08,171.57C314.31,171.39 314.57,171.2 314.7,170.99C314.81,170.81 314.68,170.58 314.86,170.42C315.32,170.01 317.21,170.01 318.74,169.84C320.94,169.6 325.38,169.67 326.8,169.26C327.36,169.1 327.52,168.87 327.89,168.68C328.26,168.49 328.72,168.32 329.02,168.1C329.26,167.92 329.32,167.68 329.6,167.52C330.07,167.25 331.49,167.26 331.74,166.94C331.87,166.78 331.61,166.52 331.76,166.36C332.18,165.9 335.51,166.14 336.4,165.79C336.81,165.63 336.85,165.37 337.22,165.21C337.83,164.94 339.24,164.9 339.85,164.63C340.23,164.47 340.3,164.21 340.68,164.05C341.32,163.77 343.02,163.8 343.47,163.47C343.68,163.31 343.55,163.05 343.78,162.89C344.35,162.49 346.51,162.51 347.83,162.31C349.09,162.12 350.44,161.95 351.53,161.73C352.41,161.56 353.09,161.35 353.91,161.16C354.77,160.96 355.54,160.75 356.56,160.58C357.92,160.35 359.39,160.17 361.35,160C364.44,159.74 372.02,160.07 373.35,159.42C373.69,159.26 373.53,159 373.85,158.84C374.93,158.3 380.26,158.55 382.29,158.26C383.45,158.1 384.52,158 384.99,157.68C385.23,157.52 385.15,157.26 385.38,157.1C385.8,156.8 386.89,156.72 387.66,156.53C388.46,156.34 389.56,156.23 390.1,155.95C390.42,155.79 390.48,155.54 390.77,155.37C391.16,155.14 391.62,154.95 392.29,154.79C393.46,154.5 396.75,154.67 397.3,154.21C397.49,154.05 397.31,153.79 397.47,153.63C397.75,153.34 398.74,153.26 399.3,153.05C399.78,152.87 400.21,152.68 400.63,152.48C401.03,152.29 401.19,152.06 401.76,151.9C403.16,151.51 408.47,151.85 409.42,151.32C409.71,151.16 409.74,150.94 409.84,150.74C409.93,150.55 409.82,150.32 410.03,150.16C410.83,149.54 417.58,150.1 418.78,149.58C419.15,149.42 419.04,149.16 419.4,149C420.36,148.57 423.79,148.65 425.53,148.42C426.82,148.25 427.76,148.04 428.9,147.85C430.06,147.66 431.29,147.47 432.42,147.27C433.48,147.08 434.31,146.86 435.51,146.69C437.14,146.46 439.43,146.31 441.33,146.11C443.15,145.92 444.84,145.72 446.69,145.53C448.67,145.33 451.83,145.36 452.85,144.95C453.24,144.79 453.17,144.53 453.57,144.37C454.65,143.94 459.06,144.18 460.26,143.79C460.75,143.63 460.85,143.4 461.21,143.22C461.64,143.01 462.03,142.8 462.67,142.64C463.8,142.35 465.73,142.24 467.48,142.06C469.57,141.85 473.04,141.85 474.36,141.48C474.93,141.32 474.91,141.06 475.52,140.9C477.38,140.41 484.47,140.6 487.35,140.32C489.02,140.16 489.64,139.9 491.3,139.74C494.08,139.46 499.98,139.47 502.5,139.16C503.8,139 504.85,138.9 505.44,138.59C505.75,138.43 505.69,138.17 506.04,138.01C506.99,137.57 510.84,137.74 512.2,137.43C512.9,137.27 512.99,137.01 513.74,136.85C515.58,136.46 520.31,136.47 523.55,136.27C526.72,136.08 530.2,135.91 532.96,135.69C535.13,135.51 536.61,135.29 538.77,135.11C541.5,134.89 545.38,134.76 548.03,134.53C550.04,134.36 552.16,134.27 553.31,133.96C553.91,133.8 553.96,133.54 554.62,133.38C556.33,132.96 561.62,133.05 564.21,132.8C565.98,132.63 567.74,132.54 568.67,132.22C569.13,132.06 569.18,131.8 569.64,131.64C570.54,131.32 573.41,131.49 573.94,131.06C574.14,130.9 573.97,130.64 574.15,130.48C574.52,130.15 575.48,130.07 576.62,129.91C579.1,129.57 586.12,129.69 588.55,129.33C589.64,129.17 589.91,128.91 590.89,128.75C592.5,128.48 595.14,128.36 597.35,128.17C599.66,127.97 602.3,127.8 604.46,127.59C606.27,127.41 607.64,127.19 609.44,127.01C611.55,126.8 613.69,126.6 616.34,126.43C619.95,126.2 625.57,126.08 629.13,125.85C631.69,125.68 633.84,125.51 635.73,125.28C637.17,125.11 638.13,124.88 639.52,124.7C641.23,124.48 642.67,124.28 645.23,124.12C650.43,123.79 662.26,123.77 668.95,123.54C673.87,123.37 677.28,123.15 681.74,122.96C686.63,122.76 692.3,122.59 697.13,122.38C701.42,122.2 705.31,122 709.28,121.8C713.11,121.61 717.52,121.46 720.55,121.22C722.61,121.05 724.18,120.86 725.74,120.65C727.04,120.47 728.48,120.36 729.28,120.07C729.73,119.91 729.74,119.65 730.26,119.49C731.78,119.02 736.96,119.13 739.84,118.91C742.2,118.73 744.8,118.63 746.28,118.33C747.08,118.17 747.22,117.91 748.09,117.75C750.21,117.36 758.17,117.85 759.21,117.17C759.46,117.01 759.23,116.76 759.5,116.59C761.08,115.59 775.99,116.26 782.12,116.02C786.32,115.85 789.41,115.65 792.72,115.44C795.63,115.26 798.43,115.07 800.93,114.86C803.03,114.68 804.4,114.45 806.72,114.28C810.21,114.03 817.57,114.14 819.86,113.7C820.7,113.54 820.81,113.28 821.54,113.12C822.8,112.84 825.33,112.77 826.82,112.54C827.93,112.37 828.6,112.13 829.7,111.96C831.17,111.73 834.12,111.82 834.88,111.39C835.17,111.23 835.06,110.97 835.33,110.81C835.91,110.46 837.87,110.49 838.72,110.23C839.27,110.06 839.33,109.81 840.02,109.65C842.21,109.14 852.1,109.57 854.35,109.07C855.08,108.91 855.08,108.65 855.74,108.49C857.2,108.14 860.9,108.13 863.04,107.91C864.72,107.74 865.57,107.5 867.53,107.34C871.22,107.04 878.02,106.95 883.55,106.76C889.5,106.56 898.26,106.53 902.08,106.18C903.81,106.02 905.22,105.97 905.82,105.6C906.08,105.44 906.05,105.2 906.24,105.02C906.47,104.8 906.62,104.6 907.13,104.44C909.06,103.83 916.57,104.04 922.14,103.86C929.13,103.64 938.87,103.5 945.79,103.28C951.19,103.11 954.66,102.88 960.23,102.71C967.86,102.48 980.48,102.4 987.37,102.13C991.61,101.96 994.18,101.74 997.64,101.55C1001.18,101.35 1006.74,101.47 1008.37,100.97C1008.9,100.81 1008.76,100.56 1009.34,100.39C1012.16,99.58 1033.86,100.81 1036.01,99.81C1036.38,99.64 1036.15,99.4 1036.52,99.23C1039.14,98.02 1062.52,98.85 1074.45,98.65C1085.11,98.47 1096.13,98.31 1104.73,98.08C1111.11,97.91 1116.76,97.74 1121.41,97.5C1124.75,97.33 1127.59,97.15 1130.03,96.92C1131.83,96.75 1132.76,96.5 1134.71,96.34C1137.95,96.07 1141.79,95.92 1147.66,95.76C1160.07,95.42 1189.02,95.41 1205.71,95.18C1218.37,95.01 1231.25,94.9 1239.11,94.6C1243.4,94.44 1244.44,94.18 1249.05,94.02C1259.59,93.65 1291.78,93.89 1301.03,93.45C1304.41,93.29 1305.73,93.07 1307.93,92.87C1309.96,92.68 1311.43,92.46 1313.78,92.29C1317.34,92.04 1322.94,91.91 1327.24,91.71C1331.19,91.52 1335.69,91.39 1338.6,91.13C1340.43,90.96 1341.21,90.72 1343.04,90.55C1345.98,90.28 1352.31,90.34 1354.58,89.97C1355.56,89.81 1355.84,89.56 1356.64,89.39C1357.71,89.16 1358.59,88.98 1360.45,88.82C1365.39,88.4 1376.57,88.41 1387.71,88.24C1405.37,87.98 1446.17,88.24 1456.21,87.66C1459.05,87.5 1459.25,87.24 1461.66,87.08C1466.35,86.77 1476.38,86.72 1482.44,86.5C1487.15,86.33 1489.64,86.08 1495,85.92C1504.52,85.63 1529.2,85.95 1534.65,85.34C1536.09,85.18 1536.51,84.98 1537.34,84.77C1538.06,84.59 1538.34,84.35 1539.35,84.19C1542.19,83.74 1551.89,83.89 1555.91,83.61C1558.23,83.45 1558.84,83.19 1561.37,83.03C1567.1,82.67 1583.7,82.81 1589.51,82.45C1592.13,82.29 1592.5,82.03 1595.19,81.87C1601.68,81.48 1616.32,81.47 1628.55,81.29C1643.49,81.07 1671.26,81.3 1678.36,80.71C1680.31,80.55 1680.2,80.3 1682.06,80.14C1687.58,79.67 1710.19,80.11 1715.17,79.56C1716.64,79.4 1716.44,79.15 1717.99,78.98C1724.95,78.24 1756.19,78.59 1775.77,78.4C1796.01,78.2 1814.59,78 1837.53,77.82C1866.38,77.6 1906.81,77.47 1935.24,77.24C1957.25,77.07 1975.37,76.87 1993.82,76.66C2010.33,76.48 2017.69,76.24 2040.75,76.08C2105.44,75.63 2340.27,75.91 2409.99,75.51C2437.54,75.35 2448.24,75.12 2467.64,74.93C2487.41,74.73 2511.62,74.6 2527.53,74.35C2538.06,74.18 2550.13,74.37 2553.79,73.77C2554.79,73.61 2554.7,73.35 2555.65,73.19C2558.48,72.71 2565.45,72.77 2572.94,72.61C2586.84,72.31 2611.59,72.21 2632.5,72.03C2655.75,71.83 2670.86,71.61 2706.17,71.45C2796.52,71.04 3104.48,71.33 3188.49,70.88C3218.2,70.72 3222.7,70.46 3248.82,70.3C3297.21,70 3361.76,69.88 3455.9,69.72C3657.72,69.38 4293.54,69.9 4407.66,69.14C4432.69,68.97 4439.11,68.77 4453.43,68.56C4466.08,68.38 4472.36,68.14 4489.19,67.98C4529.57,67.6 4684.58,69.47 4695.12,67.4C4696.03,67.22 4695.83,66.98 4696.55,66.82C4698.43,66.4 4702.3,66.41 4707.12,66.25C4717.53,65.91 4733.8,65.83 4756.47,65.67C4806.69,65.31 4945.97,65.42 4998.66,65.09C5024.19,64.93 5035.75,64.7 5055.5,64.51C5076.98,64.31 5100.89,64.13 5122.79,63.93C5143.69,63.74 5161.81,63.53 5184.06,63.35C5210.7,63.14 5248.58,63.02 5271.84,62.77C5287.18,62.6 5298.02,62.4 5310.04,62.2C5320.79,62.02 5328.07,61.79 5340.59,61.62C5360.56,61.36 5386.56,61.21 5418.32,61.04C5468.59,60.78 5545.84,60.65 5613.06,60.46C5685.24,60.26 5790.13,60.23 5837.57,59.88C5859.59,59.72 5862.2,59.46 5885.92,59.3C5951.96,58.85 6184.78,59.09 6260.85,58.72C6294.13,58.56 6303.93,58.31 6332.62,58.14C6375.59,57.89 6445.57,57.79 6493.61,57.57C6532.54,57.39 6551.22,57.15 6599.34,56.99C6702.85,56.64 6951.71,56.65 7088.61,56.41C7187.63,56.24 7253.01,56.01 7344.56,55.83C7450.52,55.62 7557.36,55.42 7687.49,55.25C7859.43,55.02 8115.52,54.9 8286.18,54.67C8413.67,54.5 8544.08,54.4 8620.26,54.09C8659.87,53.93 8676.21,53.68 8710.56,53.51C8756.21,53.28 8817.52,53.13 8870.02,52.94C8921.26,52.75 8945.08,52.52 9021.88,52.36C9263.23,51.85 10147.24,52.05 10521.59,51.78C10745.64,51.62 10872.54,51.39 11058.82,51.2C11260.7,51 11473.39,50.81 11689.82,50.62C11919.18,50.42 12178.03,50.25 12398.46,50.04C12591.28,49.86 12840.7,49.54 12940.7,49.46C12978.94,49.43 13010.44,58.98 13020,49.41517066609486Q13025.41,44 13020,24" style="vector-effect: non-scaling-stroke; fill: none; stroke: rgb(0, 0, 0); stroke-opacity: 1; stroke-width: 5px; opacity: 1;"/></g><g class="points"/><g class="text"/></g></g></g><g class="overplot"/><path class="xlines-above crisp" d="M78,531H700" style="fill: none; stroke-width: 2px; stroke: rgb(0, 0, 0); stroke-opacity: 1;"/><path class="ylines-above crisp" d="M79,50V530" style="fill: none; stroke-width: 2px; stroke: rgb(0, 0, 0); stroke-opacity: 1;"/><g class="overlines-above"/><g class="xaxislayer-above"><path class="xtick ticks crisp" d="M0,532v5" transform="translate(80,0)" style="stroke: rgb(0, 0, 0); stroke-opacity: 1; stroke-width: 3px;"/><path class="xtick ticks crisp" d="M0,532v5" transform="translate(204,0)" style="stroke: rgb(0, 0, 0); stroke-opacity: 1; stroke-width: 3px;"/><path class="xtick ticks crisp" d="M0,532v5" transform="translate(328,0)" style="stroke: rgb(0, 0, 0); stroke-opacity: 1; stroke-width: 3px;"/><path class="xtick ticks crisp" d="M0,532v5" transform="translate(452,0)" style="stroke: rgb(0, 0, 0); stroke-opacity: 1; stroke-width: 3px;"/><path class="xtick ticks crisp" d="M0,532v5" transform="translate(576,0)" style="stroke: rgb(0, 0, 0); stroke-opacity: 1; stroke-width: 3px;"/><path class="xtick ticks crisp" d="M0,532v5" transform="translate(700,0)" style="stroke: rgb(0, 0, 0); stroke-opacity: 1; stroke-width: 3px;"/><g class="xtick"><text text-anchor="middle" x="0" y="563.4" transform="translate(80,0)" style="font-family: Arial; font-size: 22px; fill: rgb(0, 0, 0); fill-opacity: 1; white-space: pre;">0</text></g><g class="xtick"><text text-anchor="middle" x="0" y="563.4" transform="translate(204,0)" style="font-family: Arial; font-size: 22px; fill: rgb(0, 0, 0); fill-opacity: 1; white-space: pre;">20</text></g><g class="xtick"><text text-anchor="middle" x="0" y="563.4" transform="translate(328,0)" style="font-family: Arial; font-size: 22px; fill: rgb(0, 0, 0); fill-opacity: 1; white-space: pre;">40</text></g><g class="xtick"><text text-anchor="middle" x="0" y="563.4" transform="translate(452,0)" style="font-family: Arial; font-size: 22px; fill: rgb(0, 0, 0); fill-opacity: 1; white-space: pre;">60</text></g><g class="xtick"><text text-anchor="middle" x="0" y="563.4" transform="translate(576,0)" style="font-family: Arial; font-size: 22px; fill: rgb(0, 0, 0); fill-opacity: 1; white-space: pre;">80</text></g><g class="xtick"><text text-anchor="middle" x="0" y="563.4" transform="translate(700,0)" style="font-family: Arial; font-size: 22px; fill: rgb(0, 0, 0); fill-opacity: 1; white-space: pre;">100</text></g></g><g class="yaxislayer-above"><path class="ytick ticks crisp" d="M78,0h-5" transform="translate(0,502.25)" style="stroke: rgb(0, 0, 0); stroke-opacity: 1; stroke-width: 3px;"/><path class="ytick ticks crisp" d="M78,0h-5" transform="translate(0,416.6)" style="stroke: rgb(0, 0, 0); stroke-opacity: 1; stroke-width: 3px;"/><path class="ytick ticks crisp" d="M78,0h-5" transform="translate(0,330.95)" style="stroke: rgb(0, 0, 0); stroke-opacity: 1; stroke-width: 3px;"/><path class="ytick ticks crisp" d="M78,0h-5" transform="translate(0,245.3)" style="stroke: rgb(0, 0, 0); stroke-opacity: 1; stroke-width: 3px;"/><path class="ytick ticks crisp" d="M78,0h-5" transform="translate(0,159.65)" style="stroke: rgb(0, 0, 0); stroke-opacity: 1; stroke-width: 3px;"/><path class="ytick ticks crisp" d="M78,0h-5" transform="translate(0,74)" style="stroke: rgb(0, 0, 0); stroke-opacity: 1; stroke-width: 3px;"/><g class="ytick"><text text-anchor="end" x="68.6" y="7.699999999999999" transform="translate(0,502.25)" style="font-family: Arial; font-size: 22px; fill: rgb(0, 0, 0); fill-opacity: 1; white-space: pre;">0</text></g><g class="ytick"><text text-anchor="end" x="68.6" y="7.699999999999999" transform="translate(0,416.6)" style="font-family: Arial; font-size: 22px; fill: rgb(0, 0, 0); fill-opacity: 1; white-space: pre;">0.2</text></g><g class="ytick"><text text-anchor="end" x="68.6" y="7.699999999999999" transform="translate(0,330.95)" style="font-family: Arial; font-size: 22px; fill: rgb(0, 0, 0); fill-opacity: 1; white-space: pre;">0.4</text></g><g class="ytick"><text text-anchor="end" x="68.6" y="7.699999999999999" transform="translate(0,245.3)" style="font-family: Arial; font-size: 22px; fill: rgb(0, 0, 0); fill-opacity: 1; white-space: pre;">0.6</text></g><g class="ytick"><text text-anchor="end" x="68.6" y="7.699999999999999" transform="translate(0,159.65)" style="font-family: Arial; font-size: 22px; fill: rgb(0, 0, 0); fill-opacity: 1; white-space: pre;">0.8</text></g><g class="ytick"><text text-anchor="end" x="68.6" y="7.699999999999999" transform="translate(0,74)" style="font-family: Arial; font-size: 22px; fill: rgb(0, 0, 0); fill-opacity: 1; white-space: pre;">1</text></g></g><g class="overaxes-above"/></g></g><g class="polarlayer"/><g class="ternarylayer"/><g class="geolayer"/><g class="funnelarealayer"/><g class="pielayer"/><g class="sunburstlayer"/><g class="glimages"/><defs id="topdefs-985057"><g class="clips"/></defs><g class="layer-above"><g class="imagelayer"/><g class="shapelayer"/></g><g class="infolayer"><g class="g-gtitle"><text class="gtitle" x="378" y="18" text-anchor="middle" dy="0.7em" style="font-family: Arial; font-size: 25px; fill: rgb(0, 0, 0); opacity: 1; font-weight: normal; white-space: pre;">Sample Size for 80% Power</text></g><g class="g-xtitle" transform="translate(0,-12)"><text class="xtitle" x="390" y="607" text-anchor="middle" style="font-family: Arial; font-size: 22px; fill: rgb(0, 0, 0); opacity: 1; font-weight: normal; white-space: pre;">Number of Samples per Group</text></g><g class="g-ytitle"><text class="ytitle" transform="rotate(-90,25,290)" x="25" y="290" text-anchor="middle" style="font-family: Arial; font-size: 22px; fill: rgb(0, 0, 0); opacity: 1; font-weight: normal; white-space: pre;">Proportion of Compounds with Power >= 80%</text></g></g></svg>