<svg class="main-svg" xmlns="http://www.w3.org/2000/svg" xmlns:xlink="http://www.w3.org/1999/xlink" width="700" height="600" style="" viewBox="0 0 700 600"><rect x="0" y="0" width="700" height="600" style="fill: rgb(255, 255, 255); fill-opacity: 1;"/><defs id="defs-6c9a13"><g class="clips"><clipPath id="clip6c9a13xyplot" class="plotclip"><rect width="620" height="480"/></clipPath><clipPath class="axesclip" id="clip6c9a13x"><rect x="80" y="0" width="620" height="600"/></clipPath><clipPath class="axesclip" id="clip6c9a13y"><rect x="0" y="50" width="700" height="480"/></clipPath><clipPath class="axesclip" id="clip6c9a13xy"><rect x="80" y="50" width="620" height="480"/></clipPath></g><g class="gradients"/></defs><g class="bglayer"/><g class="layer-below"><g class="imagelayer"/><g class="shapelayer"/></g><g class="cartesianlayer"><g class="subplot xy"><g class="layer-subplot"><g class="shapelayer"/><g class="imagelayer"/></g><g class="gridlayer"><g class="x"/><g class="y"><path class="ygrid crisp" transform="translate(0,502.25)" d="M80,0h620" style="stroke: rgb(153, 153, 153); stroke-opacity: 1; stroke-width: 1px;"/><path class="ygrid crisp" transform="translate(0,416.6)" d="M80,0h620" style="stroke: rgb(153, 153, 153); stroke-opacity: 1; stroke-width: 1px;"/><path class="ygrid crisp" transform="translate(0,330.95)" d="M80,0h620" style="stroke: rgb(153, 153, 153); stroke-opacity: 1; stroke-width: 1px;"/><path class="ygrid crisp" transform="translate(0,245.3)" d="M80,0h620" style="stroke: rgb(153, 153, 153); stroke-opacity: 1; stroke-width: 1px;"/><path class="ygrid crisp" transform="translate(0,159.65)" d="M80,0h620" style="stroke: rgb(153, 153, 153); stroke-opacity: 1; stroke-width: 1px;"/><path class="ygrid crisp" transform="translate(0,74)" d="M80,0h620" style="stroke: rgb(153, 153, 153); stroke-opacity: 1; stroke-width: 1px;"/></g></g><g class="zerolinelayer"/><path class="xlines-below"/><path class="ylines-below"/><g class="overlines-below"/><g class="xaxislayer-below"/><g class="yaxislayer-below"/><g class="overaxes-below"/><g class="plot" transform="translate(80, 50)" clip-path="url('#clip6c9a13xyplot')"><g class="scatterlayer mlayer"><g class="trace scatter trace27df69" style="stroke-miterlimit: 2; opacity: 1;"><g class="fills"/><g class="errorbars"/><g class="lines"/><g class="points"><path class="point" transform="translate(0,452.25)" d="M3,0A3,3 0 1,1 0,-3A3,3 0 0,1 3,0Z" style="opacity: 1; stroke-width: 0px; fill: rgb(0, 0, 0); fill-opacity: 0;"/></g><g class="text"/></g><g class="trace scatter trace3ea126" style="stroke-miterlimit: 2; opacity: 1;"><g class="fills"/><g class="errorbars"/><g class="lines"><path class="js-line" d="M11.63,451.65Q11.8,451.28 11.92,451.09C12.05,450.89 12.23,450.69 12.37,450.49C12.5,450.3 12.64,450.13 12.74,449.94C12.84,449.75 12.88,449.53 12.96,449.34C13.04,449.15 13.14,448.97 13.22,448.78C13.3,448.59 13.33,448.37 13.42,448.18C13.52,447.98 13.71,447.82 13.8,447.62C13.88,447.43 13.84,447.21 13.95,447.03C14.08,446.82 14.42,446.68 14.57,446.47C14.7,446.29 14.75,446.07 14.81,445.87C14.86,445.68 14.86,445.5 14.9,445.31C14.94,445.11 15.03,444.91 15.06,444.71C15.09,444.52 15.09,444.35 15.1,444.16C15.12,443.96 15.06,443.74 15.15,443.56C15.26,443.34 15.73,443.22 15.84,443C15.93,442.82 15.86,442.6 15.88,442.4C15.89,442.21 15.89,442.03 15.93,441.84C15.97,441.64 16.06,441.43 16.13,441.24C16.2,441.05 16.25,440.87 16.35,440.69C16.46,440.49 16.67,440.3 16.76,440.09C16.84,439.91 16.82,439.72 16.87,439.53C16.92,439.33 16.98,439.13 17.04,438.93C17.1,438.74 17.16,438.56 17.21,438.37C17.26,438.18 17.28,437.97 17.33,437.78C17.38,437.59 17.45,437.41 17.49,437.22C17.53,437.02 17.56,436.82 17.58,436.62C17.6,436.43 17.57,436.25 17.59,436.06C17.61,435.86 17.63,435.65 17.69,435.46C17.75,435.27 17.9,435.1 17.95,434.91C18,434.72 17.95,434.5 17.99,434.31C18.03,434.12 18.14,433.94 18.17,433.75C18.2,433.56 18.13,433.34 18.18,433.15C18.23,432.95 18.42,432.79 18.47,432.59C18.52,432.4 18.46,432.18 18.49,431.99C18.52,431.8 18.59,431.63 18.65,431.44C18.71,431.24 18.77,431.04 18.83,430.84C18.89,430.64 18.93,430.43 19,430.24C19.07,430.05 19.2,429.87 19.27,429.68C19.34,429.49 19.3,429.26 19.42,429.08C19.56,428.86 20.03,428.74 20.15,428.52C20.24,428.34 20.18,428.12 20.19,427.93C20.2,427.74 20.21,427.56 20.23,427.37C20.25,427.17 20.24,426.96 20.3,426.77C20.36,426.57 20.53,426.4 20.6,426.21C20.67,426.02 20.71,425.81 20.74,425.61C20.77,425.42 20.69,425.22 20.8,425.06C20.96,424.82 21.59,424.68 21.86,424.46C22.07,424.29 22.2,424.1 22.34,423.9C22.48,423.71 22.59,423.5 22.7,423.3C22.8,423.11 22.93,422.94 22.98,422.74C23.03,422.55 22.96,422.33 23.01,422.14C23.06,421.95 23.23,421.78 23.29,421.59C23.35,421.4 23.34,421.19 23.36,420.99C23.38,420.8 23.38,420.62 23.43,420.43C23.48,420.23 23.61,420.03 23.67,419.83C23.73,419.64 23.79,419.46 23.81,419.27C23.83,419.08 23.78,418.87 23.81,418.68C23.84,418.49 23.93,418.31 23.97,418.12C24.01,417.92 24.02,417.71 24.06,417.52C24.1,417.33 24.19,417.15 24.23,416.96C24.27,416.77 24.28,416.56 24.29,416.36C24.3,416.17 24.25,415.99 24.31,415.81C24.37,415.61 24.63,415.42 24.7,415.21C24.76,415.03 24.7,414.84 24.72,414.65C24.74,414.45 24.74,414.23 24.83,414.05C24.93,413.84 25.23,413.69 25.35,413.49C25.46,413.3 25.48,413.09 25.53,412.89C25.58,412.7 25.63,412.53 25.65,412.34C25.67,412.15 25.62,411.93 25.65,411.74C25.68,411.55 25.78,411.37 25.82,411.18C25.86,410.99 25.85,410.78 25.86,410.58C25.87,410.39 25.87,410.21 25.87,410.02C25.87,409.83 25.85,409.63 25.88,409.43C25.91,409.23 26,409.03 26.03,408.83C26.05,408.64 26.02,408.46 26.04,408.27C26.06,408.07 26.12,407.87 26.14,407.67C26.16,407.48 26.15,407.3 26.18,407.11C26.21,406.91 26.28,406.71 26.34,406.51C26.39,406.32 26.48,406.15 26.51,405.96C26.54,405.77 26.5,405.55 26.53,405.36C26.56,405.17 26.65,404.99 26.68,404.8C26.71,404.61 26.67,404.39 26.7,404.2C26.73,404.01 26.78,403.82 26.88,403.64C27,403.43 27.33,403.25 27.44,403.04C27.53,402.86 27.52,402.68 27.57,402.49C27.62,402.29 27.69,402.09 27.72,401.89C27.75,401.7 27.76,401.52 27.77,401.33C27.78,401.13 27.77,400.93 27.8,400.73C27.83,400.54 27.89,400.36 27.93,400.17C27.97,399.98 28.03,399.78 28.05,399.58C28.07,399.39 28.05,399.21 28.07,399.02C28.09,398.82 28.13,398.61 28.19,398.42C28.24,398.23 28.35,398.05 28.4,397.86C28.45,397.67 28.45,397.46 28.47,397.26C28.49,397.07 28.5,396.9 28.52,396.71C28.54,396.51 28.53,396.3 28.6,396.11C28.67,395.91 28.88,395.75 28.94,395.55C29,395.36 28.95,395.15 28.97,394.95C28.98,394.76 29.01,394.58 29.03,394.39C29.05,394.19 29.09,393.99 29.1,393.79C29.11,393.6 29.06,393.42 29.1,393.24C29.15,393.04 29.27,392.83 29.39,392.64C29.51,392.44 29.67,392.27 29.81,392.08C29.96,391.88 30.17,391.69 30.26,391.48C30.33,391.3 30.29,391.11 30.34,390.92C30.4,390.72 30.53,390.53 30.6,390.33C30.66,390.14 30.69,389.96 30.73,389.77C30.77,389.57 30.82,389.37 30.85,389.17C30.88,388.98 30.88,388.8 30.89,388.61C30.91,388.41 30.92,388.21 30.94,388.01C30.95,387.81 30.92,387.6 30.98,387.41C31.04,387.21 31.26,387.06 31.32,386.86C31.38,386.67 31.34,386.46 31.37,386.26C31.4,386.07 31.46,385.89 31.5,385.7C31.54,385.5 31.54,385.29 31.6,385.1C31.65,384.91 31.68,384.71 31.83,384.54C32.04,384.3 32.74,384.18 32.91,383.94C33.03,383.78 32.98,383.58 33.01,383.39C33.04,383.19 33.03,382.98 33.07,382.79C33.11,382.6 33.21,382.42 33.24,382.23C33.27,382.04 33.25,381.83 33.26,381.63C33.27,381.44 33.27,381.26 33.28,381.07C33.29,380.88 33.25,380.67 33.3,380.48C33.36,380.28 33.56,380.12 33.62,379.92C33.68,379.73 33.62,379.51 33.65,379.32C33.68,379.13 33.77,378.95 33.8,378.76C33.83,378.57 33.8,378.36 33.82,378.16C33.84,377.97 33.87,377.8 33.9,377.61C33.93,377.41 33.93,377.2 34.01,377.01C34.09,376.81 34.28,376.65 34.38,376.45C34.48,376.26 34.52,376.04 34.62,375.85C34.73,375.65 34.89,375.48 35.01,375.29C35.13,375.1 35.25,374.89 35.33,374.69C35.4,374.51 35.46,374.33 35.49,374.14C35.52,373.95 35.46,373.73 35.5,373.54C35.54,373.35 35.69,373.17 35.76,372.98C35.83,372.79 35.89,372.58 35.94,372.38C35.98,372.19 36,372.01 36.04,371.82C36.08,371.62 36.14,371.42 36.2,371.23C36.26,371.04 36.29,370.85 36.4,370.67C36.52,370.46 36.85,370.28 36.94,370.07C37.01,369.89 36.89,369.68 36.97,369.51C37.07,369.29 37.5,369.13 37.63,368.91C37.73,368.74 37.74,368.55 37.76,368.36C37.78,368.17 37.73,367.95 37.76,367.76C37.79,367.57 37.9,367.39 37.93,367.2C37.96,367.01 37.95,366.8 37.95,366.6C37.95,366.4 37.89,366.19 37.95,366C38.02,365.8 38.28,365.64 38.39,365.44C38.5,365.25 38.54,365.03 38.62,364.84C38.7,364.65 38.84,364.48 38.89,364.29C38.94,364.1 38.91,363.88 38.95,363.69C38.99,363.5 39.02,363.31 39.14,363.13C39.29,362.91 39.72,362.75 39.83,362.53C39.91,362.36 39.85,362.16 39.85,361.97C39.85,361.78 39.84,361.57 39.85,361.38C39.86,361.19 39.88,361.01 39.92,360.82C39.96,360.62 40.01,360.41 40.08,360.22C40.14,360.03 40.27,359.85 40.31,359.66C40.35,359.47 40.3,359.25 40.32,359.06C40.34,358.87 40.4,358.7 40.43,358.51C40.47,358.31 40.4,358.08 40.53,357.91C40.74,357.65 41.72,357.61 41.9,357.35C42.02,357.18 41.86,356.94 41.91,356.75C41.97,356.55 42.09,356.37 42.25,356.19C42.44,355.98 42.81,355.8 43.01,355.59C43.18,355.41 43.34,355.24 43.42,355.04C43.49,354.85 43.38,354.62 43.48,354.44C43.61,354.22 44.12,354.1 44.26,353.88C44.37,353.7 44.29,353.47 44.38,353.28C44.48,353.08 44.75,352.92 44.88,352.72C45,352.53 45.04,352.32 45.13,352.13C45.22,351.94 45.32,351.76 45.41,351.57C45.5,351.37 45.61,351.17 45.66,350.97C45.7,350.78 45.68,350.6 45.7,350.41C45.72,350.21 45.73,350 45.76,349.81C45.79,349.62 45.74,349.42 45.87,349.26C46.08,349 46.91,348.9 47.22,348.66C47.43,348.49 47.58,348.3 47.65,348.1C47.72,347.91 47.64,347.69 47.67,347.5C47.7,347.31 47.77,347.13 47.82,346.94C47.88,346.74 47.91,346.53 48,346.34C48.09,346.15 48.21,345.97 48.35,345.79C48.51,345.59 48.82,345.41 48.92,345.19C49.01,345 48.97,344.79 48.99,344.59C49.01,344.4 49.01,344.22 49.02,344.03C49.03,343.83 48.96,343.61 49.04,343.43C49.13,343.22 49.43,343.06 49.6,342.87C49.77,342.68 49.91,342.48 50.06,342.28C50.2,342.09 50.38,341.92 50.46,341.72C50.54,341.53 50.52,341.32 50.57,341.12C50.62,340.93 50.7,340.75 50.74,340.56C50.78,340.37 50.74,340.15 50.82,339.96C50.9,339.76 51.13,339.61 51.23,339.41C51.33,339.22 51.34,339 51.43,338.81C51.53,338.61 51.69,338.44 51.81,338.25C51.93,338.06 52.06,337.85 52.14,337.65C52.21,337.46 52.25,337.28 52.28,337.09C52.31,336.89 52.23,336.68 52.29,336.49C52.35,336.29 52.6,336.14 52.67,335.94C52.73,335.75 52.57,335.51 52.69,335.34C52.89,335.07 53.93,335.05 54.2,334.78C54.37,334.61 54.33,334.37 54.43,334.18C54.54,333.98 54.68,333.8 54.84,333.62C55.01,333.42 55.32,333.24 55.43,333.03C55.52,332.85 55.47,332.66 55.51,332.47C55.55,332.27 55.62,332.07 55.65,331.87C55.68,331.68 55.68,331.5 55.69,331.31C55.7,331.11 55.68,330.9 55.72,330.71C55.76,330.52 55.88,330.35 55.93,330.16C55.98,329.97 55.98,329.76 56.02,329.56C56.06,329.37 56.15,329.19 56.18,329C56.21,328.81 56.11,328.58 56.21,328.4C56.34,328.17 56.87,328.06 57.06,327.84C57.21,327.66 57.22,327.43 57.32,327.24C57.42,327.05 57.58,326.88 57.64,326.69C57.7,326.5 57.62,326.28 57.69,326.09C57.76,325.89 58,325.73 58.08,325.53C58.16,325.34 58.16,325.13 58.18,324.93C58.2,324.74 58.12,324.55 58.18,324.37C58.25,324.16 58.52,323.97 58.65,323.77C58.78,323.58 58.9,323.38 58.97,323.18C59.04,323 59.07,322.81 59.09,322.62C59.11,322.42 58.99,322.19 59.1,322.02C59.25,321.78 59.95,321.69 60.19,321.46C60.37,321.29 60.38,321.04 60.54,320.86C60.72,320.65 61.08,320.52 61.25,320.31C61.4,320.13 61.45,319.91 61.54,319.71C61.63,319.52 61.63,319.31 61.8,319.15C62.05,318.9 62.93,318.81 63.1,318.55C63.21,318.39 63.1,318.18 63.11,317.99C63.12,317.79 63.13,317.58 63.15,317.39C63.17,317.2 63.18,317.02 63.25,316.84C63.33,316.64 63.54,316.44 63.66,316.24C63.77,316.05 63.75,315.84 63.93,315.68C64.24,315.41 65.37,315.36 65.63,315.08C65.78,314.92 65.7,314.71 65.77,314.52C65.84,314.32 65.92,314.11 66.07,313.93C66.24,313.72 66.55,313.56 66.78,313.37C67.01,313.18 67.24,312.97 67.45,312.77C67.65,312.58 67.94,312.42 68.04,312.21C68.12,312.03 68.01,311.8 68.07,311.61C68.13,311.41 68.3,311.25 68.4,311.06C68.51,310.87 68.58,310.65 68.7,310.46C68.83,310.26 69.07,310.1 69.17,309.9C69.26,309.71 69.27,309.5 69.3,309.3C69.33,309.11 69.3,308.92 69.36,308.74C69.43,308.54 69.64,308.34 69.72,308.14C69.79,307.96 69.82,307.78 69.84,307.59C69.86,307.4 69.85,307.19 69.86,306.99C69.87,306.8 69.85,306.62 69.88,306.43C69.92,306.23 70.03,306.03 70.08,305.83C70.13,305.64 70.1,305.45 70.2,305.27C70.32,305.06 70.62,304.88 70.81,304.68C70.99,304.49 71.2,304.32 71.31,304.12C71.41,303.93 71.34,303.69 71.47,303.52C71.65,303.28 72.11,303.14 72.47,302.96C72.87,302.76 73.39,302.58 73.78,302.36C74.11,302.17 74.45,301.98 74.67,301.76C74.85,301.59 74.99,301.41 75.07,301.21C75.14,301.02 75.1,300.8 75.15,300.61C75.2,300.42 75.28,300.23 75.39,300.05C75.51,299.85 75.73,299.66 75.83,299.45C75.92,299.27 75.97,299.08 76.01,298.89C76.05,298.7 75.97,298.48 76.04,298.29C76.12,298.09 76.34,297.93 76.48,297.74C76.62,297.55 76.82,297.35 76.89,297.14C76.95,296.96 76.83,296.75 76.93,296.58C77.06,296.35 77.65,296.21 77.79,295.98C77.9,295.81 77.76,295.58 77.88,295.42C78.06,295.17 78.62,295.02 78.99,294.83C79.35,294.64 79.81,294.5 80.07,294.27C80.27,294.09 80.34,293.86 80.5,293.67C80.67,293.47 80.83,293.28 81.06,293.11C81.36,292.89 82.02,292.76 82.18,292.51C82.28,292.35 82.19,292.15 82.21,291.96C82.23,291.76 82.16,291.53 82.3,291.36C82.56,291.06 83.9,291.09 84.2,290.8C84.37,290.63 84.27,290.38 84.4,290.2C84.57,289.98 85.07,289.86 85.22,289.64C85.34,289.46 85.23,289.22 85.35,289.04C85.5,288.82 85.94,288.7 86.15,288.49C86.33,288.31 86.46,288.09 86.57,287.89C86.67,287.71 86.76,287.52 86.8,287.33C86.84,287.14 86.77,286.92 86.84,286.73C86.91,286.53 87.09,286.36 87.24,286.17C87.4,285.97 87.64,285.79 87.75,285.58C87.84,285.4 87.87,285.21 87.9,285.02C87.93,284.83 87.79,284.59 87.9,284.42C88.08,284.15 88.86,284.06 89.3,283.86C89.72,283.67 90.24,283.5 90.5,283.26C90.68,283.09 90.77,282.91 90.85,282.71C90.93,282.52 90.89,282.3 90.97,282.11C91.06,281.91 91.26,281.74 91.39,281.55C91.52,281.36 91.65,281.15 91.76,280.95C91.87,280.75 91.9,280.53 92.06,280.35C92.25,280.13 92.62,279.98 92.89,279.79C93.16,279.6 93.47,279.4 93.7,279.19C93.9,279.01 94.03,278.82 94.23,278.64C94.45,278.44 94.78,278.25 94.97,278.04C95.13,277.86 95.17,277.65 95.34,277.48C95.55,277.26 96.03,277.11 96.21,276.88C96.35,276.71 96.36,276.51 96.44,276.32C96.52,276.13 96.58,275.91 96.71,275.73C96.85,275.53 97.17,275.38 97.26,275.17C97.34,274.99 97.2,274.75 97.28,274.57C97.37,274.36 97.55,274.17 97.82,274.01C98.28,273.73 99.71,273.72 100.02,273.41C100.17,273.25 100.03,273.02 100.16,272.86C100.35,272.62 100.94,272.46 101.28,272.26C101.59,272.08 101.9,271.91 102.13,271.7C102.33,271.52 102.5,271.31 102.61,271.1C102.7,270.92 102.65,270.71 102.77,270.54C102.93,270.31 103.31,270.12 103.63,269.94C103.99,269.73 104.63,269.64 104.86,269.39C105.02,269.22 104.92,268.96 105.08,268.79C105.32,268.54 106,268.45 106.35,268.23C106.64,268.05 106.89,267.84 107.07,267.63C107.22,267.45 107.2,267.23 107.39,267.07C107.68,266.82 108.53,266.73 108.82,266.48C109.01,266.32 108.95,266.08 109.14,265.92C109.46,265.65 110.48,265.58 110.83,265.32C111.05,265.16 111.13,264.96 111.24,264.76C111.34,264.57 111.36,264.35 111.47,264.16C111.59,263.96 111.78,263.79 111.97,263.61C112.19,263.4 112.64,263.24 112.75,263.01C112.84,262.84 112.72,262.64 112.76,262.45C112.8,262.25 112.91,262.04 113.01,261.85C113.11,261.66 113.26,261.48 113.36,261.29C113.46,261.1 113.46,260.87 113.59,260.69C113.74,260.48 114,260.31 114.28,260.14C114.65,259.92 115.21,259.75 115.65,259.54C116.07,259.35 116.31,259.11 116.85,258.94C117.81,258.65 120.57,258.81 121.03,258.38C121.21,258.22 121.05,257.96 121.15,257.78C121.26,257.57 121.49,257.4 121.72,257.22C122,257.01 122.45,256.84 122.74,256.63C122.99,256.45 123.25,256.28 123.39,256.07C123.51,255.89 123.53,255.67 123.58,255.47C123.63,255.28 123.63,255.1 123.69,254.91C123.75,254.71 123.9,254.51 123.95,254.31C124,254.13 123.95,253.94 124.02,253.76C124.11,253.55 124.28,253.34 124.48,253.16C124.73,252.94 125.3,252.84 125.45,252.6C125.56,252.43 125.42,252.18 125.51,252C125.61,251.79 125.91,251.64 126.09,251.44C126.26,251.25 126.42,251.04 126.56,250.84C126.69,250.66 126.83,250.48 126.93,250.29C127.03,250.1 127,249.87 127.14,249.69C127.31,249.47 127.79,249.35 127.99,249.13C128.15,248.95 128.18,248.72 128.3,248.53C128.43,248.33 128.55,248.14 128.74,247.97C128.98,247.75 129.51,247.61 129.65,247.38C129.75,247.21 129.68,247.01 129.71,246.82C129.74,246.62 129.7,246.4 129.81,246.22C129.96,245.99 130.4,245.86 130.65,245.66C130.88,245.47 131.15,245.28 131.26,245.06C131.35,244.89 131.21,244.67 131.33,244.51C131.55,244.23 132.59,244.17 132.89,243.91C133.07,243.75 133.11,243.54 133.19,243.35C133.28,243.16 133.33,242.95 133.4,242.75C133.47,242.56 133.57,242.38 133.62,242.19C133.67,242 133.61,241.77 133.72,241.59C133.86,241.37 134.17,241.21 134.5,241.04C134.95,240.81 135.9,240.71 136.24,240.44C136.44,240.28 136.47,240.07 136.58,239.88C136.69,239.68 136.72,239.45 136.91,239.28C137.2,239.03 138.12,238.99 138.34,238.72C138.48,238.55 138.39,238.32 138.46,238.13C138.53,237.93 138.55,237.69 138.76,237.53C139.18,237.2 141.07,237.32 141.37,236.97C141.51,236.81 141.32,236.55 141.41,236.37C141.53,236.15 141.78,235.97 142.13,235.81C142.79,235.51 144.77,235.55 145.26,235.21C145.48,235.06 145.46,234.84 145.59,234.66C145.74,234.46 145.95,234.25 146.13,234.06C146.31,233.87 146.56,233.71 146.69,233.5C146.81,233.32 146.75,233.07 146.91,232.9C147.16,232.64 148.14,232.61 148.32,232.34C148.43,232.17 148.19,231.9 148.32,231.74C148.58,231.41 149.97,231.41 150.63,231.19C151.15,231.01 151.76,230.85 151.97,230.59C152.1,230.43 151.97,230.19 152.1,230.03C152.3,229.78 152.82,229.61 153.28,229.43C153.88,229.2 155,229.15 155.44,228.87C155.7,228.71 155.66,228.44 155.92,228.28C156.39,227.99 158.03,228.05 158.32,227.72C158.46,227.56 158.31,227.31 158.37,227.12C158.44,226.92 158.52,226.72 158.72,226.56C159.04,226.3 159.83,226.16 160.34,225.96C160.81,225.78 161.25,225.61 161.67,225.41C162.06,225.22 162.23,224.97 162.77,224.81C163.98,224.44 167.72,224.59 169,224.25C169.61,224.09 170.07,223.91 170.29,223.65C170.43,223.49 170.27,223.25 170.44,223.09C170.82,222.74 172.83,222.81 173.36,222.49C173.62,222.33 173.72,222.14 173.82,221.94C173.91,221.75 173.79,221.5 173.97,221.34C174.43,220.92 177.2,221.13 177.93,220.78C178.27,220.62 178.28,220.35 178.56,220.18C178.93,219.95 179.81,219.89 180.05,219.62C180.2,219.45 180.16,219.22 180.21,219.03C180.26,218.84 180.2,218.63 180.33,218.47C180.53,218.22 181.3,218.11 181.56,217.87C181.74,217.7 181.78,217.5 181.9,217.31C182.02,217.11 182.07,216.89 182.27,216.71C182.55,216.46 183.08,216.29 183.55,216.11C184.1,215.9 185.01,215.83 185.39,215.56C185.62,215.39 185.61,215.13 185.82,214.96C186.1,214.73 186.69,214.62 187.02,214.4C187.29,214.22 187.45,213.99 187.69,213.8C187.93,213.6 188.22,213.44 188.45,213.24C188.67,213.05 188.72,212.8 189.03,212.64C189.66,212.31 191.88,212.45 192.41,212.09C192.65,211.93 192.53,211.65 192.77,211.49C193.3,211.13 195.74,211.32 196.08,210.93C196.23,210.77 196.02,210.51 196.11,210.33C196.21,210.12 196.49,209.95 196.73,209.77C197.02,209.56 197.45,209.39 197.74,209.18C197.99,209 198.07,208.78 198.4,208.62C199.04,208.31 201.21,208.39 201.56,208.02C201.71,207.86 201.54,207.63 201.63,207.46C201.75,207.24 202.05,207.03 202.35,206.86C202.74,206.63 203.35,206.5 203.85,206.31C204.35,206.12 204.69,205.88 205.33,205.71C206.38,205.43 208.69,205.45 209.66,205.15C210.2,204.98 210.58,204.79 210.84,204.55C211.03,204.38 210.99,204.15 211.21,203.99C211.61,203.7 212.85,203.64 213.36,203.39C213.68,203.23 213.93,203.05 214.07,202.84C214.19,202.66 214.17,202.44 214.22,202.24C214.27,202.05 214.22,201.84 214.39,201.68C214.78,201.33 216.42,201.29 217.33,201.08C218.12,200.9 219.16,200.82 219.53,200.52C219.73,200.36 219.73,200.13 219.82,199.93C219.9,199.74 219.87,199.53 220.05,199.37C220.39,199.07 221.76,199.06 222.14,198.77C222.35,198.61 222.26,198.37 222.48,198.21C222.93,197.89 224.19,197.79 225.2,197.61C226.45,197.39 228.07,197.26 229.43,197.06C230.71,196.87 232.72,196.86 233.14,196.46C233.3,196.3 233.15,196.07 233.26,195.9C233.4,195.68 233.87,195.53 233.99,195.3C234.09,195.12 233.95,194.88 234.06,194.7C234.2,194.47 234.51,194.3 234.9,194.14C235.58,193.86 236.77,193.71 237.94,193.54C239.49,193.31 242.92,193.49 243.4,192.99C243.56,192.82 243.43,192.59 243.44,192.39C243.45,192.2 243.31,191.99 243.45,191.83C243.84,191.39 246.88,191.53 247.86,191.23C248.38,191.07 248.52,190.83 249,190.67C249.73,190.42 250.84,190.26 251.86,190.08C253.02,189.87 255.04,189.9 255.6,189.52C255.84,189.36 255.72,189.08 255.94,188.92C256.36,188.61 257.92,188.66 258.37,188.36C258.62,188.19 258.56,187.93 258.79,187.76C259.14,187.5 260.02,187.43 260.48,187.21C260.84,187.03 261.14,186.82 261.39,186.61C261.6,186.43 261.77,186.25 261.89,186.05C262,185.86 261.88,185.62 262.1,185.45C262.88,184.85 269.14,185.44 270.13,184.89C270.43,184.72 270.3,184.45 270.57,184.29C271.17,183.93 273.6,184.1 274.21,183.74C274.48,183.58 274.58,183.35 274.66,183.14C274.73,182.96 274.61,182.75 274.71,182.58C274.86,182.34 275.2,182.14 275.68,181.98C276.76,181.61 280.72,181.91 281.33,181.42C281.53,181.26 281.34,180.99 281.52,180.83C281.87,180.51 283.19,180.48 283.93,180.27C284.58,180.09 285.15,179.87 285.72,179.67C286.25,179.48 287.02,179.38 287.25,179.11C287.39,178.94 287.2,178.67 287.37,178.51C287.79,178.11 290.32,178.3 291.01,177.96C291.34,177.8 291.31,177.52 291.64,177.36C292.31,177.03 293.98,176.99 295.15,176.8C296.34,176.61 297.68,176.42 298.72,176.2C299.55,176.03 300.12,175.82 300.92,175.64C301.85,175.43 302.91,175.23 303.96,175.04C305.08,174.84 306.29,174.68 307.44,174.49C308.59,174.3 309.97,174.15 310.86,173.89C311.46,173.72 311.76,173.47 312.33,173.29C313.07,173.06 314.6,173.07 314.96,172.73C315.14,172.57 314.94,172.29 315.13,172.13C315.58,171.73 317.95,171.87 318.73,171.57C319.15,171.41 319.36,171.18 319.62,170.98C319.86,170.8 320.12,170.63 320.25,170.42C320.36,170.24 320.2,169.99 320.42,169.82C321.37,169.07 330.72,169.78 332.57,169.26C333.16,169.09 333.3,168.85 333.67,168.66C334.05,168.47 334.51,168.33 334.82,168.11C335.07,167.93 335.12,167.68 335.41,167.51C335.89,167.24 337.35,167.27 337.6,166.95C337.73,166.79 337.46,166.51 337.61,166.35C338.03,165.89 341.42,166.14 342.33,165.79C342.75,165.63 342.78,165.36 343.16,165.19C343.78,164.92 345.23,164.91 345.85,164.64C346.23,164.47 346.3,164.21 346.69,164.04C347.34,163.76 349.08,163.82 349.53,163.48C349.75,163.32 349.61,163.04 349.84,162.88C350.42,162.47 352.67,162.53 353.96,162.32C355.1,162.14 356.59,162.05 357.19,161.73C357.48,161.57 357.51,161.35 357.72,161.17C357.97,160.96 358.18,160.73 358.62,160.57C359.49,160.24 361.38,160.2 362.84,160.01C364.41,159.81 365.72,159.58 367.72,159.41C370.87,159.15 378.57,159.53 379.93,158.86C380.27,158.69 380.11,158.43 380.44,158.26C381.54,157.71 386.97,157.99 389.03,157.7C390.21,157.53 391.29,157.42 391.77,157.1C392.01,156.94 391.94,156.7 392.17,156.54C392.6,156.24 393.7,156.13 394.49,155.94C395.3,155.74 396.43,155.67 396.98,155.39C397.31,155.22 397.27,154.95 397.66,154.79C398.71,154.34 403.63,154.77 404.3,154.23C404.51,154.06 404.31,153.8 404.48,153.63C404.77,153.34 405.77,153.28 406.33,153.07C406.82,152.89 407.26,152.69 407.69,152.48C408.09,152.29 408.3,152.04 408.84,151.88C409.92,151.55 412.55,151.56 413.98,151.32C415.01,151.15 416.15,151.03 416.63,150.72C416.88,150.56 416.96,150.36 417.06,150.16C417.16,149.97 417.03,149.73 417.25,149.56C418.06,148.93 424.92,149.54 426.15,149.01C426.53,148.84 426.42,148.57 426.79,148.41C427.77,147.97 431.25,148.08 433.02,147.85C434.34,147.68 435.3,147.44 436.46,147.25C437.64,147.05 438.89,146.89 440.04,146.69C441.12,146.5 441.96,146.26 443.18,146.09C444.84,145.85 447.18,145.74 449.11,145.54C450.96,145.35 452.87,145.15 454.55,144.94C455.99,144.76 457.33,144.59 458.57,144.38C459.64,144.2 460.32,143.95 461.56,143.78C463.54,143.51 467.77,143.58 469.33,143.22C470.04,143.06 470.17,142.79 470.82,142.63C471.97,142.34 473.93,142.25 475.71,142.07C477.83,141.86 481.37,141.83 482.71,141.47C483.29,141.31 483.27,141.07 483.89,140.91C485.78,140.43 492.99,140.58 495.93,140.31C497.63,140.15 498.26,139.92 499.95,139.76C502.78,139.49 508.77,139.47 511.34,139.16C512.66,139 513.73,138.91 514.33,138.6C514.65,138.44 514.58,138.16 514.94,138C515.91,137.55 519.83,137.76 521.21,137.44C521.92,137.28 522.01,137 522.78,136.84C524.65,136.44 530.77,136.66 532.76,136.29C533.64,136.13 533.78,135.85 534.62,135.69C536.3,135.36 539.93,135.34 542.33,135.13C544.43,134.95 546.04,134.71 548.24,134.53C551.01,134.31 554.96,134.2 557.66,133.97C559.71,133.8 561.86,133.69 563.04,133.38C563.65,133.22 563.7,132.98 564.37,132.82C566.11,132.41 571.49,132.46 574.13,132.22C575.93,132.05 577.73,131.99 578.67,131.66C579.14,131.5 579.19,131.23 579.66,131.06C580.58,130.73 583.49,130.88 584.03,130.46C584.23,130.31 584.07,130.06 584.25,129.91C584.62,129.59 585.6,129.47 586.76,129.31C589.28,128.95 596.42,129.11 598.89,128.75C600,128.59 600.28,128.32 601.28,128.15C602.92,127.88 605.61,127.78 607.85,127.59C610.2,127.39 612.89,127.2 615.09,126.99C616.93,126.81 617.91,126.6 620.16,126.44C624.63,126.13 635.3,126.12 640.19,125.84C643.03,125.68 644.97,125.51 646.9,125.28C648.37,125.1 648.79,124.85 650.76,124.68C657.09,124.15 685.31,124.74 690.9,124.12C692.4,123.95 692.44,123.69 693.72,123.53C696.33,123.2 702.96,123.27 705.79,122.97C707.35,122.8 707.82,122.54 709.38,122.37C712.26,122.07 717.7,122.01 721.74,121.81C725.64,121.62 730.12,121.45 733.21,121.21C735.31,121.05 737.22,120.94 738.49,120.66C739.24,120.49 739.71,120.27 740.22,120.06C740.64,119.88 741.02,119.71 741.35,119.5C741.63,119.32 741.82,119.09 742.09,118.9C742.39,118.7 742.56,118.5 743.09,118.34C744.64,117.88 749.91,117.95 752.84,117.74C755.24,117.57 757.88,117.49 759.38,117.19C760.2,117.03 760.34,116.75 761.23,116.59C763.39,116.19 771.47,116.73 772.54,116.03C772.8,115.86 772.56,115.61 772.84,115.43C774.46,114.4 789.62,115.12 795.85,114.87C800.12,114.7 803.27,114.48 806.64,114.28C809.6,114.1 812.46,113.93 815,113.72C817.13,113.54 818.52,113.29 820.88,113.12C824.43,112.86 831.91,113.01 834.25,112.56C835.11,112.4 835.23,112.13 835.97,111.96C837.25,111.67 839.82,111.64 841.34,111.41C842.47,111.24 843.15,110.98 844.27,110.81C845.77,110.58 848.76,110.69 849.54,110.25C849.83,110.09 849.73,109.82 850,109.65C850.59,109.29 852.57,109.31 853.44,109.05C854,108.89 854.24,108.66 854.76,108.49C855.46,108.26 856.14,108.05 857.31,107.89C859.83,107.54 867.32,107.8 869.35,107.34C870.08,107.18 870.09,106.9 870.77,106.74C872.26,106.38 875.1,106.34 878.2,106.18C883.4,105.91 893.43,105.82 899.06,105.58C902.9,105.41 905.55,105.21 908.73,105.02C911.83,104.83 915.44,104.67 917.91,104.43C919.6,104.26 920.17,104.03 922.15,103.87C926.69,103.51 937.63,103.48 944.69,103.27C950.95,103.09 956.77,102.91 962.39,102.71C967.52,102.52 971.04,102.28 977.08,102.11C986.8,101.84 1006.3,101.87 1015.15,101.56C1019.89,101.4 1024.4,101.45 1026.06,100.96C1026.6,100.8 1026.46,100.56 1027.05,100.4C1029.93,99.61 1052.01,100.78 1054.19,99.8C1054.56,99.64 1054.33,99.41 1054.71,99.24C1057.38,98.05 1081.16,98.84 1093.3,98.64C1104.15,98.46 1115.36,98.32 1124.11,98.09C1130.6,97.92 1136.35,97.72 1141.08,97.49C1144.48,97.32 1147.37,97.16 1149.85,96.93C1151.68,96.76 1152.62,96.5 1154.61,96.33C1157.9,96.05 1161.4,95.93 1167.79,95.77C1184.75,95.36 1245.46,95.65 1260.84,95.18C1265.92,95.02 1267.46,94.81 1270.96,94.62C1274.73,94.42 1277.59,94.19 1282.69,94.02C1292.24,93.71 1315.83,93.86 1323.85,93.46C1327.17,93.3 1327.69,93.02 1330.87,92.86C1337.56,92.52 1356.34,92.74 1362.07,92.31C1364.26,92.15 1364.73,91.88 1366.59,91.71C1369.58,91.44 1376.02,91.53 1378.33,91.15C1379.33,90.99 1379.62,90.72 1380.43,90.55C1381.52,90.32 1382.85,90.16 1384.31,89.99C1386.19,89.77 1387.74,89.55 1390.79,89.39C1398.07,89 1414.31,89.02 1427.81,88.84C1444.1,88.63 1473.01,88.76 1481.74,88.24C1484.55,88.07 1484.84,87.8 1487.29,87.64C1492.06,87.32 1502.27,87.31 1508.43,87.08C1513.22,86.9 1515.76,86.65 1521.21,86.48C1530.89,86.19 1556,86.55 1561.55,85.92C1563.01,85.75 1563.45,85.54 1564.29,85.33C1565.03,85.15 1565.31,84.93 1566.34,84.77C1569.23,84.33 1579.1,84.45 1583.19,84.17C1585.54,84.01 1586.17,83.77 1588.74,83.61C1594.57,83.26 1611.47,83.35 1617.38,83.01C1620.04,82.86 1620.42,82.61 1623.15,82.46C1629.75,82.09 1644.65,82.04 1657.1,81.86C1672.31,81.64 1692.16,81.51 1707.78,81.3C1721.21,81.12 1739.83,81.27 1745.23,80.7C1746.74,80.54 1746.52,80.3 1748.1,80.14C1755.18,79.42 1786.97,79.73 1806.89,79.54C1827.49,79.34 1846.4,79.16 1869.74,78.99C1899.09,78.77 1940.23,78.61 1969.15,78.39C1991.55,78.22 2009.99,78.04 2028.76,77.83C2045.56,77.65 2060.79,77.43 2076.51,77.23C2091.84,77.04 2103.52,76.83 2121.94,76.67C2150.53,76.42 2188.58,76.25 2231.4,76.08C2292.22,75.84 2402.15,75.84 2452.22,75.52C2478.03,75.36 2491.14,75.11 2510.88,74.92C2531,74.72 2555.63,74.62 2571.81,74.36C2582.53,74.19 2594.82,74.34 2598.54,73.76C2599.55,73.6 2599.46,73.36 2600.42,73.21C2603.3,72.75 2610.39,72.78 2618.02,72.61C2632.17,72.3 2657.35,72.23 2678.62,72.05C2702.28,71.85 2717.65,71.61 2753.58,71.45C2845.52,71.03 3158.86,71.36 3244.34,70.89C3274.57,70.73 3272.41,70.46 3305.73,70.29C3451.77,69.54 4354.53,70.61 4484.85,69.74C4510.75,69.57 4516.85,69.35 4531.42,69.14C4544.3,68.96 4550.69,68.74 4567.81,68.58C4608.9,68.21 4766.6,69.98 4777.34,67.98C4778.27,67.81 4778.07,67.58 4778.8,67.42C4780.71,67.01 4784.65,66.99 4789.55,66.82C4800.14,66.46 4816.7,66.39 4839.76,66.23C4890.85,65.87 5032.58,66.01 5086.19,65.67C5112.16,65.51 5123.93,65.26 5144.02,65.07C5165.88,64.87 5190.21,64.71 5212.5,64.51C5233.77,64.32 5252.2,64.09 5274.84,63.91C5301.94,63.7 5340.48,63.62 5364.15,63.36C5379.76,63.19 5390.79,62.96 5403.02,62.76C5413.96,62.58 5421.36,62.36 5434.1,62.2C5454.42,61.94 5480.88,61.77 5513.2,61.6C5564.35,61.33 5642.94,61.23 5711.34,61.04C5784.78,60.84 5891.51,60.77 5939.78,60.44C5962.18,60.29 5971.63,60.07 5988.98,59.89C6008.47,59.69 6022.32,59.45 6051.04,59.29C6116.19,58.92 6301.59,59.07 6370.47,58.73C6403.4,58.57 6414.3,58.3 6443.49,58.13C6487.21,57.88 6558.42,57.79 6607.3,57.57C6646.92,57.39 6666.3,57.14 6714.88,56.98C6816.86,56.64 7131.16,57.18 7188.96,56.42C7201.9,56.25 7200.92,55.99 7212.71,55.82C7247.02,55.34 7366.81,55.56 7413.98,55.26C7439.56,55.09 7445.35,54.82 7473.15,54.66C7539.48,54.27 7680.7,54.28 7810.04,54.11C7985.68,53.88 8255.16,53.74 8431.25,53.51C8561.51,53.34 8693.65,53.27 8771.17,52.95C8811.47,52.79 8828.1,52.52 8863.05,52.35C8909.5,52.12 8971.88,51.99 9025.3,51.79C9077.44,51.6 9101.67,51.36 9179.82,51.19C9425.4,50.67 10228.84,50.85 10705.77,50.64C11126.71,50.46 11503.63,50.22 11894.45,50.04C12274.75,49.86 12970.88,98.69 13020,49.54477462542329Q13027.4,42.14 13020,24" style="vector-effect: non-scaling-stroke; fill: none; stroke: rgb(0, 0, 0); stroke-opacity: 1; stroke-width: 5px; opacity: 1;"/></g><g class="points"/><g class="text"/></g></g></g><g class="overplot"/><path class="xlines-above crisp" d="M78,531H700" style="fill: none; stroke-width: 2px; stroke: rgb(0, 0, 0); stroke-opacity: 1;"/><path class="ylines-above crisp" d="M79,50V530" style="fill: none; stroke-width: 2px; stroke: rgb(0, 0, 0); stroke-opacity: 1;"/><g class="overlines-above"/><g class="xaxislayer-above"><path class="xtick ticks crisp" d="M0,532v5" transform="translate(80,0)" style="stroke: rgb(0, 0, 0); stroke-opacity: 1; stroke-width: 3px;"/><path class="xtick ticks crisp" d="M0,532v5" transform="translate(204,0)" style="stroke: rgb(0, 0, 0); stroke-opacity: 1; stroke-width: 3px;"/><path class="xtick ticks crisp" d="M0,532v5" transform="translate(328,0)" style="stroke: rgb(0, 0, 0); stroke-opacity: 1; stroke-width: 3px;"/><path class="xtick ticks crisp" d="M0,532v5" transform="translate(452,0)" style="stroke: rgb(0, 0, 0); stroke-opacity: 1; stroke-width: 3px;"/><path class="xtick ticks crisp" d="M0,532v5" transform="translate(576,0)" style="stroke: rgb(0, 0, 0); stroke-opacity: 1; stroke-width: 3px;"/><path class="xtick ticks crisp" d="M0,532v5" transform="translate(700,0)" style="stroke: rgb(0, 0, 0); stroke-opacity: 1; stroke-width: 3px;"/><g class="xtick"><text text-anchor="middle" x="0" y="563.4" transform="translate(80,0)" style="font-family: Arial; font-size: 22px; fill: rgb(0, 0, 0); fill-opacity: 1; white-space: pre;">0</text></g><g class="xtick"><text text-anchor="middle" x="0" y="563.4" transform="translate(204,0)" style="font-family: Arial; font-size: 22px; fill: rgb(0, 0, 0); fill-opacity: 1; white-space: pre;">20</text></g><g class="xtick"><text text-anchor="middle" x="0" y="563.4" transform="translate(328,0)" style="font-family: Arial; font-size: 22px; fill: rgb(0, 0, 0); fill-opacity: 1; white-space: pre;">40</text></g><g class="xtick"><text text-anchor="middle" x="0" y="563.4" transform="translate(452,0)" style="font-family: Arial; font-size: 22px; fill: rgb(0, 0, 0); fill-opacity: 1; white-space: pre;">60</text></g><g class="xtick"><text text-anchor="middle" x="0" y="563.4" transform="translate(576,0)" style="font-family: Arial; font-size: 22px; fill: rgb(0, 0, 0); fill-opacity: 1; white-space: pre;">80</text></g><g class="xtick"><text text-anchor="middle" x="0" y="563.4" transform="translate(700,0)" style="font-family: Arial; font-size: 22px; fill: rgb(0, 0, 0); fill-opacity: 1; white-space: pre;">100</text></g></g><g class="yaxislayer-above"><path class="ytick ticks crisp" d="M78,0h-5" transform="translate(0,502.25)" style="stroke: rgb(0, 0, 0); stroke-opacity: 1; stroke-width: 3px;"/><path class="ytick ticks crisp" d="M78,0h-5" transform="translate(0,416.6)" style="stroke: rgb(0, 0, 0); stroke-opacity: 1; stroke-width: 3px;"/><path class="ytick ticks crisp" d="M78,0h-5" transform="translate(0,330.95)" style="stroke: rgb(0, 0, 0); stroke-opacity: 1; stroke-width: 3px;"/><path class="ytick ticks crisp" d="M78,0h-5" transform="translate(0,245.3)" style="stroke: rgb(0, 0, 0); stroke-opacity: 1; stroke-width: 3px;"/><path class="ytick ticks crisp" d="M78,0h-5" transform="translate(0,159.65)" style="stroke: rgb(0, 0, 0); stroke-opacity: 1; stroke-width: 3px;"/><path class="ytick ticks crisp" d="M78,0h-5" transform="translate(0,74)" style="stroke: rgb(0, 0, 0); stroke-opacity: 1; stroke-width: 3px;"/><g class="ytick"><text text-anchor="end" x="68.6" y="7.699999999999999" transform="translate(0,502.25)" style="font-family: Arial; font-size: 22px; fill: rgb(0, 0, 0); fill-opacity: 1; white-space: pre;">0</text></g><g class="ytick"><text text-anchor="end" x="68.6" y="7.699999999999999" transform="translate(0,416.6)" style="font-family: Arial; font-size: 22px; fill: rgb(0, 0, 0); fill-opacity: 1; white-space: pre;">0.2</text></g><g class="ytick"><text text-anchor="end" x="68.6" y="7.699999999999999" transform="translate(0,330.95)" style="font-family: Arial; font-size: 22px; fill: rgb(0, 0, 0); fill-opacity: 1; white-space: pre;">0.4</text></g><g class="ytick"><text text-anchor="end" x="68.6" y="7.699999999999999" transform="translate(0,245.3)" style="font-family: Arial; font-size: 22px; fill: rgb(0, 0, 0); fill-opacity: 1; white-space: pre;">0.6</text></g><g class="ytick"><text text-anchor="end" x="68.6" y="7.699999999999999" transform="translate(0,159.65)" style="font-family: Arial; font-size: 22px; fill: rgb(0, 0, 0); fill-opacity: 1; white-space: pre;">0.8</text></g><g class="ytick"><text text-anchor="end" x="68.6" y="7.699999999999999" transform="translate(0,74)" style="font-family: Arial; font-size: 22px; fill: rgb(0, 0, 0); fill-opacity: 1; white-space: pre;">1</text></g></g><g class="overaxes-above"/></g></g><g class="polarlayer"/><g class="ternarylayer"/><g class="geolayer"/><g class="funnelarealayer"/><g class="pielayer"/><g class="sunburstlayer"/><g class="glimages"/><defs id="topdefs-6c9a13"><g class="clips"/></defs><g class="layer-above"><g class="imagelayer"/><g class="shapelayer"/></g><g class="infolayer"><g class="g-gtitle"><text class="gtitle" x="378" y="18" text-anchor="middle" dy="0.7em" style="font-family: Arial; font-size: 25px; fill: rgb(0, 0, 0); opacity: 1; font-weight: normal; white-space: pre;">Sample Size for 80% Power</text></g><g class="g-xtitle" transform="translate(0,-11)"><text class="xtitle" x="390" y="607" text-anchor="middle" style="font-family: Arial; font-size: 22px; fill: rgb(0, 0, 0); opacity: 1; font-weight: normal; white-space: pre;">Number of Samples per Group</text></g><g class="g-ytitle"><text class="ytitle" transform="rotate(-90,25,290)" x="25" y="290" text-anchor="middle" style="font-family: Arial; font-size: 22px; fill: rgb(0, 0, 0); opacity: 1; font-weight: normal; white-space: pre;">Proportion of Compounds with Power >= 80%</text></g></g></svg>