<svg class="main-svg" xmlns="http://www.w3.org/2000/svg" xmlns:xlink="http://www.w3.org/1999/xlink" width="700" height="600" style="" viewBox="0 0 700 600"><rect x="0" y="0" width="700" height="600" style="fill: rgb(255, 255, 255); fill-opacity: 1;"/><defs id="defs-c10e5f"><g class="clips"><clipPath id="clipc10e5fxyplot" class="plotclip"><rect width="620" height="480"/></clipPath><clipPath class="axesclip" id="clipc10e5fx"><rect x="80" y="0" width="620" height="600"/></clipPath><clipPath class="axesclip" id="clipc10e5fy"><rect x="0" y="50" width="700" height="480"/></clipPath><clipPath class="axesclip" id="clipc10e5fxy"><rect x="80" y="50" width="620" height="480"/></clipPath></g><g class="gradients"/></defs><g class="bglayer"/><g class="layer-below"><g class="imagelayer"/><g class="shapelayer"/></g><g class="cartesianlayer"><g class="subplot xy"><g class="layer-subplot"><g class="shapelayer"/><g class="imagelayer"/></g><g class="gridlayer"><g class="x"/><g class="y"><path class="ygrid crisp" transform="translate(0,502.25)" d="M80,0h620" style="stroke: rgb(153, 153, 153); stroke-opacity: 1; stroke-width: 1px;"/><path class="ygrid crisp" transform="translate(0,416.6)" d="M80,0h620" style="stroke: rgb(153, 153, 153); stroke-opacity: 1; stroke-width: 1px;"/><path class="ygrid crisp" transform="translate(0,330.95)" d="M80,0h620" style="stroke: rgb(153, 153, 153); stroke-opacity: 1; stroke-width: 1px;"/><path class="ygrid crisp" transform="translate(0,245.3)" d="M80,0h620" style="stroke: rgb(153, 153, 153); stroke-opacity: 1; stroke-width: 1px;"/><path class="ygrid crisp" transform="translate(0,159.65)" d="M80,0h620" style="stroke: rgb(153, 153, 153); stroke-opacity: 1; stroke-width: 1px;"/><path class="ygrid crisp" transform="translate(0,74)" d="M80,0h620" style="stroke: rgb(153, 153, 153); stroke-opacity: 1; stroke-width: 1px;"/></g></g><g class="zerolinelayer"/><path class="xlines-below"/><path class="ylines-below"/><g class="overlines-below"/><g class="xaxislayer-below"/><g class="yaxislayer-below"/><g class="overaxes-below"/><g class="plot" transform="translate(80, 50)" clip-path="url('#clipc10e5fxyplot')"><g class="scatterlayer mlayer"><g class="trace scatter trace83bb63" style="stroke-miterlimit: 2; opacity: 1;"><g class="fills"/><g class="errorbars"/><g class="lines"/><g class="points"><path class="point" transform="translate(0,452.25)" d="M3,0A3,3 0 1,1 0,-3A3,3 0 0,1 3,0Z" style="opacity: 1; stroke-width: 0px; fill: rgb(0, 0, 0); fill-opacity: 0;"/></g><g class="text"/></g><g class="trace scatter trace77f80f" style="stroke-miterlimit: 2; opacity: 1;"><g class="fills"/><g class="errorbars"/><g class="lines"><path class="js-line" d="M10.37,451.67L25.22,449.36L26.15,448.78L26.43,448.2L27.63,447.62L30.93,445.88L33.05,445.31L34.19,442.99L35.37,442.41L36.13,440.1L37.13,439.52L37.56,438.36L39.23,437.78L41.7,435.47L41.97,434.89L42.38,433.73L44.17,433.15L45.11,430.26L45.3,429.68L49.05,427.37L49.18,426.79L49.22,426.21L52.11,425.63L53.84,421L55.51,420.42L56.73,416.95L57.25,416.37L58.26,413.48L59.45,412.9L60.94,408.85L61.82,408.27L63.07,405.95L63.52,405.37L65.61,402.48L66.32,401.9L67.15,400.74L67.22,400.17L69.61,397.85L71.35,397.27L72.76,396.11L72.86,395.54L76.86,390.91L76.94,390.33L78,389.17L78.43,388.59L79.61,386.28L80.56,385.7L82.95,382.8L83.67,382.23L84.41,379.91L85.91,379.33L90.64,375.28L90.72,374.7L91.13,373.54L92.76,372.97L93.89,371.23L95.26,370.65L97.65,368.34L100.47,367.76L100.72,367.18L103.07,366.6L106.87,365.44L107.45,364.86L108.54,362.55L108.6,361.97L111.29,359.66L111.39,359.08L112.32,357.34L113.94,356.76L117.03,353.87L118.37,353.29L119.7,349.82L120.58,349.24L122.37,345.77L122.98,345.19L130.44,339.4L132.56,338.82L134.24,337.66L134.59,337.09L135.88,335.35L136.12,334.77L136.21,334.19L137.39,333.61L139.64,330.72L139.71,330.14L142.51,328.98L144.28,328.4L145.59,327.25L148.6,326.67L150.08,324.35L151.62,323.77L153.39,322.62L153.45,322.04L157.51,319.72L158.24,319.15L163.19,316.83L163.29,316.25L168.91,312.78L169.53,312.2L170.95,309.31L172.23,308.73L178.22,305.26L180.11,304.68L181.4,303.52L183.32,302.94L188.02,300.05L188.29,299.47L189.28,298.31L189.75,297.73L189.8,297.15L191.01,296.58L191.08,296L192.23,295.42L192.42,294.84L193.71,294.26L193.89,293.68L195.4,293.1L196.45,291.37L196.51,290.79L197.73,289.05L198.76,288.47L203.36,287.32L203.66,286.74L205.73,285.58L205.73,285L206.56,282.69L208.42,282.11L210.26,280.37L212.81,279.79L213.23,278.64L214.58,278.06L214.96,277.48L221.2,276.9L225.45,275.74L227.82,275.16L230.2,274.01L231.49,273.43L232.83,272.27L233.61,271.69L237.69,269.38L237.92,268.8L242.19,267.64L242.83,267.06L243.76,266.48L246.41,265.9L249.18,264.75L250.43,264.17L255.21,263.01L255.83,262.43L258.44,260.12L258.85,259.54L260.24,257.8L261.7,257.22L262.51,256.07L265.92,255.49L267.26,254.33L269.3,253.75L270.57,252.01L276.76,251.44L278.68,250.28L284.2,249.7L286.33,248.54L287.13,247.96L290.47,246.81L292.52,246.23L293.18,243.91L293.3,243.33L299.75,241.02L300.27,240.44L304.24,238.7L310.1,238.13L314.4,236.97L314.91,236.39L324.02,234.65L326.43,234.07L328.67,232.92L331.44,232.34L333.57,230.6L334.64,230.02L336.79,227.71L338.48,227.13L339.5,225.97L343.76,225.39L351.78,223.08L351.84,222.5L356.7,221.34L368.12,220.76L369.01,220.18L374.62,219.61L377.51,217.87L379.98,217.29L403.22,213.24L403.82,212.66L408.23,210.35L414.74,209.77L416.09,208.61L417.18,208.03L417.49,207.45L419.7,206.87L420.24,206.3L422.28,205.72L432.98,204.56L436.1,203.98L457.11,202.24L460.1,201.67L467.04,198.77L476.74,198.19L486.6,197.04L487.58,196.46L498.64,194.14L500.95,193.56L502.23,192.99L510.07,192.41L510.1,191.83L511.44,191.25L520.96,189.51L522.19,188.93L523.46,188.36L530.3,187.78L530.67,187.2L540.08,186.62L548.75,185.46L552.78,184.88L572.77,183.73L573.93,183.15L580.47,181.99L587.32,181.41L599.22,179.67L601.88,179.1L630.19,177.36L636.22,176.78L647.92,174.47L655,173.89L670.17,172.15L680.74,171.57L686.6,170.42L695.24,169.84L696.31,169.26L707.95,168.68L726.8,165.79L729.23,165.21L736.84,163.47L742.65,162.89L748.85,161.73L765.93,161.16L769.67,159.42L772.1,158.84L887.45,150.74L891.54,150.16L911.64,148.42L917.53,147.85L1086.78,137.43L1099.05,136.85L3666.92,92.87L3871.39,92.29L13020.000000000002,92.2873433813022L13020,24" style="vector-effect: non-scaling-stroke; fill: none; stroke: rgb(0, 0, 0); stroke-opacity: 1; stroke-width: 2px; opacity: 1;"/></g><g class="points"/><g class="text"/></g></g></g><g class="overplot"/><path class="xlines-above crisp" d="M78,531H700" style="fill: none; stroke-width: 2px; stroke: rgb(0, 0, 0); stroke-opacity: 1;"/><path class="ylines-above crisp" d="M79,50V530" style="fill: none; stroke-width: 2px; stroke: rgb(0, 0, 0); stroke-opacity: 1;"/><g class="overlines-above"/><g class="xaxislayer-above"><path class="xtick ticks crisp" d="M0,532v5" transform="translate(80,0)" style="stroke: rgb(0, 0, 0); stroke-opacity: 1; stroke-width: 3px;"/><path class="xtick ticks crisp" d="M0,532v5" transform="translate(204,0)" style="stroke: rgb(0, 0, 0); stroke-opacity: 1; stroke-width: 3px;"/><path class="xtick ticks crisp" d="M0,532v5" transform="translate(328,0)" style="stroke: rgb(0, 0, 0); stroke-opacity: 1; stroke-width: 3px;"/><path class="xtick ticks crisp" d="M0,532v5" transform="translate(452,0)" style="stroke: rgb(0, 0, 0); stroke-opacity: 1; stroke-width: 3px;"/><path class="xtick ticks crisp" d="M0,532v5" transform="translate(576,0)" style="stroke: rgb(0, 0, 0); stroke-opacity: 1; stroke-width: 3px;"/><path class="xtick ticks crisp" d="M0,532v5" transform="translate(700,0)" style="stroke: rgb(0, 0, 0); stroke-opacity: 1; stroke-width: 3px;"/><g class="xtick"><text text-anchor="middle" x="0" y="563.4" transform="translate(80,0)" style="font-family: Arial; font-size: 22px; fill: rgb(0, 0, 0); fill-opacity: 1; white-space: pre;">0</text></g><g class="xtick"><text text-anchor="middle" x="0" y="563.4" transform="translate(204,0)" style="font-family: Arial; font-size: 22px; fill: rgb(0, 0, 0); fill-opacity: 1; white-space: pre;">20</text></g><g class="xtick"><text text-anchor="middle" x="0" y="563.4" transform="translate(328,0)" style="font-family: Arial; font-size: 22px; fill: rgb(0, 0, 0); fill-opacity: 1; white-space: pre;">40</text></g><g class="xtick"><text text-anchor="middle" x="0" y="563.4" transform="translate(452,0)" style="font-family: Arial; font-size: 22px; fill: rgb(0, 0, 0); fill-opacity: 1; white-space: pre;">60</text></g><g class="xtick"><text text-anchor="middle" x="0" y="563.4" transform="translate(576,0)" style="font-family: Arial; font-size: 22px; fill: rgb(0, 0, 0); fill-opacity: 1; white-space: pre;">80</text></g><g class="xtick"><text text-anchor="middle" x="0" y="563.4" transform="translate(700,0)" style="font-family: Arial; font-size: 22px; fill: rgb(0, 0, 0); fill-opacity: 1; white-space: pre;">100</text></g></g><g class="yaxislayer-above"><path class="ytick ticks crisp" d="M78,0h-5" transform="translate(0,502.25)" style="stroke: rgb(0, 0, 0); stroke-opacity: 1; stroke-width: 3px;"/><path class="ytick ticks crisp" d="M78,0h-5" transform="translate(0,416.6)" style="stroke: rgb(0, 0, 0); stroke-opacity: 1; stroke-width: 3px;"/><path class="ytick ticks crisp" d="M78,0h-5" transform="translate(0,330.95)" style="stroke: rgb(0, 0, 0); stroke-opacity: 1; stroke-width: 3px;"/><path class="ytick ticks crisp" d="M78,0h-5" transform="translate(0,245.3)" style="stroke: rgb(0, 0, 0); stroke-opacity: 1; stroke-width: 3px;"/><path class="ytick ticks crisp" d="M78,0h-5" transform="translate(0,159.65)" style="stroke: rgb(0, 0, 0); stroke-opacity: 1; stroke-width: 3px;"/><path class="ytick ticks crisp" d="M78,0h-5" transform="translate(0,74)" style="stroke: rgb(0, 0, 0); stroke-opacity: 1; stroke-width: 3px;"/><g class="ytick"><text text-anchor="end" x="68.6" y="7.699999999999999" transform="translate(0,502.25)" style="font-family: Arial; font-size: 22px; fill: rgb(0, 0, 0); fill-opacity: 1; white-space: pre;">0</text></g><g class="ytick"><text text-anchor="end" x="68.6" y="7.699999999999999" transform="translate(0,416.6)" style="font-family: Arial; font-size: 22px; fill: rgb(0, 0, 0); fill-opacity: 1; white-space: pre;">0.2</text></g><g class="ytick"><text text-anchor="end" x="68.6" y="7.699999999999999" transform="translate(0,330.95)" style="font-family: Arial; font-size: 22px; fill: rgb(0, 0, 0); fill-opacity: 1; white-space: pre;">0.4</text></g><g class="ytick"><text text-anchor="end" x="68.6" y="7.699999999999999" transform="translate(0,245.3)" style="font-family: Arial; font-size: 22px; fill: rgb(0, 0, 0); fill-opacity: 1; white-space: pre;">0.6</text></g><g class="ytick"><text text-anchor="end" x="68.6" y="7.699999999999999" transform="translate(0,159.65)" style="font-family: Arial; font-size: 22px; fill: rgb(0, 0, 0); fill-opacity: 1; white-space: pre;">0.8</text></g><g class="ytick"><text text-anchor="end" x="68.6" y="7.699999999999999" transform="translate(0,74)" style="font-family: Arial; font-size: 22px; fill: rgb(0, 0, 0); fill-opacity: 1; white-space: pre;">1</text></g></g><g class="overaxes-above"/></g></g><g class="polarlayer"/><g class="ternarylayer"/><g class="geolayer"/><g class="funnelarealayer"/><g class="pielayer"/><g class="sunburstlayer"/><g class="glimages"/><defs id="topdefs-c10e5f"><g class="clips"/></defs><g class="layer-above"><g class="imagelayer"/><g class="shapelayer"/></g><g class="infolayer"><g class="g-gtitle"><text class="gtitle" x="378" y="18" text-anchor="middle" dy="0.7em" style="font-family: Arial; font-size: 25px; fill: rgb(0, 0, 0); opacity: 1; font-weight: normal; white-space: pre;">Sample Size needed for 80%</text></g><g class="g-xtitle" transform="translate(0,-12)"><text class="xtitle" x="390" y="607" text-anchor="middle" style="font-family: Arial; font-size: 22px; fill: rgb(0, 0, 0); opacity: 1; font-weight: normal; white-space: pre;">Number of Samples per Group</text></g><g class="g-ytitle"><text class="ytitle" transform="rotate(-90,25,290)" x="25" y="290" text-anchor="middle" style="font-family: Arial; font-size: 22px; fill: rgb(0, 0, 0); opacity: 1; font-weight: normal; white-space: pre;">Proportion of Compounds with Power >= 80%</text></g></g></svg>