<svg class="main-svg" xmlns="http://www.w3.org/2000/svg" xmlns:xlink="http://www.w3.org/1999/xlink" width="900" height="600" style="" viewBox="0 0 900 600"><rect x="0" y="0" width="900" height="600" style="fill: rgb(255, 255, 255); fill-opacity: 1;"/><defs id="defs-88be37"><g class="clips"><clipPath id="clip88be37xyplot" class="plotclip"><rect width="820" height="480"/></clipPath><clipPath class="axesclip" id="clip88be37x"><rect x="80" y="0" width="820" height="600"/></clipPath><clipPath class="axesclip" id="clip88be37y"><rect x="0" y="50" width="900" height="480"/></clipPath><clipPath class="axesclip" id="clip88be37xy"><rect x="80" y="50" width="820" height="480"/></clipPath></g><g class="gradients"/></defs><g class="bglayer"/><g class="layer-below"><g class="imagelayer"/><g class="shapelayer"/></g><g class="cartesianlayer"><g class="subplot xy"><g class="layer-subplot"><g class="shapelayer"/><g class="imagelayer"/></g><g class="gridlayer"><g class="x"/><g class="y"><path class="ygrid crisp" transform="translate(0,506.58)" d="M80,0h820" style="stroke: rgb(153, 153, 153); stroke-opacity: 1; stroke-width: 1px;"/><path class="ygrid crisp" transform="translate(0,420.07)" d="M80,0h820" style="stroke: rgb(153, 153, 153); stroke-opacity: 1; stroke-width: 1px;"/><path class="ygrid crisp" transform="translate(0,333.55)" d="M80,0h820" style="stroke: rgb(153, 153, 153); stroke-opacity: 1; stroke-width: 1px;"/><path class="ygrid crisp" transform="translate(0,247.03)" d="M80,0h820" style="stroke: rgb(153, 153, 153); stroke-opacity: 1; stroke-width: 1px;"/><path class="ygrid crisp" transform="translate(0,160.51999999999998)" d="M80,0h820" style="stroke: rgb(153, 153, 153); stroke-opacity: 1; stroke-width: 1px;"/><path class="ygrid crisp" transform="translate(0,74)" d="M80,0h820" style="stroke: rgb(153, 153, 153); stroke-opacity: 1; stroke-width: 1px;"/></g></g><g class="zerolinelayer"/><path class="xlines-below"/><path class="ylines-below"/><g class="overlines-below"/><g class="xaxislayer-below"/><g class="yaxislayer-below"/><g class="overaxes-below"/><g class="plot" transform="translate(80, 50)" clip-path="url('#clip88be37xyplot')"><g class="scatterlayer mlayer"><g class="trace scatter traceca6683" style="stroke-miterlimit: 2; opacity: 1;"><g class="fills"/><g class="errorbars"/><g class="lines"><path class="js-line" d="M13.72,456L33.35,453.66L34.59,453.08L34.96,452.49L36.55,451.91L40.91,450.15L43.71,449.57L45.22,447.23L46.78,446.65L47.78,444.31L49.11,443.72L49.67,442.55L51.88,441.97L55.51,439.63L55.58,439.05L56.05,437.88L58.42,437.29L59.29,435.54L59.42,434.96L59.91,433.79L61.74,433.2L64.87,431.45L65.04,430.86L65.09,430.28L68.92,429.69L70.8,426.19L70.9,425.6L72.12,424.43L73.41,423.85L75.9,419.76L75.92,419.17L76.45,418L77.55,417.42L78.87,416.25L79,415.66L82,411.57L83.2,410.99L83.42,409.82L84.41,409.23L85.89,407.48L86.72,406.9L86.77,406.31L87.71,405.73L88.81,404.56L88.9,403.97L92.06,401.63L94.36,401.05L96.23,399.88L96.36,399.3L101.66,394.62L101.76,394.04L103.16,392.87L103.73,392.28L105.29,389.94L106.54,389.36L107.86,387.6L109.32,387.02L111.63,383.51L113.58,382.93L113.62,382.34L114.56,381.76L119.49,378.84L119.88,378.25L120.12,377.08L121.98,376.5L126.03,372.99L127.44,372.41L129.15,371.24L132.88,370.65L133.21,370.07L136.32,369.48L142.11,367.73L142.62,367.14L143.54,365.98L143.56,365.39L143.63,364.81L144.89,364.22L145.59,363.05L147.19,362.47L147.48,361.3L148.55,360.71L151.48,359.55L152.06,358.96L154.78,357.21L155.25,356.62L155.29,356.04L156.56,355.45L158.32,351.95L159.83,351.36L161.1,348.44L161.84,347.85L169.4,342.59L170.42,342.01L177.55,339.67L178.23,339.09L180.03,337.92L180.15,337.33L182.73,335.58L183.01,334.99L184.24,333.24L184.69,332.65L190.76,331.49L190.82,330.9L197.76,327.98L198.27,327.39L198.49,326.81L202.74,326.22L203.37,325.06L205.78,324.47L210.92,322.13L212.46,321.55L215.46,320.38L215.83,319.79L215.97,319.21L217.4,318.63L218.73,317.46L222.15,316.87L222.17,315.7L223.4,315.12L225.49,312.78L225.51,312.19L226.09,311.61L228.86,311.03L230.46,309.27L231.65,308.69L248.67,301.09L249.03,300.5L250.95,299.33L251.02,298.75L254.13,297L254.24,296.41L254.49,295.83L256.06,295.24L256.37,294.07L258.43,293.49L259.83,292.32L259.9,291.73L260.72,290.57L261.51,289.98L262.88,288.81L268.96,288.23L269.36,287.64L272.07,287.06L272.43,284.72L273.11,284.14L273.19,283.55L275.66,282.97L278.08,281.21L281.46,280.63L282.02,280.04L283.76,279.46L284.6,277.71L292.56,277.12L298.18,275.95L301.31,275.37L304.46,274.2L306.16,273.61L307.94,272.44L308.97,271.86L310.36,270.69L314.15,270.11L314.67,268.94L316.05,268.35L321.16,266.6L322.39,266.01L339.69,262.51L341.39,261.92L342.68,259.58L343.47,259L346.55,257.83L347.19,257.24L352.41,256.08L353.47,255.49L357.23,254.32L357.73,253.74L357.85,253.15L366.04,252.57L379.75,250.23L381.33,249.65L387.32,247.89L387.37,247.31L387.91,245.55L390.24,244.97L396.45,243.22L397.12,242.63L410.14,239.71L411.34,239.12L424.19,236.78L424.69,236.2L432.88,234.45L434.69,233.86L439.15,232.11L439.53,231.52L439.63,230.35L442.59,229.77L445.43,227.43L448.87,226.85L454.64,225.68L457.63,225.09L459.13,224.51L465.26,223.92L465.34,223.34L469.61,222.76L471.76,222.17L486.87,221.59L488.04,221L495.21,220.42L495.47,219.83L496.67,219.25L502.56,217.49L507.36,216.91L531.28,213.99L533.29,213.4L536.71,211.65L539.79,211.06L539.92,210.48L548.53,209.89L550.31,208.73L551.75,208.14L552.16,207.56L555.09,206.97L555.8,206.39L558.49,205.8L559.16,205.22L572.65,204.63L576.78,204.05L588.94,203.46L592.93,202.88L603.49,202.29L604.56,201.71L611.8,201.13L616.43,199.96L630.52,199.37L643.02,198.2L643.57,197.62L657.71,195.86L659.49,195.28L689.01,191.77L690.64,191.19L692.32,190.6L701.37,190.02L701.85,189.43L713.13,188.85L714.3,188.27L725.3,187.68L725.76,187.1L731.1,186.51L757.53,185.34L759.07,184.76L761.94,183.59L767.71,183L792.52,180.67L796.03,180.08L833.48,178.33L841.45,177.74L856.93,175.4L866.28,174.82L886.35,173.07L900.33,172.48L908.08,171.31L920.92,170.73L958.06,167.81L958.71,167.22L974.54,164.3L983.55,163.71L1109.97,156.11L1118.4,155.53L1308.5,147.35L1355.48,146.76L1460.08,137.41L1479.21,136.82L1550.34,133.9L1618.46,133.32L13863.91,64.34L14763.04,63.75L17220,63.01456725024977L17220,24" style="vector-effect: non-scaling-stroke; fill: none; stroke: rgb(31, 119, 180); stroke-opacity: 1; stroke-width: 2px; opacity: 1;"/></g><g class="points"/><g class="text"/></g></g></g><g class="overplot"/><path class="xlines-above crisp" d="M78,531H900" style="fill: none; stroke-width: 2px; stroke: rgb(0, 0, 0); stroke-opacity: 1;"/><path class="ylines-above crisp" d="M79,50V530" style="fill: none; stroke-width: 2px; stroke: rgb(0, 0, 0); stroke-opacity: 1;"/><g class="overlines-above"/><g class="xaxislayer-above"><path class="xtick ticks crisp" d="M0,532v5" transform="translate(80,0)" style="stroke: rgb(0, 0, 0); stroke-opacity: 1; stroke-width: 3px;"/><path class="xtick ticks crisp" d="M0,532v5" transform="translate(244,0)" style="stroke: rgb(0, 0, 0); stroke-opacity: 1; stroke-width: 3px;"/><path class="xtick ticks crisp" d="M0,532v5" transform="translate(408,0)" style="stroke: rgb(0, 0, 0); stroke-opacity: 1; stroke-width: 3px;"/><path class="xtick ticks crisp" d="M0,532v5" transform="translate(572,0)" style="stroke: rgb(0, 0, 0); stroke-opacity: 1; stroke-width: 3px;"/><path class="xtick ticks crisp" d="M0,532v5" transform="translate(736,0)" style="stroke: rgb(0, 0, 0); stroke-opacity: 1; stroke-width: 3px;"/><path class="xtick ticks crisp" d="M0,532v5" transform="translate(900,0)" style="stroke: rgb(0, 0, 0); stroke-opacity: 1; stroke-width: 3px;"/><g class="xtick"><text text-anchor="middle" x="0" y="563.4" transform="translate(80,0)" style="font-family: Arial; font-size: 22px; fill: rgb(0, 0, 0); fill-opacity: 1; white-space: pre;">0</text></g><g class="xtick"><text text-anchor="middle" x="0" y="563.4" transform="translate(244,0)" style="font-family: Arial; font-size: 22px; fill: rgb(0, 0, 0); fill-opacity: 1; white-space: pre;">20</text></g><g class="xtick"><text text-anchor="middle" x="0" y="563.4" transform="translate(408,0)" style="font-family: Arial; font-size: 22px; fill: rgb(0, 0, 0); fill-opacity: 1; white-space: pre;">40</text></g><g class="xtick"><text text-anchor="middle" x="0" y="563.4" transform="translate(572,0)" style="font-family: Arial; font-size: 22px; fill: rgb(0, 0, 0); fill-opacity: 1; white-space: pre;">60</text></g><g class="xtick"><text text-anchor="middle" x="0" y="563.4" transform="translate(736,0)" style="font-family: Arial; font-size: 22px; fill: rgb(0, 0, 0); fill-opacity: 1; white-space: pre;">80</text></g><g class="xtick"><text text-anchor="middle" x="0" y="563.4" transform="translate(900,0)" style="font-family: Arial; font-size: 22px; fill: rgb(0, 0, 0); fill-opacity: 1; white-space: pre;">100</text></g></g><g class="yaxislayer-above"><path class="ytick ticks crisp" d="M78,0h-5" transform="translate(0,506.58)" style="stroke: rgb(0, 0, 0); stroke-opacity: 1; stroke-width: 3px;"/><path class="ytick ticks crisp" d="M78,0h-5" transform="translate(0,420.07)" style="stroke: rgb(0, 0, 0); stroke-opacity: 1; stroke-width: 3px;"/><path class="ytick ticks crisp" d="M78,0h-5" transform="translate(0,333.55)" style="stroke: rgb(0, 0, 0); stroke-opacity: 1; stroke-width: 3px;"/><path class="ytick ticks crisp" d="M78,0h-5" transform="translate(0,247.03)" style="stroke: rgb(0, 0, 0); stroke-opacity: 1; stroke-width: 3px;"/><path class="ytick ticks crisp" d="M78,0h-5" transform="translate(0,160.51999999999998)" style="stroke: rgb(0, 0, 0); stroke-opacity: 1; stroke-width: 3px;"/><path class="ytick ticks crisp" d="M78,0h-5" transform="translate(0,74)" style="stroke: rgb(0, 0, 0); stroke-opacity: 1; stroke-width: 3px;"/><g class="ytick"><text text-anchor="end" x="68.6" y="7.699999999999999" transform="translate(0,506.58)" style="font-family: Arial; font-size: 22px; fill: rgb(0, 0, 0); fill-opacity: 1; white-space: pre;">0</text></g><g class="ytick"><text text-anchor="end" x="68.6" y="7.699999999999999" transform="translate(0,420.07)" style="font-family: Arial; font-size: 22px; fill: rgb(0, 0, 0); fill-opacity: 1; white-space: pre;">0.2</text></g><g class="ytick"><text text-anchor="end" x="68.6" y="7.699999999999999" transform="translate(0,333.55)" style="font-family: Arial; font-size: 22px; fill: rgb(0, 0, 0); fill-opacity: 1; white-space: pre;">0.4</text></g><g class="ytick"><text text-anchor="end" x="68.6" y="7.699999999999999" transform="translate(0,247.03)" style="font-family: Arial; font-size: 22px; fill: rgb(0, 0, 0); fill-opacity: 1; white-space: pre;">0.6</text></g><g class="ytick"><text text-anchor="end" x="68.6" y="7.699999999999999" transform="translate(0,160.51999999999998)" style="font-family: Arial; font-size: 22px; fill: rgb(0, 0, 0); fill-opacity: 1; white-space: pre;">0.8</text></g><g class="ytick"><text text-anchor="end" x="68.6" y="7.699999999999999" transform="translate(0,74)" style="font-family: Arial; font-size: 22px; fill: rgb(0, 0, 0); fill-opacity: 1; white-space: pre;">1</text></g></g><g class="overaxes-above"/></g></g><g class="polarlayer"/><g class="ternarylayer"/><g class="geolayer"/><g class="funnelarealayer"/><g class="pielayer"/><g class="sunburstlayer"/><g class="glimages"/><defs id="topdefs-88be37"><g class="clips"/></defs><g class="layer-above"><g class="imagelayer"/><g class="shapelayer"/></g><g class="infolayer"><g class="g-gtitle"><text class="gtitle" x="486.00000000000006" y="18" text-anchor="middle" dy="0.7em" style="font-family: Arial; font-size: 25px; fill: rgb(0, 0, 0); opacity: 1; font-weight: normal; white-space: pre;">Sample Size needed for 80%</text></g><g class="g-xtitle" transform="translate(0,-11.5)"><text class="xtitle" x="490" y="607" text-anchor="middle" style="font-family: Arial; font-size: 22px; fill: rgb(0, 0, 0); opacity: 1; font-weight: normal; white-space: pre;">Number of Samples per Group</text></g><g class="g-ytitle"><text class="ytitle" transform="rotate(-90,25,290)" x="25" y="290" text-anchor="middle" style="font-family: Arial; font-size: 22px; fill: rgb(0, 0, 0); opacity: 1; font-weight: normal; white-space: pre;">Proportion of Compounds with Power >= 80%</text></g></g></svg>