<svg class="main-svg" xmlns="http://www.w3.org/2000/svg" xmlns:xlink="http://www.w3.org/1999/xlink" width="700" height="600" style="" viewBox="0 0 700 600"><rect x="0" y="0" width="700" height="600" style="fill: rgb(255, 255, 255); fill-opacity: 1;"/><defs id="defs-65c4d6"><g class="clips"><clipPath id="clip65c4d6xyplot" class="plotclip"><rect width="620" height="480"/></clipPath><clipPath class="axesclip" id="clip65c4d6x"><rect x="80" y="0" width="620" height="600"/></clipPath><clipPath class="axesclip" id="clip65c4d6y"><rect x="0" y="50" width="700" height="480"/></clipPath><clipPath class="axesclip" id="clip65c4d6xy"><rect x="80" y="50" width="620" height="480"/></clipPath></g><g class="gradients"/></defs><g class="bglayer"/><g class="layer-below"><g class="imagelayer"/><g class="shapelayer"/></g><g class="cartesianlayer"><g class="subplot xy"><g class="layer-subplot"><g class="shapelayer"/><g class="imagelayer"/></g><g class="gridlayer"><g class="x"/><g class="y"><path class="ygrid crisp" transform="translate(0,502.25)" d="M80,0h620" style="stroke: rgb(153, 153, 153); stroke-opacity: 1; stroke-width: 1px;"/><path class="ygrid crisp" transform="translate(0,416.6)" d="M80,0h620" style="stroke: rgb(153, 153, 153); stroke-opacity: 1; stroke-width: 1px;"/><path class="ygrid crisp" transform="translate(0,330.95)" d="M80,0h620" style="stroke: rgb(153, 153, 153); stroke-opacity: 1; stroke-width: 1px;"/><path class="ygrid crisp" transform="translate(0,245.3)" d="M80,0h620" style="stroke: rgb(153, 153, 153); stroke-opacity: 1; stroke-width: 1px;"/><path class="ygrid crisp" transform="translate(0,159.65)" d="M80,0h620" style="stroke: rgb(153, 153, 153); stroke-opacity: 1; stroke-width: 1px;"/><path class="ygrid crisp" transform="translate(0,74)" d="M80,0h620" style="stroke: rgb(153, 153, 153); stroke-opacity: 1; stroke-width: 1px;"/></g></g><g class="zerolinelayer"/><path class="xlines-below"/><path class="ylines-below"/><g class="overlines-below"/><g class="xaxislayer-below"/><g class="yaxislayer-below"/><g class="overaxes-below"/><g class="plot" transform="translate(80, 50)" clip-path="url('#clip65c4d6xyplot')"><g class="scatterlayer mlayer"><g class="trace scatter trace7f6ca7" style="stroke-miterlimit: 2; opacity: 1;"><g class="fills"/><g class="errorbars"/><g class="lines"/><g class="points"><path class="point" transform="translate(0,452.25)" d="M3,0A3,3 0 1,1 0,-3A3,3 0 0,1 3,0Z" style="opacity: 1; stroke-width: 0px; fill: rgb(0, 0, 0); fill-opacity: 0;"/></g><g class="text"/></g><g class="trace scatter trace5c8fb0" style="stroke-miterlimit: 2; opacity: 1;"><g class="fills"/><g class="errorbars"/><g class="lines"><path class="js-line" d="M10.37,451.67L25.22,449.36L26.15,448.78L26.43,448.2L27.63,447.62L30.93,445.88L33.05,445.31L34.19,442.99L35.37,442.41L36.13,440.1L37.13,439.52L37.56,438.36L39.23,437.78L41.27,436.05L41.62,435.47L42.38,433.73L44.17,433.15L45.11,430.26L45.3,429.68L49.05,427.37L49.18,426.79L49.22,426.21L52.11,425.63L53.84,421L55.51,420.42L56.56,417.53L56.73,416.95L57.4,415.21L57.45,414.63L58.27,413.48L59.45,412.9L60.9,409.43L61.82,408.85L63.07,405.95L63.77,405.37L64.43,404.22L64.94,403.64L67.15,400.74L67.22,400.17L69.61,397.85L71.35,397.27L72.76,396.11L72.86,395.54L76.86,390.91L76.94,390.33L78,389.17L78.43,388.59L79.61,386.28L80.56,385.7L82.95,382.8L83.67,382.23L84.41,379.91L85.91,379.33L90.34,375.28L90.64,374.7L90.82,373.54L92.76,372.97L94.49,370.65L95.26,370.07L97.65,368.34L100.47,367.76L100.72,367.18L102.1,366.6L103.07,366.02L106.87,365.44L108.52,363.13L108.53,362.55L108.6,361.39L109.55,360.81L110.08,359.66L111.29,359.08L112.32,356.76L114.47,356.18L114.83,354.45L116.18,353.87L118.95,351.55L119.29,350.97L119.7,349.24L120.64,348.66L121.56,346.34L122.37,345.77L128.08,340.56L128.86,339.98L134.24,337.66L134.76,337.09L136.12,335.35L136.21,334.77L138.16,333.03L138.33,332.46L138.37,331.88L139.3,331.3L140.59,330.14L142.51,329.56L148.6,327.25L148.87,326.67L149.71,324.93L149.91,324.35L150.08,323.77L153.29,323.2L153.39,322.62L154.95,322.04L158.24,319.72L159.48,319.15L162.91,317.99L163.19,317.41L164.1,316.25L164.38,315.67L165.38,313.94L167.97,313.36L167.98,312.78L168.91,312.2L170.49,309.89L170.51,309.31L170.95,308.73L173.04,308.15L176.23,305.26L177.36,304.68L181.4,302.36L183.32,301.78L189.28,297.73L189.75,297.15L189.8,296.58L191.01,296L191.08,295.42L192.23,294.84L192.42,294.26L193.71,293.68L196.45,291.95L196.51,291.37L197.36,289.05L197.73,288.47L203.66,285.58L205.72,285L206.5,282.11L206.56,281.53L208.8,280.37L209.4,279.79L210.57,278.64L212.81,278.06L213.23,277.48L214.58,276.9L214.96,276.32L216.31,275.74L225.4,274.01L225.45,273.43L230.2,271.69L231.49,271.11L232.83,269.95L233.56,269.38L233.61,268.8L234.66,268.22L237.69,267.06L237.92,266.48L242.19,265.32L242.83,264.75L243.76,264.17L246.36,263.59L246.41,263.01L248.94,262.43L250.43,261.85L254.55,261.27L256.84,260.12L258.3,259.54L259.88,256.07L261.7,255.49L262.51,254.33L265.92,253.75L267.26,252.59L269.3,252.01L270.57,250.28L276.76,249.7L277.04,249.12L284.2,248.54L292.52,245.65L292.85,245.07L293.3,242.75L295.06,242.18L299.75,240.44L300.27,239.86L304.24,238.13L305.54,237.55L324.02,234.65L326.43,234.07L328.67,232.92L331.4,232.34L332.33,230.6L334.64,230.02L336.79,227.71L339.39,227.13L351.78,223.66L351.84,223.08L356.7,221.92L368.12,221.34L369.01,220.76L374.62,220.18L377.51,218.45L379.98,217.87L400.58,214.4L401.7,213.82L408.14,210.93L408.23,210.35L414.74,209.19L415.08,208.61L417.18,206.87L417.49,206.3L422.28,204.56L432.98,203.98L436.1,203.4L445.3,202.82L448.31,202.24L457.11,201.67L464.35,199.93L466.08,199.35L476.36,197.61L476.74,197.04L486.6,195.88L489.9,195.3L494.23,194.14L497.29,193.56L498.64,192.99L502.23,192.41L510.1,191.25L515.04,190.67L520.96,189.51L522.19,188.93L523.46,188.36L530.3,187.78L530.67,187.2L540.08,186.62L548.75,185.46L552.78,184.88L572.77,183.73L573.93,183.15L580.47,181.99L587.32,181.41L599.22,179.67L601.88,179.1L630.19,177.36L636.22,176.78L647.92,174.47L655,173.89L670.17,172.15L680.74,171.57L686.6,170.42L696.31,169.84L726.8,166.36L728.37,165.79L730.88,164.05L736.84,163.47L989.35,145.53L1024.88,144.95L1099.05,136.85L1118.43,136.27L1184.49,132.8L1223.71,132.22L11302.82,61.04L11839.61,60.46L13020,60.45981699038844L13020,24" style="vector-effect: non-scaling-stroke; fill: none; stroke: rgb(0, 0, 0); stroke-opacity: 1; stroke-width: 2px; opacity: 1;"/></g><g class="points"/><g class="text"/></g></g></g><g class="overplot"/><path class="xlines-above crisp" d="M78,531H700" style="fill: none; stroke-width: 2px; stroke: rgb(0, 0, 0); stroke-opacity: 1;"/><path class="ylines-above crisp" d="M79,50V530" style="fill: none; stroke-width: 2px; stroke: rgb(0, 0, 0); stroke-opacity: 1;"/><g class="overlines-above"/><g class="xaxislayer-above"><path class="xtick ticks crisp" d="M0,532v5" transform="translate(80,0)" style="stroke: rgb(0, 0, 0); stroke-opacity: 1; stroke-width: 3px;"/><path class="xtick ticks crisp" d="M0,532v5" transform="translate(204,0)" style="stroke: rgb(0, 0, 0); stroke-opacity: 1; stroke-width: 3px;"/><path class="xtick ticks crisp" d="M0,532v5" transform="translate(328,0)" style="stroke: rgb(0, 0, 0); stroke-opacity: 1; stroke-width: 3px;"/><path class="xtick ticks crisp" d="M0,532v5" transform="translate(452,0)" style="stroke: rgb(0, 0, 0); stroke-opacity: 1; stroke-width: 3px;"/><path class="xtick ticks crisp" d="M0,532v5" transform="translate(576,0)" style="stroke: rgb(0, 0, 0); stroke-opacity: 1; stroke-width: 3px;"/><path class="xtick ticks crisp" d="M0,532v5" transform="translate(700,0)" style="stroke: rgb(0, 0, 0); stroke-opacity: 1; stroke-width: 3px;"/><g class="xtick"><text text-anchor="middle" x="0" y="563.4" transform="translate(80,0)" style="font-family: Arial; font-size: 22px; fill: rgb(0, 0, 0); fill-opacity: 1; white-space: pre;">0</text></g><g class="xtick"><text text-anchor="middle" x="0" y="563.4" transform="translate(204,0)" style="font-family: Arial; font-size: 22px; fill: rgb(0, 0, 0); fill-opacity: 1; white-space: pre;">20</text></g><g class="xtick"><text text-anchor="middle" x="0" y="563.4" transform="translate(328,0)" style="font-family: Arial; font-size: 22px; fill: rgb(0, 0, 0); fill-opacity: 1; white-space: pre;">40</text></g><g class="xtick"><text text-anchor="middle" x="0" y="563.4" transform="translate(452,0)" style="font-family: Arial; font-size: 22px; fill: rgb(0, 0, 0); fill-opacity: 1; white-space: pre;">60</text></g><g class="xtick"><text text-anchor="middle" x="0" y="563.4" transform="translate(576,0)" style="font-family: Arial; font-size: 22px; fill: rgb(0, 0, 0); fill-opacity: 1; white-space: pre;">80</text></g><g class="xtick"><text text-anchor="middle" x="0" y="563.4" transform="translate(700,0)" style="font-family: Arial; font-size: 22px; fill: rgb(0, 0, 0); fill-opacity: 1; white-space: pre;">100</text></g></g><g class="yaxislayer-above"><path class="ytick ticks crisp" d="M78,0h-5" transform="translate(0,502.25)" style="stroke: rgb(0, 0, 0); stroke-opacity: 1; stroke-width: 3px;"/><path class="ytick ticks crisp" d="M78,0h-5" transform="translate(0,416.6)" style="stroke: rgb(0, 0, 0); stroke-opacity: 1; stroke-width: 3px;"/><path class="ytick ticks crisp" d="M78,0h-5" transform="translate(0,330.95)" style="stroke: rgb(0, 0, 0); stroke-opacity: 1; stroke-width: 3px;"/><path class="ytick ticks crisp" d="M78,0h-5" transform="translate(0,245.3)" style="stroke: rgb(0, 0, 0); stroke-opacity: 1; stroke-width: 3px;"/><path class="ytick ticks crisp" d="M78,0h-5" transform="translate(0,159.65)" style="stroke: rgb(0, 0, 0); stroke-opacity: 1; stroke-width: 3px;"/><path class="ytick ticks crisp" d="M78,0h-5" transform="translate(0,74)" style="stroke: rgb(0, 0, 0); stroke-opacity: 1; stroke-width: 3px;"/><g class="ytick"><text text-anchor="end" x="68.6" y="7.699999999999999" transform="translate(0,502.25)" style="font-family: Arial; font-size: 22px; fill: rgb(0, 0, 0); fill-opacity: 1; white-space: pre;">0</text></g><g class="ytick"><text text-anchor="end" x="68.6" y="7.699999999999999" transform="translate(0,416.6)" style="font-family: Arial; font-size: 22px; fill: rgb(0, 0, 0); fill-opacity: 1; white-space: pre;">0.2</text></g><g class="ytick"><text text-anchor="end" x="68.6" y="7.699999999999999" transform="translate(0,330.95)" style="font-family: Arial; font-size: 22px; fill: rgb(0, 0, 0); fill-opacity: 1; white-space: pre;">0.4</text></g><g class="ytick"><text text-anchor="end" x="68.6" y="7.699999999999999" transform="translate(0,245.3)" style="font-family: Arial; font-size: 22px; fill: rgb(0, 0, 0); fill-opacity: 1; white-space: pre;">0.6</text></g><g class="ytick"><text text-anchor="end" x="68.6" y="7.699999999999999" transform="translate(0,159.65)" style="font-family: Arial; font-size: 22px; fill: rgb(0, 0, 0); fill-opacity: 1; white-space: pre;">0.8</text></g><g class="ytick"><text text-anchor="end" x="68.6" y="7.699999999999999" transform="translate(0,74)" style="font-family: Arial; font-size: 22px; fill: rgb(0, 0, 0); fill-opacity: 1; white-space: pre;">1</text></g></g><g class="overaxes-above"/></g></g><g class="polarlayer"/><g class="ternarylayer"/><g class="geolayer"/><g class="funnelarealayer"/><g class="pielayer"/><g class="sunburstlayer"/><g class="glimages"/><defs id="topdefs-65c4d6"><g class="clips"/></defs><g class="layer-above"><g class="imagelayer"/><g class="shapelayer"/></g><g class="infolayer"><g class="g-gtitle"><text class="gtitle" x="378" y="18" text-anchor="middle" dy="0.7em" style="font-family: Arial; font-size: 25px; fill: rgb(0, 0, 0); opacity: 1; font-weight: normal; white-space: pre;">Sample Size needed for 80%</text></g><g class="g-xtitle" transform="translate(0,-11.984537124633789)"><text class="xtitle" x="390" y="607" text-anchor="middle" style="font-family: Arial; font-size: 22px; fill: rgb(0, 0, 0); opacity: 1; font-weight: normal; white-space: pre;">Number of Samples per Group</text></g><g class="g-ytitle"><text class="ytitle" transform="rotate(-90,25,290)" x="25" y="290" text-anchor="middle" style="font-family: Arial; font-size: 22px; fill: rgb(0, 0, 0); opacity: 1; font-weight: normal; white-space: pre;">Proportion of Compounds with Power >= 80%</text></g></g></svg>